<mxfile host="app.diagrams.net" agent="Mozilla/5.0 (Windows NT 10.0; Win64; x64) AppleWebKit/537.36 (KHTML, like Gecko) Chrome/134.0.0.0 Safari/537.36 Edg/134.0.0.0" version="26.1.1">
  <diagram name="第 1 页" id="SpVqbFF3rljmZEibNole">
    <mxGraphModel dx="1026" dy="475" grid="1" gridSize="10" guides="1" tooltips="1" connect="1" arrows="1" fold="1" page="1" pageScale="1" pageWidth="827" pageHeight="1169" math="0" shadow="0">
      <root>
        <mxCell id="0" />
        <mxCell id="1" parent="0" />
        <mxCell id="PQkRThv6WTqRLkvPn96M-21" value="&lt;span style=&quot;white-space: pre;&quot;&gt;&#x9;&lt;/span&gt;Postfix" style="rounded=0;whiteSpace=wrap;html=1;fillColor=none;opacity=50;strokeColor=#808080;align=left;" parent="1" vertex="1">
          <mxGeometry x="160" y="20" width="200" height="120" as="geometry" />
        </mxCell>
        <mxCell id="PQkRThv6WTqRLkvPn96M-2" value="MUA" style="shape=image;verticalLabelPosition=bottom;labelBackgroundColor=default;verticalAlign=top;aspect=fixed;imageAspect=0;image=data:image/png,iVBORw0KGgoAAAANSUhEUgAABLAAAALTCAYAAAAGkfsBAAAAAXNSR0IArs4c6QAAIABJREFUeF7s3QV8VFfePvBnJA5JIAIJ7lK0xd2h0JZSV6hA3Wh5//uudN+1ypZ6u1uqW2+htFvFXYpbcScQIEJcx/+f3xkSkhCZmUxGn/N5+5Ytd+4953suzM1zj2iGDh1qQx3FZrMhLCwcTZo0QfPmybiiZy+0adMOrVu3QXxCIkJCQuo6BX8/wAQiwvUI0esCrFVsDgUoQAEKUIACFKAABShAAQpQgAK+KKCpKcCS0EqKPiQE/fsPwoRJk9G6dVvExcVDo9H4YltYJw8KMMDyIDYvRQEKUIACFKAABShAAQpQgAIUCHKBWgOsdu3a45HHZ6Nz525BzsTmVxVggMV7ggIUoAAFKEABClCAAhSgAAUoQAFPCVQbYMmUwGuvuwE333onIiIiPFUXXsePBBhg+VFnsaoUoAAFKEABClCAAhSgAAUoQAE/F7gswLJYLJh+z0zceNNt0Gq1ft48Vr+hBBhgNZQsz0sBClCAAhSgAAUoQAEKUIACFKBAVYFKAZZOr8ett92FW269k1IUqFWAARZvEApQgAIUoAAFKEABClCAAhSgAAU8JaACrLIF26+degPuu/8hjrzylL4fX4cBlh93HqtOAQpQgAIUoAAFKEABClCAAhTwMwEVYFmtVnTo2Al/f24uGjVq7GdNYHW9IcAAyxvqvCYFKEABClCAAhSgAAUoQAEKUCA4BVSApdfr8cI/X0Onzl2DU4GtdlqAAZbTZPwABShAAQpQgAIUoAAFKEABClCAAi4KaIYMGWIbOHAI/vDs31w8BT8WjAIMsIKx19lmClCAAhSgAAUoQAEKUIACFKCAdwQ0I0eNsv3u939G//6DvFMDXtUvBRhg+WW3sdIUoAAFKEABClCAAhSgAAUoQAG/FNBMm3aD7bkXXkVCYqJfNoCV9o4AAyzvuPOqFKAABShAAQpQgAIUoAAFKECBYBTQPPHk07Y//fnv0Gg0wdh+ttlFAQZYLsLxYxSgAAUoQAEKUIACFKAABShAAQo4LaCZ9+5Hthtvvs3pD/IDwS3AACu4+5+tpwAFKEABClCAAhSgAAUoQAEKeFJA89Mvy22DBg/15DV5rQAQYIAVAJ3IJlCAAhSgAAUoQAEKUIACFKAABfxEQLNn7xFbcouWflJdVtNXBBhg+UpPsB4UoAAFKEABClCAAhSgAAUoQIHAF9CcTcu1hYaGBn5L2UK3CjDAcisnT0YBClCAAhSggB8K2GxSafX/VLn0Kz9sDKtMAQpQgAIU8HEBTWZ2Mb9rfbyTfLF6DLB8sVdYJwpQgAIUoAAFGkrAZrPBYrXBevEf+d9WeYq22VRwJWGW+hWfrBuqC3heClCAAhQIcgEGWEF+A7jafAZYrsrxcxSgAAUoQAEK+IuAhFJGswVmk0WFVywUoAAFKEABCnhPgAGW9+z9+soMsPy6+1h5ClCAAhSgAAWqEZCIymKxqn/M6t8MrXijUIACFKAABXxFgAGWr/SEn9WDAZafdRirSwEKUIACFKBAjQISU5nMFphMVlitVjUdkIUCFKAABShAAd8SYIDlW/3hN7VhgOU3XcWKUoACFKAABShQg4CsZ2WyWGEyWdTaViwUoAAFKEABCviuAAMs3+0bn64ZAyyf7h5WjgIUoAAFKECBWgRkAXaDyQKzWUZcMbjizUIBClCAAhTwBwEGWP7QSz5YRwZYPtgprBIFKEABClCAArUKyNRAs8WCUoMFEmKxUIACFKAABSjgPwIMsPynr3yqpgywfKo7WBkKUIACFKAABeoQkEXZjUaLWpydhQIUoAAFKEAB/xNggOV/feYTNWaA5RPdwEpQgAIUoAAFKOCAQKnRrMIrFgpQgAIUoAAF/FeAAZb/9p1Xa84Ay6v8vDgFKEABClCAAg4IWCxWGDjqygEpHkIBClCAAhTwfQEGWL7fRz5ZQwZYPtktrBQFKEABClCAAhcFTGYrSg0mcKkr3hIUoAAFKECBwBBggBUY/ejxVjDA8jg5L0gBClCAAhSggAMCsjS7yWSBwWhmeOWAFw+hAAUoQAEK+IsAAyx/6SkfqycDLB/rEFaHAhSgAAUoQAG1s6Csd2UycaF23g4UoAAFKECBQBNggBVoPeqh9jDA8hA0L0MBClCAAhSggEMCMlWw1GCGyczF2h0C40EUoAAFKEABPxNggOVnHeYr1WWA5Ss9wXpQgAIUoAAFKGC12lR4ZbZw5BXvBgpQgAIUoECgCjDACtSebeB2McBqYGCengIUoAAFKEABhwWKS00wmxleOQzGAylAAQpQgAJ+KMAAyw87zReqzADLF3qBdaAABShAAQoEtwCnDQZ3/7P1FKAABSgQXAIMsIKrv93WWgZYbqPkiShAAQpQgAIUcFHAYDDDYOKaVy7y8WMUoAAFKEABvxJggOVX3eU7lWWA5Tt9wZpQgAIUoAAFglHAZLai1GCCjMJioQAFKEABClAg8AUYYAV+HzdICxlgNQgrT0oBClCAAhSggAMCslh7SakZNqZXDmjxEApQgAIUoEBgCDDACox+9HgrGGB5nJwXpAAFKEABClAAgNVmQ3GJCbLzIAsFKEABClCAAsEjwAArePrarS1lgOVWTp6MAhSgAAUoQAEHBUqNZhiNXPfKQS4eRgEKUIACFAgYAQZYAdOVnm0IAyzPevNqFKAABShAAQoAMnVQRl+xUIACFKAABSgQfAIMsIKvz93SYgZYbmHkSShAAQpQgAIUcFCAUwcdhOJhFKAABShAgQAVYIAVoB3b0M1igNXQwjw/BShAAQpQgAIVBQxGMwycOsibggIUoAAFKBC0Agywgrbr69dwBlj18+OnKUABClCAAhRwXEB2GywqNqkF3FkoQAEKUIACFAhOAQZYwdnv9W51IAVYNpsVVpMJ5uIiWA0GWC0WaLRa6EJCoYuIUP9oNNp6mzXoCWw22GwG2CxFgNUIwAZodNBoQgBdFKAJ8f02NCgQT04BClCAAv4sUGIwwWSy+nMTWHcKUIACFKAABeopwACrnoDB+vFACbBsFgsMebnIO3IA59evRvaBvTDm5yMkMhKNWrdFswFD0HzoSIQ1aQqNTu+b3W0zw2rOhzl/J4wXVsJafBI2Syk0YQnQR7RFSNwo6Bp1g1Yfo0ItFgpQgAIUoIA/CVgsNhSVyMsZFgpQgAIUoAAFglmAAVYw93492h4IAZaMvCo+l4qURT8gdeVSlGZmwFxUeGkEVlg4IhIS0WL0eLQYOwnR7TtBFxoKaDT1kHPnR22wWQ2wFh+H8cJyGLPXwlqaDpu1FLBZodGGANoIaMMSEBo/EWGJV0Mb1gLw9dFk7iTiuShAAQpQwO8FSgxmmEwWv28HG0ABClCAAhSgQP0EGGDVzy9oPx0IAZapqAipKxbhwLtvoeRCBmC9fGqCTB0MjY5GbLcr0HXmo2jSuTv0ERE+EGLZYLOUwFx4ACWn34O16JAahYVq1wbRQhcWj7AW0xGaOBnakLigvW/ZcApQgAIU8C8Bq9WG4hKufeVfvcbaUoACFKAABRpGgAFWw7gG/Fn9PsCy2ZC2ZSMOvv82cvb/BqvZXHOfaTQqtIrp1AUtRk9Aq7GTEJ7YzGtTCm0WMywlaTDlrYApcyXMRUcBa0mt95xGo4e+cS+Et3kIIbEDAPjKKLKA/6PCBlKAAhSgQD0EDCYLDIZavqPrcW5+lAIUoAAFKEAB/xJggOVf/eUztfX3AMtSWoLjC7/C/n+/CovRsXU1NDodIpsnofOUa5E84TqEt2rj8RBLwqvS06dQdOQn6KKXwWZOA+DIorYaaLRhiGz3FMKaTQN04T5zL7EiFKAABShAgZoECoqNsFl9a+dBo9GA7du2YOOv63D0yKHyqrdp0x5DhgxH/wGD0ahRI3YqBShAAQpQgAJuFmCA5WbQYDmdvwdYxRlpOPrFRzj6xcdOdZlOr0fLTu0R17M34sZMRlTXntBFNlK7FjZksVmtsBQVovDQHmStWgSbYR9ih56FNtS5NUEiWt6DsBZ3Qhua2JDVdfjcsi26Vdomo8osFpSWGmAwGGA0GGAwGREWGobo6GiEhoZCq9NCp9VB+kDrM+uQOdxUrx4ozmazGNtHMeh0euj1emiqONr74tI9Jb8vx7FQgAIU8IaAyWxFSanJG5e+7JrZ2VnYtWs7Nm/aiCNHDsFkqvnlV0hICNq374iBg4aif/9BiIuL94k2sBIUoAAFKEABfxdggOXvPeil+vt7gJWfcgJHPv0Ap35Y6JSgTqtFQkI0oqKjEdGmA2IHj0STQaMQ1izZqfM4e7Ah7Sxyt6xBzqY1KEk5gbBmxUiYUgJduHNvpcOb34SwljOgi2jtbBXcfryEKsXFxUjPSMfhQwdx6tRJZGVnw1BqgPlioKXX6REWForYJk2QmJCIdu3bo3OnLmjSpMll4YvbKxhAJywtLcXu3btw4OB+6DRadOnSFT169rpshMCZ1NM4ffqMCrtgA+IT4tG5U2fID2MsFKAABTwpIEs6Snhltjgyyrhha7Zv32/49NMPcP7c2Uohf11X1ep0SEhIxF133YurrpLp+ywUoAAFKEABCtRHgAFWffSC+LN+H2CdPI7Dn76HlJ/+61QvlgVYEWGhkCmFYc1aIHbAMDQZMhrhrdpBGxrmvgXeZXSS0YCS0yeQ++tq5G7dAEPGOdgsFkS0trgUYIU1n4bwlvdAF9HWqXa782AJR/Ly8rD/wD7s378PGenpSEtPh7zdLikpUSOyqpbw8HA0atQYTeOaomVyS3Tu3AU9evRAcnILFa5UHUnkzvr6+7nEdMuWTVi6dCkkoJLSsmUrXHfdVPTu1QdRUVHlTVy9eiWWLluq+kFK3z59ccONN6Fxo8Y09vcbgfWngJ8JqMXbS02Qf3uryKjV3/bsxjvvvIHCwgKXqxEV1Qj33vcABg4cCp1O5/J5+EH/FbCPbpZ7WcN7oI5uFCt5rtNWM7uhzNH++/yz5L9/IlhzCrguwADLdbug/iQDrFB7/2s0CI2NQ1SX7mgyYgKiew+ETnYpdEOxlBQjf9dm5KxfjqIjB2DMzS7fZdBfAyyjyYRjR49g/fr1ajRQauoZNWXQmSJT2uLj4tGhQ0f0798fQ4YMQ0REBAOWGhAzMzPx1ttvYO/e32Ay2afihIWFYdTI0Zg6dRpat7aPxpMRcd9//x3mL/gahYWF6r8NHTYcDz/4MKJjYjlt05mblMdSgAL1FjCbrSrA8laRH5SXL1uEr7767LLpgvKDdYsWrdBTlhOIT0BMTCwKCvKRdeECDhzYi5SUk5eN1AoLC8f119+EKddcz6nZ3upUL11XRkF//918Neo8JiYG1069SS2NwHK5wM4dW/Hbnl3qOWXs+KuRmNis/CDxW770F2RlXUBScgtMmDhZLYnAQgEKBJcAA6zg6m+3tZYBVuUHD21oKCI7dEXskDGI6dMfYUktoXHxzZCMsDKkpSJ/z1bkbFiJ4hNHYK2y0Lw/Bli5uTnYvWcPNqxfB5mOUVRcrEITKfImTf4JCw1FdHQMoi4ufms0GtVooKKiQsiv5fiyz0iQ1bpVKwwbNgIDBgxEmzZtGWJV8yc8Le08/vHc35GScqrcTkatde/eHXfdOQPdunVjgOW2vxl5IgpQwF0CpQYzjCbn1nl017XlPAcO7MNL//yb+u4pKxJcJSQ0w/QZ96Nv337VXk6+ow4dOoAPP/g30tLSYLVeakNoaBgeefQpDBgw2J1VbbBzyTpfJqNJTSsvKi6E1F+COL1ep35d3QiZBquMH59YnmFefunvyM/LQ3xCImY/83uEh7vnZacfs1xW9XNnz+DN118qf9kmf05uuvXO8pAqPz8P77/7NuS4jp26YOYDj3GJg0C6AdgWCjgoEHAB1o4d25GZmeFg8z132KRJkz13MQ9ciQFWNW/OtFqEJiahyYBhaDpsPCLadoBG79zaQTazCSUnjyF7/XLkbt8IY8Z5yALuVYu/BVj5+fnYtOlXLF78C06lnLKvsXSxyOip9u3ao1279oiLi0NsbGz5tDYZsVVaUoLsnBxkZmTgxMkTOJN6Ri3yLkUenuV4GU104403o3HjxnygrnKzZGVl4YMP3sXWbVvLR7vJm9/Bg4fgphtvVu5SOALLA39x8hIUoIDDAoXFRq9NH5Qp7f/359+pkR4Vy9ixE3HzzXcgOiamznYYDKX49tv5WPTLD5WmxiclJeOvf3vJp3cpLCosxPbtm3H40AGcTjmFkpLi8vbKRirx8Qno2u0K9O8/WI2EYaldgAGWY3fIwQP78MF7b5cf3LvPVbjjrnvLRywywHLMkUdRINAFAi7A+uijD3Dw4AGf67e5c1/1uTrVp0L+HmDlnE7F/s8/Q+r3X0FvlTDEsTU2Kq6BVZNfSGwconv2RcygkYju1Q+6qMYOUVsKC5D321bkbV6Hgn27YJIpgzUUZwMsaZ1J/l+zGxHdcgYio9o4VCd3HJSbm4vt27dh8ZJFOHLkcPkoIHmL27FjB3TrdgWu6H4FOnTooHYcrG44uAy/z8nNwYkTJ7Bnzy7s2bMH586dVdVrFNUII0aMxB133KU+zzfClXtNpmju2r0Ty5YuwamUFBWItm/fHmPHTkDPnj1V6CeFAZY77naegwIUcIeA/H1UUFTzLn/uuEZt5/j4P+9h2bJFlQ4ZP+FqTJ8+06n1i2RNxy8+/w8WL/6p0rkmTpqCGTNmNXQzXDp/QX4+3nv3TbVgfdmI55pOFBYejtvvuAc9e/Vx6VrB8iEGWI71dGlpCd55+zWkpp5WI+qvv+EWDB02qnx0PQMsxxx5FAUCXYABlod6mAGWh6AdvExGeiE2/7QZJ3/6Dk2ydiOytPJb1ppO40iAJZ/VhoQgom1HxI2ZgsY9r1K7FMqi79UVNWUw/SwK9u5A1spfUJJyHNaLaxXVVA9nA6wCqxYnjJEIa3YjOre7BfGNWzooVb/DioqK1Mifn378Xo2ekpFXEjDJGhBXXtkPQ4cOQ/du3dWIK0cXYk9PT8emTRuxfv06XMi6gO7dr8CUydegR4+e9atsAH9apsAclDfpp1NgtVjRsUMndOjYEbI4fllhgBXANwCbRgE/EzCZrWoHQm+U9PQ0NXXw/Plz5Zfv0aMXnn769wh3YY1L+bv11VdewI4dW8vP17hxNP7+95eQ2Ky5N5pY4zUzMtLwyUfvIS3N3vbIqCi0bdsBTZvGQR9iX2uosKAAJ08eR9aFTPW/ZYMVGSXTpWt3n2qLL1WGAZbjvSEh1pHDh9Qox9at21Z6KckAy3FHHkmBQBZggOWh3mWA5SFoBy+TlmXByl/zsWvjYcSfWYnEs2vQuCgVGlvt6204GmBJNTR6PcISkxB95SA0HS5TCjtCK1MKNRp7LWWXQZMRJaeOIWf9CuTt2gyDTBmsML2upuY4GmBJazLMIThqaISDpU3QqdUkjOh8HRIbJzko5fphElYdOnQQ3333Lbbv2KamUEh4lZiYiOHDR2L0qDFISkpSQ8MdDa/sbDbIlERZlDzldAr69umDjh07c0HUOrpKFiS2v023qZ17qo5UY4Dl+r3OT1KAAu4V8Ob6V5s2bcC/3n61fNqf/F35zJw/om/fq1xupKyJ9dqrL6qF3qXIToT33fcQRo8Z7/I53f1Bi9mM/343H5t+Xa9O3apVG7X+UGJi80rfr/JdLmtaLlvyM7Zv26y+Vzp07IyHHnmKI6Br6BQGWO65WxlguceRZ6GAvwsEXIC1aNHPSElJ8bl+efjhR32uTvWpkL9PIUzLsmLFViM27zNBX5SG2DOrkJy6EtE5B6G3yrSF6qcUOhNglfnqoxojpt8QNBk6BlHdekEf2Uj9lrmoEIUHdyN342rkbf8V5mL7zm+OlLoCrLIpg+dN4dhZGo2ThlgUW0MxsN0ojO58jUcCLHmLvWTJEixbthh5+faHdnlTO2HCREybOg0xsbH1etiVaYUyskimDbLUX4ABVv0NeQYKUMA9At5c/+rdeW9h7dqV5Q1p2bIVXpr7Vr0aJi8QnvvHn3Ho0P7y84wePR4zZz3i1AucelWijg9LuPavN19W68jKQvUzH3hULTheU8nLzcHHH72L06dPISQkFI88Nhut27RryCr67bkZYLmn6xhguceRZ6GAvwsEXIDl7x3iL/UPpAALNiu0piJEZf6GpJM/IDZ7LyJKL0Bju3zxdFcCLBlxpQsPR1hSKyRMmIqoLj1UNxcd3ovMpT/AcD4VFkOpGpHlaKktwJKzFFi0OGmKxN6SWJw3NYLRpleRnKcCLLPFjF83bsT8BV8jNfWM2k48IiISPXv2wt133a12DKzvWlUVdzB01K2u4+TNsslkgslohEVGjOm0iAiPcGjLc2mjBGryeambLJQu20DXt51yTlnHynJxJ6vQkFA19a++561qwQCrrruDv08BCnhCQP4uKiy2/z3qjTJnzmM4dza1/NIzZz2KMW4YKbVi+RJ89NG88vN26dINf3r2H06tqdWQHufPn8W/3noFJcXF6Nd/EG6+5U7oQ2reiEb6Z8P61fj+uwWqWjfcdDuGDhvZkFX023MzwHJP1zHAco8jz0IBfxdggOXvPeil+gdUgFVmaDFCX5iKpGP/RfNzaxBZkn7ZlEKXAqyy82s0CImLR3TvgdDAhvzdW2DMznIquCo7VU0BlkRu2WY9jhqjsLU4EYWWUNhwccqiBwMsWbj9v//9Ft9+t1BVWcKWDh064rZbb0ffvld6ZbqfBEvyhtlstk8TlYBJ1t4KCQlRAZvsuiRramVkZEDqbzKb1FvlZomJandEWbdL1i2pGBzJA7yMBJMdq2S3qtycXBQUFampJ40bNVKfa9KkiVo/JDIy0qE/rVZ1zhLkZGdDHnpzcnLVLoxSfynRjaMRnxCH2JhYtQB7VFSjOgM2s9mEvLx81U4pMn1FRq5J28sKAyyHuocHUYACDSxgsdpQXGJ05p2OW2s0/e6bKu2U+9pr76BZ8/pPu5c1CP/3d0+W1zUhIRGvvPrvOv/+dmvjajnZuXOpKsCSnX8dCbDkVMXFRer7UtpS8fuk6mXk+0WmHW7fuhnbtm5CdvYFFVDKGludO3dTwVfLVq0RGhpWa3PlM/K9KLsjrlu7Cmnnz0G+3/T6ELUz4pChI9CjVx9ER8fUOLLtQmYGSkpL1Pdgs2bNVV/v2/sbVixfhMyMdPVdff+sR9GmrX2H3orfkbKu5+GD+9S1z549o9og15a6jxw1Dh07dYHsrFx1WYTqAiy5vtwTK5YtxonjR1U7ZHMbqf+YsRNVe2SJBVeKfNenp51XL77k5WFcXDyk7ju2b8aaVSuQn5+rrGXdsklXX6vu77I6S0i0+dcN2LRpHWRBf/nvrVq3xdWTr0Pbdu3Vc1FtRZ6JUs+kYM3q5Th54ph6RpJlC+QZqs+V/TFg4GDENY2H7GZZXcnNyUZBYQE00CAhMVGZlBUGWK7cDfwMBQJPgAFW4PWpR1oUkAGWjFGyWRBSnImYM2uQfHYFGuceRYhZto+2vwmuV4AlJ9Bqob345S/rX8F6+SgvRzqwaoAltTPYNEgzhWF3aQxOGWJQZA2pFF7JeT01AuvI4cP45pv52LRlk2pORGQkRo8cjZkzH1APuc6seeWIhyPHnDt3DuvWrVUhlZTk5GT07z9ABUynU1Kwb98+7PltN1LPnEGpoVT98CTLlUVGRKJVq9bo1asXBg0egqTmSerBVx56z6edV+t87di+DUeOHEFxSbF6oJXParUa9eDYoX0HdR0ZfSbrf9X2QCoPnWlpadi77zfs2L5dTc0oLCpWD7ZlgxHkvBJcybSWbl27qUXsW7VurYKt6lwlTJMpIUuXLkX+xfVXmjSJxdgx49C8wg9lDLAcuYt4DAUo0NACFosVxaWX/s5r6OtVPf8dt19f6T99/MkCt7x0MRhKce89t5WfW74LP/jwy1qDH0+2XV7ESIAlAUJCYjPce/9DaNas/sGdvJBZt2alWltLAojqigQcnTt3xfiJk1VwVN13mXzn7ti2BWtWL1PfaTWN0IuJicWIkWMxZNiIagOx9+e9paZySsh12x3TsXrVchw7emmHZKmfTJ/s1v3SxjDyPbp180asWbNChVw1laTkFpgw8Rr06t230iEVA6xWrdvgxpvvwOqVy7Bv7+7yF0sVPyCh2PARozFuwtUID49w+jaQl3Uvv/R3teB+r95X4sqrBuDnn76DhHdVi7yYE/eBg4Zi/769WLbkJ8gSEFV9pU8GDxmOKddOq7ZOcvzxY0fU2mgnT52A9eILs6rXk0Dqqn4DVdukr6qW/347X43sk+esWQ89gU6dupQfwgDL6VuBH6BAQAowwArIbm34RgVmgFXBzWJEeNYBtDn0MZpe+A2h5gI1pbDeAZabuqZigCXhVYlVpgyGY0tRHNLNjWGxaau9kqcCrFWrVuCrr78q38WpWbNmmHb9jbjmmmvdJOD8afbt34d3330Hp06dVB++onsPTJt2g3pD+dOPP+DAwQNq5FR1D8Xy4CYPWqNHj8E1U65BkyZNce7cWSxa9AvWrV+r3mzW9DAtn5VwaciQobhh2o1ISk6utvLycJ6Wdh6LFv+C1atXobCwsNYpNHJemUrYqXNnjB45BgMGDFRvOKsWCcWOHz+Ol+a+qB5KpbRq2RJPPDEbXbt2Kz+cAZbz9xQ/QQEKuF9ARskWl5rdf2IHzzhj+i0wyQumi+WdeR9X+4O2g6crP0xChQcfmF7+v+UH+ffe/8xnAiyZrv7px+/j4IG9qo5N4+Jx730PIbmF67sWy8hhCSS2btlY/n2mXux07KQCipMnjlcKtRITm2HWg4+haVzCZby/bliLH75fqF7oSJHPt2zVBgkJCer7+Py5s+XXkBdFU6+/GUOqmdJYFmDJ6GUJnCS8qloqBljy3bh86S9YtvSX8vOr3ZRjm6Bpk6bIyEgvX5xfziPfyw88/CTaVFgPrGKA1a59R+gC/jqPAAAgAElEQVR1ehw9ekhdNjIySo2AkhFqOTIq/2KRa1w/7WYMHT7a2VtN1acswJJ1yQry85CTk61GbHfo1FkFWykpJyEL90uRMHXsuElYvXo5DKWlyrZ9h05qGYRjR4+oUeFSVJ1uuAVDh426rE4SXn3y8XtqNLsUeUaRDQBkdJq07dTJE7BY7NeT3xs0eBhuuuXOy87DAMvp7uYHKBB0Agywgq7L3dPggA+wbDZoLAaE5Z1AfMpSJJ7fgEZFZxCisSEhIRoRYbUPoXaPcs1nKQuwEG7DBXMIjhsjsackHrmWsBrDKzmbJwIsCWJk58Gvv/4Sxos/BHTp0hUPPvAQOne+9CatoY2qnl8CrHnz/l0eYLVv1wGdOnVC6tlUHD1if/sqbzpDwkLVpEuDwYiSkuLyt6Py4CZTAceNG4/evXtjyeLFasRWXl6eeqiTaQPysCfFZDKrz5ZN+7N/tikmTbwa06bdqN7mV3zDLCHTmTOnMX/+V9i7dy/y8vPKH5TDQsPU1u16vU6d22g0qSkeMsVRziEPnjIaa+KESRg5cpSaFln13MeOHcNLc19Aerr9zbEEWE8++TQDLE/fhLweBShQp4DJbEVJqT2k8EZ5/LGZakp4WXn2z8+hW7cr6l2VY8eO4M/P/r/y88gUsVdfe8flaWL1rtBlJ7Dh0MED+OKzj9TUQCkSsvW9sh+6dL0C7Tt0VBuxOFNkl8LvFn4NGX2WlNQCEyZdgyt69Cpf90u+d9PSzmHxLz/iwP7f1Pde9+49cfc9syqNeissLMC/3nwFGRlp6vtw1KjxGDl6XKVj8vPysHTpz9i5fYtaj1JGkT32xJzL6lwWYJV9T0pQN2r0OPTp00+dW4IeWWuy8cUNYn77bRcWfPWZ+k6X0UoSislUxYoWsn7Y0sU/Y+9vuxRPk6ZN8chjz6hnBikVA6yy60qwNPHqa9CpU9fypQny83KxRHZ33LpJPXvIy7LHnvwfxMY2cYa9UoAlH5S6yoingYOGlZtJWCaBoIwCE3epV9koK+mnsvZJPVavWqZGVsmvJdB89PE5KqgrK/LyT8JPab+Eh737XIVrrr0B0RVeqkmfbFy/Rk0tlP6U56X7Zz2mwsyKhQGWU13NgykQlAIMsIKy2+vf6IAPsMqIbBboDfmIObUUrU9+j+iSs0hqGoaIsJoXNq2/bt1nCG9tQZPJpcgOCcHm4licMDSBwaq7bMpg1TN5IsDKzcnBgm8W4JdFP6mHHXkg6ndVf8ye/YxXdwysGmBJWCXT8WTB9pDQULRs0VIFWvLGUKPV4Py5czh67KgaFSWjoaRIEBUfH49OHTtj3/69KCgoUA9x8t+6deuOFskt1LzDrAtZOHb8qFrfQkZnycOdfFamId591wy1HljZVEJ5cMzMzMQPP36P1atXqnOWLQIvD5Bt27ZF+3bt1QOs1WZVo6hOHD+ugreyc6u3pe074Lprp2LI4CEIq/BgKX3AAKvuP1M8ggIU8A0Bo8mCUoP3RmA9949nsX+/fRSSlPHjJ6mRSPUtCxd+je++/br8NN2v6Inf//4vPrOIu1RMvqtk3aLPP/2w0sgoeVESHROrvh9HjByj1nqqayORgoI8vPn6XGRnXVDfSbKulHz3ocK6nGUYEj69O+8NtaaVnPfuGbMqTcPbtnUz5n/1ifpuHD5iDK65bppae6pqkfWWFi74HLt2blfPHrfePgP9BwyqdFhZgCX/UQKW++5/WI3kqmna4jv/elWNHpIw74abb8NVVw2s9lgJ/T775AMcOXxQXe+Gm27DkKEj1bEVAyz5PZlGOP2eB8oDrooVLC4qwgfvv42Ui6PFb7ntbjW9z5lScQSWPB9MvPpata5W1TbK8837895UI6SkyJpYM+59oNK6U/LfpW3vvP0aZJ00eXZ5/Mn/UWZl5UJmJt547UV1XIeOnTH9nlnVhp3yPLJ+3Sr89MO36qMyvfHuGTMr3UsMsJzpaR5LgeAUCLgA66OPPsDBgwd8rjfnzn3V5+pUnwoFTYClkGzQGQoQmnccbU58g16aI2ikKYWthvn99XF15LMarRaathrkjLRgly0WF8xRMFgdW+jTEwGWPBBJgLVy5XL77oPh4Rg6bDgemPWgGirvSJGH1Pz8fPUW1ZUiD8BRUZHqIazsga1qgCX/Xa4j0+6GDhmKsWPHIylJ1reyW8pOihcuZGLZsqVYuXKFGlYv0zXl3DKCSuoma1HJ1L1xY8ejZcuW5Q/UsvaDjKJas2Y1lq9YhuzsbHWtuKZxGDtuHG668ZbyRd2NJpNaQPazzz9FSsopNWpLHjh79+qFiZMmQ0aKyagq2RFRKiBD8MVmw4YNWLZiKeTBUX7okCCtV+/emHX/g6odZYUBlit3ED9DAQp4S8DbAdZ33y3Awm++LG++jK5986331fQrV4v8YP+3v/5RrWtYVqZMmYo77rzHK2tC1tWOjPQ0LF3yC06dPIa8vNzLprM3atwYI0aMVaOpKi4AXnZe+w6Fa/D9d/PVfxo9ZoJaO6m29S937diGL7/4j/o+6z9gMG6+9c7y72OZ8iYjoY4dO4wp10xTi5LXVCRAev/dt9R5ZDH62++8p9KhFUdgSagzafJ1NYZxB/bvxccfzVPPMtLWO+++77Jwp+LJTxw/hk8/fk+dT6bIjR1/tfo+rzoC68abb8egwcNr9Ni1c5saCSeOQ4ePwvXTbqkzMKxYj4oBlqz19dAjT1W7EYHsOPnRh++oReTluea+mY+gU+eu1dJ+M/9zbN60Qf3eI489rYKqsiLPLTL1VEZz9enbD92v6FVj/0hY+fqrL6j7Svpx9pw/qhHsZYUBVl1/Ovn7FKAAAywP3QMMsDwE7eBl0rKsWLHViM37HJ2mIMmBGdFFxzA5ahNiz26BMf0cbBfXD3DwsvU+TKMPQWhic+R1isO6FhnI1uhqnTJY9YKeCLBOnjyBBQvmY+OvG9QDpKwdNXbMGNx++12VHlJqw5AdgmQ63aFD9jUinC0SLEmo1KdP3/JpfVUDLDmnvFUeMXIUpl43Fa1atr5sLRJ5aJVF2iVcOnz4UPmUQPmsDH8fPnwErr/+BjXyquoOTNL21NQzaifGtWvXqEXf5UG2T+++ePSxJ5CYYF/jo2x3pg0bN2Djxg1qF8TG0Y0x/a4Z6NGj52XTDeUzcu4LWVlYtmwJlixZpHaBkh8Mklu0wJ133I3hwy49GDPAcvbu4fEUoIA3BbwdYB08sA+vvPI8iotlAxf7ej133DEDk6dMdTls2rRpA96d92b5SxkJCx57/Bn06zfQm9S1Xlu+Z2Qnu9TU05BARUKOsmnxZS4yMviqfgMwZtzV5d+18ntGowFffPoR9u3bo17APDn7fxEXf/m6VhUrIIHGq3OfU9PLZP2o+x941KXQUKYZvv7KCzAYDGpEkYz8ku/eslIWYMlIIgls5JjqitVqwZdffAwJ1uQekBFTVRdnr/o58TmbehqhYWHq2Ude2lUdgSVhzROz/xey3ldN5cyZFPzrzZeV90BZK+rm29VOfo6WigGWjPZ66OGn1PTIqkVGrH3yn3fVqDGZ7ijTFatbWF0+J2uALV38kzpF1QDL0XrJcbK+3NtvvozUM6dV/z7z//5U6ZoMsJzR5LEUCE4BBlge6ncGWB6CdvAyzgdY9hNHhVpw7zgr4lLX4sLyH1Fy5pQ9xCrbIs7B6zt9mKxNoNMjsl0nxE+6Hhkto/Hl/k9QrHZIdLx4IsA6fvyYCrA2bf5VBS3ygDtu7FjceusdDgdYMjXutddfwbZtWx1v3MUjZf0qGVV1/fU3YsKEierhWUrVAEvekHbo0AE33XQrBg4cqBZVra7ISKoN69fhs88/Uw/WUtT220lJmHX/LPTtc2WNa5jIKK6ff/oRX339pZruJw+yHdp3xMyZs1Q4VVbESUI7eTOZevas2vmwbbu2iKplxJp85ujRI1i48BtlLUXWy5BphDfddHP5D1oMsJy+hfgBClDAiwLeDrDk7/mX5z6HI0cuvUBJSEjE7//wFzRvXv0mHLVxyfme/dP/lG+iIcc2a9Ycz7/wmsPfiV7sjvJLSyAkaxytX7sKWVmZKCm5tLC3fVrfDeWjhCSMeu+dN9X6VmInU/lkyn5tRcKar778GLIMgYzqevDhJ2sIU2wwGU0wGI2wlC3org9R60SGhISqur3+yotq3S2Z6jjrwccrfUeXBVhy7Oxnfl/tyCSpp7TvjddfRGZ6ugpaZj/zB7W2lSul4gis+IREdd3adheU0PDtNyTAMtY7wGrbvgMefOiJandkrBhgyY6TMjVQdo2ursjaVWVT/+oKsOSFndwv9h2Uber5Snexf2w2K95+8xWknklROzVLgCXPLmWFAZYrdxg/Q4HgEmCA5aH+ZoDlIWgHL+NygBWhwcyp4WgXXYDilOPIXr0Y+bu3wlyY32BTCmXKoD46Fo179UPTERMQ1akbThSfxqdb3kax0b42k6PFEwFW1RFYMhpq5IhRmDHjHvWw4kiRsOfV1152KsCSh6SynQBl8dVrplyH666bisaN7NM+qgZYMmJq0qTJuH7q9eqHiZqKPFTL6Kt/vvQCcnLs60TIdD2ZdnjLLbdfXPeq5latWbsaX335Oc6eO6dCpTat22L69Blq6mHVIvWXhz4Jp+RYmYpotljU2ldq/qKawqhRb2L1Op16gF+85Bd88cXn6vciIyMxZvQ4PPDAg+U/SDDAcuSO4zEUoICvCHg7wBKHdWtXYd68NyuRtG3bHg8+9Hil3eXqMpM1g96d9xaOVtjpTl6APDX7d7jqqgF1fdwnf1++U06nnMSO7VuwY/tWNdpKRpTdevt0NX1MSmZmOt6b95Za/8qVUlOAJQusb9v6K86mnkFmRoZarFy+N2WanExrlClp+pAQbN38qwpP6hNgSQgnI7ny8/NUyPXk7N/VOn2wtnYGS4AlgdjOHVvU7pISXoqd2WRCo8bR6mVi06bx6gXj7t07kZuTzQDLlT8c/AwFKICAC7Bq2sre231d27x/b9fNlesH1xpYl4SiLgZYnVrpYZU3TGdTkL1uGbI3rIIx87wrlHV+JqRpAuJGTUT8mCkISWgGbUgIjqTv89kAS9aNkjWwli5drNaNkAfbIYOH4pFHHnV4DSyZuvHue//G7t176vSRAyTokRFMEv7I3wESmk2Zci2mXne9+rWUqgGWPExNv3uGCrEqTi+oekE5nyzG/uc//wlZF7e4lgewGdPvweDBQ9SuRLWVrdu2YP7XX+PwkUPlAdZdd92NQYMGV/sxeXMpUw+PHT8GWU8jNTUVubl5sFgt6vjY2Fg1/bBtm3ZqV8ff9u3BZ599qn4vLDQUQ4cOw1NPPcMAy6E7hwdRgAK+JuALAZaY/PUvv8fhiwtylxnJtK9n5vwBrSosYF2Tn4wkev75/1NT8CqWoUNH4tHHZvsau9P1kRctsjvdop+/V59NSGiGp57+XzVVTdbQeu/dtyA73blSqguwZJqbLJJetkOiI+etX4CVg9defhGyGH2Llq3U6CQZteVKCYYAK+tCJj54/1+q7x0tHIHlqBSPowAFKgoEXIDF7vWMAAMs+3Qzm8kEU/YF5O3arIKs4pNHYTUa6j+lUKOBNjQMUZ27o8nwcYju1R+hcYnQXFzH4Uj6Xp8NsCR8+vbbhfj2u2/Uuk8S3vbu3RePPfo4mjeveaRTxTtXgq8zZ06rHfkcKbJw/PLly9SugTJiSkKem2++Va2DVdMUwuTkZBVgDRs2os5LSF3+9OwfkJVlfxhv2rQpnnzyafS4okeldT+qO9H2HdtUgHXw0IFaAyyp97lz5/Drrxuwd+9vyM7JgSxcK1t3y0LvZeG8BIKyOL0sUi/bsMvvHz9+XF26LCx8+uk5DLDq7FUeQAEK+KKAyWRBiRd3ISwzkbWUXnn5efVdVLHICNxhw0ap9ZBat26rdluTdY1KS0vUd5as7bN3726sWbNCvVSpWmT9xDvvuhejRo2tdic9b/aJhFKy626jRo0cWjRcwqS33pirQgtZU0rWukpu0bLSCCxZFHzGvQ861SwZaRwaGlY+FT4zI10tzJ6VdUGtNynnbN2mnZp6Js8Y8syQnZWF/Pxc1V/nzp5R16tPgCWjh2QElozESki8GM6FX76OlCMNC/QAS+5zWUvr8KED6r6RPxftO3RSbvKCUJ5f8nJzlKXspCw7XapNfjiF0JHbh8dQgAJVBBhg8ZZwSYABVuX1kswF+Sg5eRRZa5Ygd+taWGRtCFfXxdJooIuIRGy/oWg65mpEdewGXWTl3Y98OcCSB+Cff/4RX331BQoK7VMcO3bohHvvvQ+9e/dx6X6r60MSXH34wXs4fOSwCrDi4+LV9QYOHKym+0mpOgKrTZs2uPuu6Rg0aEhdp1cPxJUDrDj8z5zfoUuXLio0qq04EmBJ0Hfq1CksXLgABw7sVw95Fqu1znqVjRyTB0EpDLDqJOMBFKCAjwuYzDKi1uz1WtpH357Cc/94VoU6VYsELJFRUQjR69UP6fL3sPxdLqGO7FJb24wA+ewdd0zH+AmTXV4Y3p1AJqMRP//8Xxw9ckiNaJ710BO17vRX8dqy696e3TtVcPHAw0+iU6cuauqYrDUlUyiTklvgqad/X+NakXW1Q54pvvz8P2oheSmyo+H4iZOrnc5n3zzlNN55+zU1tbE+AZYEkm++/pJayF5GlckaWPLSyJUS6AGWTCf9+stP1PIHsii+TCetbjF4+TNRVFSAef9+A+fPnWWA5crNxM9QgAKBN4WQfeoZAQZYly/4bTUaUXLqOHK3rEHe9l9Reu600+tiyULtYc2TETt4FGIHjEREqzbQhtkDmIrFlwMsqefmzZvw9fyvcOzYUVXt+Ph4XHvNdZg27UaH3uo6cxfLDw07d+7Aa6+/isKCfFhtNiQlJeHp2XPUFLuykMdXAyy1nsjpFHz33UJs3bZV7XylFj3V6xERHoHWbdogOTkJUZH2N+KyJpas+3H+3HmcTzunFoeXH5qkMMBy5s7hsRSggC8KWCxWFJfKqFPfqF12dhbeevNltai7K8tUyHeQbGYi56n4eRmJdf/9D2PQ4GEuhzvuEpLvkA/evbRW1y233oUBg4bWGa7JgtzvvvOmCr7k++nhR2erkTfyIklCp9/27FQjqR57Yo6ahldbERsJncQFuLTguwSCr778vJqOKCN2Zs/5Q63hmtTlvXlvqjClPgGWfH7B159h29ZNqtp33HUvrqpj10ijwaBCTwk245rGI+ziC7RADrCk37747KPygHH6vQ+gd+8ra+xqeX55/ZXn1e7JHIHlrj/BPA8FgkuAI7CCq7/d1loGWNXvWCc7EppyZErhFmStXozi44fsuxQ6UDT6EDTq1gtNZcpgn4EIbRovK3ZX+0lfD7BSTqfg24ULsGr1KlV/eUPdr19/zJz5AOITEqBzYjvouujkzfjyZUvx0ccflgc/XTp3xezZT6N586Tyj/tqgCVTThYt+hk//vQD8vLyVH1lSkT37t0xaOBgdOjQUW1vLeGU/IAggZfsrpSbl6tGbf26aSP27d3LAKuuG4W/TwEK+IWAxWJDcamMYPKd6sri4StWLMHiRT9CFqp2tMgGITffcieSk1vgow/fxbFjhyt9VKbD3Xb7dEyYUPtajI5erz7Hbdm8AQsXfKmCHwmh7rnvQbX7Xm3lQmaGmkIoOy3KKKWn5/yxPFzavGkDvplv32DkyqsGqFE58mKmpiJrPi5e9D2io2Mxasz48nXGcnNz8Orc5yAhkCzWPud3z9ZYL1m4/duFX2Pr5o3qMvUJsOTzx44exgfvva0COTnX9Htm1Wqyb+9uFdzJNP9Jk6/FgIH2EDCQAywJPz98/1+QNcqk1LZDoYRdmzetx7fffKWe1xhg1edPLD9LgeAVYIAVvH1fr5YzwKr5IUxgzfm5KDy0F7mb1yFvx0ZYigphq2FKmOwyqItqjOi+A9F0+HhEdbkC+ka1Lwzu6wGWrMu0fMVyLPxmAXJyc9SDSvNmzTHp6sm4etLk8nWp6nUTyhpkNhtSUk7h44//A5mqJ0XW7ph89RRcf/0NiI6+5OiLAZb8oHD2bCreePM1HD12DBazGSH6ELRt1w5Tr5uKK6/sV+taJBJ+/fTTD/jyqy9U2zkCq753FD9PAQp4W0D+Xi8svrTun7frU/H6EmQtXfoLdu7cpqbJlRSXwGQyqkNkpJX8I+GFbB4yZswEjBk7sXwau4QYLzz/F5w8ebzSSCwZofTAA4+qkVjyksJbpSA/H/PeeR1p5+075g4bMRoTJ12r1veqrkj7F8z/HAf321+gyA6Ed959X3kbigoL8e+3X4GsUanT6XH7XfeokTnVtVFcZdSUrKUl32OPPj4HLVu1VueVFzZvvPZPNZVPPnv/rEfVNLWqmyPJfSNrMH31xccqUJNS3wBLvqPn/ft1HD92RK1XNuWa6zF0+KhqN36RNZ5k50XZfU/ug1kPPq7W6pISyAGWtE8CqV83rlVtHT9xipoaW93mOOnp5/H5Jx/g3Lmz6lgGWN76087rUsC/BQIuwNq06Vf1ZelrRaZOBVJhgFV7gCV9LQu8l5w+gZyNq5C7fQNKz56+fF0sjQZhzVug6bBxiB0wHOGt20IbIsPnay++HmBJ7Y8cPawWc9+yZbOa4iZvmtu2bYc777gLfa+80i2jsLJzsrF27Rp8++03aji6FFmjQhaM79Wrd6X1qXwxwJKFT/fu24s33ngVOTk5qv7yg8+tt96OUSNHq8XoaysyfVDWG/vsc/suhAyw6vqTw9+nAAX8QaCw2Air1YeGYFVBk5Gwsr6T/CCen2f/7pHgKiIyEgkJiWr0b3g1C37LYuTz3n0LBw/sq3RGmTYnI7HGjZtU6664Ddl3Mh1wy+aNKoyQ4EYCIgmAJHTq2r1HeXskqDl06AD2/bYLKSkn1bFxcfEqsJFFuyuWvb/txvyvPlWbjcjoKZmCN2jIcHW8nF9GNkmgt3L5Ehy/ODpt8JDhuP6GW8sdJJhavvQXLF3yszq17FB4zbXT0LVbj/IwTNaN3LplIzZtXK/CIukf+Vx9Ayy53r69e/D1V5+gpLhYTW+8qt8gDBw8FC1atFJtkFFfRw4fUjsynjhuXzZhwMAhuPGm26EPCVH/O9ADLGm3LLIva7/JpgYSYMkU1LI1Qg2lpdi9ewc2blijAlKZImqxmBlgNeQfaJ6bAgEsEHAB1kcffYCDBw/4XJfNnfuqz9WpPhVigFV3gCW+5VMKt2+y71J44jCsF9/WakNDEdmlJ5oOGoHYQaOgj2kCGY3lSPGHAEvWclq3fi2++WaB2nXG/oAfhn5X9ce1101Fl86dXd6SWs4lgdXGXzdgyZLFag0peWCNjIzElVdehXtm3IfExMRKb3p9McAqKi7Ctm3b8P7776qF26XIdME//enP6NC+Q50/yJw4cRzffLsA69etU59lgOXInx4eQwEK+LqA7EIouxEGYpEXD3/84zNqtFHFIn9/P/jg45AAx1tFQp91a1bg55/+q4IpR4p8r996+wz07nP5ukfyvSzh0/Jli+WJqM7TtWrdBvfPfBSNK4yelg9J0PXGqy/gvAo/7EWmI0pYIteQEVdS99CwMIwdNwmrVixVI7fcEWBJsCf1X7bkZ4fWQGvTth0effwZNeqsrAR6gCXt/PKzj7Bjx9byNku417hxtHoOk9F6ZaHo8BFjcOLEMaSeSWGAVeefCB5AAQpUJ8AAy0P3BQMsD0E7eJm0LCtWbDVi8z6Tg5+wHxYVocHMqeHo1MqxAKvs5ObCAhTu24WczWuQv2ebemvXuMeVaDp6Ehp16QldZJRT9fCHAEsaJNPjfvjxB6xctQKyuKk8YMqaGr1798b4cePRtUs3RDm4XXcZkDwEXbhwAVu3bcGKFcvLF4qXh6R27dtjxt33oEePnpftDuiLAVZJSQl27NyBee/8S61pJSUuLg5/+b+/qdFqVadIVLxJxGD16pVYtnwpzp+3jzplgOXUHyMeTAEK+KiA0WRBqcGx9SN9tAm1VkumzP3r7ddw4IB9+l1ZkVFbd919L0aMGOO1hd3le1pGTslomVMnj5dvElK1QbLDr0yRGzJsJDp16lrj95WMwN665Vf8KqNv0s5XGwLJ+lk9evTG2PFXI7HKKK6y655OOYWlS35Say1VDdfku1I+N3rsRLRo2RpvvzHXbQGWXF9CrF07t2PtmhVIPXO62r6VIK9X7ysxbvzViE9IrHRMMARYOTlZWLFssZpeK897VYs86w0dNgqDhwzDh++/wwDLH//iYp0p4CMCDLA81BEMsDwE7eBlPB1gyWq0VrMZpWdOIW/rOkCnR/SVAxHRuj20IaEO1vrSYf4SYMmb0UOHD+Gnn3/Erp071TB6KfLgKzsEDug/AL1790HLFi0RElq3g4zqklFHEl7t3LEDZ1LPqLevWp0OcU3jcPXkyWq3Q9m9r2rxxQBLhtsfOngQL7/yEmQ6pBR5Yzn97ukYOnR4pTW8ytojP1xkZWVh3fp1WLlyOVIvGsjvM8By+o8SP0ABCviggPw9V1BkX1sqUEtW1gX8/W9/REZGeqUmylTE6dPvx+gx473adFmsXhZQP3r4IA4d3K/CJ3lR1KZde3Tr3gNt27ZX31EhDjzDSH/KyLPz51Kxa9d2nDx+VI2qSkpugW7de6Jzl66IjW1aZ2gno6rS09Kwc+dWtfOhTE2TtbL69R+Etu06qBdkEm7JiB+5pixdINPyK+5qKLvgybUl9JJpjdWt1VQdvJxPpkLKNFAJaY4cOqimzDVr3hzdr+iFLl26oUlTaYN92mDFIp+VUdZSN7meXLe2F1QyvS4/P1+1Qe6HqCjnXnKWGci/ZaSaPFdUdz213lxhgfKoq16lpSVql2Qp0u/VtVPCyuysC9izZ6daj0x+LWGerI8m90xMTKyqh/SBHCu/lv9WcV002ZuQ5bgAACAASURBVHVS7j3Zh7JRY7m/LnlKewoLCmC22JelkBF4tTl69Q8QL04BCjSYQMAFWDIiQ36g87Vyzz33+VqV6lUfTiF0bgRWGbbNYoG1pBgICYEuNEy2m3OpH/wlwJLGGU0mHD92FN//8F9s274NJqPsLmWDTqtV0+V69+mDK7pfgaSkJPWQJQ+gEsTIQ5fJbIKh1ACZapedlYWzZ89iz57d2LfvNxRdfJCShy7Z6Wn48JGYNOlqxMfFVftA44sBljyMnTlzGnPn/hOnz5xWD7fyUNauXTuMHTMOvXr1QXx8nFp7RII6WbQ9Iz0du/bsxLp169TUyYqFAZZLf5z4IQpQwAcFfH0dLHeQSXjwysvP48iRQ5VGJsnf+TNnPYKBA4c4HLC4oz48BwUoQAEKUMDXBQIuwPJ18ECpHwMs1wIs1f+yN7iLwVXZ/eNPAZbUWRYrP3T4MBYt+lktiJpfYF+vQqvRQKeXt2hRapvxhIQENYVOdqaRMEaGoUtoIzsZpp45g/SMdHWusgVaZcc+efs5atRoTJgwCTHR0TU+7PtigCU28lb22+++xYoVy1RbVbh3cURZr9690KZ1W/UG2WyxIDMjE8dPHFeL3sqi77LjohhkZWepW4MBVqD8Dct2UIACgbwOVsXeld313nhjLk6dOlGp02Vkk0wnHDt2old3J+SdSAEKUIACFPAlAQZYvtQbflQXBlj1CLDc0M/+FmBJk2WIuowyWrz4F+w/sB+ZGRkqjJLAxtkiQ8ZlwfZWrVpj4MBBGDNmrJpCWFvx1QBLwrjTKSn48qvPsXvPbjV03hETmVIgC9bLSLXVq1cxwHL2JuLxFKCATwuYzFaUlDq3TqVPN6iWyslIrOef+z+1q1/Fv/8jI6Pwhz/+Fe3bd/TXprHeFKAABShAAbcKMMByK2fwnIwBFgMsV+52CWtk8doDB/Zj67atagpcRnoGikuKHdrxSNZJaBTVCMnJyejYsZMKcLp166amHVZcQ6G6uvlqgCV1lSBPRlb98vNPOHjoIGRtFLGqrsjUy5jYWPTu3Rdjx47FqVOn8OGH79sDrJAQDB48FE8/PafcQ85z7NgxvDT3xfK1Vlq2bIknn5iNrl27lV9Cfmj6/vvvMH/B/PK1yoYMHYaHH3wY0bJGRT1HDbpyv/AzFKBA8ApYrTYUl5hgdeElhz+qyUisd955Q00nLCt9+/bDrAceRWxsE39sEutMAQpQgAIUcLsAAyy3kwbHCRlgMcCqz50uoUrWhQs4evwotmzejJSUU2qBV4PJCIvZXL7rkUylU9MMQ0IQHhqOyKhIdGjfHsOGj8AV3XtcttNgbXU6dvwYvlm4AOfP2bfhTkpujilXX6PWmaqrpKen4e2330Refr46NCYmBnffPQPt2rVHiL72e+HA/v1YumwxTp46dfG6Sbhm8rXo2bNXpcvK+lcyKm3lqpVqrTCZWigL1pYtdCoWMtpKFn/t1asXxowZhw7tO2Djxg1Y8M18dS75fVkU/647764UYMli95988h9kZ9sXim+WmIg77rhL7XRYViTAWr1mFZYvX4ri4hK143mfPn1w8023qJ0iuVBqXXcJf58CFHCngORWxaUmWCxWd57Wp88lI7H+9Mc5yMzMQPPmSfj7P+ZCRmGxUIACFKAABShgF2CAxTvBJQEGWAywXLpxKnxIQiwJZySkycnJRUZmBi5kZiA3N1etBSUlLDwc4aGhiGkSi+SkFkhMTFTrPoWGhjkVXsm55Fqyg1DZyCYJhGSh3Io73NTUJvmM7KBYtnW3jPaSHyr0On3FzY2q/bhMnSw1lKpgTopOp1e7MFZ3XbmO7PSTlZ2NU6dO4vz5c2onIgnJ5Hoy8qpN6zZITkpGZFSUCqxkFyTZtcf+N7pGnTeqyg880nbZPchqtY/qkrbL+aruviTTF+3TOu0/MMoaLDJVk+FVfe92fp4CFHBFwGiyoNRg/7szWMqFC5lYsWIJrrvuRvX3LwsFKEABClCAApcEGGDxbnBJIBACrJXbjNi017n1NaIiNJg5NRydWvlngDWo3RiM7jIFCY2au9TvDfUhGf0j4ZAEJzJtpGwNkLLgRKvVQKvVqSAlGMIUab+EWVabFTar7WK7JZ/SqpFVdU2XbKh+4nkpQAEKeFqgoMi+c20wFfk+5N/zwdTjbCsFKEABCjgqwADLUSkeV0nA3wOs7DwrVu0wYu1Ok9oU0NHi7wHWmC7XYnjHiYiJ4HoajvY5j6MABShAAe8JGIxmGIzVrwnovVrxyhSgAAUoQAEKeEOAAZY31APgmv4eYJnMNmzZZ8bPGwwoKpURP451ir8GWDJqKVQXhkk9bsKgtqMRpg93rME8igIUoAAFKOBFARmVW1QiL5sc/KL2Yl15aQpQgAIUoAAFGlaAAVbD+gbs2f09wJKOOZNmxdqdBuw9bkGJUaaw1d1d/hhgaTVahIdEokuznhjZ6Wq0atoeGmjqbiyPoAAFKEABCnhZQGKr0lITTGYHvqS9XFdengIUoAAFKECBhhVggNWwvgF79kAIsGQU1rlMG3YdNuHIGQsKim24uHZ1jf0WEQ7cMTEc7ZJ1Xu3bExcOYeHO/6DEdHHx7hpqI2smRYfHoGPCFejdcgCaR7dEiC7Uq3XnxSlAAQpQgALOCMhOhDIKi4UCFKAABShAgeAWYIAV3P3vcusDIcCSxlssQKnBhhKTLJqNOqcoyGLisY21CPXuGu4wWgzIK8mGtY4pFTLOSqfVISIkEmH6SPVrFgpQgAIUoIC/CRSXGmE2cxqhv/Ub60sBClCAAhRwpwADLHdqBtG5AiXACqIuY1MpQAEKUIACfivAtbD8tutYcQpQgAIUoIDbBBhguY0yuE7EACu4+putpQAFKEABCnhboNRghtHEHQm93Q+8PgUoQAEKUMBbAgywvCXv59dlgOXnHcjqU4ACFKAABfxMQEZhFZeaIP9moQAFKEABClAg+AQYYAVfn7ulxQyw3MLIk1CAAhSgAAUo4ISA7EZYUsoF3Z0g46EUoAAFKECBgBFggBUwXenZhjDA8qw3r0YBClCAAhSggF2gxGCGiVMJeTtQgAIUoAAFgk6AAVbQdbl7GswAyz2OPAsFKEABClCAAs4JcCqhc148mgIUoAAFKBAoAgywAqUnPdwOBlgeBuflKEABClCAAhQoFzCbrWo9LBYKUIACFKAABYJHgAFW8PS1W1vKAMutnDwZBShAAQpQgAJOCsiOhAajGTau6e6kHA+nAAUoQAEK+KcAAyz/7Dev15oBlte7gBWgAAUoQAEKBL1AaakZRrMl6B0IQAEKUIACFAgGAQZYwdDLDdBGBlgNgMpTUoACFKAABSjglICMvpJdCc0Wq1Of48EUoAAFKEABCvifAAMs/+szn6gxAyyf6AZWggIUoAAFKBD0AjabDSWlZoZYQX8nEIACFKAABQJdgAFWoPdwA7WPAVYDwfK0FKAABShAAQo4LcCdCZ0m4wcoQAEKUIACfifAAMvvusw3KswAyzf6gbWgAAUoQAEKUMAuICFWqYEjsXg/UIACFKAABQJVgAFWoPZsA7eLAVYDA/P0FKAABShAAQo4LWCfTihrYnFrQqfx+AEKUIACFKCAjwswwPLxDvLV6jHA8tWeYb0oQAEKUIACwS0gC7sbjGaYzBbIr1koQAEKUIACFAgMAQZYgdGPHm8FAyyPk/OCFKAABShAAQo4IWA0WdSUQhYKUIACFKAABQJDgAFWYPSjx1vBAMvj5LwgBShAAQpQgAJOCpjNVjUay2LlUCwn6Xg4BShAAQpQwOcEGGD5XJf4R4UYYPlHP7GWFKAABShAgWAXkHWxSo0WmEyWYKdg+ylAAQpQgAJ+LcAAy6+7z3uVZ4DlPXtemQIUoAAFKEAB5wVMF0djyW6FLBSgAAUoQAEK+J8AAyz/6zOfqDEDLJ/oBlaCAhSgAAUoQAEnBCS8ksXdZX0sLvDuBBwPpQAFKEABCviAAAMsH+gEf6wCAyx/7DXWmQIUoAAFKEABEZAgS9bGMlusDLJ4S1CAAhSgAAX8RIABlp90lK9VkwGWr/UI60MBClCAAhSggLMCFosNRrMFFrMVVg7JcpaPx1OAAhSgAAU8KsAAy6PcgXMxBliB05dsCQUoQAEKUCDYBWShdwmyjEYZkcU1soL9fmD7KUABClDANwUYYPlmv/h8rRhg+XwXsYIUoAAFKEABCjgpINmVTCs0y6gsq01NNWShAAUoQAEKUMA3BBhg+UY/+F0tGGD5XZexwhSgAAUoQAEKOCEgI7GsVsBkscAsUwwZZjmhx0MpQAEKUIAC7hdggOV+06A4IwOsoOhmNpICFKAABShAgYsCskaWxWK1j8yy2NRUQzU+yyb/p/6f/X+zUIACFKAABSjQIAIMsBqENfBPygAr8PuYLaQABShAAQpQoGYBFWBdTKwuC7CYZPHWoQAFKEABCrhdgAGW20mD44QMsIKjn9lKClCAAhSgAAUoQAEKUIACFKCALwgwwPKFXvDDOjDA8sNOY5UpQAEKUIACFKAABShAAQpQgAJ+KsAAy087ztvVZoDl7R7g9SlAAQpQgAIUoAAFKEABClCAAsEjwAArePrarS1lgOVWTp6MAhSgAAUoQAEKUIACFKAABShAgVoEGGDx9nBJgAGWS2z8EAUoQAEKUIACFKAABShAAQpQgAIuCDDAcgGNHwEYYPEuoAAFKEABClCAAhSgAAUoQAEKUMBTAgywPCUdYNdhgBVgHcrmUIACFKAABShAAQpQgAIUoAAFfFiAAZYPd44vV40Bli/3DutGAQpQgAIUoAAFKEABClCAAhQILAEGWIHVnx5rDQMsj1HzQhSgAAUoQAEKUIACFKAABShAgaAXYIAV9LeAawAMsFxz46coQAEKUIACFKAABShAAQpQgAIUcF6AAZbzZvwEuIg7bwIKUIACFKAABShAAQpQgAIUoAAFPCfAAMtz1gF1JY7ACqjuZGMoQAEKUIACFKAABShAAQpQgAI+LcAAy6e7x3crxwDLd/uGNaMABShAAQpQgAIUoAAFKEABCgSaAAOsQOtRD7WHAZaHoHkZClCAAhSgAAUoQAEKUIACFKAABcAAizeBSwIMsFxi44coQAEKUIACFKAABShAAQpQgAIUcEGAAZYLaPwIF3HnPUABClCAAhSgAAUoQAEKUIACFKCA5wQYYHnOOqCuxBFYAdWdbAwFKEABClAgKAW0Wg00GkADQKOx/5qFAhSgAAUoQAHfFGCA5Zv94vO1YoDl813EClKAAhSgAAUoUEFAK0GVhFRaCawYVvHmoAAFKEABCvibAAMsf+sxH6kvAywf6QhWgwIUoAAFKECBWgV0Wg20OomsWChAAQpQgAIU8GcBBlj+3HterDsDLC/i89IUoAAFKEABCtQqIFMBtRoNyqYIkosCFKAABShAAf8XYIDl/33olRYwwPIKOy9KAQpQgAIUoEAtAiq4khFXXM+K9wkFKEABClAg4AQYYAVcl3qmQQywPOPMq1CAAhSgAAUo4JiAVgvIdEFZ54qFAhSgAAUoQIHAE2CAFXh96pEWMcDyCDMvQgEKUIACFKCAAwJ6nX26IAsFKEABClCAAoErwAArcPu2QVvGAKtBeXlyClCAAhSgAAUcEJDBVnqdFhx05QAWD6EABShAAQr4uQADLD/vQG9VnwGWt+R5XQpQgAIUoAAFREDWudLJ7oIceMUbggIUoAAFKBAUAgywgqKb3d9IBljuN+UZKUABClCAAhRwTEDWuQrRM7lyTItHUYACFKAABQJDgAFWYPSjx1vBAMvj5LwgBShAAQpQgAIy8kp7ceQVNShAAQpQgAIUCCoBBlhB1d3uaywDLPdZ8kwUoAAFKEABCjgmICOv9HoNOPbKMS8eRQEKUIACFAgkAQZYgdSbHmwLAywPYvNSFKAABShAAQqota5C9FpKUIACFKAABSgQpAIMsIK04+vbbAZY9RXk5ylAAQpQgAIUcEZAr9Oo6YMsFKAABShAAQoEpwADrODs93q3mgFWvQl5AgpQgAIUoAAFHBSQ4EoCLBYKUIACFKAABYJXgAFW8PZ9vVrOAKtefPwwBShAAQpQgAIOCsigKz2nDjqoxcMoQAEKUIACgSvAACtw+7ZBW8YAq0F5eXIKUIACFKAABS4KSHjFmYO8HShAAQpQgAIUYIDFe8AlgUAIsGw2wGQFTBYNDBYbjBbAaAXMFg3MNkB+3wb7v1koQAHPC8iCzTJhSI2+0NogAzBCdUCYzv7vEC2g19mPYaEABQJTQHtx18HAbB1bRQEKUIACFKCAMwIMsJzR4rHlAv4cYFmsQJ4RyC/VwGwFLDbAypCKdzcF/EpAlsLRqkDLhpgwDRqH2jhCw696kJWlgGMCsuughNksFKAABShAAQpQgAEW7wGXBPwtwJKQymjRILcU6h8WClAgsAR0WiA2HIgJsyFUC/7AG1jdy9YEqQAXbg/SjmezKUABClCAAjUIMMDireGSgD8FWPkGINegQYmJI61c6mx+iAJ+JCDTDCNDgCbhNvVvFgpQwH8FOPrKf/uONacABShAAQo0hAADrIZQDYJz+kOAZbAA6UUaFBmDoEPYRApQoJKAzDiKjQASImyQ0VksFKCAfwnItEEJsFgoQAEKUIACFKBAmQADLN4LLgn4coAl61rllNqnC8qvWShAgeAVCNPLaCz71ELuYha89wFb7n8COp0GOv6h9b+OY40pQAEKUIACDSjAAKsBcQP51L4aYMli7KfzgBIzV3wN5PuPbaOAswISYCU3dvZTPJ4CFPCWQIheAw1Xb/cWP69LAQpQgAIU8EkBBlg+2S2+XylfC7BkE8FCg33KoImjrnz/BmINKeAFAVkTKzHShgiujeUFfV6SAo4LcPqg41Y8kgIUoAAFKBBMAgywgqm33dhWXwuwZMpgRhEXaXdjF/NUFAhIAVlSR0ZiRYVI7M1CAQr4ooBMHZQphCwUoAAFKEABClCgogADLN4PLgn4SoAlUwZzSoGMIj7outSR/BAFglBAltVJbmxD49AgbDybTAE/EODug37QSawiBShAAQpQwAsCDLC8gB4Il/SVACu7RIPMYo68CoR7im2ggCcFOBLLk9q8FgWcE2CA5ZwXj6YABShAAQoEiwADrGDpaTe30xcCrAKDBqkFbm4YT0cBCgSVQNsYIILTCYOqz9lY3xbg+le+3T+sHQUoQAEKUMCbAgywXNS3mIwoOncGeSeOovDsaZgK8mGzNezq4RqtDqExMWjcqh1i2nVEZLNkaPXeWY3Y2wFWsQlILdDA0rDkLt4d/BgFKOAvArKge6vGNui0/lJj1pMCgS0gU3z1MkSShQIUoAAFKEABClQRYIDl5C1hyMvFvo/ewKlF38FmtcJmswHyjyeLxr61tC4sHJ1unoGut90HfUSkJ2sAbwZYop2SC5SYue6VRzudF6NAgArEhNnUwu4sFKCA9wW0Wg30XMDd+x3BGlCAAhSgAAV8UIABlgOdIiOrLuzZjhO/fIvTK3524BOePUQbEoK2k6ah/ZSbENu5uwq3Grp4K8CSrDCtSIPc0oZuIc9PAQoEk0CzKKBphIdfRgQTMNtKAQcFGGA5CMXDKEABClCAAkEowACrjk43lxRj24t/RPrOTTAV+vaCS2ExsWgzYSp6zpoNCbUasngrwMo3anA2vyFbxnNTgALBKBCiA1pF2xCmC8bWs80U8B0BnVYDHUdg+U6HsCYUoAAFKEABHxJggFVLZxRnpmH3m8/j7IaVPtRldVel/TU344r7Hkd4k7i6D3bxCG8EWBYbcCZfgxKTi5XmxyhAAQrUIhAbDiQ14igs3iQU8KYAAyxv6vPaFKAABShAAd8WYIBVQ/8UnDmFLc/9DjmH9/l2D9ZQu6RBI9Fvzl8RHpfQIPX3RoCVUwqkF2rAHy8bpEt5UgoEvYAsHi2jsCIbdgBr0DsTgAK1CTDA4v1BAQpQgAIUoEBNAgywqpGRaYOb/zYH5zev9es7R9bE6vvUs9Dq9W5vh6cDLKsNOJ6jgZm7Drq9L3lCClDgkoDsStgm2gYPLCVIdgpQoBoBXw+wZPOe3NxcZGRmoKSkVG3o0xBFo9UiMjICCQkJiI2J9cj6pg3RDp6TAhSgAAUo4E4BBlhVNGXB9q3P/wGnV/zkgHMkoju2QVioDfmnT8FQ6NjK4mFNWiE6ORbmvAzkpaajYR597NXvfMs96PXQHLc/+Hg6wMoq0SCjyIEu4SEUoAAF6iEgo7BaRtsQxVFY9VDkRynguoAvB1hWqxUXLlzAmjVrsH7DeqRnZMBisbje2Fo+qdPp0LxZc4wYMRwjR4xEXFwctFptg1yLJ6UABShAAQr4iwADrCo9dX7Lemz434dq7z9NLDrO/CuG3ns1IiMvjm6ymlB0YDFW/vnPOHuiulXGNWjU7zpM+Ntf0Sw5uvz8ppwU7H/5AWxadBQNMTcupFFjjJj7AZp27eHWe9KTAZaMujqdr4HB7NYm8GQUoAAFqhWIjQCSojhZmbcHBbwh4MsBltFoxOIlS/DDjz8gNTXVIzytWrXCDddPw4QJExDSwBv0eKRBAXwRs9kMg8GAkpISGIxGmM0m2Kw2yGg6vU6H0NBQhEeEIyI8AvoKsyMkBE1PT4fcXxJcJiYmIiwsLIClnGuajHosLCxEQWEBTCYTwkLDEB0djcjISOdOxKMpQIGAEPDrAMtqtcFgtMJgssBotMJotsBktsJstsFitUH+wrPV8jNIQpNwJDQNL+9IY2EBNjz7JLJ2b6mxc3XxAzD0r8+h+5AO1U4xMWcdxq5//g67l/2GS3lLPDre9QcMfeRaREZevsWVzVyCswvfwpoX56Eh9jlsN/lGtR6WO+fEeDLAKjQCZws0kGmELBSgAAUaWkCvBTo0sUFGY7FQgAKeFfDlAEuCiXnvzsOq1atVUJGYkIC4+PgGAbqQmYnMCxdUkDFxwgTMvH8mwsMvPbM2yEV5UpcEJFTJy8tToeaRo0dx/MQxpJ1PQ05urrpPJHiMiY5GUlIS2rVth65du6JFy5Zo2qSJCrVkSuoLL76IUymnVDDz/+b8Dzp16uRSXQLxQxkZGVi7bh02bdqkRkAmt0jGmNGjMXDAQMTExARik9kmClCgFgG/DLAMJity8w0oKDLBYrHBWkdQVV37ZX2TNsmNEBl+aX2otD27sGHOPbCZaxrqE4uBHyxDn6viL/1gYzLBYgW0oSHl+ZDNkImNz0zA3g156tJJt/8NU565EyH6iz8NWSywmixAaCjKR4NbDMj8djYWPr/E7TesLjQM13y7FqGNGrvt3J4MsNKLNMgucVvVeSIKUIACdQokNwZiwpia1wnFAyjgZgFfDrCKi4vx2uuvqR+mpdx5x5248YYb3CxgP938BQswf8F89etxY8fhiccfZ4DVINKun1RelEtAlXL6/7N3HmBRHl0bfhZ2gaWDohQRxd57793YjS36JcausSW2GI0mauy912hsscbE3nvvvfeOotJhl7b7/2cWECkCwvYzubwMMO+Ue2YR7j1z5hlOnDiBs2fPidxosbExiI1Vxb2Rrvl3hI5/0h+KsHJ1dUWF8hWEhPHx8YFCqcTo0aPx6PEjIWTGjRmLIkWKfPnATOzJHTt3YOvWrXj92g8qtUowLJC/ANq1a4fq1aqZ2Gx5OkyACaRFwGgEVkysGgplDIJCoxAeESOkVWaKpaUEBXwcYZEoU++ZKb/j5d5/Um1WXncQOs0cACtRQ4nnf4/DoQVboIyWw6tpH9Qa1gtOdpr8BP7/TsauiUuhtC+C2vP+QpESOUBnBCMf7MHR38bhyR1/2OSqjqqTJqBgCW/xjDryIQ51aIoHT6MzM7UUny3a+QcU69o/y9rVlcCiZX4UJAH5Pi5MgAkwAV0RsJaqkdcZ4CAsXRHnfpiAhoChC6yZs2bh+AmNwOrapSs6fvONVpZuzdq1WLN2jWi7Xr16+HHAQBZYWiH95Y2GhITgyrWr2LdvH+7duwcSnCSpKFKO/sikMvExia7omGhERUZBoVSAjhrS10lefdX4K+Tz9cW06dPx5OkTFlgpLMfsuXNw8OBBccQyvtDxwQ7t26PjNx2/fAH5SSbABIySgMELLNJUIaFR+BAcicio2M8eCczICjg6WCFXjo9npyMVSuxsVRWqqMhUmyk4cCbqdWul+frbQ9jYuicCIuKry+AxejtatCkEUlhRT/djc49BiHErhSYLVsLN1QqI9sOV1vVw9uXHZO82xYfhm7U/QE7NqGJwaVInnN98MSNTSVddqY0cLXecgYU0azIT60pgRURL8EwTyMaFCTABJqBTAnSM0Cr5qW+djoE7YwLmRoAFlmbFWWAZ7s4nIUUy5dixY9i+cweePn0qkvmTVPHJ7YPixYqJI4A5cuaEna2tEFbv3r3D4ydPcOPGDTx69AjBIcHigqWcOXOiWtWqOHz4sDgyyhFYydd9DgmsQ4dEtFt8YYFluK8PHhkT0DYBgxVYFHlD+azevI9AWETWZ+/2dLOFs6MmlorKm1s3caJ/h8/yLjp4Dmp1bi7qRF2di+VdZn9S37ban+i4oK4mQivoLtb/7zvEOhdC0wUr4eIsBQKvYUWd1vhEkVm2RNuTs+BGBkutwrOFI7B/2eZE+bM0XVjaNET1PzqIm7EiLu3EuTX/IaOn6r5asxv2uXyyZE/pSmDRzYN0AyEXJsAEmICuCXg5qOHIeXR1jZ37M3MCLLA0G4AFluG+EJRKJS5fuYLN/2wWkVdUKB9a7Tp1UL1adU0Sdisrkag9/uZIypNF0iuYorauXMGevXvw/PlzIbdIxlD0FkkwFljJ133nrl3iCOGr169AN4ES14IFCqBt27aoVpWPEBruK4VHxgS0Q8AgBRYlZ6eIq8AQusFDpZWZ++ZygI31x7fWb29cg1uLJ3+2r4IDZqJe97gIrOAz2NLkY0MaegAAIABJREFUfyDBEl/yTz+O+vVzaY6chDzC+o6dEOXgi6YLVyK7qzUQ8x63ulfE8Wsfn7GvMwrfzOoGTVyUCq8Wj8KexRuQ9BChzL4/2h8aLH6ZCt61BDt+nZLhhO9VxsxCrloNs4SnLgQWRd89DZJAmfX+MksYcCNMgAmYNoFsciAH30Zo2ovMszM4AiywWGAZ3KZMNCASKJSrasWKFbh1+7aQUvnz50fTr5qgfPnycHF1FTcOplYoBUpYaKhI9v7ff//ixs2bICEWX1hgJSdH0WvHT5zA6TOnRRL3XF65RP6wChUqiKT3XJgAEzAvAgYnsCjy6uXbcJGgXZulUF4nkWchvpwZPxwvD+38fJdNhqDPxH4JOVH8d07CvikrEaG0hkfrEWg8smNcfiwSWA+xvuP/EBSVA/Xm/YWCheNuqQm5hQP9uuPx3UBY+5RGvemL4Z3HJa5fFV4uHoW9WhJYlAOLcmFlRdGFwIpWaQSWlhxmVmDgNpgAEzBhAg7WanjZZ+kFriZMi6fGBLKGAAssFlhZs5O00wodY9u4caM4OhgWFiYSslMeptq1asHe3l4cC0ypaG5G1/yhQuLr1q1b+HPFcjx79kxEX1FhgZWcHjELDw9HaFioiFijmxsdHRwhl4sELFyYABMwMwIGJbAoSfubD0qRrF3bpYivc8KtgdTX0UFd8e7q+TS6zYcKi9egbGV3keeKEnLFhgchOsYCVo5OH28UBBDz+hg2de2P4LcquLf/DU2Gd0B8wJcqWomokHBYOjhDljjBijoGl6b2wvn1R5ONIysisPJ//T+UGTAyS9DqQmApYoAXwRLEZi5ff5bMlxthAkzA/AjIZYC3oxqWfIrZ/BafZ6w3AiywNOi1dYSQBADJE/r7S4pMJoO1tXXC0bgvacNYnyHJ9OrVK8xbMB83b94UidibNW2Gxo0bw9PDI1V5RfO9/+A+1m/YAIUiLgGIGiKhOx0jpOOD8WKLBZax7g4eNxNgAroiYDACSxkZi+d+4YiJ1c6RwaRAkwqsY0N6wP/ymTS5W2bzQeUpa1GivFey26kinzyGZV5fSAGEXVyG/wZNQlgoAJkd3DpNR7P+jWCTJIe6yv8lwl1ywUEGqGMjcXpIKVw/GgXkr4AGo/5ADmdNAhaJhQPsvF1BQWOx4aGIeBeAeK+jvLMJW0YsSnPsBdp8h9L9f0mzXnoq6EJghUUBr0IlULHASs+ScB0mwASymAC9v+DjpIZUc7ksFybABHRAgAWWBrI2BBZJEkogfujwYdy/r8ndlNFSuVJlcSsiRR6ZWyH5dPTYMazfsB5v3rxBoUKF0LN7DxQrVgyWnzk2SJwuXrqIiZMmiaitzxUWWOa2q3i+TIAJZJSAQQiscEWMODYYq8NQm4J5nCBN9Lb6hRlj8XTnpvTxs/VCvq87IU+x3JBaWUIdE4mgx49g/1VfFMpjI9p4vKA/Di3bnSgZuxQuZRqjWOsGsKNM7AAi/Z8izKUiKjQuKz6OfbMXW7/uC3+62bBYTbSauwgelIQljaK4sgIru45PqxpK9hmKQh26plkvPRV0IbCCIwG/UEmCqEvPuLgOE2ACTCCrCFhaAL7OLLCyiie3wwTSQ4AFloaSNgQWtRsUFIQzZ89i7969ePjoISi5eHoKJRovVbIUmjZpgpIlS4roI3MrISEhWLlqpcjHRP/ftGlTdGjfHu453dNEQYnbZ8yamS6BNXLESBQqWDDNNs2lAonDm7du4eq1qwgMCIS7u7vIN1Ygf35QRCAXJsAEzIuA3gUW3TRIkVeRUZqz37oqeTwdYCv/mGTx/s7/cG3GqC/rXuaKggNmoXbnGhAtRj7AwQ4t8eDpx6SMKTXsWKQ1Gs2dgOxu9ENAKF6Mb4yd//hpqmpBYNWYsgTuFat/2RyTPKULgRWoBN6E8dmdLFkwboQJMIEME6CIV18XNWQcgZVhdvwAE/hSAiywNOS0JbCo7eDgYJw7fx47d+7E3Xt301wquvWtYoWK+Lp1axQoUMBscw8FBARg6rSpQqbQMcwffvgBDevTG9N2aTIMDAzE3bt3EZ3G0U0SMsWLFYODg0OabZpLhQsXL2D79u24ffsOIhQRgg3tx+bNmokoOC5MgAmYFwG9CqxYlRrPXoeBjg/quuTMJke2uON51Pf7J09wpFuzjA9D6ohcdQeg7tiusJNbALEKvFrxLbYvuPKZtmSQe5ZDrcUrkDe3DaBWIeL6Rqz6/tdUn8mKHFjNNh2G3C1nxueYwhO6EFgBSuAtC6wsWS9uhAkwgS8jkJ8EVuoXSn1Zo/wUE2ACqRJggaV9gUU9xEdi7dmzR9yql1okFiXKpsirZs2aoVTJkiL/lbkWugFv9O+/4cmTJ6DbCEf+MgLVq1cHCT4u2iNAie5pn4aGUl4WTcmePbuIfmvZoqX2OuaWmQATMEgCehNYKpUab94rEBQapRcwdrYy+Hh8fMckJjoGO9vWRnRIYLrHI3PzRdEuv6J0m1qwtbEA1DF4v28R9o6cjdBUEzdJ4Nl0ICr37YacXpp3V2Le38Dp4X1w61Jc9FUKI8iswLLJ5gYSWBKLrAkl0InAUgBvwzkCK90bkisyASaQ5QRYYGU5Um6QCXyWAAss3QiseIl1/sIF7Nq1C3fu3km2LiSrypYpi5YtWqBI0aKQm+GxwcRQ3r1/j5EjR+D5ixci6fpvo0ajatWqZpnQXpffxqbNmI4jR458cvEA3URIAuu7b7/T5VC4LybABAyAgN4EVkh4NF6+CdcbArrllvJg0Q9K8eXqqqV4sHJOOsZkAecq3VFv3CDkEMf/qKgR+eIo9vfpjpevUm7CIldF1Bw3A4XKemluMaSnYgJx+/cmOL7r7Wf7zazAqjRqGnLXa5KOuaWvCgus9HHiWkyACRg3ARZYxr1+PHrjI8ACS7Nm2jxCmHhXBIeE4PTp00JiPX7yOEESUI6r0qVKo3nz5ihZooRZR17F86IIrN/HjsHjx49BNxL+Mnw4alSvkak8TLEqFd6+eYPTZ86ICCMnR0fUqlUL2bJlM74Xr5ZGvHrNauzctUtEDVKRSCRwz5kTHTp0QJOvsu53Gy0Nn5tlAkwgiwnoRWBFRavE0UHKf6WvQtoql7sdHOISqtM4Pjy4hxNDu6cjCisnCoxdhTotC4qcV+oYBd4f+Rtn507EyxepzcgCLlV7ocW8n2EbdxxF+fwcri8cg0t7074JRmrXFa229IeDNRBy4C/smzgfn7/H5OM4bHN6oNHKHZDapJ0QPr3rwQIrvaS4HhNgAsZMgAWWMa8ej90YCbDA0q3Aot5IDFAk1s5dO3Hv3j2RoL1kiZJo0aIFy6tELyLKYzV95gxcv34dkZGR6NmzJxo3agwHe/svfqkplUqcOXsGf/31F976+6NA/gIYMngw8ubN+8VtmtqDt27fFoL18pXLInl+9mzZxdHNRg0bwsfHx9Smy/NhAkwgDQI6F1hqAK/ehiMkLH23nmhzBV2crOGeXY74GKyYqCic/WMY/E4eTLtbKwc03nQOeb1CcG/h7zjz9yEoomI+/5zECnnH70HDJl4IO7kC+0bOx4ewCKgJSlpFYg1rBzkockwVpUS0Qpnu2/mKfNsLxbsPpPcs0uol3V9ngZVuVFyRCTABIybAAsuIF4+HbpQEWGDpXmBRjyGhoTh16hQOHDgAFxcXNG7cmOVVkldQSGgI/v77bxw+ckQkwm/YoCE6duwIL0/PL36tkZDZsGED9h88IG4orFatGnp06w4PD48vbtPUHoyKjsajR49EEvzgoCBkd3NDieLFkStXLlhacpJKU1tvng8TSIuAzgVWuCIGL9+GIzY2PdYmreFn7utWMgvk8XKA1PKj2Hl35xaO9e8ItSrtxPJOxWrD8uUFBARn4CikpCjyVLTEiws3EKuDADQb1+yoM3cN7L1yZw5WkqdZYGUpTm6MCTABAyXAAstAF4aHZbIEWGDpR2BRryRlSBLY2tmhcKFCmToaZ4obND5aavWaNXj16pWIkurRvTtKlSoNK5ksw1OmY4iUEH7e/Hl4+PCheGO6U8dO4nY9JyenDLfHDzABJsAEzIGAzgXWa/8IvSVuT2lBc7jKkd3l440qlJTx3o5/cWPWbyax/tUmLoRnlZpZGn1FYFhg6WB7qNUICw1B4Id3iI6JhqOjM5xcs0Ems9JB59wFE2ACRIAFFu8DJqBbAiyw9Cew6GdgyslEb+tyZEvyfU/Cyd/fH/MXzMeVq1eF4Ktbty5aNG8Bn9y5M5TMnVgHBARg1+5d2L59O8IjIsTNev379UO5suX4ZkPdftvh3pgAEzAiAjoVWFExKjx6HpK+I3NZADE0NAxv3vgjJDQMqtjUI6oa1S0F9xyuCT2qYmJwZuZ4vN77D3Q22CyYb+ImLKysUKLbQBTs0DWLW9Y0xwJLK1gTGqUfkl4/f4IrF07h3q2riFIq4ZHLByXKVkKh4qXh6OSi3QFw60yACQgCLLB4IzAB3RJggaU/gaXblTbO3qKjo7Ft+zb8888/CAoOhoODA1q3ao2GDRqIxOuUYDytQvIqIiICZ8+exd/r1+H169eQ28hRp05ttGvbjo8PJgFIUvXD+/d46/8WCoUC9nb2gpGzs3O6eKe1Hvx1JsAEjIuATgWWrqKv6B+GoKAQnL9wBSdPnsPLV68RHZW6wKpdoyzGjOoNRwe7hNUL8ffHoUm/I+bqceNa0bjRFvmuDwp37A6p3FYr42eBpRWsotGoyEg8vHcDOzatxvEDO/Hhvb+4rtnK2hoFi5ZC647dUKNeEzg4uWTo3T7tjZhbZgKmS4AFlumuLc/MMAmwwGKBZZg7UzMq+nns+YvnWLv2b1y6fAnh4eHw9vZGvbr1ULVKFSFWrKxSj5RXqVSg2wyvXrsqbtaj3E7UZuHChdGtS1cULFjws88bMhttje3Fixc4dPgwzp07h4DAALi7u6N2rdoikbtb9uza6pbbZQJMwEAJ6Exg0c2DT16F6iT3VWysCqdPn8e//+3Gs2cv04X+1+Hd8e03TZKZ/O2/DkPk2b2ASgcJq9I10s9XspDJULrvcORr1TELWku9CRZY2sFLkYIP7t7EmiUzcHTfDoSFBn/SEb2zV6REWXzbaxCq1mkIZxf+h1s7K8GtMgENARZYvBOYgG4JsMBigaXbHZfx3igK687du9iwYT2u37gB+tjR0RE1atRArRo14eHpCTs7O1hbWYmjmCStqA5FXdGxwfMXzmP37t348OED6HYmkl4UeVW7Vi3I5Vl3Y3jGZ2aYT/yz5R/8t3Ur3r17JwZIPwvn8cmDDh06oG6dOoY5aB4VE2ACWiOgM4EVHBYFisBK1417mZxuTEwstmzZga3b9iIyMgr29nawtrZGcHAIYmJSvimQoq/Gj+mHhvUqf9J7eEgo7mzdhCe7twBvn2VyZNp93LVkRRT6uiO8qteDRMu3crDAyvq1jIxU4vH929iwYj6O7d+B4KBAqNXJxanMygr5ChZDx279Ufer1rB3cITEwiLrB8QtMgEmwAKL9wAT0DEBFlgssHS85TLcHUVM0e8T586fEyLq7r17Qk7R7xqeHp4iiiqvb164ZXeDjbW1yGMaGBiE58+f4979e3j27JmoT3Irt7c3GjRoiJo1asDV1ZWPxKWwGrNmzxIRWFFRUQlfJdHXoX17kfSeCxNgAuZFQGcC6817BQKCI3VCl/5R+Xvdv9i2ba/or2yZEihUOD8uXbwOvzdvERGhAOUYSlpcXRwxZ/owVChX7JMvqVRqBL9/j1MrlkKxb51O5pCRTiytbVB8wG/wrdcIUhubjDz6xXVZYH0xuhQfjI2NwYM7N7Bi3mScPrYfYSGfRl4lfcjCwgKFipVGj4EjUbVuY8i1dFQ0a2fJrTEB4yPAEVjGt2Y8YuMmwAKLBZax7GASKrfv3MHOXTtx4/p1hIaFid8v6Gc0+pM4HxZJL4rEoj/0eRIweXx80LRpU1SpXAW2trYsr1JZ+Lnz5uLAwYOIjPz4eyRFuH3ToQM6tO9gLNuFx8kEmEAWEdCJwKKoq6evw6BQphz9lEVzSWhGCKy//8W27RqB1bhxXXz7vzZ489Yfly/fwMWL1/Dy5WsoFEpx7jxxyZkjG0b83BW1q5eDjc3H2wnj6zx//AxvTh5E8K3LCPN/C1VIABAeAlWUUusJ3yUSC1jKbWHlkh1yN3fYuuVAzkq14Fm1NqzluhFX8RxYYGXdro1UKvDkwR2sXjwTJw/vQWhIULJ9mVJvcls7lKlYHb+MnwvvvPn5B5+sWxJuiQkkEGCBxZuBCeiWgKELrFlzZuP48ePi3+lWLVuiceOvtAJo166d2LFzp/i3vX69ehjQfwBsdPQmpVYmZIKN0h6go4F+fn4iGuvCxYvi/xWKCHEChH4fiRdWUqkUVjIZbORyZHPNhuLFi6FGjZrImyePkFnpSf5uggjTNaWDhw5h+/ZtePL0qeBtY22DYsWKonXr1ihfrny62uBKTIAJmA4BnQmse0+CoPrUFWmNYlKB1aRJPXTr2lEcX6Rkiw8ePMbJU+dw585DcawwKir6E2Egl1ujVfM6GDGsG6xk0hTHqVQoERkWCrUygrJuQx0bDWh7fhIJKMeV1NYeUjsHyOS2sLDUz9ExFliZ376aEPRo3Ll+BX/OnYAr506KnFdJpWpqPdEPOx7ePhg2ZiZq1G8KqVSW+UFxC0yACXxCgAUWbwgmoFsChiyw6Aa0ZcuW4eDhQ1AqlSJqRls5ixQREYhQKET7jRo2QreuXVlg6XYrprs3klQUHUQ5mu7dv4979+7i1atXIt+VMjISMqkUTk5OItdVPt98KFK0KLw8PSG3lUNqmfLvGenu3AwqhoSE4PSZMzhx8gTe+b9D7ty5hdQtVaqU1l5/ZoCVp8gEjJaATgRWuCIGz16H6QxSUoFVvVpFdGjfEi6uzrC2thLhvaGh4Xj0+CmOHz+D27cfIDRUE/abuJQpVQgD+3YE/Z1SNJbOJpSBjkjSpeMG3wy0mHJVFliZRgiR8+rebSyfNwlnju1HRHhYuuVVfO9uOT3QZ+gYtGjXGTKr5BGDmR9l1rZAr7HgoCCEhYVBqVDA2sZG/AJAVyFTbi8uTMDQCLDAMrQV4fGYOgFDFlh0ZOzY8ePYvmO7uD0utbyqWbVGMpkM+fLlQ6uWrVCjenXQx1wMlwD9jEN7hP5QpFCsKhZqlVpEV1G+K0upJaxkViJXFkVkcUkfAXpjl+Qx/YmJjRGvAztbTX5jLkyACZgfAZ0IrHeBSrwLUOqMblKBZWdni7x5c6NihTIoW7YksmVzFlfU0j8w794F4MLFqzh//gpev34jvjnSLYbxUTD29raoUL4YvmnbCJUrFBcCzBAL5ekKjYiGQhkLNxcbWFpKtDpMFlhfjpf2VlRUJO7euIK/5k/B5fMnEBqcvmODiXulH4i8cufF0DEzUb3eVwYdgUU/yJ08fgyH9u2H/9u3CAj4gNCQENjZ24t3JXN6eKB4iZJo8XVrODo6fTlcfpIJZDEBFlhZDJSbYwJpEDBkgUX/foeGhuLUqVM4euwY/N74aU1ikeDw8vQSN9NVqVoVDvb2fMyMXz1MgAkwASZg9gR0IrBevAlHaHi0zmAnFVjUsVRqCRcXZxQo4Isa1SuhTJkS4t0QilaiXFgfPgTg7LkrOHfuMl698hPvnNAPKlRHLrdB8eKF0KJ5fVStWByuznJYilvf6F0VzXWuujy7TlFWavpPDcTEqhAaFo3AkChEx6ggk1ogj5e9+FubhQXWl9ONjo7Cw7s3sWTGOJw/dRiKiPC4vSYVST8poTuFo6dVbO3sUb5KLfwyYR48cvnodA+mNbb4r9NriELoJ40dgwvnzqX5WK7cuTFqzFgUKlJEsODCBPRNgAWWvleA+zc3AoYssGgt4qNBQsNCERMdk+HI6fSuJ/1cKbOSwd7eHnIbzpGUXm5cjwkwASbABEybgE4E1uMXoVBGJb/1T1toUxJY1Bf9QkxHAXPkyI58+fKiYoXSKFKkAGzlckACBAYG48nT5zh/7jJu3b4njhkWLpwfVSqXE/Vz5MgGKytrxMZEIzQ0BM+ePsPr16+hVqkglVlCQo0kKg4O9qhXrzropowsKXHiKjZWjZhYtRBWUdGxQmTFF/rBL28uB1jJtPvLPwusL1tROjZ3//Y1rF40HedPHxGRV1RoX5WvWhu5fHxx5fxJPLp3W4islAr9UGttI0e5yjXRpe8wlCxXWXxsiOXunduYOmECHj14kDA8Gn+27NmRLbsbggID8M7f/xNhR0cKB/08HPUbNYSFhaUhTovHZEYEWGCZ0WLzVA2CgKELLIOAxINgAkyACTABJmCmBHQisO49CUasrjK4AyKcO/EthEnXln6BpiOEnp45xbHCWrWqCjlFgosiryix++vXb/H+QwB8cnsjVy53UZ+eCwoKweXL13H69AUhu0JCkufOiu/P3T0nxo4ZAje37DrbXhQR5pvLAdZW2v3FnwVWxpeU9uW9m1exeMZYXD53PCHnlbW1jZBX3/YahPyFimHXv39j8+rFePX8SYqdkOwqXqYCeg36DWUr14BMptmbhlYoAe2PfX/AvTt3EoZWolQp/DL6N7i5uUFiYSHeuQ4LDcXypUuwa9u2hHo5cubE1Nmzkdc3n6FNi8djZgRYYJnZgvN09U6ABZbel4AHwASYABNgAkzAYAnoRGDdeUz5fXTHIC2BFT8SOlbo7OwEHx9vlCheGGXKFBeyifJcRcfEICoySiQIJDlAtxc+evRU5Mq6fee+yJ1FN458ruhDYNF48nmzwNLdbktfT3Sl8sM7N7FmyUycObYPYaEh4kGKnKpYvS46dR+IEmUrwc7eAS+fP8a/fy/D7i3r8Ob1i4QOaB/Kbe1QoWoddOjaD6XKVYadg2P6BqDjWjHR0ViyYAE2rV8neqaoqh4//ICv27VPUbZR4tN9u3Zh0fx5CAkOFs+0atMGPw4dxkcJdbx23N2nBFhg8Y5gArolwAJLt7y5NybABJgAE2ACxkRAJwLr9iPNMSldlfQKrPjxUJ4rV1cXFC6UD9WqVUSpUkUTbragX6wfPX6GM6cv4uatu/Dze4uICEW6pqIvgeXr7QAbjsBK1xrpolJMTDRuXb2IFfMn49KZ4wgPCxGRRxR5RRFUFHlVvkptcSMflajISGzbtBJ/L52Dp4/uJgyRZFeFqrXRuc9glK5ItxEZZuQVDfj+3bsY9tOPCAoMFONv17Ejevft99mbBul1O3/2LGz95x/BJ7ubG/5cvQYurq4pLtPrly9x/NhRXL9yVdzmU7hoEVSrURO58+TJUEQa9XXn1i3s37Mb/m/9UbJ0aTRp3hyOTh+TydP3gVMnTuDU8WMigW/pMmXR8Kuv4Oziku4tFB4ehuNHjuLMyROQymQoVaYsatSuDddU5pe0YcqLRkcxTx47hgf374n1L12uHKrVqAGKWEur0DxfPH+O40eO4M6tm+JNBZorjcErV660Hhdff+Pnh6OHDuHm9Wvi2GeRYsVQqWo1FChYMEPM09WZgVRigWUgC8HDMBsCLLDMZql5okyACTABJsAEMkxAJwLLUCOwEtMS0S1yG3jn8oRvvjwoXqyQiMa6ffserl2/jSdP6LhgaLqSa8e3qw+BRQfJSGDxEcIMvxa08oBSEYH7d25g3bI5OH5wZ1zCdkBuayuODXbo0g9lKlYTkVdUKHLp9LF92Lx6Ca6cO6GJ1JJIxNer1KiPtp37iMgruZ29VsabVY1uXr8ei+fPE8d5Pb28sHD5cri4pCyiEvd55dIljPp5mOBD9cdMnACvXN6fDItk06J5c3HtypUUh1uqTBn0/KEvihYrBssk11TTtee9v+8sjgr75suPX0aPxt+rVuHYkcOftEU3If40bBhq16uHc2fOYOqE8QgMCPikDkVn9h80GM1atvwkSoxuV+zSqSPev3sn6i9avgJPHj/G0oULEoRefEM0z47ffotmLVuJvGApFUr6f+3KVSyZPw/3791LsU71mrXQrXdv5MufP9nXSTQ9fvRIPE+J9ONvWE1csUKlyujTvz/yFyyY7Hmq//LFc6xbvRp7d+1K8Xugt48P+v80CBUrVzK5vGUssLLquwK3wwTSR4AFVvo4cS0mwASYABNgAuZIQCcC68GzEJFwXFcloxFYicclEmRbU34sdzg62OPV6zcICAgCRWBktOhDYFlQEncvexZYGV0sLdQn8XDj8jn8vWwOzp88jNCQuITtFHlVqTq+7TkIFapR5JUmATtFXp07cQibVy/CxTPHRI4sKnRssGqdRujYrT9KlasSF8VkeDmv4hGS8Jgw5ncc2LtXfKpT5+/Ru1+/dBFWKBS4deMGXFxckM3NDU5OTp9E9pw6fhyzpk0Vid8/Vyiqqc+AgWjUpMkn1RILLNds2eDh6YVbN66n2BRFV7Vp3wH/bt6UTF7FP+Do6Iipc+agSNFiCW0kFVgNGjfGscOHERUVleqQKQpq6IiRcHZ2TlZn65Z/sGzhQoSFafZDaoWiqAYN+xkVKlf+pMqDe/cw/vff8PRJyjnV4ivnzZcPU2fPQY4cOT5l9uABJowd80ki/pTGQBFrPw0dhnoNG6ZrrY2lEgssY1kpHqepEGCBZSoryfNgAkyACTABJpD1BHQisJ6+CkOEMuUb1bJ+SmkncddGnym1qQ+BJbW0QB4ve76FUFeLnEo/kUoF7t68gg0r5uPIvu2gj0ns2NrZi1sDv+naX+S+oo+pqFSxOHV4LzauXIirF06JyCsRFWhnj6q1GqJDl74oWb6KOHZo6IVkb9/u3XD3zh1YWVtj9Lg/ULN27UwP++7t2xjQu1eCCKLbPcuUL4/6DRuJtimK6uK5c0L0EGt7BwcsWLoMeXx9E/pOLLDok3RxQ053d7Tv1En8vXfnTpw5dUpEaMUXqkPRUXQMMpe3N04cPYYjBw9AqVSS6ANvAAAgAElEQVSKKhT9NG7yZNBRZCpJBRZ9jo4MeufOjeatWsPdw10cezywb6+IyCJetNbdevXCd127fSLsrl2+jGGDfkKkUik+7+DoiEpVqqB6rVpQxaqwb89uXL9yBREREaJvknLzlyyFl7cmao04zJg8CTu2bhXP5/bxwYDBg1G6bDnx9RNHj2LJwgV48/q1+Ljl11+LGyDjLwWgfGSD+/fDg/v3xdfdPT3RtUdP1KxTB5RD8PLFS1i2aCEexn2djnIuXbkK+QoUyPR6G0oDLLAMZSV4HOZCgAWWuaw0z5MJMAEmwASYQMYJ6ERg+b2LQGBI6tEHGR/255/ITARWVo5FHwKLjg76eNhBKrXIyqkka4tvIUwdL0Xa3Lx8DhtXLcTpI3sRGqJJSm5lbYNylWsKGVW5Zn3YyG3F50lOUMTVxpULcPH0EUSEh4vP29o7aORV134oXb7qZ/NHaXWxM9h4eFgYen7fGa9evhR5pCZOm4YSpUpnsJVPq5NQmjllCvbs3CGkTF5fXwz6+WfRLgmm+HLn9m0hbCjqiErFylUwduJE2NrZiY+TCqyq1Wvg17FjYB93hJMuZlg8b56IuoovJHt+nzAerq7ZxKfomOeqv1Zg9fLl4mOKmlq5fkNCrq6kAsve3h7fd++Blm3aJOTWo+eIEx2z3LV9u5BYlOtrwbJlCUcmg4OCRB6x+Fsc6QbHwT8Ph2+iY4L03OWLFzF3xnQ8f/ZMsOj47Xfo2bevkFBRUZHo16Mn7t+7KxLpj500GRUTRWgRy4sXzmPyuHFw9/AQObG6dO8h8rGpYmOxdtVKLF+yRMyTIrTGjJ/wiRCkz9NRyT9+G42rly+Leh06dUKvfv1FXjJTKCywTGEVeQ7GRIAFljGtFo+VCTABJsAEmIBuCehEYJG8Iomlq2LOAsvWRgpvDzvQD4DaLCywUqZLwoAStm9auQBH9+8A5cAiSUDHAIuVKo9OPX9EtdqNEo4NxsbE4Myx/fh7+Vxcv3QW4XGRVyS3qtVprLltsHwVWFlZa3M5s7TtsLBQ9OzcGa9fvYKTszMmTZ+OYiVKZqoPkiQUfUVtklwZP2WKkFMpldu3bqF/zx5CCtERxCmz6YhfUVE1scCys7fH2ImTUKFSpU+auX71quiLikwmw4jffk92LI6iwXp37SLq2NjYYPXGTSKCi0pSgVWnfn3RBuXMSlr8377FD927JeTL+mHAAHzz7Xei2vmzZ0U+MJJqJIMol1bBwoVTnPPRQwcxYcwYEZ1GebAWr/hLRL9RlFjfHt3F8T8a529/jEe1mjU/aYP2Z3wUGAmw+Ogrig4bMqA/Hj54ID43bfacZMcT4xuifGRDBw4Q/VOC+/HTpsHBQZPXzdgLCyxjX0Eev7ERYIFlbCvG42UCTIAJMAEmoDsCOhFYUdEqPHweorNZmbPAcrKXwTOHHeX91mphgZUcL8mrm1cuiBxWJw7u0iRgB2BtLUepClXR/vs+qF73q0SRVwpcPncS61fMw/mTh6BUaG63tHdwQqUa9dCha1+UqVDdaCKv4oloQ2BdunABwwf9JI720c13U2bOEnIspUKvf6p78fx5WFlZYcgvv6Bx02aiamKBRTf3zZy/QBztS1wokqn7t/8TMkYul2PekqUoUKjQJ3VIpHXp+I2QS2kJrF/HjEGDxl+leEsfJVhfNHcONq1fL9qvVbeuOHJJwmr92jVYtmiRiISi2xX/mDIl4Zhi0nm/ffMGwwcNwpPHjyCX22LxihUiUorkFCWg371jh3iE8mR93b69uDXQJ09eESGXOIItcbsU+TVi6BB8eP9eJOKfOH16qkdYg4KC8PuIX0BCLk/evJg+bz7c3Ny0+j1IV42zwNIVae6HCWgIsMDincAEmAATYAJMgAmkRkAnAouuayeBpatE7uYssNxcbeDmov08SSywPn1JRUYqcStOXh0/uEskYI/PeVWkZDl806UvajZsDmuKpJJIhKwiaUXHBq9dPIuw0GAhOCjyiiQXRV6VKFMxIVLLmL6F0dG4Xl2+x8sXL0B5qsZPnYqy5Stkagr7du/GxLFjRBt0M+DI38ekGNEU3wklPafjbyRnvu/eHV169BRfSiywPDw9MXfxEpDISlwSCyw6drd01epkkisjAmv5mrUp3u4X3+fJ48fx67Ch4sOChQpjxvz5oGOHC+bMwZaNG8Q+6tW3H/73/fepMqRjp7+PHCGitmgfTZg6LSHSiqKvRg0fjtevXiY8T/nBKEKKbkEsU7YcWrVtK+YYH31FFS+eP4ffR4wQOcUoEo2S2qdW1CoVAoOCQBGFJMlmLViYEJGWqYU3gIdZYBnAIvAQzIoACyyzWm6eLBNgAkyACTCBDBHQicCiEb14E47Q8I+JkTM0ygxWNmeB5eNpDzu59nPPsMD6uCmjo6Jw69pFbPxrAY4d2JFweyDdLkgJ29t37oMa9ZsmRF4plQpcPnsCa5fOxMUzxxEVqUkGbu/oJHJkfdvzJ5SuWA0ymVUGd75hVKeoop/6/gA6VkaJzYf8MgJNW7TI1OD+XLQIa1b+JdqgCKL+Pw1KNRqJ6qxYuhSrlv8phAwlRu/eu7d4Vh8Ca+W69SJ/VGqFIsXoqB4VSn5O8ocEFuWl2r93j5jn8FGjk92omLg9xf8ncR/z6684e/qU+PQfk6eIROvxhW52XLpwAZ49fZrijYokqJq3bo3vu3VPEFUH9+3DlPF/fPb2xJTmxAIrU1udH2YCZk+ABZbZbwEGwASYABNgAkwgVQI6E1jvg5Tw/6D5RV3bhQTW+g3/Ydu2vVCp1NruLsX26RdnLy93/DZ6MLJn1yR/1nahH/oK5HGEhbbPDwJggaVZTZJRt69dxObVi3Hy0G5xbDA+51XRkuXQ9rveqNfka3EMkPYERWaRvFq3Yi6uXTj9ieyiyKtOPQaCnotP8K7tPaON9mn+0ydPws6tW0XzlAOKci+ldlQt8RgCPnzAvJkzYWtnC+/cPmjQuLG4AXDrP/9g1rSpomrDr5pg2MiR4nhgasWYBNb5M2dEsnYq8QKLoqNmT5uGbf9uEftmwKDBaNOhQ6rzTUtg0YN0WcDTJ09Evq1Xr17i6qXLuHLpYsINhtRP+UqV8Pv4CSI66/TJE/hj9Gjx9RIlS6HT953TtV1sbOQoVqLEZyPk0tWQgVTiCCwDWQgehtkQYIFlNkvNE2UCTIAJMAEmkGECOhNY4YoYEYWlC6FECYl37TqA/7buQXBwaIahZMUDVlYyFClcAAMG9oCrS8q5erKin8RtuDpZwT275mY7bRcWWBD5mO5cv4S1S2fjxMGdUCg0FxVQkvFipSqg3Xe9UbdJ64RjgHTM8Mq5E/hrwVRcOX8qIfLKzsERpcpVQfeBI8TfUplM28un9fb37NqJGZMng6LTKEfU/KXLkuWRSmkQp0+exG+/DBds6fjen2vWiiNpZ06ewMhhw0DRXeUqVBARRpSEPaVCAm3c6FE4fOCAyCXVf9BgtG7bVlTVRwTW5JkzUaVa9VTHunrFCqxYqrnpr1KVKvhjylQh51YtXy6iyGjOTVu0FNIu8RG/xA0GBgTglyGDQcnlKZqK8nZRrrC0Ch1lXbZ4Ef7bvFkkcqdor6mz56B8xYqgZPajfv4ZwcFBKFSkiEgiT183t8ICy9xWnOerbwIssPS9Atw/E2ACTIAJMAHDJaAzgUXi6smrMERGxWqdBvX18NET7NlzCJcv30B4eIT4JVAXhX7BpF8gc+f2RP16NVGjRmXI5drPSWVhIYFvLgdYySx0MU2zj8Ci2wXv3ryCjSsX4uShPSKHFYkTipwqVro82n7bG3UatxTyivZEeFgorl86g7+XzRaJ2xUR4WKd6HbCKrUaoHOfIShYrBRsbGxTlRQ6Wdgs6oRyRA3u3x9+r1+JFkmI0E182T+T2JtuzPvjt9E4dfy4YFmlenWMnzJVSKgXz59jYJ/eoAgtF1dXTJoxM+FmwaRDfvHsGfr16ongoCBxFI+EUNny5fUmsFq3a4d+P/4kvi8kLTTGIQMH4MG9e+JLXXr0QJfuPSCxsMDhgwcwcexYIQEpCm3BsmXw8PRKcYXoGOKYkSMQGhoKT69cWLpqlYiioiTzjx8+xMP794VYrdewYTIJRdwH9f0BdHsj9Tv455/RvFVrUGL4YT8OBOUEs5HLMWPuPBQvmfJtkhTVRRFbJUuVhrePj0mJLhZYWfRNgZthAukkwAIrnaC4GhNgAkyACTABMySgM4FFbANDouD3ThOlooty584DHD5yEk+fvUBUpHbyb4nL/hLd+EfHpJycHVGlUjnUrl31s8ecspKBva0M3u7av30wfszmHIFFR1RJXi2fOwlnju0HySwqdEywcPEy6NitP+o3awsrStgOgG4nvHLuJJbO/gM3Lp0TH1Mid1tbOxQvWwn9ho1FsdIVhagxpbJ1yxbMmjolYUo1atfGmAkTU5wnSZoJY8fgyMGDor61tTXGTZ6MylWriY9JxIz5dSROnzghPi5WvLi4QZDESuISERGOEUOG4Orly+LTdCRv9sJFcHR0FB/rIwKLEqZPnTULxUp8Kn9I0m1c9zeWLlggop9o/ZeuXCXGTOWdvz96ft85IWdVtRo1xFHMpHOm44M/9v0BdGsgFco3NmzESCGjKKJtxJDB4vOu2bKJpPVJb12kaLdB/frixrVrQp7+OHQoWrVpK8Y0a8oU7Ny+TTyfv0ABzFm8GPb2Dp8wp3qTx/+B/bt3i+dbtmmLAYMGmcx+ZoFlSt+VeC7GQIAFljGsEo+RCTABJsAEmIB+COhUYKnUajx+EYqoaN1EQ9EvZpGRUSDhQL8saqckslfksiQQvzhaW1nB2lqT90jbhbpwzy6Hi6NGmOiimKvAIln14O5N/L10Nk4docgrTc4ryvtDtw3SscHajVuKyKr4yKsbl89h7bJZuHDq6Mdjg/YOKF+1Nrr2+xkFi5UWz+tir+hib8T3ERUVhZlTJmP/nj1ChlDJ6eGBho0aw8PLS+TEInZ0/O3IoYMJUUhUr279Bhg6cqS4xZAK1Tt57BjGjvpVHC+kUqpMGTRq0hR58uYVET8UKXTowH5QTimKuJTL5fh51CjUqVc/ga0+BBaN1cnZGe06dkShwkVENBXdCHjrxk1s3fIPSEARi6+aNRMJ7+OP6dGcd2z9D3NnzhRRWCS4qteqhRq1aon8YMTh8aNHos79u3cFE0cnJ4ybNAllymkizsJCQ0Xk2qOHDwWD0mXL4uv2HeKYWcD/rT9OHDuKfzdtEoxJHM5ZvCQhuo0iw34e9JOIfKPn6fhmo6ZNxW2JMpkUfq/9RKTYrm0ayWVrZ4eps2ajRKlSutxqWu2LBZZW8XLjTCAZARZYvCmYABNgAkyACTCB1AjoVGDRID4ER+LtewWvSBYSsLSUIJ+3I6SW2pdl8cM2N4FFv9yThKGcV3/OmYhLZ4+JY4H0ebotsEjJsujYbQBqN24BuVwjXSKVClw8cwwrF07DzcvnRI4skgByW3uUqVQNvX4ahSIly+ssSi8Lt1y6myI5NXXCeBEJlLgkzqUUL7fiv07H1MZNmixET+JCInrdmtVYsWRJgpAmqSO3tRVBkJRsnOpQofa79uyFTp07f3KcTR8Ci24gfPLokVh7ip6ytrIWe4GiyuJLbh8fTJg2HfR34hIbE4O5s2Zi+7//JhyDpqOINGe1SoUIhQJUhwq1/8tvv6FBo8afzJmi1iaOG4vQkBBRjyQViSaqT2OICA9P4Ek3Nnbt0QOWcdGAtL+PHT6MyX+Mg0Kh+b5N/dPRTBL1dPyQBBzVo/b6DxqEr9u1T1fC/nRvIj1XZIGl5wXg7s2OAAsss1tynjATYAJMgAkwgXQT0LnAio5R4blfuE5yYaWbghFXpOgrzxx2cLLXbeJvcxNYItrl/i0snzsZp4/uTZBXlFeoYJFS+KZbP9Rp1BK2ccerKMfV1YunsXYpRV4dERE0VOzsHYW86j5gJAqXKANraxuTi7xK+nKiSKzN69djz84dIpdVaiWnu4eILurRp48QNCkVEiV0M9+mdevw6uXLZFVIorh7eOCr5i3QoVMnkUA+cdGHwBozcSJ2b9+BK5cvJeyD+DFRsvaChQtjwODBKFykaIpzJjFHid4P7N0jbhBMqVAUWsfvOqNRkybJ9hNJPboRcsvmTXj5/HmK+QAprxgliu/Wq1ey/FUkGPfs3IlN6/4W65dSPsEcOXKKWxLbd+pkUvKKWLPAMuJ/IHnoRkmABZZRLhsPmgkwASbABJiATgjoXGDRrAJDIuH3jqOwsmKFHWxlyOVhlzgNV1Y0m2Yb5iawggLeY8KIfjh3/CBCQ4I+ibz6pms/1GzQHPYOmjxLSqUCF04exrrlc3Ht4llEhIfGRV7ZoUK1OujWfzgKFy8Laxs68qm7qLk0F1WLFShayM/PD08eP8KdW7fx8MH9BBGSN68vChctCt/8+ZErV66E6J/UhkMCheQVHW+7dOE83sVJnezZ3cQROWorl7d3iiKFZNDtmzfEbagUiUQ39ZFESlzoZr6bN6iOSsicYiVKJBNhFLlEOaNEHQsLcWTOylpzhJcinbp06pggmyhXF93iR7f6nTtzRiS2J9GWJ6+vGG+JkiVBebI+V6ifJ48f48G9u7hw9hxCwzS3q9INjaXLlBUSLKe7e6ryiMTfmzd+4pbC61eu4NUrTXJ9J0cnlC6neZ7Gk1KieapHz7/188OtmzdFfrG3b9+I512cXVC6XDkULlIEufPkMank7fHrwQJLi98YuGkmkAIBFli8LZgAE2ACTIAJMIHUCOhFYNFgXrwJR2i4dhKrm8ty05FBb3d7yG10f7W9uQms9/5++KHjV3h494b4ZZ6OWBUoXALf9R6M2o2aw05EXklEgvaLp49h7dKZuHjmOKKjIkHZ1+zs7FGiXGX8MPh3kSuLEr6bWs4rc3ndpTXPZAJr3nyUq1gxrcf46wZKgAWWgS4MD8tkCbDAMtml5YkxASbABJgAE8g0Ab0JrMioWCGxdJXQPdOkDLABNxcbZHehI2i6H5zZCay3fujVoQEe378tYFOS9r7DxqJFhy5wcnYR8ooir86fOISNKxfi6oXTCA8LEZLK1s4eFWvUQ5cfhqIQJWwXN+fpYdF0v03MskcWWKa17CywTGs9eTaGT4AFluGvEY+QCTABJsAEmIC+COhNYNGEg0Oj8Mo/Ql9zN+p+He1kyOWuSRauj2LuAosirn6bvgyNWrQTMkoVG4szxw9g9eIZuHr+FCIjlWJZbGxtUapcFfT9eRyKlSwvIrc48kofO1Z3fbLA0h1rXfTEAksXlLkPJvCRAAss3g1MgAkwASbABJhAagT0KrBoUO8ClXgfqISazllxSRcBWxspcrnbQmppka762qhk7gKLoqqGjZ2FOo1bQQ01rp4/iS1//4kr504mRF6R5KpUoz7+1/NHcUth/O2E2lgPbtNwCLDAMpy1yIqRsMDKCorcBhNIPwEWWOlnxTWZABNgAkyACZgbAb0LLBJXb95HIDBEc0sbl88TsLCQII+XPWysdJ/3KvHIzF1gUXJvn3yF4JrNTWD58O4t/F49h1KhiSikyKvyVWqjW/9fULJcZZHcmiOvzOPVzQLLtNaZBZZprSfPxvAJsMAy/DXiETIBJsAEmAAT0BcBvQssmnhsrBqv30UgLDxaJLzmkjIBK5kFvHLaQW6tX3lFozN3gZXaHiVJZWfviMo166NDl74oXrYS5HJb3tJmREAREYG5M2cgJCREzLpbz17IV6CAGREwramywDKt9eTZGD4BFliGv0Y8QibABJgAE2AC+iJgEAKLJk/X2vsHKBEYEsnHCVPYDUJe5bAV4sgQCguslFeBkruTvPpfjx9RqkJVSKUyjrwyhA3LY2ACX0iABdYXguPHmMAXEmCB9YXg+DEmwASYABNgAmZAwGAEFrFWq9V4FxiJgOBIIbS4aO6qs5VL4ZVTvzmvkq6F2Qks/zfo/21TPH5wJ9VtSbcLVqxWF+2+74NS5avAxoYjr/g1zASMnQALLGNfQR6/sRFggWVsK8bjZQJMgAkwASagOwIGJbDipx0SHg3/DwpERat0R8JAe3J1skZ2FxtILUllGU4xN4GlUITj8J6tCAkMSHURrKytUaBISRQpURYyKyvDWSweCRNgAl9MgAXWF6PjB5nAFxFggfVF2PghJsAEmAATYAJmQcAgBRaRj6G8WP4RCI8wz7xYMqkFPHPYwk5uGEcGk74azE1gmcV3A54kE2ACyQiwwOJNwQR0S4AFlm55c29MgAkwASbABIyJgMEKLIJINxSGhEWJGwojlDHGxPWLxyqVWsDZQQZnB2tQ3itDLSywDHVleFxMgAlkJQEWWFlJk9tiAmkTYIGVNiOuwQSYABNgAkzAXAkYtMCKXxTKhxUaEY237xUiMssUi0QCuDhag44MGrK4imfPAssUdyHPiQkwgaQEWGDxnmACuiXAAku3vLk3JsAEmAATYALGRMAoBFaCyFKrERoWDcqRpYyMRUyMCsass+iHNCsrC9jJKeLKyijEFQssY3p581iZABPILAEWWJklyM8zgYwRYIGVMV5cmwkwASbABJiAOREwKoGVWGSRvFJGqRAWHo1wRQyiY4wj4TtFWtGtgva2MtjZSEFHBg0tQXt6XgAcgZUeSlyHCTABYyfAAsvYV5DHb2wEWGAZ24rxeJkAE2ACTIAJ6I6AUQqslPBER6ugiIxFZHQs6P9JcMWq1SKPlj4K3RkokUgglUpACdmtZJawsbKE3MZSH8PJ8j5ZYGU5Um6QCTABAyTAAssAF4WHZNIEWGCZ9PLy5JgAE2ACTIAJZIqAyQisTFHghzNMQCcCSwm8DSMVyIUJMAEmoB8CLLD0w517NV8CLLDMd+155kyACTABJsAE0iLAAistQvz1FAnoQmAFKoE3LLB4BzIBJqAnAnTkO5+LGgZ8IayeyHC3TEB7BFhgaY8tt8wEmAATYAJMwNgJsMAy9hXU0/h1IbCCIwG/UIlRJ+rX0/Jwt0yACWQBAUsLIK8zC6wsQMlNMIF0E2CBlW5UXJEJMAEmwASYgNkRYIFldkueNRPWhcAKjQJeh0qg0lMes6whxa0wASZgrASsLAEfJzWkFsY6Ax43EzA+AiywjG/NeMRMgAkwASbABHRFgAWWrkibWD+6EFiKGOBFsASxLLBMbPfwdJiAcRCQSwFvJzUsORWfcSwYj9IkCLDAMoll5EkwASbABJgAE9AKARZYWsFq+o3qQmBFxwJPgyWIUZk+T54hE2AChkfAwUoNTwfAggWW4S0Oj8hkCbDAMtml5YkxASbABJgAE8g0ARZYmUZong3oQmBR4NXjQAmiYs2TMc+aCTAB/RJwlQM57TgEVL+rwL2bGwEWWOa24jxfJsAEmAATYALpJ8ACK/2suGYiAroQWNQd3UJItxFyYQJMgAnomoCnvRpONrrulftjAuZNgAWWea8/z54JMAEmwASYwOcIsMDi/fFFBHQlsMKiJHgR8kVD5IeYABNgApki4OsMWEs5AitTEPlhJpBBAiywMgiMqzMBJsAEmAATMCMCLLCyeLFjgp/g3w07EWDhhCrN2qCUh52mh+gInNy/BTefBcLaoyjaN60LOyvjvdpKVwJLrQYeBnIerCzeptwcE2ACaRCQWaqRzxmQcP4r3itMQKcEWGDpFDd3xgSYABNgAkzAqAiwwMrK5VIrsW/2MPy2+iBiJRawLj4Ae1f3gQP1oXiPacO/w8YTT+FY5mtsmDsWOeylWdm7TtvSlcCiSfmFSRDExwh1ur7cGRMwdwI57QFXG46+Mvd9wPPXPQEWWLpnzj0yASbABJgAEzAWAiYgsM6gX62BuBVH3K3yAKyZ0hlppS3x2/sjuk06DYV4zgEtf1uEQfUKZW7dYkKxYmxPLNx5TdOOYyv8c2wS8rDAyhTX0CjgVagEFI3FhQkwASagbQKWEiC/q5pvH9Q2aG6fCaRAgAUWbwsmwASYABNgAkwgNQImILBOoHOZXrgdP0NZHvy2bQ9aeHxm0dWvML9xA6z0jzcidmg3eRWGNyqWyZ2iwvtLm9Dph3EIkGRDu1+XYmiLIrBkgZUprtEq4EWwBJF8G2GmOPLDTIAJpI8AJW6nBO5cmAAT0D0BFli6Z849MgEmwASYABMwFgKmJ7AAFO++EX/2L4nUDuhFXFmFmt0mJ1qjrBJYcU2qohEVbQEra6GuNIWPEGbqNeEfIcGHiEw1wQ8zASbABNIkYCEBPB0ABysWWGnC4gpMQAsEWGBpASo3yQSYABNgAkzARAiYpMByzl0bC1YvQiGnFFZJrcDe2UMwavUR7QmslDYHC6xMvWRiVMDjIAliVZlqhh9mAkyACXyWgI0U8HHi44O8TZiAvgiwwNIXee6XCTABJsAEmIDhEzApgWVpZQ1ER0Jl64bB09ehY+VcyVYgJug5xgz8BntvBEIqlSE2NhpqdeoRWNHKMIR+CMD9G6dw6cZL2OXLj3y5C6Gwby44OzlARslSEhV1dAQ+BIeLz1jZu8LRJi4KiwVWpl8N7xXAu3C+EizTILkBJsAEUiRA3128HNVwsGJATIAJ6IsACyx9ked+mQATYAJMgAkYPgGTElj5630HiyvrcT9Agmrf/4E5P7VMtgL+tzahd4/f8SLSElVq1MLNi0cRGiFPMQdW0N3tmLNgLQ6cvQllTJLjJI6+aPVtD/T9tgVc5R+PCoZcXIEGvacjVqVGjRG7MKu9r2YMLLAy/WqgKKwXIRIoYzLdFDfABJgAE0hGwNEa8HLgo4O8NZiAPgmwwNInfe6bCTABJsAEmIBhEzApgVW62XDke7sFWy48hKRQa5zaMBFJ30g/ObkeBm18DQuZAwb82BN/zZ+JYGXyCKyo54fxv++H4EmQUqygVGYLRxc51NGhCAyMEp+TWMhQc+gazOhYKmGVWWBpd8MHKbEh4YQAACAASURBVCXwC9NuH9w6E2AC5kdAagF4O6pBRwi5MAEmoD8CLLD0x557ZgJMgAkwASZg6ARMSmCVaTMDA/IdRbepOwBkQ+dVBzGwpM3HNQg+jz5NvsfFCMCh9G+Y2zUcPw2fkVxgqaKxa85A/LH6KODojrb9JqBfm6oQgVbqWDy78A/GjRyPax9iAIeqWLF7OUraa7phgaXdLa9WAy9DJQjTOEQuTIAJMIEsIZDNFnCzVYMPKWcJTm6ECXwxARZYX4yOH2QCTIAJMAEmYPIETExgzcG8AdboV7sPrgGQV5uK/fObQx63jE//G4x24/ZADUd8s/I4OoasQeefUxBYajXev7iJM0cP4HF4HnTu3gouVhaJNkMs3m3uja8mngJgia6LzqJfZY3BYoGl/dcMHSV8HixBZKz2++IemAATMH0C9lZqeDkAdAMhFybABPRLgAWWfvlz70yACTABJsAEDJmA6QmsUQ1xfkodDNnwBmqJF6bv2IPaXjIgyg9z+vTEmiuPYO37NbZvmQDliT9TFlhJVkwdG4MYVXxeFAtIZZaQPP8LjVtOxXsAzSYfx5hGbiywdLjTKQLrVagECcuiw765KybABEyHgLUlkNtJDTpCyIUJMAH9E2CBpf814BEwASbABJgAEzBUAiYpsMLv/IOe3UbjuRL4eug6/Py/Mgh/cBz9BwzAnbcS1Oo9CTP6fIVXaQmsmAAc3rgS+8/fQ0TsR4Els7WDZ3Yltq4/DAULLL3sbVqNQIUEbzUXPnJhAkyACXwRAW9HgCKwuDABJmAYBFhgGcY68CiYABNgAkyACRgiAZMUWNJQP0wc2AbbrwYib53vsXTicDzd8zsGjduMcHt3jJi5Fl9X8PqswIp8fQEje/fGsZekqABLKxtYSy2gjo2GMioalIspvnAElv62tn+EBAERAP/6qb814J6ZgDESoOOCHg6AI8srY1w+HrMJE2CBZcKLy1NjAkyACTABJpBJAiYpsGzUkTi44Gf8snw/JC5lMX/dVFwd1QbLLgUjW57mWLBmKvLbI1WBpY6NxPo/vsOcbTcQa5MdDVq1R+UyRZHT0QaqiPd47vce7+7uw/qdN0C5xFlgZXIXZuJxCox7HwEEKDh5TSYw8qNMwKwISCRATjs1XBLd8WFWAHiyTMCACbDAMuDF4aExASbABJgAE9AzAdMUWABibv+Dyv8bDUCC8i1a4sn2rfgAoGDff7GuZxGBPbUjhNGKZxjRrjGOvgJ8q36DedN/R874TPDxC3ZsFMr/tEV8xAJLz7sYwLsIiRBZXJgAE2ACaRHwcuTIq7QY8deZgL4IsMDSF3nulwkwASbABJiA4RMwWYGFWD8s6dAAyx4luqrOpjhm7NqMWq6ahUlVYEXcw+DmrXAmAChRfxBmTu4FF8uPixkb8hSLBrfDykthLLAMZI/Tkc5ApQTvFUCsykAGxcNgAkzAoAhQwvYcdpzzyqAWhQfDBJIQYIHFW4IJMAEmwASYABNIjYDpCiwAiqM/o/agHYhXWN7NJ2DzuK8hjaORmsCKjQzC+K7VseNOLGQ5SmLM3AVoVCi7eEoVHYwNU37C3H/PISYuERZHYBnGC4zyYEXHAi9DJIhM5C0NY3Q8CibABPRJgBK1e9iDbxvU5yJw30wgHQSMQWDFxsYiJiYG6sQJUdMxt4xWkUgkkEqlsLRM9C5qRhvRc31ipFKrQUe3LSR83auel4O7ZwJMgAkYPQGTFlhQv8bwZo1w6HUMYJUDvactQ8+aBRMWLdVbCFXROLjiF4xetAfRKtIiUngVK4/c1kG4eeMuQtUOKFwkGx7feMo5sAzwJUASi5K7h0cBCZdHGuA4eUhMgAlon4DUAnCyAbLL1aDE7VyYABMwbAKGLrBIXH0ICMD7d++gUCq1JrFIXtnK5cju5gZXFxchsoyxREdHIyw8HDKpFHZ2dqB5cWECTIAJMAEm8KUETFtgAdg6rQsmrzsH23xVMG/+IhRzt05bYFEkT4gfjm2cgEmLDiE40RV3FjI5mvaaiAF1/NGp7SS85xxYX7r3tPocvSkaHq3Ji6WI0WpX3DgTYAIGSsDBWiOurKWUDZELE2ACxkDAkAWWSqXChw8f4OfnJ6QMfazNYmFhAXt7e3h6eCBbtmxGKX/CwsIEL7mtHJ4enqA5cWECTIAJMAHdELh38j+cfhQS11l21Pu+KXLrpmut9WICAktrbETDUSFvcf30QZx7HATvQpVQq1p58W6+uRe5jRQyqXGEtAcoNPmxolWAlqP9zX1b8PyZgN4JUJSVlSWQ3VYNByu9D4cHwASYQAYJGLLAoqODT54+xbt3/oiNVQkZoy0hQ3KM/lhaWiBnjpzw8fExuqOENP53794JZo4ODsiXLx+srKyMT8SpVYhURCBCEQGFMhpqCylsrKwht7eD3FrGb5Bk8DXO1ZkAE9AdgU3D62H45udxHZbAysf/opbuutdKTyywtILV9Bs1JoFFq0HyKiJagpBIICzK9NeHZ8gEzI2ApYSSswMUdWUrU4M+5sIEmIDxETB0gfXw4UO8e0/x94CHuzty5MihFchv377Fm7dvRdvURz5fX6MTWEqlEi9evMBbf3/IbWzg5eUFNzc3o5pH0PPr2LRhO67dvY9nr17gpV8Q1NZ2yOmaA7ny54Vv0Wr45n/NkN/503dMjqyfjWP346MevmCLOOdBz87t4eWiedf89dHFWHrMP4MNuaDFTwNQ1in+sSDsnbMCZ4M0l1Clp0ik1mj63Y8onzuVd+8Vz7F81hq8oPwd8SV7WQzr1wx2aXagxpntf2LfFb+EmhZyF7Tq2A0lvVN7OgLHF03H4XgUSTh9rsuocD+sX7IMT0I/1qrYYTCaFLZP8bHb+1dg05mXCV/L23wwvi+bct2XRxbgz+N0331cyVMHo7+vAXqrPzriNdYt/BNPwtME8kkF50It8MM3pfHx7NBT/DV2NZ6l2YwFbBxzoGTV+qhd3he2KcYbxODmoa349+RtZCiO1NoRTdp3RUXfhE2FS1vnYce1wDRHZWllK4JBGjSoBC9+hzFNXllVgQVWVpHkdoyegLEJrMTAY1RAgFKCQAUgUpxxYQJMwGgJyCwBVzngZM3SymgXkQfOBBIRMHSB9eDhQ7yPE1g+uXPD29tbK+v3/PlzPH/xQrSdw81NRC8ZWzL3kJAQPHr0COERESJSzdHRAQULFBRRWMZQIh9sQKu2o3E3kfBIady2XmUwf8US1CngEvdlNWb2rIl5h958+TS9K2HrmoUoldtRtHF9dlO0nHs/g+3lxuQTh9DBK/6xl/ijVjuseKERsOkpltb2GLvmGP5XXjOOpMX/1HLU6jYFyujEP1DnxfRz+9HGLY0e1GqsGNkaf2y8laiiNZoMmYkF/Rqm8nAA5n1VCTPvxX3ZuzK2rV2Ikt4OaU4nNuwdfu3RHBvPfxRNNQatxcoBlZD8YGsUprQrhsWXPjZrU2sKLv71dQpiLhQrO5TF2Asf65bstwLbhtQQn1AEXkePRm1wOv3YxXPeDSZh95K2+KjMzqKD73c4n+ZMP1ZwLdMaO1ZNgKe9LMlTUdg5bSh+WrQn4bKzdDVr745xizbgu2oJmwrrhtbFr/9qvlelp0izlcSU1SvwdZGPEiw9z3GdLyPAAuvLuPFTJkjAmAVW/HLQcUJlDKCMlYi/Y1RqxKgkiFVpkr/TP8V85NAENy9PyagIaG6u0vyRSgBLCzWsLCWwsaTcVhJYW2put+LCBJiAaRBggaVZR2MXWJGRkaAostd+fuLGRio2NjYikszJyUlrRy+z5lWgwuvzm/G/Lr/jqTJ911rb5KuLpSvno4YXiQIzEViqSPw340cMW3wo2aVJJbqtwsZRVSH/3IKkKLAAZCuDRf+tR+NcKYUOfbnAQkwYlo/ujQkbz4uf8akUrf0TVi7tB7ekdyS83Yr6VYfhUSIvJ7UuiVUnNqNq9iS6K+Q82pf9Hy7EhzJZZMeAP9dhcO28og99CiwxAPdaWLJyKhoUdE103FV/AkuMycIOXcctxbAOFSE3jow0WfOtRQ+tsMDSA3Tu0jAJmILASkw2XlYl/lt8nSO0DHMD8qjMh0CcnKK/SFTR33yboPksP8/U/AiwwDINgRUUFIRnz58hLCw84aZGiiDLmTMHcnvnNuhbFdVR4ZgxuD0W7r7/8cdAS2v4lqyA2nXrQh5wA8f+242bQZGJXqAS+DYajy0L28NZYh4CKzo8ECM718U/V5IfSXT0qI5VO/5CadfPfA9LTWBBAucSP2Lv1n7ImewNqkwILKhwdcMfaPPr2oQTGDmK1sbKlUtQJImUur+kPRpPufLprwFSKwycvweDGn6aAjvs4gqUaT8JCXdG5SyDDeuXoFIeTUSe3gUWgAqtf8GSKd3hkiDq9CywAFjlLI8/1y9EjThO5vevnW5mzAJLN5y5FyMgYGoCywiQ8xCZABNgAkyACZg8ARZYxi+wKOKKoq8oikylVkFC/0kkUKnVsLOzg2/evHBwcDDYZO7K4Cvo0aA9TsUd+bLMXgYTlsxHu9I5Er2BEo29C0ZixIKdCKIwfgC22fNj3sZtqJvXClERYVAkzgsV98qNOjwSFYfsT3gdV/7xTyzuUjr569pCCns7W9DrgcqnRwgd8e3slRhaK627xKSwc7CDNCFgKMkRQgd3jJ65HG3K50z1+wqtm9zWEbKkEUoAQu6tQssW4/E0mh63hLOzDEFBStGWxMYFQ+dsRN8GmiikFEuqAguQWMowYPZO/NjUN8nxvswILCD82kZUbjMaYfE5RNwKY/Ffy9GoaKJcdlEvMalNWyy9lSinlZiAJb7qMw2zhjWHdYJYU+H8siHoMGlnwhQ9K7TEuqVT4OOkCS1KJrDy/A8H/huEtE5YWsjs4GCbGHySI4RlOuPJltHJ0Ib538fK6eMw559zCVLNrmhdbFkxB4VyxOcySy6wKg5chaVdi33+3xiJBeS2drD6uKmSHCHMiaHbd+HbJCerVdERuHZwIxYsW4WLTz4Kz+L9VmLHkGom/++aPifIAkuf9LlvgyLAAsugloMHwwSYABNgAkzAJAiwwNIsozEfIQwLD8PLly/x/v0HyKRSIa3oRsLQsDAReeXp4QEPDw+DjcIKC9iBtuUHIyHNUsd5ODahcbLbBlVKfyzu2w7Tjr4GpNbw9C6JX2bMRPPS7qm+FiP3/oTCfXclfL36z+uxpk/5NF+7nwosZ/T4czN+rZsnzec+rZBEYDl6YuLi9ehY2TOD7VD1WBwcUQ09N8ZJHnlejBxSHgvHb0aQaE2Kmj3G468RbVKPmv6MwKJ465wVO2H7il+RwzZx/qbMCSxEPsRPFZtiW2jceT/L7Og3fzmGNiqawEBxbx+adBqCp4GJI+w0X3av9h12L/kVLvGZ0WMCsWRYH0zedjnh+cptfseSKd/CMU4cJhNY+brj3IFfkPHrH9InsGggqrBr6FW5LQ5FxA0rdxVsX7vg/9g7C/Cmkq8P/1J39yKluLsWd1vcHRZ3dwrFCwWKFYfif9wWWVhscRZ3d1rqbmmbfN/cSNNU0kKSJuXM8/SBJvfOnfvOJJA355xB+QKSWmEZBVbtKYewb0QmMlXB6khfA8sFnleuYmAWbjX0xXZ077gEHzjpCaDUYPx3ZhrsfmIFquKUyO/PceXqHTx98gIRfFO4VyyGajWboWZJp7wvVyFIQcjbB/j76l28evcJ8SmWKFO7Eup6NEIpl8w3F2CMshJYyUFvcfrvs/jvxTcIjFxQrVEjtKpTEelebqqArIQ+aRdCJUD8HbsggfU7zjrdMxEgAkSACBAB1RIggSXiq40CSygUcqIqLCyMG39iUhLMzczg4uKC+Ph4fA8I4O7N0sIC7u7uXE0sFuGjaS0u/Cy61hiLl2LHYVJ/Im5sGgYrw4ylvuO/f0GUuTUczMyhm/HpDLeWXwSWIOoGelUegDviO7Qs3xLHto+Cb8s/cFISuOTeBnfProS9fhZg5AWWmTsqOgXhybs4ceqeKTr5HMOyTkW43fxE7RcFFlJxYUo1DD2SFgVUa9RG7J/URHqFx8dWoP/0jYgSR5YVK18Sn56+EEUzWVfFvrPbUNtBtEuiIPILJg7tgxP30nZS7LrwOLx7lZUKz7wQWBAGY3lTD/h9FN2WcYlGOOK/GqWdJFXJ8kZgJcdHYULnajgtscOojyMftqFKXr4JCIWI+vYYW+dPxsaLn9NSQWXGZOBcG4tXL0b7Kq7Q46IiY7G5Z00suZO2tX2TeWewtV9xmbMEeLGyNdqsey99rPyQjTg5I22tsScC/jcYHjOvSo+xbjwOD7aOlv4uTE5AwNtbWD5jBk49Dc9010i32j2x0HM0apd0yLAhQTqBZdMQp2944/UaT8zach4JKelr5eiaFsLExSsxsHUFGGvwdt4ksPLyBaPF1yaBpcWTR0MnAkSACBABIqChBEhgiSZGGwRWamoq2A+TVpI/ExMTOYEVFh4OHR4PdvZ2KOJWBDExMfjw8SOSEhOhp8+isFxgZmYGfX19rqA7+2HRWezPvJZaSTEfMaZ9a1z4JKlqZIxa3QZh4vABqO5m9UuvnPwhsFLxYp8n2sw+KGVRvdNMbF46EFe9mmL83s+ix3lWGPq/a5hRXZK2JodOXmAZNcb6XQ3gO2wu3kaIj7Ushy3HD6BpYcnOlb8qsIDE216o0WsPJJtLGtUcjXv7x4l2FxQKsXdeb8zd/Z94d74y8NzdC3sHz8Z7LiDLGO18T2F1u8LcACM/3caQnv1xL0hSwd0S3mduoVuptKgx9QssAQJv70LX3ovwXewnyrcaje0rxsLOSCKM80hgxX3H2HYNcU4s1mDYDH+99IOCxMVfes0pOjnx20WM/HMOrrwNybb0salDKYz32YTBdUURi2//NwrtZp6HKGkWMGk8H/e29kzbuCDlE7zqNYN/kMwICvfArcsLkBajGYsDgxpj+hXJgjdF13nrsKxfXelJl7fPwkzf4/gRmybLMrsnA+cyGDXLFyNbF4Fs4mk6gVWgOibXScb6Q4+QkEWdZ56JE5oNmIvlk5rCQvO+XxC9tYSEx1OZakUrm57PQIAEFi0KIkAEiAARIAJEQNkESGCJiGqKwGJ1q+JiY8Hn87ndBGVlFSewBAIIxBKLPcdPTgaTWOxYI0NDuLq6cumCbFfCgIAA/AgKglAggKGRIQwNDNNJK109PeiKZRYr+K6jqwMdng4nuUxMTGBoaKjs5ZZ5f4JE7J0/Ap67rstFO+ijRNMemD12KGqVtAM3xlzuKqIcgWWCBkMmoku5bJLQ9ExQuWY1uNqIIoVETb4GlgsWbdiHHrWcs+DKA0+HVTCTa0lB8B45BBsvv5Q+MWDV35jb3h1v//VD34GrECT5dFllFp4cHgBJ4lq6njKkENbGgVer8d+0YfA58VB6aNX2s7DVZwCsuDCsXxdYwGP0LNsFtxPEl9CpgX2v96K2LiAUxGFC60o48Ub0HM+9F87v7gOvXm1w/bP4phrMxesdfcCU2pf//NCz+yqIYgsBWHTHlUcLIdJbopZBYDnWx8KZXWCZBXX2sGnBimhUST61Uy6FsLAH1k7snqGXqHf/ws//KALEaZI8XUcsOnkBPUvL7gmZUWCVaDMGY5rLRhBlHGCJWq1QQq54V85TCIWIfLQWzTutRYi4a17FMXhwbCx+TQtnA1LhU3wcGlIWUy9KBsSDnoElitesh3KmIfjn3/uIik/h6vdxzbk7Ll1fiCI8ICrwCga0HIJHEhOKRjj0djOqicMFha8Owb31TLkR2GPeuRvoX0L8qop+hN6N+uNmhDjX07IQfDbvQufqrtxOYglXvVBz4F6pbOWx90NDcxSrUhZmPz7j5bcfiOWnSsWbqX0FbDh8APUKpims9CmEacNhfbH3LzaSVEEqc7fp2vCN/2Ja86zeGxSCVekBJLBUijf/dk4CK//OLd0ZESACRIAIEIG8IkACS0ReYwSWQIDo6GiEhoUhOjoKycnJEKQKOJGV3TfgLIrKytISbm5uaTWwYmLw5u1bTmZl11jklkhg6cJAXx/W1tawt7eHsbHsB3DVrtD4r/9h3rQpOHL7e6YpO4a2hdCgcRPUquWBpk3qoKCFbJ2mrMemHIGVg3s3KwLvbdvQrbpsNW05gaVvjMo166GInazkku3bCu1nz0R9uZ0EIz5ex5A+Q3E/UFzIyKAi9lw/DA87IO7rAwwZOBC3PkiKL7lg9YW/0a5oJlFYGQRWcay5cwYNQo+ha5epeCMWTPq2JbB40zZ0qcLiVpQhsADvAdWw8d8o8c2a4s/dNzDbwxSCL7tQv9ECceSSDsoNXo0T4ypj3qi+2P2vOGyIVwJbb59GE3vg9oZe6LNcEq0FOPfdiuteDdKlcf3MLoSFu3njytJOchMtJ7AULQOeDgqUbYThs+eidw15EfFzuxAO2fsWM2unv3B6gWWDnst90FLOrQpTkxH88QH2rt+Ex+Hi83XM0WGxP1Z1q6DoTlT3fMxtdK/YF3fFV3Cq2BpbNi1FOQfRe42AH4sjPhMxY/dt2Nq6oEjxMhi9aCVYEFZKTBBmDWmPg3clObOGmHTgP4yuzs5NxePdnugwNy1KUXITdSYdw85R5bgoqbgnR1Gv9yxExImiPW3d62Hb/s2oaK+H5JD7+LNtf1wLEb1f6pvbo/NIL8wY3AwWYkkWF/QG+1bOxfJD98C9GvVM0XPmOiwekBbBlVFg8VCsZht06dAWtSoWhFFSOO7d+AeH/ncCj7+JKtixVqhWL+zeOAeFLDLZwUF1M5Kjnklg5QgTHSRPgAQWrQkiQASIABEgAkRA2QRIYImIaorAYmNh0VQRkZEICQ5GdEwM97uksRJWerp6aZFUOjzo6uhC30AflpZWcHRw4NICWWNRXN+/f0d8QjxSU8SphwLRn0yKpaSyKIA0LcYirqytreBg78ClG0r6Ufaay7w/IZJjI3Bs7QzM33EJ4s+XGQ7V0TeGfZFymLzEB10qKy6GrlECSyFIF8y7ehX95XaUe3ncE90n7UeMeKrMOm3GQ59GorSl1HBsGDkEyy48kfbefvJ2LBtZj4tYStcyCKzCWH79H3RxTsH7nUPQdP518eE6MG00CXe3DYWJkgTWyZXDMGXdJUiSsooN240L02rhydK66LA5SCRneQ4Yv30HxtUvgKNe4zFp12Xp8HuuvITFHZywsX95eF9LFT9uhv7+lzGvfvp4orwTWDwUrN4dOzbPRdEMEkJVAosHfSNjZCh7JhSAz09CSmra69ulaifs3LwAxawzrIxMV2ZqxDdcf/QhQ6RQhoMdS6Bh2aw3Ukh3fOhVtKoxGK/EDxar3we71s+Fs4zTTUmIQUh0AvT1DGBkbAgjI2PRzp6COOzzHIVZ+25Iu2w87X/YMqwqdFKisXn6MCw5ei/D8AqUG4b9xyajgK4QTw77oNfMzdL3l5Jtl+DQ6i4w5wnx7KgPuk7fDPEmpyjX1Rv7FnWEuV76mEhh0jOMqNcRf4t3TS3WbiLO+46QRk7KCyxdxy44fm4eyloapkVXClMRctcfLXsuhcQv8sxLwffAVrQrlfUupQrfQlR0AAksFYHN792SwMrvM0z3RwSIABEgAkRA/QRIYImYa5LAYuNhkik6JhqBgYGIjIxEaqqo5o+eri7MLcxhaWEJAwMDLu2PE1j6+lzKH6trJalpxeQUi76SpCOyFEQmw1jKYURkBBITk7jrsMbOtbezg4ODA5c+mHdNgMj3d7FrzwE8fPkFr9++Q1BEfMaoLJPCGLVkA0a1LQ7jbOrGaL3AEkbDt3sdrL4njqLTscPE45cxplxahNWX47PQYGJa5Ilb/f44sH4mHEzlirlnJbBcAEFKKDx7tsG+++HiSD9DdF16Cou6WWJjq5pYKd0ishZO7PFDhYKZJilmuWxenl2PvhN9ESa+DceSA3H4UFesatQaR8UBNQYFKmOn/xbUcrfEt7PeqDdqq7S/6p3mYotnYQyrMgh3JOWvrGrg6NVtqGyePtpMZQLLwBQFHDIm36WmJCAsOAJ8gVgW6RXG5HVrMLhpGaTtQ6AqgZWTV6ounMrVxszFvvijXHaJlOn7iry1DVX7LIXktrK8UktvfPSTj17L4uiU95hVtyX2BYuf1zFG1dZ90LtVNbg4OsG1gDPsbS1hmOkODQK8PbEcLSZulUq10vXGwX/baFjFfMHEQZ1x+nEkoGOOqhXNcP+hqNC/qXNxrN9zHA3cdHB46QjM2HJFXDheF93WXIV3W0dAkISDi0di5vZ/xbXY9NBvxWF0LZH5fZzzGYj1V8V1tMp1xssTSyEpd5ZOYPEsMfTQLcyoklnEKB//ejZG/z2Sol0m6L5qP5a2T9uhMyezq45jSGCpg3I+vAYJrHw4qXRLRIAIEAEiQATymAAJLM0UWGxUTEBFRUUhODgYkVFRSObzOWFlYWEBezt7WFqKJJakZVaMXTbCiv09ISEBYeFhCA4KRhKf2QQeJ6zsbG1hZ2enOTsVMvkWG46vX7/i49vHOOW/BWceB4k/XIru2MihLFZt90fLMllX9FGOwDJDmynz0KdyNlEmusYoWqok7M1l64bJpRAqfK1nEoH1yh9V/1iEcEnQkUNVrF8+Hnb6afsEIvYhpg9dDkmdbp5FBWw8sQ3NC8txyUZgsfo/r06tRbep6xGTJDJElkXrYfOONfjgWRkzrogHX/DnBFbC6wto1XciPoeKSnCbO5XGaq/eGDFsNiQJrkVq9oD/lvkoZMaDMOQa2tYchBfiyzpVboU9I0ui9RBfaRSXg0cfXNg6BxZyu1VmEFgurbHBp1e2dZ+MHNxRyV2u2BTkUgjLdMDFNSMyzKIgNRFfbx3ChHl7IE2SdKmFtXvXoFFha/HxGQVW2R5emN2uaLarwrlMTRS2SH9I+hTC7BeVrokrug8fjX7d2qKkQxbF/bPoQiUCC0J8vb4CLGB6qAAAIABJREFUPQduwnfJmmbvQjxdmFnZwt7eDtY21ihdpzOG9muNgpLcPfEYUwMvo3ndYfggjhy1K9MQO3dsgEPsOfRpMwGv2fIq2AB/b26I0a288Jb1beSAqWv8MbRBQSwe3ATbrontmU4l7Hh0CA3NACTHY/WU7vA9KYkN04W5rQ2MZV5mspgSosMRkyi+AZdmuHbNDwXEIj2dwLJriPN3tqB4FpI9/sEK1O2yEZKS8g2mHYL/sEoK3ynUfQAJLHUTzyfXI4GVTyaSboMIEAEiQASIgAYRIIElmgxNi8CSLBGJdAoKCuJ2G2QRVSzOw8zMFM5OzrC2seHqVilqrJ/4hAQuLTE4JBh8fjJXwJ3JK0dHR9ja2nJRXJrcHp9aj6lefngTLklEM0bnGb7wGdI4y2ErR2BZYfDWQ5jV2C2XeOQEloULFm/cj561FKc+chcSJuHCvK4YujuteHtOB1Bz2jHsH1YufUH4bAUW+xD/FSu69Ma6p6LIFcAUbaeuQPMXwzH2L/FDPymwkPAWE9v1w7H3orwrfStnDPijMrbsPiO9pboD1mOzZ3PxrnLR8O9aC173xXW/XCpjYVsDzN58R3y8Lur288TWOb1gKCcZ1L8LoWhIL7b1QYdFd0S1kaCHRrP2Y/ufEhmhql0I9VG0Zh0UEperiwx4g6dvA5EiDgYzLdEfJ4/MgLtpFiYmmwUV/eAA2o7fmC7NONPDG0zHtYUtc7o0AUEyLu1agiVbT+Hzj0gkSyLq5HowdC6HectWoLOHO9LemcKwuW1dLHkhTqu2L4MtO7bB7bU32k86DlYJzq3RABxdNxJ+vTyw9TGbDQM0HecDv6HuGNakLS7/EF3IpKUXnvv14v4uSIzB/CEtsPOGpNx9zm8Hzs1w7XoWAqtSb3w8Oi/r96fYs+hYYSwkr3D3futxcV7zXFxcPYeSwFIP53x3FRJY+W5K6YaIABEgAkSACOQ5ARJYoinQVIHFxsalAvL5CAkJ4X5YFBVrpiYmsHdwgK2NDZcCmFkEluT82Lg4BAcHISw0DMkpyVx9KxbJ5eToxP0pm3qo9kXJIsMig/D4wTW8CNZHx/btYG0il/7GDYqPj3smo7HnWfEQeajUyxPHFvbJ+gPiufEoNfK09Pm6U/dj9/BqCm/xiW8btF8j3hoPeSOwkkOeYHjPobj0QVK0WuGw0w5w6YqLVxbDXbYetCKBBSDp03F0aT8Fz8Q7venalUZt65e4zkJZWPtZgYUkXPHshIF7xEz1DOBkbYofIZLYE2Ck/wNMqZ+WmvjjyFDUn3JZXCzbHIXsU/AlUFxpXtcIgxfuxozuldIVcGdDzCuBFRd0FO1rT8N7MSrjlvPxwq+n+DdVCSwXeF65ioGFRJeJeH0Rfw6ajIeBsdzvPF0j9J2zFZ59a0I3m1TbzFaWIDEWASGSmLJs1p6JNQrY5jLtWJiK8E8PceO/t/j25SMeP/oPj168QVCkRE6Lr2dREnO27sSgarbSAYTt641qs8Vl4HVtMXzdOhQ6OgwzL0QD0EGLESuxenIbXPLpg7Eb7nDpghYeQ3B9hhEat10LkUI1Q7fle+DduSz3m5Afi2VjO2Dj+c+i61hXxqiRLSGJn8v2lWfpjt5dGkIS35YuAqtoezy44JNlP4lfdqF5wwX4Kr5A1TG7cXhCrVy80NVzKAks9XDOd1chgZXvppRuiAgQASJABIhAnhMggSWaAk0WWJJFwupXsUgs9sPqWLGt5pm4cnJygrOTEyehMmusBtbnz5+5nQ1ZHSx9fT2YmZnD1cWFk1fqLdYuN8Jv/6D1H+PwMkr8wdW2IvwPbEYDd7mt+CSnfT+EBvVm4ov4d+dmY3Fz05gsX0faHIH1/uou9Bu1AAGSDQbBAyvin3UTpiu4PXTrHcxoLMMxBwKL9X3ZbyiGr7gMfmbbXv60wAL4Vxei9MCdme4yCf3m+OvlepSV8Zb8uH/QqdIIPJdJNZPcu56xBZYdvIaOZTOKk7wSWPEhR9Cx5nRItCcazcbHbf3FQ1aPwAKScdO3L/quuZ/G2b0ZLh9fDTczzYqw5NKbebx0UYIRT89g5KQ5uP2OyShRq9huCXb5doE0kzL1GjqUHoTH4iCsKr26w2jfAdxkB+voYuzGS5jQ1AWvLm3GwOHL8YMdp1Me44YnYbWfaHZ4VmWxYf8WtCgpThtNScCGWX2w/NATcQ24GtjxdA8ammb+ghOy2oE6OukjHMXjTSewdMpi64tjaGKQWT9CBO8fgpqzrorP5KH5nEPYNLBinv+/QH4AJLA0bkq0Y0AksLRjnmiURIAIEAEiQAS0iQAJLNFsaYPAYuNMTk5GaFgofvz4gbi4eE5aMYFVqGDBLEUUE1jv3r3j6mixD42s3pWLiwtMTU3zVl6xGxL+gHezetj4QaomUKrDDGxb2g8u8pulCZPwautYtFpySXywDqr39cJBrx5ZvuS0WWAdXtwDM7feF6ekAY51+mFAfecMEUeim0/By6uncOLWG/EHcKBCO0/sXNEXVpLssRwKrOgvtzFuwGhc+ZRJ9M0vCCwk3EO/Wj1xTRzdJTtpTj3W4friFpBNdBMkh2NG18Y4+CQuw/wa2zbD4ct+KMPqF8m1PBFYgjhcXdIXg7c9FRcIBxx6+ODO4vbi0alLYAGI/4B5Pbtj59NI8bUNULb3Guyf3wTmuYzCUu6/ZQKEf36Dh89f4FNACKIjo1Cp3Qg0KiG7IYAQoTf9UXfAUiSliHILi9YYjJ27psFV+n6QgoV9amPbTcn9pY1SR684dlw/g/oOQOz7G+g9cDiefBPVXZNtLlU7YM/mpShiLVlxKbi2eTYGLzsCvjilsfG4HVg7pi4yBIPyA7F/rT+CTF1RolR5VK1SBo4WabXv5HchLN1zDfZ6tYK13PcLKSEPMapjN5wPEI/MsBDm7fJH/+qibUiFghQ8v3EG154FwMy5FFq3qAtb48y/pFDuPGXsjQSWqgnn0/5JYOXTiaXbIgJEgAgQASKQhwRIYInga4vAYgIqOjoa3759Q0RkJIyNjblIKrZ7IIukki3aLkkpZNKLFUMPDgnhIrAKuLpyAktTal4FnZyI+uNPSYtzQ8cAxWq2x+qVs1HGMS3C5uHRFRgzfyu+R4tDL3TM0NvTDwv71c7yFaQcgWWKpqNnoGdFRdvbG6OER00UkNbK/pUaWO8xsk5rnP0hKRBkjfEnb2FcuaxqGQnx/q+VaDF+I8QbVsLUrTp2+G9B9UKmIj45FFgQpuKl/xi0XnAhI9dfEVhIxeY/K2PJZXEaoLR3awzdfRIzPOSK5AuSsWtuf8zf+1+64v3sNIu2q3BvTVuZ2khpQ80gsJyaYMWCHtkWcWdnG9sVR42KrjISTa6Ie/nuuLd9QgYmKfHBOLJ6Adaf/A/x4qUJ2GLYlr2Y3kRSpD2jwCrdYQomt8limzvJVfQMUbJCZbhapxVgT1/EPX0KoeS0z/d2o3/f+fgsqZCva4wp2y9hZD27PPzXJgV3N09Fv5VnwU9O5d6rKv0xAVuXjYCtocSsCfH+jC9aj9sAfqooBLBknfHYuWsUHGWi806sGIap6y+lvWeI70qv5nzc399TFK2V+BXzeg/CzoefMtxznS4Lscm7O8xkhF70kyOo02MW4sTF2XWtimCG70b8Wd897fzUGByd1RfTDz1HMnRgYGiN7tOWY37/etJj5AUWdI3RarQ3VoxuCWNxHmdy9Fd4TxyB7ZdeS4WzcbG6OOC/HuVdRO95Aeemo8PEkwhJTIaOvhEKdV6Ky4vb5Mn8kcDKE+zaf1ESWNo/h3QHRIAIEAEiQAQ0jQAJLNGMaJPACg0N5QRWXHw8txNhwQIFuD/ZB0IWbcUKvTOZZWRkBD19fQhSU7mdDL9++8ZFcLGaWW5ubtzzmtCS47/Ds18XHHgQKv0wx42LZwALazNOUiQnhCNaznuYOFfFul1b0ahoJmE44htTjsDKKaVCWHrtIrq7So7/eYEVeXEm6g05BFElI8CgRFdcPrcY2ZZ/D7mNdg3642miWHoZOGDc2m0Y36yUqJOcCix2rCAQPt07Yv19ufpbvySwgNs7RmPAgr+lOw+yS+k41saBkxtQzV4s2qS4hbj/v6Xo77kdcVIxxNFA1023sayZbORO2hxlEFg5nL6CzZbgzKYuSFtNcgIrh/2ww1xr9sBev9kobC2JzMkosHLUnZkT5m/4H/p6SBcVciKwhAmh8Js1BD7Hn0kvU6ROf/hvmIZC5nmXSpj66Ryatx2DD5K0WJ4+CldthC4t68HGOBWh7+7h8JFz+CqR1NBDmzmH4TuwLGRjj17/vQG9J6xCWKJsnqsuPLyvYk9XiWjm45r3YPTbdCsD6r6rL2H+H6JIp7TlFomj43pj2l9vpFF00DVD+SZt0aZmaZjrxuLKiQO4/OiLtEi+sVNFrNmxHU1Lpm0VmUFgcRfQgVHBkmhWqzqMYt/h38s3ESQXGNZi+HqsnNIcJpxUC8DCug2wTRKdxfVRCCv/vYiOBXK0cpR6EAkspeL8fTojgfX7zDXdKREgAkSACBABdREggSUirS0CSyAQICAggPvhJyfD3s4OBQsW5KKp4uLiuPTCqMgo6Orqws7eXrS7oJ4eV/j97du33E6ErPh7iZIlYGoiLwzUterkriMU4Puj4xjcZxZeJaQzFVkPSM8VY7fsw6j6Lsi0vIz4TK0UWMJgbOrYBkufSFKk9OEx2gd7JrZWMEFJODvWAyP/kqT+6cC5/WzcXNVXdF5uBBb7CP3wMAb9OQOvZTO1flFgfbqzDwMHzcUnGRlZsEFfHF0/B3aiT+7pWvzzk2jQazpCY8S7EbJnDStj9/2DqJtF3fA8F1jW9bDlgA8aF7ORSfdUr8AChIh7ewxtWk3DZ0kQn4EVui/ag6WdS+bRC51dlo83x7zQffJBRGZWY01uZBbVhuLEjslwk6tFlfLtOtp2GY3XwTLppbziWP3wDNqluSQkPfBD5S6rkN59V8bOBwdQ3yrjehNGf8Xckd2w+6ao1Hu2TccRg/12Y0qzIuneg9IJLCc31Ej8hLsZsx3TdW1ZZyyO+o2Au4VE033B3BpNsCvdMFyw/MpVdBEX7Fc0PGU+TwJLmTR/o75IYP1Gk023SgSIABEgAkRATQRIYIlAa4vAYhFWbKxBwUHcroNsF0FHR0dEREQgJDSEi75KTUnliiMzccXqXNnZ2cHExAQfPnxAbGwsJ7uKlygBy7wu4C63xpO/nsf4CT648eIbohJlhIXMcTx9E7gWr4Lhs73Qu5biT3LaKLCSXp5Eza7TERUvYqBj6oo5G3dggEcRxe8KT1ejasd1CJdIC6Nq2H57PxqxD/W5FFhICsfGmSPgfexB2nV/UWDFf3mAgQMH4e5HiXjgodnQVVgzrQ2MMqvPlPge05p3w8FvaUW9DasPxNMDMzNNH2QDVb/A4kHP0Bg2to5wr9EaS+ePRmEz+VpF6hZYoil7uWswOs+/igTJejD3wJ7LW+Fhkze1lNiYhKlJOL3BEz67zuFraHymRf11jW1Qtl5brFoyBe4y6ZPShSgMhm+HTlj9NEj6kGHlXnh6xCv9uhC8xugqbXE6bfnAqOEi3NveDVnpe37QC3jNnou/bz9DWPrQP9G1eDqwciqJblO8MKND5QyvyXQCq1JvvNvYEMP6zcSVdyHS9F7JSTw9E5Ro0A1bVk1FQbki++/+NwrdFl5ERHwqeHpGKNBsKk6v74vM4w4VvzX8yhEksH6F3m98Lgms33jy6daJABEgAkSACKiIAAksEVhtEVhMQH35+gXh4RHQ1dWBibEJV8idpROy9EDmAHR0WS0sgEVrMcllaGAAUzNTJMQncBFYLL2QpR2yulkGBvKV0lW00HLYLT82BI/uPsDrD6/w4O5TBMaKYycMHFClWgUUK+qOytVrwc3OMNMdwOQvkxpwDyfvfJM+7FC2HjxK2CocTcTLS7jySuZTr8Iz2AGmqNyiGdykkUHxeHL+X7yPE+cK6Zugcq16cLMzzra3mIBXuPLfK4hrWEPXxAq16tSFg3kOpIMwFNdOXUeozM59xep2QHnxZmvvHl7B00+ScBAzVG3ZFIWyGU7s1ye4cE9aYR8wtUdDjxqwNv3JNLSkaNy8dQtBEeJ55fFQpGJ9VCxincV8JuPjjX/wKFhSzAkwL1wBTavI1CWSo5nKj8Cti1cRkrF2d7bcTZwro0mtwjKpaqG4duw6FMbisNeYmTXcipRC0SIOMJSp1ZR2QQG+Pb+Pe2++p0+TVbSu9I1RsWY9uNunhZt9vH8Bj75IBKAJKjRvjqJZ2JhUfjCu/X0TETKBjYWrt0SVtEJtikagmudT+fjy4g5u33+JRw/u4EOoaLL0TFxQrXpFFC1RHnVqlYOtcdY13wIf/4PbH9IisMwKlkWzasXlxivAm+sn8Twk7WGLUg3RpLRV9veVHI3Ht67j4bOXuHf3AULFm6RaFyiNmpXKo2zVGqhU3Bn6mcz15wcX8OCzeFw27ujYoAIivj3H1Zt3cPfaTXwIS4COniHcytRAlYpl4OFRG84WGV9PgpR4PLr6D559j4KhlTPq1K+LglZ5k/ZNAks1L4N83ysJrHw/xXSDRIAIEAEiQATUTkCbBBbbaa9AAdUUAGFFzlmNKNYc7O1RtGhRLg1P0xpLEWT1r2JjRR+QdHR4LFuIq3/FZBWLuLK2tkZKSgrCw8ORxOdzkTeSAu/sOPZ3llrIWLLILGpEgAgQASJABLIiQAKL1sZPESCB9VPY6CQiQASIABEgAkQgGwKaLrBY2htLjRMIhDAyMoShoWq+gU5KSkRiIit+zoOjgyNX5FwTBdb379/xndW/YmJK3JiQMjYygo2NDaysrGBkbMRFX8XGxCIsLIzbtTA5JUW6QyEnukxMUMTdnUsjpEYEiAARIAJEgAQWrQGlEiCBpVSc1BkRIAJEgAgQASIAQJMFFpMwQUFBCAgM5IqQq6MZGxvD1cWFS69jYkiTGuPx8dMnBP34AQHLEQS4elZWlpZcnSsLCwsunZAJKhZpxY7hJyUhJiaGi9pKSEwURWqxMi48HkqUKMFFYrG/UyMCRIAIEAEikBkBisCidfFTBEhg/RQ2OokIEAEiQASIABHIhoAmCywmW1hR8pCQEC6SKImfxNV2UkVjDodFd9nZ2nIyyNDQUKPEjoTFp8+fEBYWztW/YrsI2tjawMrSCkZGRllGjLF0QlY7KzIyEuEREWDRZqmpAhQpUgSODg6c9KJGBIgAESACRIAEFq0BpREggaU0lNQRESACRIAIEAEiICagyQJLMkmsjlNSYiJX10mVjYkcJoI0rbA5u2cmsNhOgyySKiU1BXa2dly6IIsYY1FYiho7n6Udsmis0NBQTmYxUcfqYLF7pkYEiAARIAJEgAQWrQGlESCBpTSU1BERIAJEgAgQASKgRQKLJksksMLCwxEXF8vtPMjSBZloy036H5dWKBAgPj6ei8hiuxYyiUWF3GmFEQEiQASIQFYEKIWQ1sZPESCB9VPY6CQiQASIABEgAkQgGwLaEIFFEygSWCydkjUmrn61PhcTWYmJiVxflEJIK4wIEAEiQARIYNEaUCoBElhKxUmdEQEiQASIABEgAhpexJ0miAgQASJABIgAEchbAhSBlbf8tfbqJLC0dupo4ESACBABIkAENJYARWBp7NTQwIgAESACRIAI5DkBElh5PgXaOQASWNo5bzRqIkAEiAARIAKaTIAElibPDo2NCBABIkAEiEDeEiCBlbf8tfbqJLC0dupo4ESACBABIkAENJYACSyNnRoaGBEgAkSACBCBPCdAAivPp0A7B0ACSzvnjUZNBIgAESACRECTCZDA0uTZobERASJABIgAEchbAiSw8pa/1l6dBJbWTh0NnAgQASJABIiAxhIggaWxU0MDIwJEgAgQASKQ5wRIYOX5FGjnAEhgaee80aiJABEgAkSACGgyARJYmjw7NDYiQASIABEgAnlLgARW3vLX2qvnR4ElFAJCAOxP2Sb/u9ZOGg2cCBABIkAEtJYAj5d+6Ox39pD841p7g+KBk8DS9hmk8RMBIkAEiAARUB0BEliqY5uve84PAouJKX6K+CdZiBQBkCoABOyHySzxT76eSLo5IkAEiAAR0BoCnLTiATo8QFdH9KOnC+jr8WCgB+5H24UWCSytWY40UCJABIgAESACaidAAkvtyPPHBbVZYKUKhIiO5yEmQQihQBR1RY0IEAEiQASIgDYTYNFYOjqAuTEP5iZCMBGkjY0EljbOGo2ZCBABIkAEiIB6CJDAUg/nfHcVbRNYKalAUjIQlwjEJ5GyyncLkm6ICBABIkAEpARYFJaxAQ+mRoCRgShSS1saCSxtmSkaJxEgAkSACBAB9RMggaV+5vniitoksKLjwUVbMYlF9azyxfKjmyACRIAIEIEcEGAiS0+XBwtjwNwkBydowCEksDRgEmgIRIAIEAEiQAQ0lAAJLA2dGE0flqYLLBZjlcgHImNZ5BVFXGn6eqLxEQEiQASIgGoJGBnwYGUKGBqIir9raiOBpakzQ+MiAkSACBABIpD3BEhg5f0caOUINFlgsUiryFgh4vmiguzUiAARIAJEgAgQAVEqoYkhYGXG09i0QhJYtFKJABEgAkSACBCBrAiQwKK18VMENFVgMXkVHCnkdhekRgSIABEgAkSACGQkYKgPOFhppsQigUUrlggQASJABIgAESCBRWtAqQQ0TWCx2laxCUBknBCpFHWl1LmmzogAESACRCD/EWDRWNZmPJgaa1ZKIQms/LfW6I6IABEgAkSACCiLAEVgKYvkb9aPpgmsyDhR2iA1IkAEiAARIAJEIOcEbMx5sNCgAu8ksHI+d3QkESACRIAIEIHfjQAJrN9txpV0v5oisARCUaH26HiSV0qaWuqGCBABIkAEfjMClqY8WJoCOhpQ3Z0E1m+2+Oh2iQARIAJEgAjkggAJrFzAokPTCGiKwIpg8ipOCNJXtDqJABEgAkSACPwcAR5PVNjdUgMisUhg/dwc0llEgAgQASJABH4HAiSwfodZVsE95rXAYsIqNh4IiyF1pYLppS6JABEgAkTgNyRgZ5H3NbFIYP2GC49umQgQASJABIhADgmQwMohKDosPYG8FlgJSUBIlBAshZAaESACRIAIEAEi8OsEWGF3eysejPR/va+f7YEE1s+So/OIABEgAkSACOR/AiSw8v8cq+QO81JgsV0GgyKE4Keo5NaoUyJABIgAESACvy0BQ33A0ZqXZ/WwSGD9tkuPbpwIEAEiQASIgEICJLAUIqIDMiOQVwJLKBRFXsUn0bwQASJABIgAESACqiBgagSwdEJWG0vdTSBIBfuhRgSIABEgAkSACBABeQIksGhN/BSBvBJYsQlChEb/1JDpJCJABIgAESACRCAHBJi3srMETI3Ub7CSk5ORxKdvqXIwTXQIESACRIAIEIHfjgAJrN9uypVzw3khsESpgwA/hQpfKWcWqRciQASIABEgApkTMNTnwckaao/CoggsWpFEgAgQASJABIhAVgRIYNHa+CkCeSGwIuOAyFiSVz81YXQSESACRIAIEIFcErAx58HCJJcn/eLhVAPrFwHS6USACBABIkAE8jGBfC2wwsPD8f3bZ0RHRyNVTfUUeDweDA0M4eTsAlfXgtDV1c2Xy0fdAotFX30PAwQatu3gq1dv8ezZa0RGRUGoorHxdHiwMDdH2bIluR9qRIAIEAEiQATUQYDJJBdbgO1OqK5GAktdpOk6RIAIEAEiQAS0j0C+FFhCoRDh4WG4ffs6bt64hpDgICSnqGfLOh0dHZiamKBs+Ypo0qQF3Nzcoaenp30rQ8GI1S2wImKBqDjNib5KSUnBs2evsHffETx69BwJCYkAVDU+HgyNDFCxfFn079+Nk1j5cU3luxcJ3RARIAJEIB8QsDbjwdJUfTdCAkt9rOlKRIAIEAEiQAS0jUC+FFipqam4dfNfnDhxFN+/f82TOTE1M0Otmh7o1r03zM0t8mQMqryoOgUWi776ESFEsnocZI6wxcTEYuXKDbh0+QaS1TQwfX09NG1aHxPGD4OZmRo/TeSISN4ddPbcOVy9dpUbAIt+HPznnyhYoGDeDYiuTASIABHIRwRYLSwHK/VFYZHAykeLh26FCBABIkAEiICSCeRLgcWiY44fO4i/Th0HP5kPewdHFCxYSMnoMu8uOjoK796+ha6uDgoVKoyJk2bC1tZOLddW50XUKbDik4QIiQKEqgpw+glw4eGRmD5jIReFxZqRkSHs7VUzz8HBoUhKEu3IVKliWSxePBNWVpY/Mer8eco6v/XYtWc3d3MmJibwW7sOZUqXyZ83S3dFBIgAEVAzAR4PcLQCjAzUsyMhCSw1TzBdjggQASJABIiAFhHItwLrwIE9OP3XcW4qWrZqi379BqtlWp4+fQTvpfMhEAjg5OSMmbO8YGfnoJZrq/Mi6hRYYdFATIIG2SsAYWERmDLVC69eveOw16xZBatWzlfJFIwZOwv37z/m+mbpg8u8PWFtrdkC69v37/hzyJ+IiIzkxu3s7IxNfhvh5OiodEYksJSOlDokAkSACKQjYGHCg425eqCQwFIPZ7oKESACRIAIEAFtJEACS8mzRgJLuUBZ1NW3UCFYGqEmNRJY2c8GCSxNWq00FiJABFRFIDk5GRcvX0JcXBx3CSdHJ9SsUUNap/Dps6d48/Ztji9fp1ZtTvg/fvwY7z68z/F5det4wFEFXxBIBsCKuBew44FFY6m6kcBSNWHqnwgQASJABIiA9hIggaXkuSOBpVygCXwgKEKzoq/YHZLAIoGl3JVOvREBIqCNBC5fuYzZcz3Bam+y5lG7DhbOXwBjY2Pu97V+67B3374c39rypd6oV7ceVvquwsHDh3J8nu+KlahVs1aOj/+ZA52seTAy+Jkzc3cOCazc8aKjiQARIAJEgAiGtBfxAAAgAElEQVT8TgRIYCl5tklgKRdoWLQQMQnK7VMZvZHAIoGljHVEfRABIqC9BIKCgjBt1gy8ePFCehMedTyweMFCqcBas24t9uzbm+Ob9PFejvr16sFn5YpcCazVK31Ru5ZqBRbbiZDtSKjqRgJL1YSpfyJABIgAESAC2kuABJaS544ElvKAsvTBgHDN2n1QcncksEhgKW+lU09EgAhoI4HNW7fAf9dOsI1jJE1eYJ386xSuXhXtkirfWNTWy9evEBERIX1q5fIVqOvhgaPHj+HGjRuZnseu9+LlC0RFR0ufX+u7hktdVGUz1AdYFJaq0whJYKlyFqlvIkAEiAARIALaTYAElpLnjwSW8oCmpAKB4ZpX/4rdIQmsXxdY0dHR+BEUBKFQCB6Ph8KFRDuFvv/wHv9cvIjrN2+Az+ejauUqaNG8ObezoJmZWYYLyxZxNzM1w/p161DAxRUvX73E2XPn8OTpU+jo6MCjTh00atgQ7u5FYZ5JP7Idsw+WAYEBeP36Na5e+xePHz/hatqULlUKdT3qoly5snB1ceX6lTRWC+fL16/pPsw6OznBwsIi3ZjZjpLfvn1DijjliD1pb2cHGxsb5b14qCciQARUSuDZ82cYPW4s4uPj011HXmBlN4iXL19i+uyZCAwM5N5fmjZpitkzZsLAIPs8vUePH2G25xwEh4RAX18fLZq3wPQpUxWe96tA9HUBRxse9NLe9n61y0zPJ4GlEqzUKREgAkSACBCBfEGABJaSp5EElvKAJiWL6l8JNK8EFgksBdOckyLuZ86ewaKlS8DED/sQtmGdH/65+A+OnTgOJnlkm66uLpo0aowZ06bD1NQ03XOyAsvO1g7zPD2xZ98+3Lt/L51MYicx4VTPoy7GjBqNQmJhJn8rCQkJ2LFzJ86cPc19QMysOTg4oHXLVujXp69UqrHzFi1djPMXLkhPYbVsFszzgomJifSxQ0cOY83atUjii+7RysoKPt7LUL5ceU7kUSMCRECzCYSHh2P6rJlgIom9p5QrW5YT5azlVGCFhIZiwqSJePP2DXceK8LuNXcezM2z3+ovODgY4ydNwLv377n3i4YNGsLLcy6MjIxUDo0Vcne05sFAT7WXIoGlWr7UOxEgAkSACBABbSZAAkvJs0cCS3lA45OAkCghWCqhpjWKwMp+RnIrsNiHwNo1a+HGrZvZdtyrZy+MGz0mneiRFViWFpacUPoe8D3bfkoULwG/detgYZ4+OopFUyxashgXLv6jcMmxD49dOnXBxPHjwQQbax8+fsSkKZPTXX/6lGno2KEDN+aPnz5h4OBB0qgNdt7M6TPwR5u2Cq9HBxABIqAZBA4cPIjV69ZwgrxRg4aoU7sOJ69zKrCYtF+xaiWXJsgak0+b1m9A6dKls71BFpG6eOkSnDl3ljuOvd+x97HixYqrBYwOD3CwUn0hdxJYaplOuggRIAJEgAgQAa0kQAJLydNGAkt5QGMTgTAmsJTXpdJ6IoGlXIEl25utrS3KlinDfTh89PhxuhQdFsnkv2073Aq7SU+RFViy/Tg5OaFkiZIQCFLx/MULsKgJ2da1cxeMHTMGhgaG0oePHDuK1WvXIDExUfqYg70DSpcuxe0yxlIKWeSEpBkaGmLCuPHo2F4kqNgxx08cx7IVPlxqJGtF3Ipgufcy2NrYYOGSxbh46aL0/GZNm3EpQ5Idy5S2QKkjIkAEVELg+/fvGDVuDAICAuDo4AjvxUu4aKiFSxZx18tJBNa9+/cxy3M2V/uKvW+MHD4cfXr3ha5MSnJmg7956yY8581FdEwMF/k1dvQY9OjWPV0qs0puWtwpCxC1t+TBJO0tUyWXI4GlEqzUKREgAkSACBCBfEGABJaSp5EElvKAst0H2S6EmthIYGU/K7mNwJL0xtJoZs2cxdWoYgKICSO2Rf2PoB/SC3rN9UKrFi2kv2cmsDq0a4/hQ4dJ0/viExLgu9oXZ/8+JxVLrO6U70pfFC9WjOuLRV8NHPInPn78KO27VctWXMSXpPYWE1vb/Xdg/4H/SfthUm3/nr1wdnLmzmPibelyb5w8dYr7XZLm07J5c8xftBBxcXHc4ywVcud2fxQqWFATlziNiQgQATkC7PU/buIEPHz0kHtm6OAhGNh/AE6fOZNjgcXe1+bOn4dzf//N9cEk+7bNWxTWr2LnzZw9CxcvX+LOY5J/k99GhecpcxJZgjMnsFScrUgCS5mzRn0RASJABIgAEchfBEhgKXk+SWApD2h0PBAeQwJrzNhZuH//sehDS9mSWObtCWtrS+WBVkFPPyOwbKytsX7tehR1d5eOiMmglb6rcPjoEeljo0eOQp9evaVRB/ICi6XzLFm4KENUU2hoKCZOmYxXr19xfRnoG2DK5Mlo/0c77vdLVy5j+swZ0uuw+lUsuoIVV5ZtsbGx8Fo4H1f//Vf68LTJU9GpY0dpaiOrUzNp2hROwEkai7JidbJYY/Jq3mxPNGjQQAX0qUsiQASUTUAgFOLUX6ewdJk3F2lZqWJF+Hgv5zZpYLI6pxFYrHD78NEjufcC9t4yasRI9O7ZS+Fwnz1/jlFjR3PnsZqBE8dPQOeOnRSep+wDmMAyJYGlbKzUHxEgAkSACBABIpBDAiSwcggqp4eRwMopKcXHkcASMfpdBBbbSWveHE9pPSnJCvnfwQOcxJI09oGvb+8+mQosVktmxbLlqF6teqYL7O/z5zFnnqf0OdYPK+guEAi42jJsy3vWWD9zZs1GsyZNM+3n8pUrmDZzuvS5P9q2Bat1xT5YssaiJVhB+lmeczKcz1J/WO2sCePGZbhXxa8KOoIIEIG8IBAWHo5xE8bhzdu33I6hy5eyjRfKcUPJqcBi4svbZxmOnzjBncfSilev9EWJEiWyvSUm8hcsXsjtqsoaS49evWIVihQponYUdpY8mJHAUjt3uiARIAJEgAgQASIgIkACS8krgQSW8oBqk8CqWrUiFi9Ki96RpcAKdRsZGWZZp4TJjvj4BE6iZNamTluIx4+fcU/l5wgsVkuqZ/ceGRAcPHwYPit9pI9nJ7DYB7uN6/zg4uKSKctPnz6h36AB0hpXrHYV29mQn5yMKdOm4Nbt29x51tbWWLl8BZemk1n78OEDevXrI52zzOresELNS5Z54/SZ09J0Q9YXizBjkRuurq7Ke7FQT0SACKiMAFd03XcVjh47yl2je9duXP0pibDOqcAKCgrCkOHDpCnRNarXwPKl3gpr4AUEBmDAn4MQGRnJXb9+vfpYOH8+jAxVbJIyIUoRWCpbZtQxESACRIAIEAEikAMCJLByACk3h5DAyg2t7I/VphpYFhbmKFmiaKY3xNL9hgzuA1dXZ4AVEZFroaHhWLN2K6IiozM9/9Xrd4iJieWey88Ca9KEidwHQ/mWG4HFirtvXO/HRUhk1sLCwtCjTy9ERUVxTzdp1BhLFi1GfEI8hg4bhjfv3nKPOzg4YM0qX7gXSUtnlO2PFXJm/SQlJXEP165VC0sWLgarhyXbrl2/jinTp6aTk40bNoLX3HlgBeCpEQEioPkEWMTl7LlzwEQWa9WqVIWdnZ104Cxl+tlz0ZcM9vb2qFShIgoWLMhFirJ0YUm7c/cOps2cId2YYuyoMejdq1e6XVUzo/HvtWuYMXum9PqTJ0xC1y5dFJ6nbLJUxF3ZRKk/IkAEiAARIAJEILcESGDllpiC40lgKQ9oXCIQGi2EeDM35XWshJ7ki7hn16WJiTGmTR2Dxo3rQldXJ92hLKXk32t3sGDBCiQmimRIdo0EFriaMVmlELIdA/3Wrc+yMPqbN2+4Qu2SD6JsJ8IpkyYjOSUFM2fPlNa1srS05KKkKlaokOl0vHz1Cv0HDZA+16hBQ05KsdRDSWOF5/sO6C+VZZLH2QfahV7zud3KqBEBIqDZBFhk7OZtW7B9x45cDbRUyVJYvXIVF80pafv+tx9r16/jamixyFy2iUOJ4sWz7ZdF6O7w9+fGwMbCztvjvwtFi2b+hUmuBpnLg5nAcrDiwdgglyfm8nAq4p5LYHQ4ESACRIAIEIHfiAAJLCVPNgks5QFN4AMhkUIINLCOe24EFvvAUb9+bUyZNAKWVhbSb83ZB5PwsAj4rNyIa9duZ5lCKEuUBFb2Aoul9MyfOw9NGjfJsBDZhz//XbuwcfNG7jm2O+CfAwdxO4mxudiwcSP8d+/knmP9sJTGLp06Z+iHHXvw8CGsWLVS+hxLfWS1tCQF3/l8PlavXYNDRw5n+oIoW7YsV8OGFYCmRgSIgOYSUJbAYu8bPitXSN8TXJydsdt/F8zNzbO9eVb/aon3Upw6/Rd3XAFXV+zasVO6M6o6yenoAI5WPBiKSv2prJHAUhla6pgIEAEiQASIgNYTIIGl5CkkgaU8oPxk4AcTWJmXhlLehX6ip9wILNY9Sy2rV68m2rVribJliiMxIQlv3n3EX3+dx/Xrd7gaWDlpJLCyF1iMYaFChbBl42ZYW1mlQ/rl61cMGzkcLI2QNbYr4Nw5nmApfaw9fvKEe15Si4wVVt7stzFDWmBwSDAmTZmC12/SdhhcMM8LrAi9pN1/cB+Tpk6Rpgqx+Xdzc8OLFy+4Q5g8a9u6DWbNmJllbbScrAc6hggQAdUSYOKJFW5/9/5dlhd68PAht0Mha8WKFQOL7GQphjWqVZemCrN+Jk+bApZWzFq1qtWwfs1ahWmATIaz9xKWfshazZo1sWalr8LzVEFFT1cksPTTb8yq9EuRwFI6UuqQCBABIkAEiEC+IUACS8lTSQJLeUBTBUBAmBDsT01ruRVYbPwsOocJqKJF3ZCUxMeXL9/w8uVbsG/Yc9pIYCkWWIwl2x2M1dMqXqw4UgUCvH//DgcOHQTbil7SmOjy9VmJAgUKcA+xQu4TJ0/E3f/+kx5TsmRJ9O7RC+xP9gH08+dPOHr8GO7cvZuun80bNsLGWlR368ePHxg3cQI+fvrI/c4KLU+aOBGlSpbE1BnTERgYyD3OdiP08pyL5s2a58mH0ZyuOTqOCBCB7AnkpIg7e/8YPHwonj59ynXWvFkzLPRaoBBtYmIiJ9ZZ2jJrbVq3xtzZaTupKuxAiQcwceVszQOLxFJlI4GlSrrUNxEgAkSACBAB7SZAAkvJ80cCS7lAf0QAiXzNyyH8GYHFyLDIm7SW+/peJLByJrAYYwMDA1hZWXHiKTw8nKs7I9vGjx2HHt26p4uAunnrJjy95iE6Oq2gPksnZHJKCCG3CxiLiJA0MzMzrFjmg8qVKnEPsaLuy1f6gH2glTS2YxgTVaw+1s7dLIVxk/S5kiVKcnVysio6r9xXE/VGBIiAKgjkRGAJ/l+AD/xzEF6+eskNoUP79pg5LfOda2XHmJCQgMHDhuKteIOJbl26YvLESaq4DYV9mhjy4JA+sFXhOT9zAAmsn6FG5xABIkAEiAAR+D0IkMBS8jyTwFIu0Kg4ISJEG/BpVPtZgfWrN0ECK3uBZWtri5LFS+LuvbtZRrYxsdWu7R9gux6y+mSyjUkuVmiZiSZZiZXZvJmamHL1s3p07y4Vkzdu3sDc+V7Sc5m0YrsZVqooElzx8fGYMHkSHj56KO2y/R/tuELybFzUiAAR0D4C12/cwE5x/bzy5cpj2JChGXYZZanJi5YuxpcvX7gbbNe2Hf5o21bhzbIIrKXLvcF2PmWN1eWTTVdW2IESD7AxByxMMtlKV4nXYF2RwFIyUOqOCBABIkAEiEA+IvBbCKxKlauiQYOMRZ1VMY+fP3/EieOiws3OLq6YPn0u7OzsVXGpPO3T2EgP+qwghopbcgrwPSz/RGD9Ki4SWNkLLLfCbljlswLnL1zA7n17EBub3n6aGBtj8J+DwaRRVsWT2QfN/+79h9179+Luf2mpgpK5Y6l/rH5Nrx49Ua1qVal4+hEUxKUgvnv/njuURduxD7L9+/ZLJ8qev3iB6TNnICg4iDuOpZZOmzIVf7RpS/WwfvUFQucTASKgMgKudjzoq/6ffRJYKptB6pgIEAEiQASIgPYT+C0EVl5ME0s7KlmyFEaMnABrcW2cvBiHqq6pLoHFxh8QLgQr6K5JjSKwNGk2Mh8Lk1eXr1zGh48fOZlUtXIV1KhRg9thMKctNDQUV69dxffvAVwqIquXVbeOBxwcHKhuVU4h0nFEgAhoPQG286CzjeqjrxgobYjASk5O5tLJ5VPTlT3RLEqYRefm5t8tZY/hV/tj/3ayWpSsgoKujhoM6K8OmM4nAkSACBABjSZAAkvJ08M+KOvr6cO1QEE0bNQUdes25HY7y29NnQJLE9MImcCaOnU+Xr56q9apLVeuFLyXzoG1taVar0sXIwJEgAgQgd+XgK05YK6G9EFNF1hMxjBxxb7cCA0LQ1JSIoQqChJnwodtAsJ2tGQ/2ppmznhFx8RAX08PFhYW9OXP7/s2QndOBIgAEVAKgd9KYLFvsMzMzGFsbKKSf0DZfzZYepGFuSWq16yNevUacYWb82NTp8BKSgaCIoUQaNBuhBERUZg9ewkePX7OReaoo7H1VbVKBSxYMB2WlhbquCRdgwgQASJABH5zAro6gJM1+3JOPSA0OQKLpZgHBwcjIDCQq2mojmZiYgJXFxfY29trZZp5TEwMV8PN2MSYi2KmKCx1rBq6BhEgAkQg/xL4bQQW++aqePGSaNiwKUqULM3VnVFVYxLL0NAQhoZGKhFlqhp3bvpVp8ASCIGQSCBBg3YjTEhIxMHDJ3Hk8F9g0Viqllgsss/GxhIdO7ZBzx4dYWycP8VobtYgHUsEiAARIAKqJ2BqxIOdBavrp/prsStossBiKYMsLT0kJBgCgZCLijLIRVp6bgjyk/ng85M5aeXo4AA3N7cMG4/kpr+8OJbxYsLv0+fPMDczQ9GiRbkvdtPvyJwXI8sf1+THR+DLhy8IDglEeJwQprZ2cHBwgXtBZxgb6OSPm6S7IAJEgAjIEfgtBBaLvHIvWgwtWrRB1ao1oKenT/94/uJLQZ0Ciw01NgEIjVZPpFNO0DBhFR+fgJ27DuD8hauIjIiGUKjMELG0Two8HR6XMtiyeUP06dMVJibGtH5zMkl0DBEgAkSACPwyAXtLHkzV+J2Jpgust+/ecSmErBUsUAAuLi6/zDizDr59/8bVX2SN1V0s6u6udQKLRal9/foVIaGh3Be7zs7OcHJ0VOmXyEqZjOR47PKZgv3XPst0Z4KWY+dgXMvyObgEH6tGd8L5DzKHGlij/5T56OFRRObBRFz1nYml59+IHtMxQLsRizCsTWlkp5+Swj9h91pvHLz+FjFRMYiLj0ViMqBvbAwTEzNYmVuhWvuhmDigBexNsqo7FoGtw/riyFfxcKwqYNUGT5SyzPrFHvbiMqbNX4Hv0aJzzKxaY/W+kVD8CojH+QVjserWD5l7d8TIXdvwh51inK+v78TcxYcQpfjQdEe0HL8O45q7SR8LOb8Q/Xxvi3+3RNdFqzCoskMue83u8ACs6T4OZ2MS0h1UY+IeeDW1UngdQeB9DJmyFAHhsufbYcg2f3RyVng6vj34C7MXbkRQouRYXVTvOApzBjeHvsIvIMKw9s/+OBMocx2dilh5YBFKm2Zx7cB76D9xKYKjRBe0KVAPi3ynwc1EcnwIlg8ciEuiPYty2ZwxasMStC0sXiBJUdjsPQ3Hbn+T9vPnqr/QpWTm3V7fOR3eB54hRfK0jj7+GLEIw9uUEb+2XmJ26ym4n8tRoeZInJ3bOrdn0fFKJpDvBRaTVyzyqmmzlqhQoQpYKDa1XyegboHFRhwQDvCTNUdisTFFRkYhNDQciYlJ3LexSmly/8jo8HjcN5Z2dtawsqLaV0phTJ0QASJABIiAQgKG+jw42yg8TKkHaJPAKlyoEAoWLKjU+5d09uXLF3z5KrILDvb2XPQSK+quLY190RcZGYmPHz8iPiEBOjo8roxHieLFNb+8Bj8WKyZ1w7rT6eucOjSehMtbh0PRJwn+521o1mgpvshOlqEdJq/agVEtS8k8moBT0/pg7KEnosd0DNHfaxc8e1fJVGAJEiPw/OYRzJnig8cRqQqXgp5rLSxeMgetahaDmb68EgvBkmZ1sFm0cTJgVwtHz21CZZus7y7o/gn0HDoZHyNEp1jY9cLJu14orGAkyYF30LPLCNwPjEl3ZMkxp/DXhFJQlBPz6MwKDB69EWEK7zj9Ad2X/oWl3dIMR8ChEfCY9o/4IGsM23UM0+u65rLX7A7/hJlVOmB/ZFy6g6wqjcbZA+PgpGAPoRdn1qPvZF+ESwUU68YJsy5fw2BFkAH8taIfJq6/Bdl9r2xr9MTf/nNha6TovSMIsxvVxV5ZZwugy6xdWDSwNjIN6PtyBR6dxkqFm4N7a+w6vholzSS3H4iJ9evjWJpzygXrQlhwbi/6lHASnZMYjgVje2L7P2lWeMbRtxhaSa5LQRI+XVyL7iM2IVgaV2CIEs3HwX/tEDhL5+ABBrh3x9VcjIg7tIkXPm7plduz6HglE8jXAuv836c5edWkaUtUrlw1X6f0KXldKOwuLwRWIh8IZrWwlOSJFN4kHUAEiAARIAJE4DcloMMDHK15YDsQqrORwBLR1naBlZiYiB8/fiDwxw/pbo0sCquImxtsbGw0u55XFgILhsWw4uJZdMo25CgR58Y3wIiT4elfNr8osIQpiTi5YQbmrjmNqNSc/0dY38QFg+b5YHqX6nIvY/UJLE7MTFqN8KT04+ZZ1sGRyztRWUFwkrYLLH0zFyzbfwodymZfv3bXrI6Yv/8Z0qvJnAqsL5jQoBWOf+XLrbuC8Dx6CgOzDKOSHJ65wDIv2hR79q1ABftMxKYGCqzPt/Zh+OhFeBUh4aCPqh1GYuWC0SiULpKMBJY6/11X9rXyrcA6fGg/3r59ieYt2qJChcr5cidAZS+G3PSXFwKL1UoPiQbiE3P+D3du7omOJQJEgAgQASJABEQEzIx5sGW1r9QMhARW/hBY4eHh+PT5E1jNUEmdUBZBZmdnC7fCbmAZEhrbshJYACqOPoIjEysgq3gWQdhNtK/eH8/kb+6XBJYAP26vRafe6xAo819gfWMLWDs5onTl2ijloIvA5zdx/1UwgsMikSz7ba9pWfhePIT2DrLM1Sew9np2g+eeh8hQaIPHw1i/ixjfomC27zPyAotnYg1HCwOFy6fdjJ2Y8UdR6XF5FYEFHWP0mr0BCwZ4ZJ0amvIFQxs1wYXv8reVM4HFv74IFfv5I13wlrgrpx5bcW1xAwWRbpkLLNZFuaHbcHRa/YxpiAoFVhC8OnXGOdnM0SxmjR8XhfAYmdHzCmPh2T3onYsILH7UO0zu0RmnXqdtsGFfujk2bfdFZUf59xs5gaVnBAdbS7AvbrJtdSfh1rKOCtceHaBaAvlSYLFdYh48+A/JycmoWLEyTEyySt5VLdz83HteCCzGk6UQ/ogARWHl58VF90YEiAARIAJ5SkCH23kQMNBT9L955Q+TBJb2Cyz2/+/AH4H49u0bJ690eDpc7c5UgQAmxsZwK+IGSwtLzY3CykZgWbg2xb7TG5B5ME0qnh9cgrbTd2Z8YfyCwBL8uIVBnfrhqowIsCrTDFPHDUfr+mVhaZim0+JCPuDMgTVYsuo0ImRkl2WdBbi0uwdspC9pNQkswQcMrdcGFwJF1YhMnZ2hGxgIcRkt1O4xG5vn94dZNnmE8gLLvNsm3PaspfDNR8/ACAZ6aamTeSawwINLkyG4tGEyDLN4Tw06PQZNxpxD+uRDdos5EFjCCOzs/wfmXRcVm9I1NIS5gQEiY8QpmwYVsOf6EXhkW28sa4EF/ULw/N8RDJQPlVMosIDkxHgkKygRnBLzA37zRmPT32kpuy7l22PD9gWoYGssmmcFKYQpIU+wYPRQ7PovLdHUuEhDrNiwEq1KmGeyVuQEVqm2uL1nPswVpVrqGsDEUFHSq8KlSQf8IoF8KbC4dZ7ICuCJagdRUz6BvBJY7E5YbcQwDSrorny61CMRIAJEgAgQgbwjYGfJg1ke/feJBJb2C6yYmBh8/fYV4eER3C6NFhYWSElNRVRUFPT0dOHo4AhXV1fNjcLKRmDpmNjAc9Mx9PfIJI+QH4U1UwZh1SlxTSvZl/BPC6xkXF8zHn19z0t7MypUB3v2rEPVApl9MAcgFODvlf0wev0daRFrno41/C7fRUtpyTb1CKykv8ej9IjTELk0I7T1nA3LTbOxV1zY27B0S1za6wMXK8Ms3/DkBZZFrx14vLBurt8g805gsVuvjB1396KhWWaRh0HwbdIAqz9mVtdMscBK/XAedTpNRHB0EsfEoVhtdKlgAL+jaRWe+vicw4JOadFoGeFlI7AAFKvVDzu2zUEBsU/izs+BwMrJJJ2c1xLjd78Hy7QRNTssPnURPcvKpC1mJ7CSo7Bx+jB4H5MpyW5RHMt2bEXXylnl+8oJrNLt8fjwUlgYa6+cSo7+itO7dmD/PzcRYlACvfr1QZ+W1WEkkabCVAQ+vQr/A8dw89YrJBcog57dB6Br84owyVAjT37mUhD24hYOHD+J05ceI8HAAhXKVoZHq9ZoUaciLIzUu+tpvhVYOXnB0DE/TyAvBRYbNduRkO1MSI0IEAEiQASIABFQDgEWnGFuAtiYqz/ySnIHJLBEJLSlBpYkPZCNmf09NTWV26WR7T7IT07m5BXbrTE2LhZfv35jB8HM3AxF3Yty5T1YZJakyf5dOSv6J3vJRmAB+mgyfBE2T+mYId0oLughhnfphevfpXufpQ3gJwVWatRnzBg2AIfuplXC7jx7LxYNrAHDbF6mkW//xcCBo/A4kA8Ta3s4FyiE8Ys3oU0ZifRSg8BKDoFvl/pY/VTEQ8eyOHx2bIPTuQHotVlcjJtng+G7jmOaR9bb7OULgQWg/JQzOD6ieIY0wpjH/0Ptzp6Iy7TIryKBJcDdfYsxcN5OxIuXXfmefvBr+hT1/twgXX/lmo3A9jUTYJ/lolYTSQ4AACAASURBVEkvsFzKVYNT4H08CBNbJTMXjPfZgnHNS6St6V8VWMlRuLRlNkb7nIPkI52+jTuGLvfH5EZy6yFLgZWCx0e9MXK2PwIkGYg8S/SdtxbTe9eGSZZeRXsFVth9X7Tsuh6ivXALY8G5jXC5sQ9eaw/gS2T6GmimJVti1Yq5qKTzDOt9luJ/V94jSS4izti9AZb6LEHbSvYZU1yFcbh/Yi/WbvbH1Vchmb6h6poVwB8DhmBkn44o7iBrOH/y/TcHp5HAygEkOiQjgbwWWCmpQFCEEMmKN2Gh6SMCRIAIEAEiQARyQMBAH3C04kFXvV+mphsZCSztEVhMVqWkpEh/WAmPhIQEsPpXUdHRXIog20HRrUgRxMbEiHYkjI+Hrp4uHOwdOJFloG8APT097lhWF4vVycpzkSUvsGyro4rFf3jwUTQ3BuU748HRxTCVe6F8P+eJFqP2I477zG+CMuUs8OKZOO/vJwVWxPtrGNxnMB4EST511sLeRztRx0LBizQlER/ffkSSoSGMDYy5ciqWFuYyacGqF1jxzw6iVsfZiBEXnXcs2wQ7dvjB5ts2dOq8DAFiN2LSajEer++aZY0mbRVYlpYFYGQYjaBgccKkaXuceeCD0umCsPi4vGY6BvuektYIcyrmjoh3HyCKp8peYAlTk7B2/B/wPf1RHOVmjLH/u4cJZZ6gZ6WeuC1eNnqFauHQHj9UyipqD3ICq9kInOoejUaD94rTPXkwLtYDZ8/NR2HJ0vtFgfX03DoMn7weARLzpmeCbtPWYdGgesiQaZmFwOoQvQZtR/khJE7ygdAIHpM3YdPQOjDNNpgqvwgse3Tq7oZ/jt1DND/zGtGObsVhIYzE28+ZCyi2yuxLN8OWHetQ0UHmfUUYj4vLx2GK/zVEJGb/gZuno4uSHSfhlPdg6CksJJaD/4woOIQE1q8z/C17yGuBxaDzk4HgKCGYzKJGBIgAESACRIAI/DwBPV2RvNLP4wwKEliaJbCYlGIpgWxXQX4yH6kpqVyUFatnJUhNhUAoBDtGyH4XCjmZxefzuWNYvasCBQrAwcGBeywoKAjfA74jNVUAAwN96OuJhZWOqEYWk1i6OjqiP3V1uR/2d7Z7oZnZ/7F3FuBRHlsY/tbi7jhJcCtOcXctUCC4u7vT0FKsuLtLkeJc3J3iUjTB4u62yd5nZiW2m4QQ2U3OPJeH2+z/zz/zzuy2++acMyY5dyBTSoElbIqZcyRYPv8c5OcI2WHsyYuYUCFJilNCKNb1qIa//pWvn75jI/zVNgRj1j5R/MAGk1fswKhWZZK8SaNwalpvjD2sSDkU6qOf627M7VVVFQnx6eEm9O7xFzwU303FjRbj+fbO+PE4hxQCy6ws5v05Ds6mmlP5gt7fxcKVm+EdLp+CmU1PnHzgimLqPnZksbi4ZhqGrzqtqltbo9sybF/YAeIgd0zo3QHn3ihDZophxfVz6FRE/YdPSoGlX64NhjVxSvPDrmzbkWhVOnm6Xk6nENo4l0ZrJ1vsuXhLNdZxW25gXNMCqqL1CRF+mDu8C/bd9pJfY9oAk0daYf3i45CXIk9bYMUF3IFL8354FCy/XVSoGy5cXwAnYTyuzKyDQQeVp2GaotuKvVjcsZwGbskFlnXDYXiwfRxWjWiNdRc+q05GrD36ALaNrw5D5jkyLbASEPTufxjZZzzuqZyKGCVbT8XelQOQ7KwB5WjVCKxhizbh2YZpuPdZMXkIULbDaOxfOAoWhpqOWVB2mEJgWZfEsK7NoZ9GKp1lsQro2r4pTNI/PyDz/yLOwJ3JI7DkNwhEerAvVASWRmKE+nnAI0DxJk3an0AIC/vCKGBhjKhQX3zxCkisKW1gh0krtmN0y9KqOwJfX4DLwMl45yuPjxMZ2qJy9WqoWqMyTGO98PrZSzx7+gxeYYrQP4EdRh8+j0lVTTIwix+7hATWj/HLt3drg8Bi8KNiAf8QGeLTKRCYbxeKJk4EiAARIAJEIB0CTF6xulcGWnAwHAks+WJpSwohSwsMDw+Hr68vgoKDII2TIkHGhJVMEfGhfnMx8WRpYYHixYtz8aTs5+3bt4iOkceWaGpymcX+iKCvpwcbGxvY2tpykZUjLVUKYV2sOdkfWwYPx3Nf+W9NzVqvxL11bVUiSfr2AGq1mYtAhWiq2XUGhpkfwKBtn+RDzmQE1tvzC9BjxE4ov6I7jjqOK5PKZwGGFAIrEz2mJbCkEf5wHd4Je28ril3BABP23cXY2iaANAxbZw7HgiMPVE9tNWk/Vo+qAXUfQSkFVkaG2m7tc6xpk1zz5bTAsnSqgpXjmmP4uCWqFLm6Lq7YML8nTBV+JeTLOfRsOwavFdXbyw/bhQnGmzBk+R3F+yttgfVueze0/eOJotaZCDXHbsHf4+tzRKGvN6NV+6WqkytNak7EzYMjYKEWYHKBJfypB94dnQ/vu3vRZeSf8FFICgPrCli2cyvalLfOtMAK+3AVQ4dOwL1PiSXrbWr3wr41s1HKSsNvUNQILJsCBRDk5aWSaxAI0X78evw1uin00s2CTyGwMrCpijXojoPr/oBDLp8Np05gVes2G67DmsHOWIIQn1fYOm4Y/v6UPCLLtsYgrHTtgZJWxogMdsOuaaOw41mIYuZ6aDphGbaOaaUicXvXTAz//TDC2XdsQUEMX78BIxuXhakSrjQcd09sxJR5m+ChOPjRpPUaPFjXKgsEe9oLQgIrAxuWLklNQFsEFhtZVAzgF8p+A0grRQSIABEgAkSACHwPAXbioB2TV7n8W2XlmElgyUloi8BiY2HRVKFhYfDz80VwUDCvbaVsTDSxFECWCsjT/3j0lBB6evq8/pW1lZXqtEF2OiGLwoqMipSLsIQESOOlSIhP4JFbcVIpF13KxiK4rK2tucAyMjLKudTCVALLCWsu78QT10HYfkN5Upoztt4+g6YFRIAsDleXD8HAdbcVQxdh6OrTqPlgKAbv/Sr/WSYF1puz89Fj9B4ov2aWnXgWZ0eX/J63uIZrs1dghXz5H3q1HYtXCkchtO2OK/f/UEVrfTqzCI3HbFONrWj1zti5dSEc1aRG6qrAMipcARt3LMf94a2x7qNCfJZrgcM7l6OUDZOxCXi5vjfa//WQcxDoOWPRyb2wOTEGgzYoQvnSisCKc8fsBi1UBfEFhs5YcnAbulYsxPuTRoVgukttHH2ufL9aY+7ZWxhQRp0kSlHEvWI3fDj2B0SCUBwe2xPTz7xTpDiKUbP3XOyb7wJxJiKw4iN8sGR8H2y5rEx5BIwKV8OqTevRrKyV5n2tRmCpu1jCDzhYh5qF04sCygGBFe2JM4euQRkDp3lyxdC2b12kMftkt6YUWEKbNjh9axXKJv13+I3pKNH/aKLcM6qL/Q92onaSoFHcX4iSLttVBz1U6b8Q/8ztmuxZcVGheP/oFi5/08eYHk1TTUHq9xbDB/fH5RfyilwQdca594uRGMeVBR9VaroggZU9XPN8r9oksBjs6FggMEyGWDV1M/P8YtAEiQARIAJEgAhkgoC+RF6wnf2tLY0ElnwltElgsfEwscTqV3l5ecE/IIALJ9aYvLKwMIeVpRX09PTkAkuRAshqWrHXlY31wSQWr5sVH8/TDtn/j4yKgr+fH6Kio7nUYhFYLGrL3s6Oy6sci7xSDlSdwLp7BsX+NwMd5h9XzcfF9TDm96kMQdB7TBg4EKeeyetdCQzr4tjdtfhvYhvMuKJIDctnAuvBio7ouea14gu0CFWn7MfREVUTP2YC76F9zT54qazRZFEaK3ZvRbsKDqk+inRbYO1DgefT8cuk/4EndUkcMGnXAYz+uTAQ9RqjGnbEWcV3/wK1u+Gfja64taAlphz6ouCgOQLL/9ZG1O27DMqy3TY/tcK+rctRylrxgZ4QgwN/jMCcnTdVIqNW7/XYPr85knoM+YM0CCxWzyjgAQZ27oWrChcL46KYe/AMBpjeQ93OY+EZKE8xs3Nqg93HV6G0JncU54P9c0fjj0NPEaX01EbOmLJmA4Y0dlQbfafaDBkUWOz6wrUnYO/OkSiW5r/XckBgBd5B2+r98Drdf7m2wBm3ddCU3Jny9pQCq3j/jbg6N4Vc+rwNdRovguLTB1bt5+HRqt7Ju/I4iAb150C5rOoEluqG+DgEen+CT4iibo/YAA52djCDN8YM6Y//PVI+qS3Oua0kgZXumtMFuUJA2wQWg8DSCH2DZYhJ/MVgrrChhxIBIkAEiAAR0HYCTFrZ5XLBdnWMSGDJqWibwFKuFUsn9PPzQ0BgIGKioyEUCWFsbAJbGxtYWVl9l2xiQisiIoL3x04uZDW2BBDAxNSUF39n/TEpluNNrcA6j3b619Gh6mC8UAyodIuB2LNyBmL+O44B/abgg6LsTNExJ3B9QlEcHPzjAuv9lWXoOXij4sQxAF3Xwn1JyyxAkiICy7QEJs8aCWcTzWmagR8fYOXmXfBTRFVpTCFMeIlhpX/BBVWNWht0mzMRje3Nk4xbikfbxmGrokQYIEbzmbuweXDNVHPT1SLu8gisfahu/QXD2rbHTcV3fJMOf+HFyo7wv/AnagzfoZpv23GbsHxcE5yc3jR9gSWLwMGZYzDj75uq+52qdsGIgU2Q1B95PT6JxbvOI0axFnal6mP7vu1gGYDJWxoCC8Cz4wvQf9JOBCvEk9CyI86f64157Qfijm8Y7ypNgSWLwbUV4zBg7eXExwrMMXDd35jTyjn9/ZyGwCpTuyY+332gStNknTUaswubJ9RJQ4rlQBH3HBJYTVzPYlufFFGZKQRW7Qk7sH9MveScMyiwPt3eiRETV+CNnyJPMEkvIrE+hMI4xMUq06BIYKW/memKXCOgjQKLwWCR58ERMoRFIrEwXa5RogcTASJABIgAEdAuAixl0MwQsDBJt0hIrgycBJYcu7YKLCadYmJiEBAQAF8WNRUZyYu3GxkZ8pMFWcSUgYFBunuH9cOKw3t7eyMwKIhHYolFIpiZm/F+LCwskkVvpdthVl6gSWDZx+PyvKYYvMeDP03kUBP7Dm9AyKHhGL3mIfjvT03LYN35U2jjEJ4lAsvz5REM6D4D7+RBLoCDC65cmw/HdL2eDNKYWEiFYhhI1BW0zq5TCGXw/N+fqDtq5/eviHN33P7fHyiYIsNN1wVW/aIybJo5AIuPPpHXtdKvjG1XN+LDn0Ox8LSigD9ssfDkOfSoYIYjGRBYMQFuGD+wO869UFZHyyBu40L4bf129Kufsgh+2gIrJuA95gwbhMOPFRZOIETPcVPwed8G3PaTn7KYlsB6c341Rs7cAPegxFSZhoMXYuXEzrAwyMCxt+oElp45mg75HauG18DGiX2w9uIHFQSjAuWxeBOL6LPRACYHBFbYa/w2bgWUsXSaV6gafts+HEUzuIQpI7CyS2DFhXzFzsVTsPjgo8RUxHTHSAIrXUR0Qe4R0FaBxYgwiRUXL0NACBBDKYW5t0noyUSACBABIqBVBFjUlbUZIBGzOBftbCSw5OuirQJLuWtYKiCLwvLx9uZRVExIMXFlzQqu29jwFEBWyF1dY2mCIaGh8PXxQVBQEOIT4nn9LJaGaG9vz08cZP+ca02jwAICP+5D5xa/4TMzEQIJ2i1eBaPVY3DomzzEpUDzUbi5aTxEyBqBFe31CiMH9sHVt/IoF0Afs47cx+CqaVeSTgj4gGlTp+Leh2AIDYxR0MocXSavRNdqyi/02SSw4gKwYexQLDmvFDPfs4r6GHXwCSbXTJ77pfMCy9kQb44tRsep2xDLt4kQPw90hejGYtxWhu1VmIRHx4fDSogMCSyPf7eie8/F8Pju7zlC1Bq+AgentkmxMGkLLFavy+/SctQcukl1n765BSQRYQhXHAevSWBFvdiF9r0X42NYYoqMZZM5+N+aXrBP97RAxePUCKzSTUdh66rRKGwkQtS702jaaqIqZY4xNqs6GJeOTIGt2i2YAwJLFo/oqBhF7bC03gdiGBjpqU4eTe8dk1MC696BuRg27yBCpfKwO4FIgvJ1O6BDwwoI/vQEj/59hOdvPRCVrAY1Caz01o9ez0UC2iywlFhYUffQSCA8WgbFZ2suEqNHEwEiQASIABHIHQIsAMPEUABTI4CVNNHmRgJLvjraLrDYGFlxd5b6x04oZBKL1bViKX8ODvYoVLCQRgkVGxsLd3d3HnnF+jAw0Ie5uQUcFPKK1cDK1ZaGwJKG+2PmwDY4/G9Q6iGKTNHXdSNce7I0uKwRWIgJwLqpQ/HXqUQhVL7lWGxdPhIOaXz5f3dlMwaNW4pvinQ/gcACy87exC+lldFx2SOwIr4+wpABg3DXLfGEOT0DA41fzmXxcYiNi1edaFmsxW84tq4XLJP4S90XWEaA3310aDoAL8LV1TkxRt/d9+BaT7426UdgxeHsrJYYdUBZvQgQ6+lDrPHDPQFxMbGIV9adKtQK5y+vQalkUXzpCSw2sggcHt8GM096qgp/J30TqBNYoZ/vYNzAibjmHqC4VAj7ql2xb7crnI00nDio7s2vRmDNOPIeQ5OUVXM7NApd51xAUBLE9cbtxMZRdWGc6lE5ILCy6UMsZwRWNJb2qoP1dxXi3MgJs/Yfx+BKyU/2lPq9xvDBgxKLuIMEVjYtO3WbFQR0QWAp5xkXD0RGA2FRgFT16Z0VFKgPIkAEiAARIALaS0AsEsDMCDDSB8S5GNDyPYRIYOmOwGIjZal/gYGB8PTyRHh4BCRiMRwKFECRwoU1RmAxgfXx40cEBwfz9ENW76pQoUI8gktT1Nb37KEfvjYNgYWEGJxeMRHj1l9IVarCwKoQVuw/h1almIjIIoEFGfxvrEOD/qtUNX6EBhao03MONs7sAGM1QW5RXy5iVL8ZuPY5RCWGhLVm4t89A2Cp+iKfPQLr9ZmF6DNhOwKVkUE27bBubS/YanCS/i8uYMZfOxESLbcrJgUrYcOBA6hXJNGu5AmBhRhcm9UKAw58S709HVvj3rlVsJfIIaUrsHyuomPzoXiuqLkGoxKYuXImKpsnlwuJD0rAXtcBOPlaWe7dEN223sLiJmZJxpIRgQWEut3FsAGDce+rsq/ELlIJrAQfLB3QA1tufUOcQp7pmZTFsoM70Lac9fdFAasTWP+8x9DKic+XJYRi8+T++Ov4C5Vg07Mogd82bIFLrcIpuJPAQpo1sDwxoUFDHFdu15/64d2x2alqivm/u4JBfUbhuZ/yDZ9aYEV43sbyv/bhfZAAzXuPRo8mZaHY6pn+qKZTCDONLn/fqEsCS7lS7LMzPBIIjZLxgu8sQosaESACRIAIEIG8RIBlbYlZnSsjAUw0fZ/R4gmTwNItgcVSB0NDQ/Ht2zcEBQfDyMgIhQoWhJ2dHT9NkL3O/rCmlFMs/fCbxzf4+PjyCCx2PRNY7NRCrWhpCSwAYU8OoE63eQhP8UvRgjWm4/jBQQpZk1UCixEJx+HRLTH7nC9UtZIB2FfpiPnTBqCUg6k8wikhHu/uHMLsRbvgkyTSR2hQCLOPX8OAUknpZofAisPOkfXgei5Q8SAhyk49ibPDS2teVr9H6NpxCB55KyI9xBYYungzZvxSRXVPSoFlUKUbprUrk+5WKVWvHeqUtFRd53l4BOpOu6T4ZyPU7jUYLZws0u3np1Z9UKVAupcB+ISZVTvhQLA8+kxZxL2+s+LMP6+jaNpoOtySBWGJUHfAfOye3U0VHZu2wErAmz3j0HreOdWAbGq74MKWebA00vxbinOrhmLsqqvyOm0ALCqOxJl/JqCg6paMCSwkROL0kikYs/lCKiApBZbn/n6oO/tOsutKtp2InlU1HVOY9FJ9lG3eGrUKm8p/mAGBxS4LfXMBv/abhHd+0arO7BoMwvkt02GR7OMlhcCyK4dpA3/RUC8uybiK1UT/Jmns54xskx+8JmcisHwxuUldHP2kGGzh5jhzYgXKWuorxKMMMaF+2DmnGxadktcElLfkAive/y76Nu+LOyGKlw0c8eeRvXApZ/dDFEhg/RC+/HuzLgos5Wqx/46KlYKfVhgTJ0NsHKuZlX/XkmZOBIgAESACuk1AIgb0xYCeRABW50pPDOR2FlZmiZLAkpPThRRCNk4mp9gpgkxgRUZFwcLcHEWKFIGZmRlYrauoqCj+h8krY2Njfkoh+zlLPfzy9StYNJalhQUcnZxgmIHi75ndV991XzoCC3EeWNy+GTa+S1qAyAQ9t17BgiZKYZKVAguIC32P+SNHY98dN1VUlXxOQugZG4LHK0mjEa48bk45YbERmg39HRsnd0ByvZENAsvrNFo1m4C3yoLzRmWw9upxtLVNI/xTFonTkzpizHHlN2UhSnaejgt/DVAtWUqBldG17L7oNBZ1S5QNyQVWRnsBhh94j2m1MnJ9OgIL0VjSrzE23PRXdSY0sMTU1QcxrFliUfU0BVbkV7gOHYSdd9zlfQhEaDniL6ya2A76adRC/3RrL/qM/B3fwuW/vdczLYJlB0+iXVmlTMqgwAIQ5/sQQ9r0xHWlp1TMJpXA2tMPdeclF1gZoSi/xhJDth/BzEaK0uYZFFiQxeLt0blwmXoUiUm+xqg5ai22T6wHY1UkYAqBldGBNXWF+5aeGb06W67LGYEF7J3RCvP+/qiq4WX/U2t0aVkDJQqYwc/tOZ7du4FzDz+lqPGVXGB9PDgRzWaeSsbB1mUdHixo8UNsSGD9EL78e7MuCyx1q8YisqJimdiSIS4OkCYIkJAgk4eHK3PG8+9y08yJABEgAkQgtwkI5PWrhEIBxCIZl1Tsj6GeABpqZef2iDP1fBJYcmy6IrCYjPLw8ICnpyfipFKeDsgEFhNW4eHh8PXzRXBQMD9R0MbWlr/O6mSxkwzfvX+HyMgoXvC9dOlSMDHOSGRGprbV992UnsACEHN+PMqOOKP6T0SBfTtcuLsCJVRPylqBxbqN8bqDIR2G4VZgND+wKN0mEKJQ/bE4snkUHFKdWpj1AuvJmu7ovOKxaliW9Qbgwc4ZadRmUlz6ZDUqdFkDVdUsg1rY/3wvaivSHfOOwALu7HPF8Ll7EaZYP1P7Gth5Zj+qWiWuZloCK+D1VfQdNBKvfeTyVCAxwIztlzGkbjoRLX7P0ctlKO64KWpRCQzRbfo6LBxSX1GfLOMCiz03/sF8VHHZo5oH+5lWCCwFxt1Tm+G3I58TU2glBpi76yr6/aw8xIAEVtophIDbrT3oN+J3fIvQ/GEjEoshkLFa08pIkOQC68uxWWg06VCyr9KlR+zHuSk10v34SusCElg/hC//3pzXBFb+XUmaOREgAkSACBAB7SFAAku3BBYTUUy2MVHFUgZZ6qCNtQ0/XTAgMABxsXE84oqFBIpEQhgZGsHSygomxsb8Pia5xBIxSpYoCXNz89w9fVD5NsiAwELcewxu1AGXvZhI0EP9iWuwe3STJG+krBdYvPMoTxzdsQUHj57GY/dg9SecCSQoXqk22vzaD6NcGsBIbf2prBVYstA3GNNlIM589JMzEBqg06QVWD6iWfq1jmQemNG8GQ66KSPaJKg9/wL295bXLcpLAivk9Tl06z8Z7/xj+NwqDd+PI1NrJKstlJbAurNnCobOO66SfXqF2uHE/1agTHruVxaBU9N6YeyRV4o9KkChpsNwecNE6IvZBvk+gSWTRWLVyE5Ye94dSnWhTQIr6P1VjBo0GXe/harmW7hGD+zZMQfFjVguIQms9AQW4sNxY/86LN24H6+8IpPHcwj04FSzKYb064JrW+fg/GMvBecUNbDC32HJhInYfuUtYmSAbalmWLxpCRoXU6SGZvI/PUhgZRJcfr+NBFZ+3wE0fyJABIgAESACWU+ABJZuCaywsDB8/fqVnygoEolgoK8v9yzR0VxcsUgsJq5YxBCrd8Uau87Y2IjLrejoaAiEQl4Hy97enqcY5nqTyRAW7I+wKGXFIDEs7e2Q8tC/EH8vRMSy6AQhjC2sYG6UNMxJhshAXwRHK77eC0QwtbSCqUHSQjwyRAUHIChSWRBbAGNza5gbpwqXSoZEliBFeEgQ/L99xa2rp/HQLTGXq0TNNmjxc3nY2VjCwtQojVNHExDq641wpTMS6sPGzgp6aRxTGh8bhYDAIEgVNWSFQmPYOJiDB0rFx8DXPwhSltLAmkAIE3NrmHFZkH4LC/BCGPuGq9QNRtYoYCHfC7FRoQgMClcv69Lo2sjCFhZJnh8fGQif4MTaSOmPSn6FiXVBmGVoW0oR7O2PSEWRXYFIAitrG4UgUjwtPhb+/oGIVXAysHSAlWHy3L/IYF8ERyoXRgQzO3uYKKLRokL9ERSeWEBdoGcOextjjac8Jp1jXHgA/ELl4ow3iREK2Fgo0s3jEezrA9VjJUYoaJt2fbCosCAEh0UlRjmJDWFta6kq0B0fEQCfkCTPyyhwfp0QJtY2MGO58azJEhAS5I+I6MS0XTObgjDR9FaRSREcEIhIVjNG2YR6sLazhj7f47EI8PTHd4/OwBwFrYy/ayZZfXFCbBh8/cNU7wcDcztYpTxmURoOH99QlVzUN7WGtWmKTRwfCR+fYNU1esYWsDFX1GtTDppx9PPEi/vXcfbyI7k4tXRG57atUalMEV53LSgwANGxSo1pCNuClsmErDQqGB7ffBAaLYBtkYKwMzf54dOQSWBl9a7KJ/2RwMonC03TJAJEgAgQASKQgwR0SWAVLFgABRwyVN35uwmyU/28vLz5fSyqydnJSTuik1LMxM9fXv8qIiKSv8KisPjf7PuxRMLrXllaWspPKwwK4vWw4qVS1XWshhYTWFZWlihSuAi/nhoRIAJEgAgQAU0ESGDR3sgUARJYmcJGNxEBIkAEiAARIAJpENB2geXu7g4mbeLjE3hdJ7EojQLVP7DSrKYIkz4sesnOzh7FixXTOoHF5BM7TdDT0wvsZEGlwBIJhfw0QhsbG1hYWkJfT49HY0VERsLfzw/BwcG8eHuCopATk16sin8YJQAAIABJREFUgLuTszMvAk+NCBABIkAEiAAJLNoDWUqABFaW4qTOiAARIAJEgAgQAZZeJmS1ktQW7cl1PsrT8zy9vBAREcFP4MvOxsQOi0hi6XVMBimjm7Lzmd/TN0sJdP/0CT7e3jyNiKULshRAdqqgtbU1TExMkkk3xo9JufCICHiwqK3ISHlaIYvCEghQsmRJfh/rhxoRIAJEgAgQAXUEKAKL9kWmCJDAyhQ2uokIEAEiQASIABFIg4A2Cyw2bBZp5B8QAH9/f16/KbskljIqiZ3cZ21lxdPxtKmxebN0wM9fPiMoMIhHo5mamnLRZmZmxserSUTFJyQgOioKwSHB8PcPkKcVxktRrGgxODg48L6oEQEiQASIABEggUV7IMsIkMDKMpTUEREgAkSACBABIqAgoO0Ciw2TRQ0xkcVP18vGxoqdM5nD/ta2xgRWQEAAPD09IYMM9nb2sLCwgJ6eXoYjqFg0VmRkJPz8/HhfrFZW4cKFYWhoqG3TpfEQASJABIiAlhCgCCwtWQhdGwYJLF1bMRovESACRIAIEAHtJ6ALAkv7KWb/CJnAYkXZo6OjYGxkzFMdmWz73jRHJgFjYmJ4FBb7wyQWq59FjQgQASJABIiAOgIksGhfZIoACaxMYaObiAARIAJEgAgQgTQIkMDSne3BIqiYyMqMuEo5S9YPi2pjfVENLN3ZAzRSIkAEiEBOE8jHAkuGIM/3eP/FD8ZWjihdqiAo4z7j248EVsZZ0ZVEgAgQASJABIhAxgiQwMoYJ7qKCBABIkAEiEB+JJCnBFZ8bBi8v35DYHQ8rG0Lw87OIg0plYDHJ1dj9YFrKFZrECaPbw/T/LgDMjlnEliZBEe3EQEiQASIABEgAhoJkMCizUEEiAARIAJEgAhoIqDzAksWF47Prx7i+D978eh9AOKTzlQkQcV6XdGxZUM4F3OAfrJTeXNJYCUkIJ4fFyyCLp8STAKLPlSIABEgAkSACBCBrCZAAiuriVJ/RIAIEAEiQATyDgGdFljxIR9xcNcO3Hz0CqGxMoj0TeSnl0gEiAj2gad3IBdaQgMHNOrQE93bNYCp6hTi3BFYgfd3YO89f1hU6Y6+DYrq7E4igaWzS0cDJwJEgAgQASKgtQRIYGnt0tDAiAARIAJEgAjkOgGdFViy2BAcWT8Px+5/gkjfCrW7jkG/NlVgnDTKKtoDO/6aj6uvfSEVWaDD2DnoUcNJAT13BNa3o6Mx9cg3OLRxxfI+P+X6BsjsAEhgZZYc3UcEiAARIAJEgAhoIkACi/YGESACRIAIEAEioImAzgost6tLsWTbbYSKiqLPpCloUbEIRILU00yI8sWNPcuw+epbiO3q4PclU1FMn11HAutH3hYksH6EHt1LBIgAESACRIAIqCNAAov2BREgAkSACBABIpC3BFbcWywZMh1PYyRoOGE7htQ0QbLyVilmK5P6Yv2UobjtLUSLyX+jfzWWR5haYJkkxMLz42u4vX2BCPPyqFrtJ9gZidLePdJofHh1H6/fe0KvgBNKOpaAc0FrjfdQBBa9GYkAESACRIAIEAEioJ4ACSzaGUSACBABIkAEiEAeElgyeN/YhIkbzsHQsSlW/D4aZupCr1LM+PnZ1Tj3KhLlWoxAu5/MkwmsEg2HomPVeJzevx8vfKKS3ClG6XrdMLBPBxQxM0jeY6QHLvyzH0cv30NYdLLS8RBZlYdL/z5oWqU09MXysLCLSzthx2P1y1C4nSuW9NKtdEKKwKIPFSJABIgAESACRCCrCZDAymqi1B8RIAJEgAgQgbxDQAdTCCNwef0CbLv5FhVaD8f0Ps0hVJM6mHKJpLHRiBeIoScWQ8CvT4zAMilUCghyR6ReETRp3Rrl7WR4cusyrj55i3jooVDD4Vg0tAlUsVhSHxxf4op/XnpCKrRCrdbtUKtUUd7HpYun8PpbKMSGdmg/4U/8WtGGD+Xa+j448AxAdBjCYgFITGBqKB94gZbT8Vvn8jq1q0hg6dRy0WCJABEgAkSACOgEARJYOrFMNEgiQASIABEgArlCQPcEVowvL8x+8ZUfmvadjoGtqiAD/koN3ESBFSsQw7pCO8ye3B/2espLpfC4uh6/bbuCiHgHDFu9AQ1t2ZNk8Ly7DzPXHYHAqhxGT5uOaoXMEvuXBuHCxhnYd9sbcY6/YtOCXjBNMkBKIcyVfa41D41PSEBkRAQfj7GxEYTCdFJUtWbkNBAiQASIABEgAtlPgARW9jOmJxABIkAEiAAR0FUCuiewwj2weulvuPcxAm2HzEPPhqV/WGAJbcti7LRZqFzIJPk6yiKwz3UYzrwNR6NROzG0ngUXWEFf/8Pzp08RYlIGrRpWhV7KAlyx77Bw7FS8CCmKMRtWoza7TdFIYOnqWyVrxh0eHo7nz5/xKMBKlSrD2Ng4azqmXogAESACRIAI5AECJLDywCLSFIgAESACRIAIZBMB3RNYYd+wYulveOgWmWUCq2DVXzF1Qi9YiFNTvrF1AjZedkfJzn/A9dcKGV6GbbM64bIb4OJ6HO1LkcDKMLg8fKFMJoOnpycOHtwHsVgMF5desLOzz8MzpqnlBAEmRVesWAH2d+06ddCpY8eceCw9gwgQASKQLQRIYGULVuqUCBABIkAEiECeIKB7AivKG5uWuuL622C0HDAbfZuV/+EIrGK1BmHy+PYwVbOkt3dPx7r/vVErsCIDvuDJ08fwCohAAgCBQACJiRWKFi2N27sn4O4XElh54l2SRZOIiYnBgwf3sW37FhgYGGLokGGoWLESJBJ2KmbebiHBwXjz5g0+ff6M2JhY2DvYw9m5BIoVK8plHrXMEwgKDELHjh3h4+uDfv36YebMmZnvjO4kAkSACOQyARJYubwA9HgiQASIABEgAlpMQPcEliwUJ5f/gYP/uqFGl7EY17UBUmbwZYx3Yg2szAisgLvrMHfLdYTGxCE+QaZ6pEAghEgshkwai3gZCayMrUX+uCo4OAh79uzGtetXee2rZs2aoUc3F5hbJMkxzWMoIiIisOyvZTh56iSYwIuPjweLRBMKhVxclS5dGosXL4Kjo1Mem3nOTYcEVs6xpicRASKQ/QRIYGU/Y3oCESACRIAIEAFdJaB7AgtSvD62FH8cug+LSr9g1bS+kGTgGMJvLy7isXsEilRuiSpFDZOdQvh9AksGnycnMGf5bsToW6Fi1TqoVr0KClkZAfGx8HL/Dx/cPfDy0XX4RJDA0tU3RlaPm4mbz58/YdXqlXD/5A7IZChapCgmTZqKokWLQiTKW8XcmaT677//MN91Pp48fcJxiiUSWJiZw8DQAIGBgYiKiuIyy8LCArNmzkKHjh1SYf/48QPu3L4LsUSMdu3awdRUXZxkVq+WbvVHAku31otGSwSIQNoESGDRDiECRIAIEAEiQAQ0EdBBgQVIv57HmKkbECKxg8vvG9C+WHpf/qU4uqA3jr6MRsvpR9DvJ5aylMkIrPhonN7qigPX/kP5JsMxbmBLGItSnIMoi8H6ad1x6ysJLHrryQkwYXPp0kUcO34UYWFh/GdmZmbo1bM36tdvADMz8zyFysvLCyNGjsR/r1/zaKtuv/6Kzl26wNzcnMuoqMgoPHz4AGvWrOVsbG1tsW3bNh6RlbQdO34Mc2bPgZGREY4cOcJlH7XkBEhg0Y4gAkQgLxEggZWXVpPmQgSIABEgAkQgawnopMAConB11ShsvxeIePummD93EJytjNTXwkqIgdftbZi+/gJkNg2xcNUEFOI5h5kUWHGROLRuOo7f/4IGA5ZgWItSqZ4b7fEPpk3ZDb80UghtW/2GVf0qZ+1q5mBvhgZiSMTpicMcHJAWP4pFGb17/xabNm6Am7sbpFKpvF6aRILy5cujf/9BcHJ04j/LK23fvn1YuHAhn+PUqVPRo0cPtfO7fes2Jk6aiODgYLRp0xpLlixNVhOMBFb6O4IEVvqM6AoiQAR0hwAJLN1ZKxopESACRIAIEIGcJqCjAguI8XuFlYsW4JlnJGxLNUCfQQNRvWjKWkJSvLi0FzsOnoF3tAEaDpiGYU2VJwlmUmDFR+PUlnk4eP0tHOu4YOrQbjDTTxQP4R6PsWXFUjz0iOJrmfIUQr8zkzBu70dIinbCsoX9YZO5Al45vU9SPY8EVsaXIDIqCteuXsGOndt4HSh9fX1IxBJERkbA0MgI/foNQMOGjWBowFJbdb8xYefq6oqDBw+iatUqWLt2HaysrNROjF3LTtDbvHkzrG2scfjQYRQsWFB1LQms9PcDCaz0GdEVRIAI6A4BEli6s1Y0UiJABIgAESACOU1AZwUWIIPf05P4be0+BEfEgpVRt3Cugia1qsDMQIQIf3fcu3IdX8PjAIEEJWp2xrgRLrDWVyLOpMCCDO639uHPTUcRIRXBvnp7DOzUCNZ6gMe7y/j74Bn4yeygL/NCeGRqgSULOo8pYzfCUyqDqV0JlHE2Q6SoHsaPagLjnF79H3geCayMw/P29sbevbtx4+Z1GBoaoRI/eVCMx08eIzo6Gg0bNETv3n1ha2uX8U61+EompWbNmoWjR4+iYcOGWL58OUxMTDSO+PPnL3j9+hUqVaoIB4cCPOWQpRWySLVz585hyZIlPIVw06ZNKFSoEO+H1cJiP0vaGMtPnz/hf//7H27duoXgoBBUrFgBTZo0wc8//wxra2u1tcbi4uIQFBTEI8SYaGOS8enTJzh27Dg+fPiA3r1745dffuHjCg8PBytMr6enx2t3hYaGgkWRnTh5ArGxsejZqxeaNW2aLNosMjIS79+/w6mTp3H33l0+r6pVq6Jz584oWbIkT6tMK/qOjcfj2zecPnsWV69c5eKzfoMG6NK5CxwdiyM6KhqdOnWCl7cXnUKoxe8LGhoRIAIZI0ACK2Oc6CoiQASIABEgAvmRgA4LLLZcCQhxu4uz5y7g8v0XiIxNSLWGJg6lUb9xW7Rq2QC2Knklv/fxydVYfeAavq+IO7s1FM/OHsS+05fwLSQ28ZkCEQqUqYtf+w3Fq829cdkttcBi4u3ByTXYc+wGAqKl/F6HGqOxYGIz6FL8DQms1B8XTNwkJCTwwuTKv5l8ePX6JbZu3QJfXx8UKlSYR1wxCXHgwD74+vqicOEiGDF8JJycnHn6HJMZ7A8TJuyPrjU2fyadduzcgQIOBbBq1SpUqlQpw9Ngxd27dOmCjx8/arxn7ty56NWrF3+dPe/ly5dYv2EDbt28yUVSymZpaYn+A/qjX99+MDRM/k579PgRBg4YyKXUqlUrsXv3Hly7do33y1r79u2xaNEifmrimjVrsHbtWtSsWRNz5szG7Nlz8OzZM9Xj+vfvz1MmlUX5nzx5wq+/e/cuP4ExZStdugyGDB6Edu3bq5VYfn5+XAAyKce4JG1sPM2bN8eoUaP4M1+/fk0CK8O7jC4kAkRAWwmQwNLWlaFxEQEiQASIABHIfQI6LrDkAGUJ8ZDGRuPzfw/x7/M3CI6Kh23BMqhUrxaKmxnwL57qqgslxEshjU+AQCjSWM8pIT4O0ngZBCIxJKIkMkGWgNiIQLx9cgv3X36BnnVRVKvZGCWLmEJPJER8XCziZYBIoodUNd5lCZDGRCE8LBxSSGBiaQFDsW6JChJYqd+80VFRCA0L5VE6oSGhiIyOgr+fLx4/eYTnz5/zkwer16iJYUNHQCqNw+Ytm/Dk8SOIRGIuRCpUqAg7e3sYG5twyWJmagpTUzO+f3WtXb58GZMmTeLShRVoX7N6DSpXqZyhOl/fK7D8/f0xePBgfuohE38lSpRE+w7tYGlphatXrvBoLCa1mFRisof9SdqSCqwqVargxo0bvB8bGxsuserUqYM///wzmcAqV74cTwNl8or1a2dnxyOzWFSVUmA9efoUQwYPVhXtr1atGtq2bQsIBDh96hQeP37Mh8Hun+/qii5duybjExAQgIEDB+Lt27d8HCyKrUnTJqhRoyZu3rzBo7FYNFe5cuV4UXxWX61fv36YOXOmrm0XGi8RIAJEQEWABBZtBiJABIgAESACREATgTwhsGh5c55AfhVYTBi8efsGX79+QWBAAEJCQxEVGYGYmFjExMaApaNJ4+IQGxeHeKkU0TExCA0NQVRkJMwtLPBr1+5o0aIFAAFu3LiGPXv3ICQkmEsrMzNTGBgYQiIWc6kh0dPj0kRPosfT5YyNjWFgYAAra2uULFmKF37XVrnFZA4ryH706BHOhEWWsdMWmzZtwgvXlyhRIlmx9qQ7mMkalnbHothOnz6NBQsW8Pnv2rULhQsX5peyOmIsYopdu2H9eqxZu5azYZFZHTp0UEVAsdffvnmLefPm4dnzZ/zkxwMHDsDZ2Vn1SKXAYimIbJwtW7bEhAkTeLoiE1nKumXsBmUEFvv/7PksvZAJMSaX2LOU17KTJidPnozr16/zNEE2LiYplY1d++rVK/z22288eoydvrh+/XpViiSb+8aNG3n0FpOZrAj+yJEj+D5RNlb4ftHiRTh18hQXWayRwMr5z0J6IhEgAllLgARW1vKk3ogAESACRIAI5CUCJLDy0mrm4Fzyq8BiYsHHxxuXLl/EnTu3waJ/mDxg6WHsNU2NiSaWIjhu7HgUKVKU+St4eHzD4kUL8eXrlzTvZWmE7H72x8LcAnVq10Gbtu1gY2Or1SmGLJLq8OHDWLlyJY9OYo3NxcrSClbWVjwaycXFhdeA0tTSK+LOhNGsWTNx/vwFdO/RHTOmz1Bb5+rD+/fo3acPr3XFpBF7rrIlFVjVq1fn42VRY+paUoHFRCRLLWRiMWW7cvkKJkycwGucseiz5i2aq40+u3zlCiZNnMjXf/78+byWFWusBlivnr14VFX79h3g6vqb2uewFMPRo8fwml0ksHLwA5AeRQSIQLYRYP9OjZOmTgXPtgdSx0SACBABIkAEiIDOECCBpTNLpV0Dza8Ci60Ck1Xun9xx+/YtLrG8vDxVAkosEvEoH2sbW5iamEBPTx/6BvpgNZgcizuhbp26MFDUYGKC58aN6/j85ROCg0MQGxONiMhIREZE8FTEkJAQVT0nJn7s7e3x88+10aB+Qy7DlHWWtGtnJB8NizT65vENWzZvwYsXL/Hly2eeYqlsLLJq4IAB6PrrryhQoECqqaQnsJQ3MJHFJFDK+lbK19lrLFrq0aNHGD58OMaOHavil1RgseLzffr00ZjqqBRYLAJs7969amt7sf0xfsJ4XDh/ASwlceeOHao1TzlBJkB79+oF90+feN0vlqrI2vUb1zF61Gg+p02bN6Fe3Xoal/nM2TOYMnkK35cUgaXN7wYaGxEgAhkhwKJ2WUQzNSJABIgAESACRIAIpCRAAov2RKYI5GeBxYAxseDn74erVy/j0qVL8Pb24hyZQClXtjzqN6iPwoUK8/pWYpYCaGjI08yYsFGeOMfkTkRkBCLCwxEZFQVpbBxi4mLg6eGB6zdu4M2b1zwljbWCBQuiSeOmaNioMezt7LU68krdhmJzZdFPrDA7q1V16vQpvHj+gqfdMTlXqdJP+OuvpShSpEiy2zMqsNLbxGy9RgwfgWvXr6UpsPbu24ca1atr7E4psIoVK8ZPWWSnIaqTUl1/7QovTy907NgxWbRXymtZba6//vqL10irXqM6du3cxSPtWNrk7t27ebTe4SOHYGlhqXFM7HCAX37pAn9/PxJY6W0Eep0IEAEdIMAO0JAfokGNCBABIkAEiAARIAJJCZDAov2QKQL5XWApobHoqwcP7+PG9es83Ys1BwcH1P65DurVb4CiRYpmuE4VS5v48vUzbt64gVu3b/FTC5nccXYqgQYNG6JmjZpwcEgdpZSpBdSCm168eIGFCxdyecN+416hQgVs3bqVR6spW0YFFhN9Hh4eOHbsGBeKyhP7DA2NULduXTRv0Qzr1q7D/fv30xRY7H5WFF1TUwqsUqVK4dChQ2ojvlh0XpfOXVRpkxlFzZ7L6nOx6K5x48bh/PnzYIXfd+zYwX+mqbE0RZYSSacQZpQ0XUcEiIA2E6AaWNq8OjQ2IkAEiAARIAK5S4AEVu7y19mnk8CSLx2LIAoNDcWLF895XayXL1/wukdWVtaoWaMWmrdogdKlSmdonVlx+IsXLuDhv/d5DSRWlLx8uQpo0rQpqlSuwk8kVEZvZahDHbiIiSZWrHz79h38N+6sKHmb1m1U88yIwGKplqtWrcKRI0dUEWtpTT2tFMKsEFhMzHXt2pUPwdHJEeZmmmt8JR0nK/bO6nOxaDF2+uDDhw9JYOnAHqYhEgEikLUESGBlLU/qjQgQASJABIhAXiJAAisvrWYOzoUEVnLYLALo1auXOH32NJ49fcJrV7H0surVa6BxoyYoU6asxvpMLPro7Zs3uHDpAh4+fIDw8DCeali5chW0aN4SZcuW4/+sa43VZGItvVpd3t7eGDx4ME8vHDJ0CMaPG69KkUxPYDGByNLt9uzZw5/VsGFDTJ8+HSzFjzV2muHjx4+xY+cO3L93n8uh7BZYn7985hFY7CRCdrJg48aNM7R0TE4qBSU7wfDUqVMksDJEji4iAkQgLxEggZWXVpPmQgSIABEgAkQgawmQwMpanvmmNxJYqZeaSavXr1/h4qULPCKLRVGxulc1a9bCwAGDYKGhjhErar5r9w7cuX0bIaEhsLOz4/KqceOmPHpLT09Pp/aVu7s7l0is1tWCBX+ifft2aY4/ODgYI0aMwJMnT9C3X19MmzpNJb3SE1hfv3xFl65deMF7VgR97ty5PHItZWMybcCAATmSQhgQEIBu3brh27dvXMwxGfW9kXOrV6/GunXr+GmIx/75B7Z2dhoZenzzQOcuncE4UhF3nXqr0GCJABFQQ4AEFm0LIkAEiAARIAJEQBMBEli0NzJFgASWemwsmooVX//nn6N4+O9DHjlVo3oNDB8xCqYmqQt+s16YwNq+fSvu3rvDo3bq1K7Di3KXKFESEokkU+uTmzexk/W6dukKL28vtG7dmte50nQ6IBunl5cXBg0eDHc3NwxjJwSOGZPhCKzr169j6NChvEbUzl07UbVKVbVTD/D3R+cuXcCivbI7AotFeTFpdebMGTg5OeHvv//mJ1Oqa2y/sGL2pUuXgrGJieqSu/fuYtjQYTySb8MGFsXVROOS7tm7Fwv++IOns5LAys2dT88mAkQgKwiQwMoKitQHESACRIAIEIG8SYAEVt5c12yfFQkszYjd3d34yXE3blyHvb0DWrVqjXZt23OJwyQDkxKsscgqFpnD6kCdO/c/nDl7mp9m2KhRY/zatRuKFSue7euYHQ9gc5w9ezY/pY9FoM2ZMwft27dXe3KiNC4O+w/sx9Kly3gNrCVLlnDppWzKCCwWVbV3716UKVMm2ZBZemDPnj15xNayZX9x1ikbq0m2fPkK7N69i/PPboHFnn/nzh2MGTOGy0lXV1f8+uuvalMpb9y4iYkTJ3A2a9asRq1aP/Phs/v69+8PVk+rUaNGWLRoISwtrVLN7cvXr1z4sWg31khgZceOpj6JABHISQIksHKSNj2LCBABIkAEiIBuESCBpVvrpTWjJYGleSmePnmMvfv34s2b/+DsXAK9XHrjp8qVuTz5+vUr3N0/IkEmQwnnElxSsZ+/ev0Su3btxIcP71G6dBn07dMPP/1UWWvW+3sHwsTSqNGjERgQACsrK/To4YI+fXrz/69s7NTAzZs34/Tp01zYVKxYEZs2bYa1deI1N27cwPjx43lhfCZnJk6cCHZaY2RkBKytbeDn54euXX/l4s/R0RGrVq5C6TKJRfNZDSxWh2rnzp38pEPWckJgsfmwNMqLFy/ylNDRY8ag8y+/qCLq2JqzyKuZs2biw4cPqFq1KljaoI2NDR8je53V9Vq8eDGXW82aNcOMGdNhZ2ev4sdSFOfMnYuHDx6ApUiyyC8SWN+7U+l6IkAEtI0ACSxtWxEaDxEgAkSACBAB7SFAAkt71kKnRkICS/1yMZHAIq/27NkJP39/LqGGDRsOiUQPbh8+4tadW3jy5BGXKbVq1eYFvosULgI9PX2sXLUcjx79CytLSwwaNAQNGjT67tpJ2rSJzpw+g/m/z+e1mVhjIoYJGhYtFR0Tg6DAQP5zFoVWtGhRnirHhF/S5u3jjdGjR3PZk7SxWle9evXiP9qzZy+WLl3CTyBkkVqNGjdC5Z8q482bN7h85QoiIyJQq1YtREVG4snTpzkisNi43NzceA0sT09PLqSsra1RuUplSMQSvH37Bu7un/j4LS0tsXzZctSpWyfZHCMiIjB9+jRcuXKVSzuWTlq5cmVeF4vdywQpY9m6dSu8e/seb9+9JYGlTW8AGgsRIAKZIkACK1PY6CYiQASIABEgAvmCAAmsfLHMWT9JEljqmYaGheLMmdM4cuQQj4qpUrkq2rfvgOfPn+POnVsICAxEbGwMv5nVbWJSo2qVaqhZ62ecOnmCyy2RSIweLj3RqmVrnoKny+3B/QfYvWc3rl6VS5iUjdUI69ipE3q6uKBUqVKpXmfih0VzsdTCZ8+ecRHEhNe8efPg4uLCr2cpmPv27eORVkz6JG0sbbNHjx5cWrHi8NeuX8sxgaWUWNu2bcWpU6e5YEveBKhVqybGjB6D6jWqq5WVLJKL1fbat3cfPxQgaWOyrk+fPlzkjRw5Eq9fvyaBpctvFho7ESACnAAJLNoIRIAIEAEiQASIgCYCJLBob2SKAAks9di+fvuCY8f+wZUrVyAQCmBlacVrXXl6enChJRaLebFuoUCIiIhwHonFomicnJwRGxMDFnEkjY9HwwYN8Uunzihe3DFT66NtNzGxdOXyZfz76BEfmkRPghbNW/CIooycssjEla+vLxeBTHQVKVIkVU0tJsguXb4EJs1YOl3JkiW5PDQzU188PycZBQcF8aLu7z98YPmBKFK0KK/1VaBAgQxF2bF9cu3qNdx/cJ+LwHLlyqFdu3b8kABqRIAIEIG8RIDMB9J7AAAgAElEQVQEVl5aTZoLESACRIAIEIGsJUACK2t55pveSGCpX+onTx7j70MHeFFtJlFY2pyAp8kJYWFpAcfijqhStRokYjEePX6Ed+/eISREnmLHGpNc7B4mKHp076nTdbDyzZuBJkoEiAARIAJZRoAEVpahpI6IABEgAkSACOQ5AiSw8tyS5syESGCp53zp0kXs2bMLgUGBPN2NySiWKlioUGHUr9cAderUgZWVNb/Z08sTt2/dwoOH9+Hh8Y2fTqhMkWOphX379EeTJk1zZkHpKUSACBABIkAEtIAACSwtWAQaAhEgAkSACBABLSVAAktLF0bbh0UCK/UKsRpHx44fxYED+3n0FSu6bW/vwE/Xq/1zbZQsWZqnfDGpxRpLBWP1m755fMPp0yd5Ye+goGDExcXytLLevfuiQ/uOXIBRIwJEgAgQASKQHwiQwMoPq0xzJAJEgAgQASKQOQIksDLHLd/fRQIr9Rbw8fHBkaOHcfHieZiamsLR0QkNGzZG9WrVYGhopLHWExNZYWGheP7iOW7evKFKK2zdqjU6d+4KOzv7fL/fCAARIAJEgAjkDwIksPLHOtMsiQARIAJEgAhkhgAJrMxQo3tAAiv5JmCpfy9fvsCx4/8gKCgQjRo2Ro0aNXkRdwNDwwztGBaN5evrg7t37+LO3VtcXHXq+AsqVKiYofvpIiJABIgAESACuk6ABJauryCNnwgQASJABIhA9hEggZV9bPN0zySwUgusN2/e4KPbBxQqWAhOTk4wNTVLdVJeepuCFXEPDQ2Bt7cP76tYkWKoWKlSerfR60SACBABIkAE8gQBElh5YhlpEkSACBABIkAEsoUACaxswZr3OyWBlXqNo6OjeV0rfQN9SMSSH9oErIZWZGQkxCJRhiO4fuiBdDMRIAJEgAgQAS0gQAJLCxaBhkAEiAARIAJEQEsJkMDS0oXR9mGRwNL2FaLxEQEiQASIABHQPQIksHRvzWjERIAIEAEiQARyigAJrJwinceeQwIrjy0oTYcIEAEiQASIgBYQIIGlBYtAQyACRIAIEAEioKUESGBp6cJo+7BIYGn7CtH4iAARIAJEgAjoHgESWLq3ZjRiIkAEiAARIAI5RYAEVk6RzmPPIYGVxxaUpkMEiAARIAJEQAsIkMDSgkWgIRABIkAEiAAR0FICJLC0dGG0fVgksLR9hWh8RIAIEAEiQAR0jwAJLN1bMxoxESACRIAIEIGcIkACK6dI57HnkMDKYwtK0yECRIAIEAEioAUESGBpwSLQEIgAESACRIAIaCkBElhaujDaPiwSWNq+QjQ+IkAEiAARIAK6R4AElu6tGY2YCBABIkAEiEBOESCBlVOk89hzSGDlsQWl6RABIkAEiAAR0AICJLC0YBFoCESACBABIkAEtJQACSwtXRhtHxYJLG1fIRofESACRIAIEAHdI0ACS/fWjEZMBIgAESACRCCnCJDAyinSeew5JLDy2ILSdIgAESACRIAIaAEBXRBY0dHRiIiIgFQqhSybmAkASCQSGBkZwcDAIJuekv3dJiQkQBofD4EAkIgl2f9AegIRIAJEgAjkaQIksPL08mbf5EhgZR9b6pkIEAEiQASIQH4loM0CSyaTISoqCn5+fggICEBMbAxk2WSwmPDR1zeAtbU17GxtucQSsB/qWIuJiUFwcDD09PRgYWGhk3PQMeQ0XCJABIhAniZAAitPL2/2TY4EVvaxpZ6JABEgAkSACORXAtossFg0kZeXF7y8vcGisHKiMXFVsEABODg4QCgU5sQjs+wZTPiFhobi69evMDY2RtGiRSESibKsf+qICBABIkAE8h8BElj5b82zZMYksLIEI3VCBIgAESACRIAIJCGgzQIrPj4ebm5u8PP3Q0KCDEZGhjA0NMqW9YuKikRkZBSEQgHs7OzhWLy4zskflmLp7e2NL1+/wtTEBI6Ojlxk6WIkWbYs8g92Ghn0DU8ePMH7j//hW2ACrIo6okSJ8qhVpQzMDcU/2DvdTgSIABHQTgIksLRzXbR+VCSwtH6JaIBEgAgQASJABHSOgLYLrPcfPsDf359zLVa0KIoUKZItjL98+cLFD2sshdDZ2VnnBBarE/b582cEBgXxFEJ7OzsUKlQIYrGWy5XYcCyb1A1rz7xPsrbG6Pr7BiztVTv99ZaFYVKbqvjnbZJL9W0wecUOjGpVJskPo3BqWm+MPfxc/jOhPvq57sbcXlWhMdZOJkWA+1Osnj8Du2980jAWCWp1nwjXcd1Qwt4MIrWZp35Y2LwONn9UdGHzM/45twlVrDQLWZ9HJ+AydDLcg+T3mNn0xMkHriiWHhFZKPYN6YjZV74lubIgZt+4hkGF00+LfXp2GQaP3oiA9J6T4vXui05jUbfSqp96Hh6ButMuKf7ZEsN2H8P0eoW+s9e0Lv+EmVU74UBwRLKLGv55Ezt6OCC9mca5X0XzHuPx2S8yyf0OmHX1JganCxl4f20HBoz6Ex5RyttFaDDAFZtndYd+usGbPpjduB72fU7yaFF1HLy3F7WsNURNfrmGup3HwjNQ/kA7pzbYfXwVSpso+/DCxAYNcCzpsmeYdlH8fm4fepdykN8RHYjfx7pg+yU3VQ8z/nmPoZXVdJgQi38W9sb0bU8Qp3hZIDbGoD92Yka3yor31mP0d+qO6xkej+LCpq5w39Lze++i67OYAAmsLAaaX7ojgZVfVprmSQSIABEgAkQg5wiQwJKz1nWBxdItg4KC4P7JHdHRMTzqysTEGKVKltL+el5qBRZgVm0IrhyeCut03g4RjxehUddtkGtORcsCgSUNccehrRuwedcJfA5PSPdNKbQqiX6DR2FIn1YoYJxSQuScwIr6dB2/9hiLV75JxQxQsPsOXF5YD+kdUaDrAsusVHcc++cPOKUTrPnoyBIMmrUFIUrrwlc44wLrsOsvmLHrJeKT7AyT8h1x7tAiFEo3Ik+NwALQfOQKrBzfDkbqnLM2Cqz4UFzbNAfjl51FiLI+ocAUzcYsxZLRTWGpmgcJrHQ/QLT4AhJYWrw42jw0EljavDo0NiJABIgAESACukmABFbeEFiRkZG8Xpivry/iE+SyhUVhFS9WDDY2Ntpdz0uDwILAHnMu3MJA57TeWxHY36s6Zt2VJr/oBwWWLC4CG2f1x/KjTyH9joMDBEIjtJuwBKtHtUwx6JwTWI+OLMWgGZsRktSsABCIS2DXrf+hvl3an1W6LrBExtb4fecZuFRLW31umtAci098SnGyaUYF1n8Y9FNHXAlLsTkElhh56AqmVFOFRWmArV5giWxrYt/xDahVwCz1fVonsGR4fXoV+k1dD/9oBQeBPlqMWog149tDL1kUGgks3fwvBPmoSWDp8url4thJYOUifHo0ESACRIAIEIE8SoAElu4LLFa8nZ3SyNIHo2Oi+UmNLH1KIBTC2soKxYsXh76+vvbuYE0CC0DpHptx/M/GGqOGYr9cQMtGo5Aque+HBFYcXhycjv6zTiIwiZ8wK1getWqVR+ky5VHYQojAz6/x6vV73L73FMHRSQSaQTGMP3AU434yT8I85wTWlkltsPDY+xRihm0IAYYsPoHpXctqTpkEkFJgSYrWQLPy6cXBAXV7zUCvOgVVc86tFEKWGtph4gosH9FcQzongIgn6NmoG+6mypPMmMAKOD0JdcaeRKyad5Vl00W4saUL0lZY6gUW665Y+99xbHkPWKYM4ktXYAVj19w5uJ9u7qcMQe7PcO+Nd+LoRU5YeHY3epS0l/8sAymEIW9OY9jQ6bj/LUbVT4lmw7FxyXg4W6QcfAqBZVYQzX+uCLH6fNvEcVXshvXD62vvZ1c+GRkJrHyy0Fk9TRJYWU2U+iMCRIAIEAEiQARIYOm+wIqNjYWnpyc8PD0ByCASingKYZxUCkMDAxR3LA5LC0vtjcJKQ2CZ2FXDjlMHUd1W3Xs1Dve2zYPLgsOpX/wBgSX9eAqtOk3ExySllewbDMHm3waidBFr6Cf50h0XFYIPd7dh0NAN8EqSZajvPBZXLoxBQVUhphwSWAmP0bOyC+4qUh4tSpSAmNWRUxCq0mkCdi4aCTM9zZ99KQWWWY+teDS/broflgKhCOzzRNlyTWABsPi5D+7umg0DifpiVG67uqGVa2LNpsTJZUBgybyxrG1HrH0TyG+TGBnBytAQPgEKcyQqjI1XrqJlmuX6NAssCE0xbONZTG+mqEelHFy6AgtIkEqRXrJrTIAb5owbhGMPEgVWqQYDsGXtVBQ1UeT8pSOwYj5fQV+XcXjgnXg6rGnlPji8bTpKW6rbXCkEVpn2ePT3nzBLL9VSIIRYlG5BsXT3Jl3wYwRIYP0Yv3x7NwmsfLv0NHEiQASIABEgAtlGgASW7guskJAQfP36FcEhITzSytLCAnFxcbyYu0gk4kXpWfF7iUSSbfvohzpOQ2AJDCwwZdVBjGieOo8wISoQS8f1xsZLSYu/K0aSWYGVEIXTi0ZjzNYbqinZVGyPPdsWoIyNocZp3t4+HsMXnkG4Im1PIDDBigsP0dFZWQQoJwSWDD77++Hn2Xfl4xSaosfCBbDcOgEb3ssHJinWACcOrUFZW80FolIJrJ478OyPet+9xLkpsKBXCkuvHEPXgmpkSowbZjZpjQNJjaNqdukLrIhXJ9DQZQYCwuXFswpUaIOB1aVYsPOCqpcucw9hcf8q0FCOHUBygcUOWmCniCpboZ9+wfYdC1DKIsl7NgMCK71Fig/3xPopPbD8vJfqUsOCP2PNvq1oWixJlGYaAksa4YElY4Ziy7V3qj6Mi9TGyq0r0Kykpki9FAKrbEc8O7IofYGV3oRy4HVpuBdev/NSFKjXR9FypWCJSLx9dh/nj5/AhfvPEaRXFC3btEL7li1QtbQ9RJAh1PMdHt66gRMXr+L5i8+Q2jmiZfN2aNGsPqqVKQSxhlMGZNIYeH1+h7dPHuLijZu4/e97RIuNUdKpFCrVqYs6VX9CmbKlYJOqzl72wSCBlX1s83TPJLDy9PLS5IgAESACRIAI5AoBElhy7LpSxJ2lC7I/rLG/4+Pjed2rbx4eiJdKYW5hjmJFiyEsLAyfv3yBLCEBRsZGcHZyhpGREY/MYi3l37my+ZQPTUNgASLU6jsH++b1SpUOFup5A4M6DMG/gWpiTjIpsKSBHzFxSF+ceuKrQjJg2VnM7FRS4xdOdmHkl4cYOGA4HnyOgGUhJ5SpUBkjJ81CXSdjRT85ILCiP2FWi1bY/00uq0Q2ZbF2x3YUuDYCnZY9VYzDCN3WncHi1oU1LnmeEFgACg7YhxtzaqaSSH53tqFB38WITlBX3CwdgSWLx7WtczBi8WFEK7Zd1WF7sK3hU1TpuUzFtETDvti9djYKGGs6CzG5wCperyUqf72I458VnepbwOW3zfize5XEdfpRgRXtjW1zJmDx0X9VpwXqF66JZVvWoW1pi+T7QaPAisHVlaMwYf11hCh9m9AB07buxsCGjtDTePSj7gqsgEcr0erXdYooxmL4/X+rEL9rEVad+BdBUclr7+nZlcWkBavQTHQFMxdtxaP3/qlq6ElsSmDo3HUY384JqWr1JwTixNL5WHv8Oj74hKt9jwr1LVCpXhNMmjYT9UokTVPOvk9xEljZxzZP90wCK08vL02OCBABIkAEiECuECCBpX0CK6mkUm4KpaxikVUsUoP9YfIqKioKwcHBCI+I4NFW9nZ2KFa8OCLCw+Hu7o7w8HAIRUJYWVnB1MSUF3Zn0R7sWhaRxf5mMksptJTPU/ezbNugKQWWbUM0KnAH154rjodzbo1/z6yEdfKq0HA7NAatpp+TfxkXWqBuLTPcvvtFPsxMCiz/d5cwqOcIPJdnhwGSVjjxYg0qpZFyx6+TJSAqLApiM2Ooj3PLfoEV8mAHqvdcCKlCzBSu3A47d6yAmfff6NF+NtyU37VrT8GrPUNhpCEzK5XA6r4ZD39LO4VQKNGDOEV/OR2BZWXtCFOjMHz+qkyYrI9DL7ehhlESqyKLxunFEzF280VFjTAxSlQtC4/HLxDFFzJtgSWTRmLxsJbYdFWRfiewwJxTDzGwxH8YVaUDzso7ARyqYP/eTajtZKnhbZNcYDk0HYnbE4xQ55dl8IlTiDWb5jh+bS1+Ui7UDwmseNzc44rRvx9AqGIfCAysMWrRdkzsUI7XzEvW1Ais6Uf/QxO3uWgxJTFlVyixQKclh7Cso2M6Hw8pUwjb4eGBBTAzUHfcorwrVsNPLBGnHlu2fRCp7zi5wLJCk0bGuHLtq8ZRGJsZs98uICIs+SmgSW8wLVQFG/bvQ90iiZ8WMmkw/p7cCzNOJka2QSCERE8CoSwesbHSZHXtbOv3x+WtM2Eq0WgNs4wUCawsQ5m/OiKBlb/Wm2ZLBIgAESACRCAnCJDAklPWlgishIQELqQio6IQExMNaZxcVLGTBdlrXG4p/2YRWAkJXGbxSCsjI54qyE4dZKLLz8+Ppxay10ViMcQiEa+DxWWVQAChkIkrIYQCAZdaSrFlYGAAc3Nz3l+OtJQCS9AErn/ZY8WUAwjmASnmcNl1GX/WTxJtIPXE760bYvtH+QhNy7XCkoaeGLHhufwHmRRYbnfWoXfvlVAmWOm3Xo3n61ojPX+VPqcUAsuwELr0aA37NGoARXi/x4mzlxGsKDNkZtMTJx+4opi6h8VH45+l4zB58xXVl9y6gzdj68zGEAV/xZSBnXHiabDiThu4nrmKvmUN1A47pcASF66CZuXTPrqwxuDlGFgtOaWcFljWzuXhUqUA1h65pJrX4OXnMKOTs6pofVyYF2YM6ICjjxUsCnTCvH5xWLzoDOSY0xZYsV9OoEPbyXirqI+mV24Qbp6aDjtBAh4tbY2uG9wUzzZEi/m7sKl3kgiqZLSTCyzzuoPxePck7J7VEwsPPlEVh6/YZTl2LWovL+ieaYElxafzazB02nq8D1UOQh8/D1uJjZObwVxdnqMagdVrqise71iM//wUYkYgRL2Bf2DjlC4wTiGXU2+sFALL1AFNa1WCJI0i7nZl62LCUBdYqN+m6b/lsuiK5AJL3qlAYoyKNX6Go5UBPN7+i3/f+6R+mlCCYhVqoHIxGwR9e427zz4gThksKrHGyKVbMKVDRdV9Hv8eRe+hc/EpWH40gMSyDFz6/IIqZR1hKA3Gt4+vcPrvv/HUS/GBIDDHrxvPYUlzmyyaqeZuSGBlO+K8+QASWHlzXWlWRIAIEAEiQARykwAJLDl9bRFYTFCxqCovLy9+sqA0XipPGZT/T2NjYoqdOOjo6MijrNg9kZGR+O//7J0FXFVZ14f/dEmHiqAIdnd3d+vYie3YPePYMXb72t3imNg9tmMnKqhIl3TD9619ueS9xBWQWPv383VeOWefvZ99Lhyes9ba798jLCyh0LKsDiQ7Fkpkloa6OgoWLCj+kNDKlpYihbAuNtn/jt0jBuLJd0m4iHKtuXhxpH/8zm6RT7eibI+ViCs5hSYDFmOA2lYM2/VzEVjvLyxE77H74B838TKTzuPC76UyAUMygaVAj6kJrMhAT8wa2hZ2/0kNhQ7mnnmKwRWUgZhgHJ47HrMPJtT1ami7FdtnN4OsvSmTC6z0DLXDxpfY0C5pjbDsFliG1lWxdXZXDLX9C9Lkqxqdp2P7iuEwiLuVfR2Po2fr2XCMu3HqzT6N4cFLMWTdg7hppi6wnq1qju6bvsV9FtXQ8s+D2DZUIqmCv59Ap8az4Bj3QVUuOQwPLs2EzP0HktXAQsVe+PTPIgS9PYsOg2fhu69EYqjoFsHCrYfQp465wgLL79lxtBz4F3yCE9XY6jAd19fYQl2eQJIhsEiCU5H4hO9Dymg5chXWT+sAzTTrrCcTWOm4qYo1+g1HNi1CIWkWbjrOyYpDZAmsFpP2Yt3IWtBQBqIjPbDjt6ZY8Trpd2jLVgtwYm0PGKspIybKB4dGdsa829LoQBXUH7MCB6Z2jB/yza0TMXrFeUlqqrIN/r5+Gj0sNRC/L0JsDL7+ZwfbYbPxKVBymnK9xXhxoFcaO17+PBUWWD/PMF/2wAIrXy47T5oJMAEmwASYQJYSYIElwZtTBBaNhSKtSD55eXsJiRUeHk4ZKZJfWJSVoKGuIYq1q6hSRJWKiKwiaVVAVxcG+vrx6YAUeUXnkxCjiCxJtFYkoqMoHSVC/FtMXMcUlVVARwempqYi3ZD6T55WmGU3YgqBZY0NNw/g85LhWHv5TdxlC2P1pYvoWlIbiA7GyQW2mLL/SdzX1DF190VY2w/EmOPfJf+mYATWe/sF6D1uf7zAKjvZHvbjSmbC1LNWYPm+OYDuPefjS5yrVCs1Cv9enAJp3JTHjQ2oM2x9/DwKVWqHvTtXoZRxSkmZWwWWtkUF/G/3Rnz4ox0WP5JECWkXb4SDB9ejirAgEbi1oCsG75GkaCnrV8CWk7sQc2gYRu98FccmFYEV+BIjGnfHlbjgLWX9cthwaDvalZVQjg4LxLwhTXHgoVR/6mHC4ZuYWFtXxv2TbBfCOIGlohSCf1eOxbAtd+OisFRQuu3vsNs0FjoKRGBFeD3HtJHjcPa5R7x4MqnYCf/bOA/VLWWNK26oMgSWrA+BqmlZLN22Cz0qpxUFlA0CK/gzNi/bj4S9FeV9bMtj9MKeKJzOT3VygaVWoh+unZ+HRNl/wOOFKPfbvrg0VArkaw/7G2tRNrEhfrEOFbpuhHRz06qDl+LkXz2SjCI6PAQun9/ihbcqOjaqkmKE0T4fMdp2EK688Ir7gdAFFz+tQOl0zkXRw1hgKUoun5/HAiuf3wA8fSbABJgAE2ACWUCABZYEak4SWDQeiqAiyeTm7gYPD08hm6ipqarCyNgIJsYm8ZKJRBPVsqIoLPo7cZPWypKmH9LfVC/L3c0NwSEh4jpCXhUogMKFCsHQ0DD7dyuUJbDuX0Cl+wvQePLB+Ol0mb4Hf4+qDyXPNxg9dBiuvfURX1Mq0AmXn8zHkzHtMOt6XPJfPhNYV/9qhBEH3OIjg5ov+gc7+ib6tTbsFYZU6IabcSlMylrFsWT/TvxWzTLFd5XcLbAOosT3lWg/ZD/8aGbKhrDddhx/NCsGBD5C39r9cD9O8hVvOhBHN/yBWwtaYtqxuMi9VFIInS+uRJMxWyHNAitSszP2b1uO4vpx4UexETi9chKmbrkMaaxTpfaLsX9DL+iloCxHYFG4Tdg3zOzeHEffxZ2kqovBO+5grtVj1O82Hq6+kkJbZtbtsO/UOpQuIOcHQ7gTFvXpi73PvePHA71q2HRyO9pY68WnVco8O50Ci84tYN4Dh68uRYVUU/2yQWD53kP7GoPwNs2fk61w3nETyqV5nOSA5AKr3OjdOD8t2a6cX3eiXtNl8anH5j2W4O7ynkmv4HIEjRrOgbR6liyBFX9CVDhcP7+Ek1fcnaSmA2urYjDV8MH44YNx4T9pknN7XHRcywIrnWvJh2UzARZY2QycL8cEmAATYAJMIB8QYIElWeScJrCktx5FT1EUlbePN0KCQ0AVjbW0tGBsZCxqXdF/pzdSimpp0e6EtGuhn5+fSE9UUVaBvoEBTE1MRN0rKuye7U2mwLqEDjrPMbRRT9yIi3gp2qgvjm6ai5Bn+zB45GI4i9/jVVF17kWcHGSMI7Y/L7A+316HfoM3Ir6iTbsV+LixS8rdwjIMKVkEln5ZLFg+DaV15f/W7+NwFwtWboJ7XD6cvBTC2IB76FVtEJ7Eb8aojyYDe6KqYWKzEQ2H8xtw/pN04CqoMWYzjk9tlmImuXUXQkkE1kHUMvXAhB6dcOmTxFRpNfoTj3f3h/uJuWgx42j8fHvMPoAltrVxembztAVWlD92TB+FxaekUX+AealG6Ny2GhJWMBY+H+/h8MXH8bWODIrXxo79u1HdPPnnKhWBBcDh6mYMHr8ObnFbHSrrNsBhuzFY338k7npK8sdSE1jRYb44unAs/jicMF4NfWtM2bwLw+sWSfvulSOwVPUt0LFTA9y3Owb3kITdP2sOWIYdf3SDntxtCLNhF8JsEljN5ttj54BkUZnJBFbdSbtx6PdkkitNgRWLEE8nXD2zH6s2H8e3H+Ep1klFRQ1QikZ0lJQ9C6y0b2Y+4pcRYIH1y9DzhZkAE2ACTIAJ5FkCLLBytsCiCCmKvvL394e7uzsCg4JEiqGGhjqMjU1ErSqddBRbp3P8fvwQkVcBgYGiMLyamqoQYZQ2SBFYyaO3su2mlyewCsbgv7Vd0WO9JKZC2aAytv6zHUF7+2PqHgdJ/SuTWjhx7SCq6wZlisDyeHcOQ/tMwltpKSm9djh/fx3KJS3vlBJNbCzCQ0IQqaKBAjJ3VsuqXQhj4XBsFlrPtMv4cpm2gf2dDSibrEJ9bhdYDa2UsH/eKMw7eE8SLaVqhbXnD+DjcltsuvY+jlNxbL5xBm2LaeJEOgRWiKcDxg3ogRsfpdsMphO3uhmmrt+Bsa3KJjshdYEVFeyC1WOHYcvtuF0KlJTQrr8tfC8cxQNvyc2ZmsB6uGcSxqywh29ogmTqPmcfFg6oAy3VdOxaJ0tgaRXCkL9WY2aX0jgybxTmHn0cPyd1PSvM/t8uDKqTMqJPclA2CKwQJ+xadxyeaS5NGQyZ1QkF0zxOckDyCKysElih7m8wf8YkHL/jFB/ll/YQWWClzYiP+GUEWGD9MvR8YSbABJgAE2ACeZYACyzJ0ubUCCzpjUfCiXYnJIkVEBAg6llRwXUDQ0OYmZpCV1dXpBDKanSur58vPD084R8QgNjYGBFpRWmIZmZmYrdBeedmy40vV2AB/m726NN0It5FSIqA1Z8yFzq75+OyL/0/Jdh0mYarq4cDyByBFeHlgPHD+uPSa5GAJtr4nfcwoalpqilXke6vMHSILf794Ato6MDcWB+2y49jSD1pFaqsEVix4e5YMcIWW+58UGip+v3vKRa20qXAvviW6wWWjTa+XVmPNmM3IDQuA6tMx3HQfI2OqIkAACAASURBVL4Dz50lUVmajZbgyZ6eoMpY6RFYX26tRM8hWyEtwZ0R2OX6LcXZhT2S3T+pCyzqP/TZbtTuvQSBkuxhQF0dapGRiIyrWydTYMVGwe3GKrS13RFfxw0qGijZez3OLGyWKFosjRnIEFi1es3H1sV9YUBZyh530anlMLwKkm6jAKBoF1y6sAyltGRta5gNAisji5KBY7NLYF373ziMW34pbjdMZeiYmqNBi27o3LQSfjj9hyePnuD5Wye4evshLFLKnQVWBpaSD81uAiywsps4X48JMAEmwASYQN4nwAJLssY5XWDRGCmKiiSWp5eniMiKjIwSIqpQoYKwKGIhN4KKaml9dvwszo2JjoG2jraI3jIxNs5QCmKWfRpSEVjRIb5YMLor9t1xTXl5NX2MWrYLM7pWyjSBhagAHJw7Gn8efhR/vWJ1+2PP5lmw0k8WqpRoRM/sFmP4n3vgE5f1o6RkgS03LqN1UWnqWNYILH+nexg2aAT++56QbqSjpw81OUE2URGhCA6NiC/obVF3PI7v+R2FEmW45QWBhYBXGNqkN278kOzml6QpmWLSmZsYX16ynmkLrDAcHtsYsy8IayqaRgE9aMnbwQ/RCA4IQqR0UzrDejhyay9qJ6lVlbbAAsJxY/kAjP7fM6RMJpMdgeXy/DTGjZ6H5x5xeadKKijfZjR2rB6HQhqyxJKcT7UMgTXL7iNGSDZcFM3z3lr8NnwTviQKSqvUYwF2LOwD0xTbW7LAQqophAFY0LU+dr+IK9BmVB3/O7kPrYsm/Z4T6fkWo4YNwfU30nuRBVaW/Vzijn+eAAusn2fIPTABJsAEmAATYAJJCbDAkvDIDQKLxilSAf388N3FRdSzoqLuhQsXhoWFhdwoKhJYjo6O4jzadZCEVxHzItm702BqH7xUBBYQiZtbZmPYylOISbpLPXRMi2LT8atoXJRsTeZEYNEwI17tQ/XOCxGnAAAlJZg2noYrO4ZDWq878XSC3u9H584L4RhvLADlthvwflMbJHihrBFYz49NR7+Z/0Cy5x6AIsNx+/pkFJLD2+3BYXQfswjewZLUMq2CNlh/4BRa2CRUcsoTAguxeLO+HTqsjS/6lUCkQk84nFoMNSqYnh6B9e0k6jedAVfp/adbFXuubEc9Q4rfktVisXJQdWx7IDU7Smi56j62dTVOdHB6BBYQ5vUFEwd2wqUPKVMXU0RgRX/F1JatYPclIW1Q06Am9l85gBrGsqMz5X4sZQmskx8xIvHGeLHRsFs2HLO234E0SExJqyCmrN2NsS2T79zJAit1geWKSQ0b45RL3IrUGAanYzNTLI/7G3sM7TcB76QpzkgpsPw/n8ZI28V46qGMAX+uw/TetaGRweVPfmHehZCfHBUiwAJLIWx8EhNgAkyACTABJpAKARZYEji5RWBRTSyKvvr+/Tt++PujgI4OihQpIgq6UzF3+jpJLvpvaVog7URIwsvDwwP037TbIAkvdXX5EUXZ+qFJVWABoQ5n0bzDVLjFFy6WjK5Y679xenM36AsPkXkCCwjDzTUjMXHLPfhLt5MDYGBdB/17tESxwgYSMRUVhs8vb2P/8av4EZaQSqVmWgkbTtqhdZJa2VkhsAKwvl9jrLkvVW3qaLD0Ivb/Jq8OEQD/1xjRcTCufPeXQFTRRb95m7CoX934JU8usNStG6JHrbQLf9foPg5dqydUFnI9Phr1Z1yN61cDZZq0RrVC2mneWo1tF6KVdZqHAfiC2dW64PCPYHGwtIh7Q5u4a/jeRJemw/FCUvNc0pTU0WrMMmyZ3BFx/iqNCKxIPNo4Br+tvhnfhWXToTi7aQb0NeVbgRvbJmHs3+cQGie99Ev2xsnTC2Ed7wnTJ7AQG477Oxeg75JjKYAkF1iuBweh/px7SY4zr9kFTRLJSflUtVFv8Ei0L2UkOSQ9AgtAiPMjjBsyEjcc43UvDCp0xMEDq1EuydaLyQSWQVH0aFEX6mnV4yrXEYv710rPzZBlx2RPCqE/ZrergcPSEm0mVbF21//QoYIRRNxcbDR8Pj7C8r8m4dgjye6rkpZUYIV9PotuXSbjneQjAagVxO87DmFyw6I/xYcF1k/hy78ns8DKv2vPM2cCTIAJMAEmkFUEWGBJyOYmgUW7CJLACg0Lg6GBAYoWLSqKsJOcCg4ORlBQkEgn1NPTg5a2NmJjYuDr54cvX76AorEM9PVhbWMDLc1U973PqlsuZb9pCCzE+GJX7/pY+CSRTYIhJpy8g4lVpLlKmSmwgJhwb2yeMRprzjxPVlBZCSqqKpJ6RrHRiIxOFhampof+czZhQf86SepKAVkgsD7tR+22C+ApdWd61XHw3iHU004t3CIKdxZ2wsDdH+PWQQmFW0/EvS1j4tclucBK743w27JzWNardPzhSQVWensBRh3+iBm103N8GgIL0dg0riVW2jvHd6aiY4K5205iQN3C8f+WagphwGdMHDIMp5/FhcYoqaLL5E1YPqaZ3DRN6tjt8Un0GTkLX39IoqFUdcyweO859KpmGHfddAosiroM+YQ/W7XF4WRZtCkE1v5BqD83qcBKD0XJMYYYvusEZjeJEx3pFFhANPz/24S2PTfALf5iqijSZgHObeoJg/hU1mQCK70Daz4fTtv7pvfoLDkuewQWcGrJb5i646lkcwqKjjQuiuq166CyjQmcX9zB83dOcPYKik//lRyVVGC93TsW7edfTsJBs+NKvFvX+afYsMD6KXz592QWWGmvPb11pO2mKUQ+MNBfPMSFh0eIBzp6ilBVVRUFT3V0CkBXV09sF/3LC5emPS0+ggkwASbABJhAlhFggSVBm1sEFhVk/+7yHW6ubmInQbOCZrC0sBT/TZFZvr6+osi7iqoqDA0NYWxkBB0dHfF1BwcHBIeEQFNTE6VLl4ZugSRFebLsHkuz47QEFoDIhwtRtc8+SAMLtMv2x+Xzc5EQF5S5AovGHOnzBitnLMDJhy/gHZyoWLXMCSlBw9ACTXuOx+KpXWCkmvygzBZY4bg2vw9s976Ku5ASLFqNxs3NE0Gf6VTbx72o124R3KRTUi+PTfdPoV2cW8k7Agv4z245bGdtx48492lg0x6H7daiTKLooNQEltuzsxhkOw0f/SSwlNX1seDQVfSrZpA64x/vMbaPLew/eEiOU9JAx4mrsWZcK0hKZ6VfYNHR0e92oVmvpfgm/QDI2IXQ9ZcILMn0zizvjxnbH0IaiKikqoFxq05gQocycfNlgZV6CiHg+vI8xo2ahWfu8ne6NLYsCaUAZ3j7x9XKSiawPK+vQNPh2xAS79U1UH/2IRywpTqBijcWWIqzy9dnssCSv/ySh7YfcHF1xdcvTnB0coKHuzt8fLwRFBwk3jZS01DXgE4BHVG4lMLnzc2LwMqqOIoVKwYDA8Nft310vr6zefJMgAkwASbwKwmwwJLQzy0CKywsTIzV08sLKsrKMDYxhoGBgSjQ/sPvh3hpR3WuqNHXNTQ1xddJVtFzEr3cU1VRgY2NjRBcFKn1y1s6BBaivTG5fWP840DPdFpo/9f/sHFwvURDz3yBJTqPDMDzfy9j3+b1OPufGxLHgMVfXFkTVVv3xojBvdG8ho2cyJzMFVgx3s8xoOcI3Psat1uiig76z9mCBQPrJov8krG6sf5Y3K0+dryQlgZXgc14O1ydWF4cnJcEVpjTbfTsNx6v3SXmp+4se+wfXlKSlhXXUhNY17eMwOgVNyAtBa9RciiunJkFyxRFypNzjsCtxf0xeOez+C/o1xmIB3v/gKYaRchlTGAhNgJ7/xyExYefxNebyhkRWJLphbo9xaQh43DJwSthviVaY7/dKlTUJVgssNISWJQu6vToPJbMW4LrH/yTRn4qa6Fm91GY2bcOti+ciItPpfFuyWpgRXjhn9XTMWfHv6Ayd8Xr9cfGtTNQzuTnom1ZYP3yn5K5cwAssFKuG0VcUZi8i4szXr9+g8dPHooipRSFlZ5GD21WVlaoX68BKlWuDAtzC+gUKCDqRnBjAkyACTABJpAfCLDAkqxybhFYFF3l7OwMvx8/hHyiXQjpeSg8XCIj6N/U1SX/FhERKephKSspiYhzeuFHxykpK4sXeYUKFRLRWNzSRyDMxx33b9njsWPCbnQlarZFi9ploKeZA0Rg+qbBRzEBJpCDCcRGh8PxxV1cvP5UEnFqaI0u7VqjZGGdtOW0mFcswoODEByuBH2jAklkraLTZoGlKLl8fh4LrKQ3AL1hdHd3x39PHuP+g3tw+uKECHp4U1ISofJ6evqisKmaunr828Xo6CjQm8uQkFAEBgYI+UUPeJqaWrAuXhx169RD9Ro1xAOdikqK2O98fgfy9JkAE2ACTCAvEsjpAuvTp0/w8vYW6AuamYli5VnRvLy8RFST9DrW1tY5Izop2WQ9vaj+lQtCQiT7zkneuUkKtmtqaEBXV1eUSCBZRXWvgoOCEBEp3SMM4rmHjjUw0EfRosXEsxI3JsAEmAATYALyCLDA4ntDIQIssBKw0UOZu7sb7O3P4/r1qwikYqXKyqJQaaFChVG2bFmUK1cB9PBJqYHaWlrigY0e9tw93ODy3QXv3r8VtSC8PD0RGBQoQu71dHXRvHlLtG3bDgULksTit2kK3ax8UpoE6E3//v37ERkZiW7du6NSxYppnsMHMAEmwASygkBOF1hUeJykTXR0wtbwWcFB2if97C9YsCCsihWL38UvK6+Xkb7pWcb5uzNcXVwRFS2pyUNR45QSSEXczczMRFog1fykyCt6aUcF36kuFkVeRcdIGNI5GhrqsLEpIYrAc2MCTIAJMAEmwAIrEYHIyAiRm09RL/TDV5EmebOkCT19AxFhk98aCyzJikdFRYow//Pnz+He/btCSlH4O71FrFy5MqpXqwFLy6IipJ4e4Oi+kaYE0r1H8otkFf3x9vHGy5cvcP/+PTh+/oSw8HDoaOugXr36aNu2vaiNRX3kxhYYGAgnJye4uroKSWJsbCy4mJsXZjGXAxb0+bPnGGY7TNy/q1atQrt27XLAqHgITIAJ5EcCOVlgkYShjVnc3NzEyyr6GZ6VjeQVRTCZFy4sRFBOKylAzy5OJPQ8PMROVPSMQqmBJKFovMk3ppE+91DhdnrxFxREm9uEi10JKXSrZIkSIqKNnpW4MQEmwASYABOQRSDfRWDRwwYV1r567RJevvgvvqB2Rm8PkhSWllaoW68hatSoDQ0NjRz3YJHROWXkeBZYkrB3V1cXnD17Bnfu3BIPs/SgWblyFbRu1Rqly5SFmqpavKChB19KEwwJkRRu1NbWEW8opQ9q9HV6GHz79g0uX7mEFy9eCMlK91qTxk3RpUtXFC5snqvuMxIiW7Zsgb29PUhi0dtXmqe6urp4sKXotDlz/hTCj9uvI8AC69ex5yszASaQlEBOFlg0UvoZRhFElOIXGhYKBd+DprnslIqnraUNE1NTGBka5jipI40k//rtK3788Ie6mppIFTQ1NYWenp54VpEn3Ohcet6hl8kenp4ICQ5GZFQkiloWFWUT6KUfNybABJgAE2AC+V5g0e5vzs7fcO3aRTy4/6/krY+CTx4iRFpVDdbWJdC6TXtUr14rX/3Aze8Ci+4bKlx66tRJXL12Bf7+ATA0MkTjRo3RvFlL8QBGUjNxI4Fz4YI9bty8LgqYNm3aHG3atBUSK3Gj2llePt64fPkSbt68Lt720kNhq5at0alTl/gHw5z8LY34UJrFvLnz8PDRQ/E5oy20qbYFyStiIf38GRkZYcH8BWjZqmVOnlKeHhsLrDy9vDw5JpCrCOR0gUUw6WUo/VH0GTK9C0IvuCgKKydGJNHcfXx84OHhIcZH4ope4pF8Su94iSG92KJ+SArS81CRIkWgpaWVXkR8HBNgAkyACeQzAvkmAovSlhwc3uPypfN49+6NiIKhCBAqmE3FJjPaQkODxda/dH6Dho3Rt+/gfLVzSn4XWCRf7t77F2dOn8Jnx89CzDRr3gLt23cSRV1l1asi4XXC7gQuXDgHJSVltGvXAd26dhNCKnmjN7zuHu44e/Y0bly/Bgq3L1mipBBYlFJIEignN6pxMX78eDx//ly8ge3QoQPad2gPI0OjeIH19Ol/2LVrt3gDSw+s27dvF9toc8t+Aiywsp85X5EJMAHZBHKDwOK1k0Sh0ws2iqSiUhokndIrrhLzk0Zj0XMVRbIb6OuzwOIbjAkwASbABOQSyBcCi+TV508OuHDhLF6+fCZ+2BoaGqFZ81aoWbOOQju8Xbt6EefPnxa/nNeuUx/Dh4/NVz9w87vAovoXe/buxsOH98VDXK1atdCtaw+UKlVabk2njAgs8YY3KgrvP7yH3cnjePLkiXgwJHk1aOBgUdQ9J7cjR45g0aJFYsyTJ0/GoEGDZKYSXL92HVOnTRUyuHOnTliydGmurfOVk9cjrbGxwEqLEH+dCTCB7CLAAiu7SP/8daQ1wBLX91S0V2l9LHoBmNNqfSk6Jz6PCTABJsAEMp9AnhZY9MMwNDRESKsb16/A0fETQkNDUdi8CBo2bIJ69RrB2NhEoR+Up0+fwNEjB8SKkMAaMYIElnb8ClEEDaUs5tXaWPlZYNHaUo2qf/6xE4Vcra1t0LVzN9SpWwcaGppyP6UZFVjUEYXWX79xDf+ctBMRWRYWlujerQdaNG+pSOBg5n8HkdEjfe4WLlyIQ4cOoUqVyti0aZP4nMlqdOzff/+NPXv2iPSDY8eOoXDhwtkyTr5IAgEWWHw3MAEmkFMIsMDKKSvB42ACTIAJMAEmkPMI5GmBFRkRgcdPHuKC/Wl8/fpF1CugX6RbtWqHJk1bQkdHW6RyKdLSEli+vt54+vQJ6tVtCO08uEthfhVYJFwCAwLwv22bce/ePZF+2qlTZ3Tp3AVGRsap3kqKCCzq8JvzV9idOIGbt26I2hJUO8t22PAUNbYUuY+z4hxi9Mcff8DOzg5NmzYVu9qltlOno6MTXrx4jurVq6FIEYskEWyJ3+7SWEkKn7Q7KfqOiIxAkyZN0LdvHxGRltYbWxKPJBxJkt2+fQdhYaGoWasmevbsibJlyqYr8ovmRumRJ0+exI3rN0QdtKpVq6Bzly6oXr26zDp4dN2M1EmRlX5KHGiHSju7k3jw4IHYpalW7Vro/VtvUW8trbQNGoOzszOOHD2Ka1evwdjYCG3athX3rZ6eLl6+eImhw4byLoRZ8YHgPpkAE8gQARZYGcLFBzMBJsAEmAATyFcE8qTAol8WgwID8ejRfdy8cQXO37+JtEFzcws0aNBY7Bxoamr2UwstT2BJdqfxwbVrl0Ta4qjRE9IUGz81kF90cn4VWJSO+uHDe+zbtwdv372FeWFz9OnbD40aNpabOihdIkUFFtWFuHnzBk6cOCaisCpVrIT+/QeiZMlS6ZIu2X2L0Odv2bJl2Lt3LywsLLB+/XqUK1cuw8Pw8/VD586d4eHpgW3btuHr169Yt26d2MkxcaMox969e2Pq1Kkya4PReKgW1+bNm3H37t0U256T+CpfvjxsbW3RsmVLuUzfvn2LLf/bIsQV3QeJG/VRvHhxDBs2DO3bt0+STvzXX3/h6NGj6Zp/xYoVsX3HdhgaGMYff/36dWzcuBFv3rxJ0QfVQmvcpAlGjRwp5iBL4r1//x5r167FzZs3U4g0Y2NjDBw4EA0aNMDo0aPh7e0thGO7du3SNV4+iAkwASaQ2QRYYGU2Ue6PCTABJsAEmEDeIZAnBRZFK9z99xbOnz8FV1cX8QsrRWg0b9EaDRs2jdvFTbHIK+nSyxNYXl4euHrlEu7duyN+mZ41ey5MTH5OluXE2y2/CqzwsDBcvnIZ586fgYuLC2rWqo3fevZGmTJl0lwmRQUWdUyy7NixI3jy5DEsLSzRsWNnNG/eIsdGYV2+dAnTpk8XOw1aWRXDyhWrUL6CbMEiD1xigdWrVy+cO3dO9EdRV9WqV8fDBw9ENBJFZamqqmLY0KGYOGlSimgkqh82duxYUSyemrm5OZo3aw59QwPcuH49Xgxpampi0qRJGDBgQAoZSVFXgwcPhqOjo+jDzNQMDRs3QsGCBfHgwX28eP5CSHLqY9y4cRg+fHj8tH5GYF28eBF0vr+/v/h+QqKpfv36cHVzxcULF8U9SM26eHGsXbcOpUuXToLz27dvQszR3yTyKD2zcZPGIhL17r//4uXLl4JX3bp1BQdixAIrzY8yH8AEmEAWEmCBlYVwuWsmwASYABNgArmcQJ4UWPSLpJ3dEZw7+4+QV+bmRdCoUTPUqdsAZmYFM2XJkgssW9vRohD1zRtXcefODfj5+Yprzf5jPgusTCGeMzqh3SsPHNiHW7dvw9//B9q374CuXbqLNK602s8ILC9KW/vHDmfPnYGBgQGaNmkmIr+0E9VdS+v62fn1wMBAzJ+/ABcu2Auxo6amjtatW4nIHtppkCKzSDql1hILLIosqlGjJpYtWyrOpUZChqKLpk+fDgcHBxTQ1RWpllZWVvHdenl5id0Qnz59Ks6j/6YIqcTXJnEzf/58IXMKFiqITRs3oUKFCvF90PbeY8eNxbOnz2BkZIThI4ajb5++SXYdpXEsXrwYjx8/Frubbty0EfXq1hN9UN29yIikEVvSzknI7T+wX+zASNuHz507V4yP5vvhwwcMHzECtPZVq1bFggULUKJEifhxUbTn8ePHsWbNGiGeevToIY6RphPSGhAbiuCiSCuKDuvfv38S6fnixQvMnTcX796+E/3SuSywsvOTwtdiAkwgOQEWWHxPMAEmwASYABNgAvII5FmBdfToAZw/d0rMu0GDJujdZ4DYeTCtOjnpvVWSC6zOnbvj4YN7IvKKorCoFSpUmAVWeoHmkuMofW3jxnV4/OSxiAYa0H+giIYiaZFW+xmBRRLk9JlTQp5Rylyd2nUxZsy4VGtLpTWerP46CZQDBw6I9L+QkBBxOarvRBFQ9KdFyxbo2qUrdHV1ZQ4lscAiabd923ZUqlwpxbG3b9/GhAkTxDUoxbBNmzbxx+zfv1+kM1L7e9nfaNe+ncx6Ua9fv8KIESPh6+uL33r3xry5c8X3CpJkx48dx/wF80UE1J9//okuXbrITBd1d3fHqFGj8O7dO9SpUwebNm1EgQKy5yYd4NmzZzBv3nxxL02YOAFDhwwVfZOcWr16NXbu3ImiRYuKFMKSJUummDulMq5dtxY7tu+AoaGhKJxvbW0tjqOUwalTpiI8IgJTpkwWqYLJa2XR/Ki2Fs2dJBgLrKz+VHD/TIAJpEWABVZahPjrTIAJMAEmwATyL4F8IbDatO2AgQNtM3WVEwssa5sSKFmyDJ48fgg/Px/xyyc1FliZijxHdEZS5u/lS8Uv/bTOI0eORvt2HdIsok2DJ4FFUVT29udEDaXy5Sugf78BKF7cOs1UQLrWmbOnsWPHNnGtalWrY+rUaWkKkl8NjQQJ1a5au2YtXr95DYqIop0VpY2ijii9j6QQRTclbokFVosWLUSkEUmk5M3FxRUDBvaHy3cXzJw5U6T6kXyi65C0oSgjit7asWN7ktpUifuhca5auRLbd+yAiYkpTp60E+mBtE4UxWRvb49atWphw4YNIgJOXqPi8vPmzRPRWSTuKHJKXnN0csSwocPg6uqKli1bYcmSxSK9mRoJS4qWev36tYicmjJ5MlTkRKx9/OiAXr1+EwJvzpw54jxqxIvGQBFp9LelpaXcsaxcuQI7duwU3DgC61d/avj6TCB/E2CBlb/Xn2fPBJgAE2ACTCA1AiywFLw/EgssLS0taGho4ccP3yS9scBSEG4OPi0wMECIhlevX4pRjh49Vgis9DSSEnfv/YtDhw/C28tLyJSaNWqhY8dOsLEpkWZKHQmsbdv+Jy5VpUpVzJg+S270UnrGk53HSHfve/XqlYhQunrtKj68/yAinCjiqHadOli8aJGIzJK2xAJr8uTJGDlypMwhU9QUSZvPnz8nEVhOjk7o3qO7EDtLly5F165dU50ypRL269dPRENt2bJF1Noi6dh/QH8xVro+RXrJ2iVQ2jGlEtJxNCaK4ureo4fMa7q6uWH8+N/x6uUrVKlSBatWroKFpSQ1khrNpW/fviIqatLEiWjYqJHcsVPq8vRp0+Hm7gaqFUbpkCQ5qfbVnTt30LZtWxGFRlJNXqN6YqNGjxbSjwVWdn4y+FpMgAkkJ8ACi+8JJsAEmAATYAJMQB4BFlgK3huJBZa8LlhgKQg3B58WGBSI5X8vw4uXz0UE1ogRo4TASk1qSKdDx1Mx8Gs3ruLqlStit0qqDdWgXgN07NQJlpZFZUYY0flUy+3M2TPYuVMSgVW9Wg1MmTI1x0dgpbaUT589w1//HzH06dMnIbIqV66CnTt3xEu5xAJr7l9z0bdfX5ndyRNY//33n5BAJAoPHjqI8uXKp3pn+Xj7oFPnTmInvhkzZ4h0Pg8PD7HDIUVJLVq0CD179ky1DzpuuO1wOH1xwrjfx2HM6DEpjieR+dfcuThz+rQoqr579x4UL55Qt4tOoBRVis4imZaRRumTK1euFDKUZBbV9RoyZAimTZuW6j1Kxekpco0i5FhgZYQ4H8sEmEBmE2CBldlEuT8mwASYABNgAnmHAAssBdeSBZYq1FRVFKSXe0+jGlibN2/Ao8ePRLTKgAGD0KljJ2ils5g6SSxvH29cuXwJ165fg7e3JBKLalq1bUsFzktATU0tBSASZ6dP/YMjRw+LSJq6deth1MgxOboGVnpWmaKH1q5di8OHj0BJCUK+tG7dWpz6swKLdumjulLpFVgklkhQffz4URR7p9RGiuL67bff4B/gny6B5efnhxEjRojUP/qbdjVM3Kig/bbt27D1f1sRHRMjUv56dO+eQi5duHABEydOFKcWL1481eipxP03atRIRImR+OrWrRucnJxYYKXnRuRjmAATyDEEWGDlmKXggTABJsAEmAATyHEEieN6jwAAIABJREFUWGApuCQssPKnwKJ0tMOHD+LGzRv48cMPHdp3RNeu3UW9pPQ2klhe3t64cuUSrl69InaspIiZRg0ao1279ihmZZUiEsvFxQV2J0/g8uWLYjOC5s2b47devdMtztI7tsw8TloLLnnh8OTXoLkNHz5cyJaRo0Zi/O/jRZTZzwos2nmwT58+6RZYvj6+IgKLopD++usvkU7o6eGJ33r/lrEIrLi5kIAiiZW40Y6A9O9UW2vsmLEYNXqUzNRREqS2w2yFiKJC+GXKlEnX0pD8JMFJEW0k3qj+F0dgpQsdH8QEmEAOIcACK4csBA+DCTABJsAEmEAOJMACS8FFSSywSD6oqKgiPDyhODV1yymECsLNwaeRULhx47rYEdDZ+RuqVquG3r36iILsGWkiEsvbGxcu2uP2nVvw8vQUoqVevfpo06otrG1skkRivXr1EkeOHcaL589RrGgxdOnSDY0aNU6z+HtGxpRZx1LRdtqtj9LXqPYS1WBKrVGdp9GjR+PZs2cYOGggZkyfISKSflZgOX52FDWwKLJqxfIV6NipY6rjoPpcAwYOQFhoGDZv3oxmzZrB399f1NdycHAQNaLG//57qql4796/EzWwaOwkwRKnHFJU1pQpU/Dt2ze0bdsGK1aslNsXpVVSyqT/D39RjL1du3YZXh7aEfHGjRto2aIlVqxcIbeAPXV8/959jB4zWggzTiHMMGo+gQkwgUwkwAIrE2FyV0yACTABJsAE8hgBFlgKLmhigWVubiFq2bx9+1qklVH0AwssBcHm8NOoFpWj42fs3bdH7ERoYmyCHj17oWmTZqkKAlnTor6oftPFyxdx/RpFYvmJ6Jk+vfuiefMW8fWtKFrn2rWrOHr0MLy8vVClchUMGToMVsWKp6v2VnYjpbpRJG7ob5JGCxcuhJamltxhuLu7i4LjVLh8BBVKH585EVgkrkiIvXzxEnXq1MXWrf+Tm4pHa7FkyRIR7UTRdCeOH4dZsl0IqY/169dBX19f7lwOHTyEJUuXQFtbG9u3b0flypXFsRRlN3rMWDx/9kykBNJuhiVKlJDbD0X69evfD2/fvMWAAQMwY8YMmaml1AF9z/ni5ASbEknTT1evWY3t27aL+lpbaRdCC9m7ENL3K6rvdfDgQd6FMLs/LHw9JsAEUhBggcU3BRNgAkyACTABJiCPAAssBe+NxAKrZs06aN68Na5fv4Q3b14jODiIBZaCXHPDaREREdizZxeuXbuCsPBw1K/fAN2794CNtXwhIW9eJA8onfDcuTN4/PghtLV10LlzV9SsUTNeiLm7uUnSB69cEulmzZu1gK3tCLkF3381Q4oumzlzJs6cOQM9PT0hR1q2bCnkSPJG4ujkyZNYuHARYmKixW6BHTp0EMf+bAQWXevYsWNYsGCBKIJPkUVU5FxWSiNFf1GElf+PH+jRsycWLlggxkDrc+qfU/hzzp+C99y5c9GpUyeZfXz//l2kDJKIq1mrFrZs3iwK0lOdL4pIs7e3h5mpGTZs2ogqcWJL3loRQ4q82rFjBywsLITwkpVGSPM6cuQoFi1aCIsiFjh67AiMjIxFt//evSt2MAwNDcPkyZNEkfbkc6f5UWTYsGHDRLQZfZ0jsH71J4ivzwTyNwEWWPl7/Xn2TIAJMAEmwARSI8ACS8H7I7HAql2nPgYPHg4vL09cvHAWz549EVERBQsWwuw/5sPExEzBq+Tc07Q082cNLOmK3L33L44cOYwvX5xgYmKCTp06o0XzVvE76GVk5UhC+P3ww8OHD1DQrCBKlS4N3QK6QqCQDL116xbOnjsNEiRWxazQs1dvNGrYKCOXyPZjHzx4IGo9UVRZoUKFMGjQYHTv3i1J9JK7hwcOHTiIo8eOgtIIy5Yti23btsHMTPJ5yQyB5enphfHjfxfpiUWKFBERXt27dYuPZiJRRLsVUqrjmzdvYGlpifXr14uxSBtFyVGtqhfPX8DQyFDUpqKdCQsUKBB/DPW/YsUKUN0titDasHEDatWsJb6+a/durFu7Vqzn1ClT0LlzF7nroaSsJKK3SCTReCgNkGpyVapcGTOmT0fVqlXjJRSNnaTY0mXL4OvjI+p9UVF4qSgMDAoS51y7dk2MieqM0a6MOjo64vokrx4/foKlS5fg/fv34v/TuSywsv3jwhdkAkwgEQEWWHw7MAEmwASYABNgAvIIsMBS8N5ILrBGjBgLDXUNODl9xsmTx/Dhwzvo6elj9h/zWGApyDgnn0Y7Ce7duwd3794BRWRVKF8B3br1QNWq1eSmemV0PlGRkXj56iVO2B0T9aQovbBRw8bo138gjI2MMtpdth9/0u4k5i+YL2QuNZIyZmYFoaKiLCLXfLy948dkamqKXbt2olSp0vH/lhkCizp7+OChEFCUlkfNwMAAderUEfXDnj9/DqrZRY0KoFO6Y5cuXVJEi3l4uKNfv/5CIpLo0SlQAA0bNICWpiZevXoNRydHkFCiNZo9e7YooC5tlE5J65eeRvJu546dKFW6lDj8zr//irpbNHbiZ1PCBhUrVBR1vR49eggfH19xXMmSJbFp4yYUsyqW5DK0y2X//gPw5csXMW6KiKOdCklUPXv2HN+/O4s0VKqxdf/+fZHSygIrPSvFxzABJpBVBFhgZRVZ7pcJMAEmwASYQO4nwAJLwTWUJbC0tLSFzHBxccb5c6fg7u6GSZNnwNjYVMGr5NzT8nsEFq3zkyePcerUSbz/8F6Iizq166J9+w6wtk5agF2RVaT+qdg3pRZStJdUknXt1h2VK1XJNEmmyNgycg4VEd+/fz8oIosizZI3KlzfokULDBw4EJUqVUry5cwSWNQpiSqqSUXRbFRTLHEjmUO1qoYMGYyWLVvJrSv2/v077Ni5C1evXBECKXEjuVSiZAkMGjhIpEDS/SBtPyOwqA+qf0Zjf/78RXx9PWnfJOEaNmyIsWPHiqgxWWmaHz9+FCmItANi8rmTMKNdCuvVqyfSHynaiwVWRu5wPpYJMIHMJsACK7OJcn9MgAkwASbABPIOARZYCq6lPIFF3dEv6t++OononE6du4lIrLzW8rvAomgWiiyi3QgvXrwAX18faGlrowHtIti6HSwsLTNc1F16j5Ac+e7sDPsL53DvwX2EhoTA2MQEbdu0R6eOneQWIs+J9xhxop3tfHx8cPv2bSGSqKmpq6Fpk6ZCWlFEFEU/JW90bkBAgIhsorQ6kjWyGh0XGBgoPnckxBLLo8TH0zho50dKqXv37p2QQVRfqnnz5ihWrJi4RlqNBBD1cfPmzfi5GBkboVWLVihZqqRIz0sukWhsUVFRaXUtvk4ijFITKSpK2qT32kcHB1y6dAnePj7iOBJWFE1lbm6eZj00mrunpycuXrwI2uGQ+NeuWRv1G9QX/OkaQUFBgjXNgep9cWMCTIAJ/AoCLLB+BXW+JhNgAkyACTCB3EGABZaC65SawKIuKWImOCgQevoGOXKnOAWnHX9afhdYUhCUWnb5ymXcvHldiA2KwitdujSaNGmKalWrCxlAhdfT00gyBAUF4vWb17hx4zrev3uHkNAQUWOrWfOWaNWipUjB48YEmAATYAJMIK8SYIGVV1eW58UEmAATYAJM4OcJ5FmBdezoQZw/f0pEFjRq3AzduvX6eVqJerh65SLOnTsloi2oiPvw4WNTRNxIiyJn6oVzSGcssCQLQRErVED70pVLuHr1sqghRNExFhaWqF+vPqpVqy6Kkqura0BVTQ2qKipJinDT+SQ7IyLC4ejoiPsP7ol6SZ6eHqJvqlnUtElztG3XThR4l7WDXg65JXgYTIAJMAEmwAR+mgALrJ9GyB0wASbABJgAE8izBPKkwIqOisLpM3Y4d/YfkeZFqUEFCuhl6iKGhASJlBsNDU00aECFtYfkqtSun4XBAiuBIIkmKupOtYpu3LgmIrHo3yidzdjYBDY2NihRoqRI9TI1NYO2lhZiAYSFhiEg4Ae+fPmKDw7v8enjR3h5eyEiPBwqKqowMTVB06Yt0LxZM9FP4rSyn10/Pp8JMAEmwASYQE4kwAIrJ64Kj4kJMAEmwASYQM4gkCcFFsmDly+fw/78aTg4vBP1Z+jfMrNR5BWlhlkVt0Hr1u1Rs2adXFNYOzM4sMBKSpHur8DAALx58wY3b97A23dvERwsqSlEtZs0NbWgoa4uorCkUVT0tejoKFEjiupeUSQWfU1bW0ekITas3xAVK1eGoYEhR15lxk3LfTABJsAEmECOJ8ACK8cvEQ+QCTABJsAEmMAvI5AnBRbRJCnw8uUz3Lp1DU6OnxEcEpypkFVVVFG0aFE0adoSNWvWFdFXsnYAy9SL5qDOWGDJXgxJoXAvkQZ46/ZNfP78Sez8RrKKUkrpT+JG94ySkjKUlZVE8W6r4sXRoH4jVKxQASYmpnILl+egW4GHwgSYABNgAkwg0wjQz8zwiPBM6487YgJMgAkwASbABPIOgTwrsGiJQkKC4efnK/6OiorO1FVTVlKCppY2jIyMoaurm6l954bOWGDJXyWSVZReSgXevzl/g7PzN7i4uMDLyxNBgUEIC5c8mGtqakC3gC5MzcxQxLwIbEqUQBFzC1G0nYq/c72r3PBJ4DEyASbABJhAZhJggZWZNLkvJsAEmAATYAJ5i0CeFlh5a6ly1mxYYKW9HtIC7VSHLSw0VLxRjo6OFn+gBKgoq0BVVUUUeKcUQ5JWampqaXfMRzABJsAEmAATyKMEomNiQX+4MQEmwASYABNgAkwgOQEWWHxPKESABZZC2PgkJsAEmAATYAJMIBUC0TFggcV3CBNgAkyACTABJiCTAAssvjEUIsACSyFsfBITYAJMgAkwASbAAovvASbABJgAE2ACTEABAiywFIDGpwAssPguYAJMgAkwASbABDKbAEdgZTZR7o8JMAEmwASYQN4hwAIr76xlts6EBVa24uaLMQEmwASYABPIFwRYYOWLZeZJMgEmwASYABNQiAALLIWw8UkssPgeYAJMgAkwASbABDKbAAuszCbK/TEBJsAEmAATyDsEWGDlnbXM1pmwwMpW3HwxJsAEmAATYAL5ggALrHyxzDxJJsAEmAATYAIKEWCBpRA2PokFFt8DTIAJMAEmwASYQGYTYIGV2US5PybABJgAE2ACeYcAC6y8s5bZOhMWWNmKmy/GBJgAE2ACTCBfEGCBlS+WmSfJBJgAE2ACTEAhAiywFMLGJ7HA4nuACTABJsAEmAATyGwCLLAymyj3xwSYABNgAkwg7xBggZV31jJbZ8ICK1tx88WYABNgAkyACeQLAiyw8sUy8ySZABNgAkyACShEgAWWQtj4JBZYfA8wASbABJgAE2ACmU2ABVZmE+X+mAATYAJMgAnkHQIssPLOWmbrTFhgZStuvhgTYAJMgAkwgXxBgAVWvlhmniQTYAJMgAkwAYUIsMBSCBufxAKL7wEmwASYABNgAkwgswmwwMpsotwfE2ACTIAJMIG8Q4AFVt5Zy2ydCQusbMXNF2MCTIAJMAEmkC8IsMDKF8vMk2QCTIAJMAEmoBABFlgKYeOTWGDxPcAEmAATYAJMgAlkNgEWWJlNlPtjAkyACTABJpB3CLDAyjtrma0zYYGVrbj5YkyACTABJsAE8gUBFlj5Ypl5kkyACTABJsAEFCLAAkshbHwSCyy+B5gAE2ACTIAJMIHMJsACK7OJcn9MgAkwASbABPIOARZYeWcts3UmLLCyFTdfjAkwASbABJhAviDAAitfLDNPkgkwASbABJiAQgRYYCmEjU9igcX3ABNgAkyACTABJpDZBFhgZTZR7o8JMAEmwASYQN4hwAIr76xlts6EBVa24uaLMQEmwASYABPIFwRYYOWLZeZJMgEmwASYABNQiAALLIWw8UkssPgeYAJMgAkwASbABDKbAAuszCbK/TEBJsAEmAATyDsEWGDlnbXM1pmwwMpW3HwxJsAEmAATYAL5ggALrHyxzDxJJsAEmAATYAIKEWCBpRA2PokFFt8DTIAJMAEmwASYQGYTYIGV2US5PybABJgAE2ACeYcAC6y8s5bZOhMWWNmKmy/GBJgAE2ACTCBfEGCBlS+WmSfJBJgAE2ACTEAhAiywFMLGJ7HA4nuACTABJsAEmAATyGwCLLAymyj3xwSYABNgAkwg7xBggZV31jJbZ8ICK1tx88WYABNgAkyACeQLArlBYMXGxsathfTvrFoaJdGxkpLkb25MgAkwASbABPI7ARZY+f0OUHD+LLAUBMenMQEmwASYABNgAnIJ5AaBFRwchICAAERGhCMmixyWshKgrqEBXV196Ojo5No7JiYmBhEREVBWVoa6unqunQcPnAkwASbABHIGgVwnsB4fnI7d97wAqKNut3Ho37wi0n4vFYtz60bD3iEcUNVDx8FT0LZq0ZyxArl0FCywcunC8bCZABNgAkyACeRgAjlZYFHkVXBwMLy8PODn54fIiAjEImsMlhKUoKauDkNDI5iZFYS2tnaujMQKCwuDn5+vkFdGRsa5cg45+OOS/UOLjUG0sLZKUFZRTsfvYFk3xJjoaMmnT0kZKmR8uTEBJpAvCOQ6gXVn63BsuUkCC9Cr0AnrZw2BehrftGJcz2Hy1B3wpO9yavroPmYuutex/nULHOQG++t3EKysj8YNG8NMX/PXjUXBK7PAUhAcn8YEmAATYAJMgAnIJZCTBRZFE7m6usDT011EFWVHU1fXQKGChVCosLmIYspNjYSfv/8PODs7o0ABHVhaFoOqqmpumgKPNRkB39sbMW7LbQBlMPPwAlT6ZYTcsMN2Bq4HhwGVB+LQzA6/bCR8YSbABLKXQK4WWFCxwpitq9BARyUVajF4ums8Vl75LjkmJwgsj6eYMHc5vFQsMHvmHFSw1M/eVc+Eq7HAygSI3AUTYAJMgAkwASaQhEBOFljR0dFwcnKEj48XSM7o6uqhQAHdLFnBwMAABAUFioglU1MzWFkVh7Jyas+7WTKMn+o0MjIS7u5uQvrpaOugaLFiglduE3E/BSGPnex1ZjqazToDoBq2vzmEOr9sfl8xv143nPAPBhrNwqstg37ZSPjCTIAJZC+BXCuw9E2NEeDlg0Jtl2H5wDKQ9yM95scbLJ29GO9CY6BLb4JiNH99BBYLrOy9y/lqTIAJMAEmwASYQK4gkNMF1ufPn+Dr6y1YUkRRkSIWWcL1+3dnfP/+TfRtYmIKa2ubXCewqFbYt29fRRSWmpoajI1NYGFRNAdHYQXg8LSxWGL/WKE1tRy8D/bTail0bm45iQVWblkpHicTyLsEcq3AqjdgPJyPrYezcgXMW78IpQrIXqTvj49j0cZDUCtaAWWjfuBfl4BUBVZM5A98ee+EL15eMDYtiMJFy8FUXy3tHO+oIHz75ABHF2/oFywI8yIlYWaoLfs8Flh59xPFM2MCTIAJMAEmwAQUJsACS4Iutwssilbz9fXFd+evCI8IF5Fk2lrasClRElpaObWeFwustD64LLDSIsRfZwJMIKsJ5F6BNXoHtG9Nw9W3fugwbhP61C8iUxZd3T0Ley6/Q6XWw6HrdA53nEJkCqyoEF+8unsSuw/ZwzssJoG7kgaK1e4K2z7tUNxUD8nLbcWE++PtvTPYceg0PIOiEp2nDOPyHfH7sC6wKWgIFSXgx4vjGLPsoOw1NayNlZtnwTyrVzyT+ucUwkwCyd0wASbABJgAE2AC8QRYYOUNgUXF7t1cXeDr5wOqHUZNTU0dRYpYwtTUFCoqOTEdMgqeDg5w9A5I8Yl0cziNNSv+gZ96AfQY+SdaVyqU4hhNi3KoUlQvT3+aWWDl6eXlyTGBXEEg1wqscgM2oE3Ycaw9cRs2DQZi2ohuKJC8LmSMM1ZNmIT/vA0xfNEcfNy7BDe/hKYQWNGBrrDbsxpn731CrLYZatSqj+KW+gj3dsR/9x7ju38otItUx6hxY1HdyihhYUPccebgRpy88RoR6gaoXKsxSlsaI8r/K54+uo8vXiHQMauAQRMmooG1CQLfnMakNUeB2GiEhoYjFsrQ0NSQ7JxhWBOLV0xCwVxx2wAssHLJQvEwmQATYAJMgAnkIgIssHK/wCJh5ePjA2fnr4iMjEBsLKCkRH+Uoa9vgGLFrKCpmbs2MHJ8sh0jB62Cu5Yhpqw+hsGNLHPRpyrzhsoCK/NYck9MgAkoRiD3CqyBWzCrzDsMm7MBMQWrY+mfU1HEMOkPw+hn6zB0+Q1EVxqOvZOqYueSBTIF1usr67F693Uom5TF7zP/QGXzhHzE6EAn7Fi6CLecfFCwwXCsHts+PtLL4dYurNx2BpFGNhg1ZQ5qWxkkrEKYC/YunYtLDt7QqNwHO2f+hvi9YziFULG7lc9iAkyACTABJsAE8jQBFli5X2CFh4fDzc0V7u6uInVQVVVSiiMiMgIaGhqidpiRkXGuKuauuMCKRUxUFKKio8WLa1V1dZGVkbzFREchKioKMTGxgLIyVJRVRK0wEn9Z2aTXjY6JhZKyioiMU1VVkVs6JSMCS/QdHY2Y6BjEKilDVfSdkTlJ2EVSHzGxUFZRFeeLF//IQBH32BjBNioqGlBShoroRyWDbGMREx2dsEbUj2pcP1m5QNw3E2ACKQjkaoH1Z2sNnJo7Bsc+q6Hl5OUYUqNwwgRjfHB0+jCcdtNDp+lr0Lt0OLbJEljRrtg0dTzueuij0+zl6F3BOAWk8G9nMGPmLniql8KkDctRU2w44499c8bh4qcotBizHIMaWqYsJO/zAH9MXwanUGMMWLETbYvEdc0Ciz+KTIAJMAEmwASYABNIQYAFVu4WWLQ7IxVtpxpetIuipqaWkFUREeHw8fEWhejp/1taFoW6unqu+QSkS2DFRODl7Qt46OCOwqXroFWD0nhx8RDsrz3AS4dPCFUyQu/lJzCwbMK0o4PdcPPcWTx88RLP376Hm0cglPULwsaqBCqUL4+6bbqidgmjhBImkV/xz56L8I4FitbtjtYVTeQz9HuLvcfvIAKqKN9hGOolqlMSE+yOm6f/wd1nL/D6wwd89wqBtrE5rKxLoWKVmmjWpgMqmKeMkkuXwAr3xJ0L53H/6Us8+/AR7t+8EKFlhJIlSqFSpUqo3aIz6pQ2kSnypJOJCXPDldOn8eD+IzxzcIS3XziMi9qgQpXaqNO0E9rUVsem9h2x82uQ/F0IYyPh8vwG7G8+wvMXz/HhgzOiCxjA0roi6jRuhm6dWkIn2BEXL9zED+igfsvOKFck5a6iUaG++Pfiadx99BAvX36Cq18g1HXNYF26IqpWqYSGrdqgokWiIIZcc1fzQJlA7iSQuwVW28KIerYew5ZfR2zFQdg9u2u8RIp2vIohf2wELGph+ZwpKKTuI1tgvd6FAYvPILp4J+xaPBSaMt90hOHQH71xzlEZTaefxPCqADzPYfzEHfAu0ADL/zcVFvHhVYlvhBhcXD0A+x4Ho+rgbZjW2kzyRRZYufPTkmjU9IBGW1wjFtDU0hK769BbRm5MgAkwASbABJiA4gRYYOUegUXPQvQgRH/Rf9Of6KgoeHp5iggsSiU0MDCElZUVAvwD8O3bF0THRAupVby4tSjmrqysHP/8RM9ROfVZKl0CKyoQu/8ahdWn/0P1LuPRR+8x5hx5iNCIhNq6nba8x+JGkjWO8HyNORMn4+prZ0REE8vkTQmapiUwbsFaDGpkI/libAQW966EI6+BMg2nYeuWYTCS8/j5+cR0dJ17BrF6tbH/9l5UUZN0EerxFvMnT8TVV84Il3VdZVXoFSmLOSs3o00F0ySDSktgRfp9wbKZv+PMg88Ii0pUUzi+F2VoGpij/8yVmNCxiuxvFL4vMW3wcFz/EiCDixLUtI3QffIcFLswB3//FyhXYL08uxLTl+yDa0AEPa4naUoq6tC16ogFs2pg3YRZcIIZZq87jD51pdEGcYeHOmDBwIE44xCAcBnzUVJSgZZhWcw8fAJds2ZDUsW/mfKZTCCPEsj1AgvwxPqJY/HAwxBDV25GiyKqQGwkHtutxRq7uyjfYgQmD24HrUhXmQLri90UzD7xGZoWVdG4gvwS6k6Pz8PBByjdfzPmtjdH6O0lGLblEWBSHq1rWMm9Pb6/uoY3LmEo2HYu1gwk88UCKy98lig8/uTJEwgKCkblSpVgXsQCBvr6QmZReDO3pARCQkLg4uICb29vREVGQd9AHwULFhSFXOnhlRsTYAJMgAkwASLAAktyH+SkXQglqW0x8ZIqXlZFRyM6LvVNekx4eBgCAwIRGhYiUgfNzArCwsISoaEh+PbtGwIC/EV6mp6+PnR0dKCupg5lFRXxLEDHU5qZUpzUkrwXVBJfU1FRFtFbv6plVGAVsSwBH+9vUC1giarVysPSuACCA/1Qqt8aDKxIIsofO6f0wYZLjlDWMkLlei3RvHFdlClRCKHO7/Dg3k1cu/EALgHhgHF1bD6xHw3NJM9L17dNwPT1l6BWtCo2bNuDGhYaKbFEeGLLxBHYfOsDiradiPMrR0qOCXHGmslDse+OM5S0TVGzWVs0aVAf5YrqwNPxHZ7cvY3r/z6Ce2A4NG1aYNfu9ahonPCclqrACnXBzrmjsfG8A6JVNVGqagPUrlsbVcsWB/xc8PLZQ9y/+y/euwYAmpawXbMbYxtZIPFTc0TgV6ycOAqHHzhBSdMQ1WrVRYUadVC/YnEEfX2DJ88e4t6tW/gSY46Kuu545RIlQ2DFwPPx/zBk1Hp8CwO0jYujdp2GqFO3OoqZqODruwf499YDPHz1GZqFbADvTwhQTSmwIn44YsO0Udhz7xtUdc1Rr2E91GnYFBWLmsLf+SXuPXiA+7duwckvEmo6pbBk/z60Lm2Q9s71v+om5usygTxCIA8ILODmgTnYef4Vynecg8l9q0MlxAe7Vk7FjXc/0GvqDnSubgylMNkC68WuYfj7ik+6l1MqsFzPTMXUw5/SfR4LrHSjyhUHhoZNKFODAAAgAElEQVSGYtOmDXj06CF0ChRAsaJFUaVKNZQvX148rGlxVJZYR+K0b+8+XL5yWRR0DQgIAG2tra2tDQMDA5QrVw6TJ09CkSL82ipX3Pg8SCbABJhAFhNggZWzBBaJKz8/X9CugmFhoYiMjER0FNUkikZMLEktGq8kCkvyd6xk18FYQFtHBxYWRWFoaChqB1E/375RYfdIKCtTtJUk+koawC6JvlKCCgkrUV9IVdQrkjwzGIq/f1WEVkYFllhF3epYvnsFmpUqDA0qfBUbjagYFaiqAJFP16HJ4C0IiAY6zjmGWV0rQFcjQRTFRoXC+eE+2I5aA7cYoFiv7bCb2xCkqtwfHcPg8fPgEmaKCeu2wbZx6RSfysAvjzBupC2eemhi6PxtmNSZop3C8XD1YIzZ+QwRyoUweuNODKprDR31hBCumMgQfHt0ECNHrYJrjAqKdlsPu4XNIU0mlC+wIvBk0yiM2nIP4bE6aDT+b8zt0xBmeonkWkwUvL4+xJpRw3D2O6CkWw4bTxxHI4sEMfn+5AwMmn8aoTGq6DJhPaYMaAL9xFyiw/Dt1XnMGvcHXvnFTbvRLLzaMiiBgd8LjO4xCP+6hwG6VbB05yq0LG0ODdWEeYb6OeP88rGYf8ZBcp5OSoH19OhsjFv6D0LUjDFs9jqM6FwdiYYCxITj84Oz+OOPBXjjFY3aff7Eppl9oPHrPGsWf3fm7plAziCQJwSW2/NzWLRuF5TM62HGzMnQ/3ETi+asx3fV2liyaRas6HunHIH1et8ILLngieLtZmBml/Jproq6hh401AEv+5mYsP89jBr8jqUDa6Z5nrK6NnQ04t4xcAphmrxy+gH0JnH9hnW4c+e2GCqlEFIovImJMUqXLosa1avD2toGOjoFRMHSnLlddNZSdnd3x5w5c3Dnzh3xQEtvULU0taCqpgqKyKIHWGomJiZYtmwZGjZsmLUDUrB3ihp7//491FTVUKFiBfHGmBsTYAJMgAlkDQEWWBKuOSUCi35+U/0qDw8P+Pr6ICIiArEUjSVGKfnfhNS/BBlF4snQwBAWlkXFMxI1eqn1+dNHhIWHiucCOj1W8j/ib0lKouhRSC2KuKIXgvRi0NjY5Jc+S2VYYKkaYdDGfzC1oez9xd0fbMHf2+7AWaUW1m+fCHk5IP/MboS/TnuigFE3HLixBDb0q0TQR0wfMAwXHDxR8rfFsPure4qonzeXlmP0lF0IMy6FFXuPo7GVBqJc7qJPn9/x3jcKlYeuwoHJLeV+iC/Pb4Vpx75BVdsaa06fRSNziZWRJ7CiXB9hwKBxeO0aBIuWk3FyrS205PTu++kkhvf5Ew4hseg0eTvmD20A4ZYiP2BGi86w9wZ0Stni+NGpsJRVJi02Cnd2zcHEtf9AZGcmEVix+HB6OfrO2Y0IZUP0W3kEM1sUkz2SmC/4s31nnP4WnlJgRTnjz64tcdoRKNF0JnasGwxjWWIqKgBH5o/D4pOPAMvmOGu3BlY6uae2W9Z8F+demUDWEsgTAis26DPWzFmAp/46GDr9L5g8WYzl551h2WszlnQ1l3xTlyOwAq8vxsjtj6FZeQC2z+yeshC7HP4xb7Zh6CJ7RBTpgC0rbaGfkXVigZURWjny2OQCS5o2SA9f9LBloG+AQoUKoULFiqhUsQoKmpnF18rKDylzJH2mTp2KBw8eiPVr0bw5mrdoIWQVbZ3t5+eHFy+e49ix4yIqq3jx4ti6dSuKFZPzkPEL74IrV65g0qRJImJs586dKF065ZvOXzg8vjQTYAJMIE8RYIElWc6cIrBoLPRsQ6UTSGB5eXmKSCypbCLJpKmhEVdCQS0u3U8VGhrq0NbWES99pFFTVP+KUgjDQsMkkVxxu7pFRUYiLDwMkRERIqqLGj0r6erqwdTUTPz8pfTCX9kyKrC0SrfCsV0rYGUgI71POpHYGIRFRkNTXf7c3p36A4P+sIOSQV1sv7AblfTo5Ai82DIa/TfeBYyb4fjVzSiTxJlE4eCkRlh22ReFW8zD8dW9oa8COFzahGGzNuKHVmms3LYVrcvLlmt0hW+PNmHwkA3wVtfG+PXnYdtQslGWPIHleGs3hk9ZDk9lc8xYvQ39G8TV7JKxaDGhPlg3fRB2Xf8E62ZDsWfFVBhqKiP0xXY067sKQTBA7x2X8Edd+b9dhX+7hl49JsExOCKpwIoJg93fv2PBgTvQr9AGe7Ysh7WRfKH08MAkjF96ASHJIrCiXmxE474bEQATTDh+Hbbl5PURi+8XlqHt1L2AkiVmnD2F/sX5Reev/KzytfM+gTwhsGiZ3h6ZiEWnnVGuY3doXTmG/1AWf+1YijJSWy5HYCHwNqaPWo3vKIFJW/9GzQIy9HqML+5efgDLKvVhUUgfkgDfd1g2dDZehhpiyIptaGGhmjLnOTYK/92wh0HpBrAqYpQgx6QCS9kCs2fNQQXLDOmvHHFXammqQo1ioPNpSy6wihWzEg9b9MBJofP0h6QW1cSiN5ClS5VG3Tp1UaJkKejq6sZtI5x3i74fP34cC+YvEG9Ufx//O0YMHyEz7P/ihYuYNn2aeKPbo3t3LFi48Je+YZV1O7PAyqcfcp42E2ACv4QAC6ycJ7CkEouEk6enBzw83IXQorgpEksUHUUvqDQ0NOOjsURUlrISlJWS1rmUPiNJBRilIgYGBsHN9TtCQkmMxcTJK33xIlBfX/+X1r6SfggyKrCsmgzE3pWzYSQvDCnRpysmKgLhEZGIjkkoNa6kogp1NTU4XluGoZP3IyqJwALgexk9Go/Hhxigy/qnWNhcO6HHoFvoV3ckXsaqYsD2p5hel+RLLK5smYJZG+2hZFoCQwYNhoWhfHEW6PEce7YehnuUJgbOP4gpXcuL33/kCaw7e2di6vJTUCpaGRu27UVNy5Q7GCYMMBxXVs/A5J0XgRLNcWHvKlgYaOLVniHou+I+oFUHh5/sQYVUvwN9w/LGXbHf+//YOw/wqIq2DT8hDdJ7ISFA6F1AelMRpUiXJlIEAWkCgiLSFZRehI8mIB0UsVDFQhFEBOkl1FASEkI6SUhC2v+/k2xIJyybkGyeuT4+JDlnzsw9s7tn7/POO1HpBdbjCCwe3wurf7uBam8Ox7JZI5GDv4L38Q0YOuRL+JmmX0J4eWkH9FguywvLov/MD1Ahh7Yk+BzDlBW/ADBFl+VHML25sowsJEACeURAbwQWgg9i/OjF8EksBiQCJRu9g3kfvv0EW3YCCwnYv2wkNh7xg2PttzFuSHe4Waex7PGROL97OeZ99zeKV+mMBVP6wSKl1kMbPsXafVdgXbktxozsA8+0n1KJMbh2eDXmf/MHol1ex9z5I+Cs8RWB5zBu8iz4xVqiz0dT0aZGhh0v8miwdVktBVb6JYQdOnRC40ZN4ONzF15XLsPLywthYWGIi3usZJY8gbSztYOrqysqVJBthGvB1bVkaq4sfYrKkpvSGTNnYPOmzahRowaWLVumkrVnVYTNjBkzsGXLFpXU/bvvvlM3rAWpUGAVpNFgW0iABPSdAAVWwRRYmnknywnDw8NVJFZUZKSKxDI2MYaNjZ36rJfUCbnNUyV5scLDw1RdsrOzevgnSw/t7ODgkFxXQUnB8MwC69W+WD83Z4GVGBOGE3/uwoGjx3H6zEX4h0envrwtnMuiatUqsHrkhT2/n4NhRoGFGGz9qC2+3O8H+wYT8OPqfrBTrjAJ3ps+QMevDsO4XC/s/WUqXNT3jyTsmNUfX2z8FwnP8iZSzBS9J67DJz1r5yiw9iwagInfHIN1hfpYtnoDqjnkdJFEXNg6De/M+B5wbIBN25ehlqMpjs5/D0PXngRcWmP/n4uyXVaZXPNDbOvXEjP/S78LYWJMOGaN7ICtxwLQsPN0LPyiByxyeF5878xPGDok4y6Ej/HHhDcxZqf/s5BSx7aa+y8WtC18gQnP3FGeQAIvkID+CCwk4NeFA7HhRBhgaI62Ayfh3Ver5EJgAZF3/8PMOfNwJ+QxzF2qoWvXd1CnuisMQ3yw+5dvcfi/24gxtEX3EZPQqV7Z1Dpj75/FjBlzcTMkGsXtPNHu7f5oUtMdJaL8sG/nZvxx3AuPkqzQbvhE9G6Uxt0nPMCmCZ9gr084jM1dUaP+SzAJSUTzTz9ANhvKvsApkvWlKbDSC6w+7/ZDt27dVQh8REQE/P3u4bKXF06d+g9Xr15JhShRWRYWFrC1tVPL5urXa4AqVarCzs4u1zd8BW4yZGiQ3MxOnDgRO3bswKuvvor58+fnmDfq6tVrOPnfCdSpXVvJPU2ujIz9DAsLxd49+/DXkb9ULo5atWqhbdu2ePnll59pJ8OLFy9g69ZtuHr1KipWrIgunbugTt062dZBgVXQZxzbRwIkoE8EKLAKtsCS1knUVGRkJPz9/ZTMkn+LeLKxtYWzs6uKNH9aEVkVHByE+/f9Ef3okVo6aGJiqpYMaqK5CtLDvbwQWPsX9cfUb08gKj552WROxSyTwAKuH/4ag4cvQ6S1O+Zt2Y8WpQ2BeB/M7fouNtwIRpPRy7BiUPPkapOSsGna25j9wyUUt3FBg4b1YZmbVE2GJnjt7ZFo9VLycsPsIrB+/LIHpm4+B7tcCSzg5s4Z6DRhE2BXD+t3LEcdJ0P8Nm0Axm4/85wC6yHmjO6EzUf80LDLF1j4eTctBFYkdgxth2l/BQAlSuHVVrWRu0WBJfDKoAl40zOn6LOnjTR/TwIk8DQCeiSwgNsnNmH2kh8Qa1EOo6bNQi3nNKGx2UZgqY9iBJ7dizU/7sWVm37JCQFTiwGK25VBi3bvolvrujBLHwmNh9f/wNqtu3Du2l3EJjwJ/ZUElCbWbmj6Zk/0eKspLDNE6UZf34d533yPa76hUKcZVMDHW+ai9tNGrID8ngIrg8Dq0w89uvdMHR1ZEic3dXJzd/vObdzy9saFi+fVzyTvg9y4yW46Tk5OcHVxRVlPT1SrWh2lSnnA3MxM7b5TkG7cnmXaicD68ssvsXHjRnh4lFa7NYqY0rY8ePAAsiRx3bp1Kl9WxlLKvRRGjByBDh06ZGI2Z/YcrFm7Bk2aNMHo0aMwf958/HviRJpEscnJZ+vVq4fp06fD09NTVS/XGT58OE6cOJFts1u3bo158+ZlK9y07S/PIwESIIGiTIACK3n0C1IOrKzmoywnlJ0JZTmhRFElxMerexerlLxVVtbW2UZPybkSdRUUFKjqkITtGnllb2+fuhSxIL0OdCuwkvDgt4noOOZHRKI4arTuhkH9+6NZNTcYqe8Z8Qh/4I+rp/7CT9s3Yf+/t2CchcCK8j2FD4e8jxP3DPHe1NUY0/klhJ3fiZ5DJyEAHvh8+TfoUDM5d5VEYP26dBQmLv8NllVbYMXyZajs8OypQLITWIfWjMPHC3ajeLm6WLpqA2q55FR3HI4u/wxDl+4Cyr6CPRsXwsO2BLzWvY/uc48CNq9gx98rkPOdYxBWdWmNJVcj0y8hjIvCikl9sGz3ZVR89X2smDcODjn4pJtHv8EHI+bjvkn6JYRnFryJvmvuAA4dsevwbJQpSJORbSGBIk6g0AmsiMDbCHwYj+IOpVHSOr0Vio+NgL9/ABKKWcDV3SXDVqdxCPT3Q0RsImydS8LWPHNSxZiIB/C9cRXnzp/F7cAIGFmXQvWqlVHOsxxKudhBdsDNqjyOCsG9W1dx8fwZ3PALQ6K5E2pWr4nynp5wc3WASQbppakjMsQX9/yDEBMv4de2KFOlDNKsYC/QU5MCK2eBpRk8EVUxMTGQ6KF79+7h2vWruHjxoorKEsklRaKyLK2s4OToBA8PD9SsUQvVqlaDnb29+l1hLHv37sWECRNUH6tWrYqZM2aiUuVKzxxlJsnep0yZAomCEjFWsmRJFdUlT2dFLp0+fVrl4ZAlmh8MGYJBg9Pn2tIIrFo1a4lTxvnz51XkW7PmzfEoMgp/HvgTISEhql2Vq1TBqpUrlVSkwCqMs45tJgES0AcCFFiFQ2ApJZKUpARUUNAD9VkqywslEsvJ2Rnu7qWyzV0l9wbe3jdUQnepw8LCCk5OjrC2toGxsckz3yvkx7zXrcC6jxWdO+N/10KBKr3w28bJcC2R9ZeFCxuGoc/sAzDNQmAhPgTrP/4A8367gIodPsL3Mwfhn02fYezcH2FbvQuWr5yBslZP6v3v+5kYOWMjoh1rYtnKFWhc3u6Z0WUnsM7vWoARk1Yh3KYC5i9bi9erZZ06Ql0w7iHWTvkAC3eehn29rti+dDocLYwQ9ddcNBy6BoALxu4+hP5PFr1kbmfoKfRtMxBnImLSC6ykx9i9YCwmrf0dxco2x5Y1i1DZOftvV38s7IFxq88hIUMS94h9H6PxuF0ASmH6/t/Rxf2ZUfEEEiCBPCJQ6ARWHnFgtc9IgAIrvcCS5WzNmrVQETwuzq4qt5XkbXiytTQgu++EBAfDz98f3t43cdfnLi5fuoTg4GCVK0tu4mSHPjnf3d0dZcqUVTveSRSThONLRFZhicqSSLPxn36Kvw4fVrsMmZiYoFOnTujSpYuSUCKgnpbXQnisXrMGixctUiJvyJAhGDx4cOp58vvr168rUXb58mV1zPr161GnTp3U2awRWPIDSQQ7atQo9OjRI1UMyhKImTNnYufOnZBcHJMmT8a7vXur86Mio9TPDh06hImTJqqdJRctXoQK5ZOXAxsZJy8HZSEBEiABEtAdAQqswiOwpKXyoE4+8/38fFUeKxFQLi6uKs9ndvcsEol++/YthIWFqPNl2aEcb2qaw459uptiWtWkU4EVdQkj2/bHoaAIlOo2H3untcu6TfHh+N+gFlhxIgZZLSGUk3z2zUDHcZsQ59wCO/Z+jd/HtsKKQw/QYsQGLBxaH2kf9Ydd+Bm9Bk+Cb4QFus9YhsmdntwvZWxA4LU/cOwa4OlZGRWruMM05SF+dgLr4ZXf0G/IONwIMkTL0fMwf1DLbHd2j7x3FmMG9sFxn3g0e/cLzB//NpS/C/0bfVsNxJlowK37Kvw0uXnyzzOVJFzb+zXe/WwFouOS0gssiV48tBxvj/oaUfHF8eroJZg1sGmmFTQSkRZ57w8M7zwSp6MAZBBYePg33nt9IP6LAup+sAErR9RPZZC+OYm4d+oADvoao1b18qjqWRKGElLIQgIkkGcEKLDyDK1+V0yBlV5giXiSPFYin1xcXZR8qlChAkq6llRJSNMWES/R0dEIDgnG3Tt3cNP7Jq5fu4rrN24gMjJCHSo3fSJMRPbIDocVK1ZC5cqV4ezsUmiiskJDQrF6zWps3rxZ9VeKSKZy5cqpKKjmLZrjzTfezFYC3blzB++++y5kCWG/fv0wduzYLG9ub926pcTW3bt30bdvX3zyySepy/o0AktE4uAhgzFyxMhMS/4k2mrgwPdx/vw5tG/fXiWVl/HUFObA0u/3MvaOBEigYBGgwEoej4K+hFAza+SeRqLM/e75IiIyAhbmlihZ0k0lYpfPXvm9PMiS/9Y8uJKHQ5L7KiDAXz0ocnJ0hpt7KfWwq6AWnQqsxHuY1+5trL8bCtPyvbHrp8lwzShqEmNwcuNkjJm7C+FJyFZg4dFFjHnjbfwRao42Ez7C7cVfwOtRRcz+fQfalsyQv+RxAFYNextL/gmEqWt9TF+5Cu3KZbG+LvQsxr83BHuvh8Oi2Rf4bXk3WD5FYCEuBJs+7YnZv96FoW05DJ29HoOaOKTs3J5mVB/74dsJg7D015t4bGCFiRv2o0cd25Sd3ONwaE53jF7vhSQjd4z6ehX6t/DMVEd85G18MaQffjobAJW8pfkEXFje78lFou9hyZC2WHUqFjBxRIehkzGuXyvYaiwcgAdXDuCrSZPwx5WQ5PPM0i8hlPQyu77sismbvWBsVxOTly5Gh1qa5ZhPLhUTcgNfjRqMH0/7o0r7UVg/YwhKGFFgFdTXMdulHwQosPRjHPO9FxRY6QVW2gGQGzBJQuru5qaeKJby8EDZMmXh5uau8l6l3Z1Hbuwk7F6WF16/fk3tYnjt+jWVO0ueUEoRmSLiyrNsWSWzypevAE/PcioqK7c7/eT7BEm5oPRPBN2Mz2fgstdltdRAblY1Rfow/pNP0O6ttxSbtGXlqpVYMH+B4vbjjh9UctisiixFmDx5En7++RcVfbVy5UpYWSVvYawRWCLOfvjhB1SpkmZjh5TK5MZ68uTJKum85MKSXRM158shFFgvavbwuiRAAkWRAAVW8qgXJoH14EEA/PzuITY2Ru1GWKpUKZQoYabuYyQqS6KdDQ2LqSWCFhaWSmo9fBiG27dvq2WHlpZWKFu2nIpeL6hFpwILwIUVb6PPkotqR8CaXb7A7I9aw8HMFAZJCXgcG4NTvyzC5IXf45GBMeJiH6NEVksIU2D9M781Plh7WzZhV8X4ten4d0mPdNFXqVz9dqFrp89wLSoOJewq45PZc9CqRkkYFTMAkhIQ+eASFnz8KfZeCUAxk5IY9/0B9EmzD1V2EViq/oB96N7hE1yJjIOBqSV6frwIQ9rUgKmxIZCUiEfBN7F6+nhs+fcOUMwE5XquxHcTGyFt3F2E/2mM69cPx+7FAVbl8cnsRWhfyxnGRsWQlBiP6Pv/Yfr7w/FXqDFMDeMR8zhzBJZqS9S/GNhuME4GxirJVdytGt7u3B2V7KJx6fBP+OnIVcQalEDd1p0RcGgLfJFRYAGh1w5i5PCPcM4vGrCriZlLF6NFWQsYGRZDUlIC4iJ8sPqzAdhwIhwGpjYYOnczPmhZLkXGFdSZzHaRQOEnQIFV+MfwhfSAAit7gZV2QORGrXLlSqhfvyHqvVxP5bUyLJZ1YsuwsDB4eV3G4cMHce7cOfUkM20xNjJSSd6bNmuGRg0bqyecT1uG90ImRxYXlZtVkXT//vsvvLy8cOzYMXh7e6ubWJFLr7z6KqZOmaLyT0mRiK3RY0bj0MFDqF+vHqZMnZptV2T5wXfbvsPmLZtRunRplTze2Tl5txyNwJJIuB0/7lBRchmLnD9n7hys+3ad2tGQAqugzBq2gwRIoCgSoMBKHvXCIrDkoZTIK4moSkpMhJOTM0q6uafk/wxROSVll0GJLJd7IhsbW1hayQO4Yrh54zoePYqCiamp2uxFItYL6oM5XQssPLqBr4YNxbaTPkiEASwcS6N69YowiQnBrauX4BMSB/dG3dGnyWMsnfcDEnIQWA+99+C9XmNxLRKAoT0GLN+OMU1KZvv2cfPQN/h46nJcD3oEGBjB1q0snCwMgdhw3PLxx+N4wNjcAZ3HzMHkXo3T1ZOjwJIljcc34bNpS3HWJ0ydZ2JTEqVdrFAsPgr37vggMk4uWQL1Oo3F/GnvwiZjsFJSHK4c3owp42fBS/oDwNK+FFwdzZHwKAQ+9wIRl2SIBj2Go87l1Vh2LipzBFZKi33P7MGSeXOx9+z9TCxM7T3RacAEdK8ZhHEfTMCtLAQWEAfvA+sx8YuFuPhAVKMBbJ094GRbApJ32c/HH9Gyg2RxV3QcPg0f92sB62fPi18U3+bZZxJ4LgIUWM+Fr+ieTIGVvcAqUbw4HByd4OLsrCKm5I+rqyvcS5WCuZl5pggsWUp4585t+Ny9i5s3b0CWzvn7+yM6JnnZnexK6OTsgtIeHqhQviI8y5eDu5s7rG1sUMwgmx0CCvDUFGEkUVP//XcK06ZNhY+Pj2JSv34DLF++TCVkF5k3aNAglXRdJN3TktlLFJXcRLu4uGDDhg1KZKUVWBIBJxFW5haZN0KmwCrAk4VNIwESKHIEKLAKl8CSjWp8fO4gODhIJW23tbVVokp2JoyIiEBiQgKSkhd6wQAGMDYxUVHOstRQkr9HPXqkorNKly4LW1u7p37ev6gXhM4FFoDH4XexYcoILP7jWqZuvdTlY8z9pB8eHpuN9z7aiPgcBFbCoyDMHNEZ2/8NhHG5V7Bj7UKUdcghmi0pEbFBXlg0diA2nUoWTWmLsVMdTFz4NTrWtE+OzEpTniawJNLqcYg31s8ahRX7bkICpNKVEu54f9Y3GPJKaRRP3nIxc0lKRHT4LXw1Ygh+OeObGlmmDjSyRetRX2Nq3wrYPbAVZv4Xka3AkjxX8Y9j4HvpKDatWY0jV4MAM0e0aP0OenV7DaXtzeF/9mcMHTIBvsYl8cWqn9CumnWG9iQiKugmFn06Ctv+8c7U1uL2FfHxrMXo0qgsuHLwRb06ed2iRoACq6iNuI76S4GVXmDJ8jd7O3s4OjnDw6OUSrwu0VISRm+RIQeWDIHc8N3z9YX/fT/cuHEDly9fgq/kj4iIUFFJIm2kPhdXV3iW9UT5CrJs0BMlXd0K7M2dNlNL+vvVV1/hl192olgxAyxcuBCvv/467t+/jz59+qi8VtY21rCzzd1OORLBNWfOHCWypGgisCiwtBkdnkMCJEAC+U+AAiuZeWGJwJIE7vfu+agdBUVgyQMnuY+R5YOiPoyMjVUqhKTEJPVgTh44FTMwUFFX8gBJNrGRh3ESueXs4pouB2X+z74Xc8WoB944efYSwh7Fw8jMFpVqNkQFlyxyU+m4eUlJ8Qi844XTZ28gRtVtijLVaqlE5CbZbb2e2zbIDpXBPjh38hQexCaf5OT5EmpU8oClaS7DlBLjEexzFecuXsPDOMDUuhTq1qkOJ2vdsblzYhM++GAGAs3c8dWaX9CqUuYHnarxSQl4eO8aTl64ggjpj3FxlPKshhoVPWCSy+7kFh2PIwESyJkABRZniFYEKLDSC6y6dV9G0ybN4OHhgZJubihRvIQKl0+/C2EigoIC4evrCz9fX5UTSnbhCQoOQmxs8qe7hM87OjioaC2Jtiqnibaytlbh9oVlF0Lpi9yYSnlam0VSSRJ2iTwbOnQoRowYgbDwMLw/8H1cunQJ77zzjtqBMDdFiT97+9RrUmDlhhqPIQESIIGCQ6CgC6xbt26qaCORNLa29rCxsckTeJIYPTQ0RN1HODg4qc1PRBAVtKp83/wAACAASURBVCL5r/z97qVGjWvaJyLLzMwcVlbWKmeniCuJrhbRJbmyJChLE5kl9wlWltYqZ2jGjW8KWn/ZnkJCIDEON8+dg1G5KihtlY2UAvDfljH4YOY+GDtXxuItP6K+S+Fb2VBIRoTNJAGdEaDA0hnKolURBVZ6gdWnTz/06N4z0ySQG1yJtgoIuI+ABwG4cuWK2u1OkrVLnif5vbGRMWztbOHg4Ihynp6oWLEyKlepAkcHx0IZbSVCavr06Th16hTmzJmLN95oleOLQ25oRVydOXMGffv1xfhPxitmI0eOxN9//402bdqoyCxt8mJQYBWt9yX2lgRIoPATKMgCKzExAb4+PngQ+ADx8ckbreR1kXsEJ2dnuLmVeuoDobxuS8b65R5GIsUk/1VCQvIGLSLZZDMbScwuD5Tkb3m4JMfKw7qw0FCEhYciMiJSnSMSSy0tNDaGZ7nyKkcWCwk8D4G427+jQ5cx8I0FavZfgFVj34B5Fl4qIeIapvTpgJ3XAbe6H2Hz+sGw5waCz4Oe55JAvhCgwMoXzPp3EQqsnAWW5HgKDQvFfX9/tTTwwoXzKtoqODhY5X+SYmFhobaZLuVWCpUqV1I7C8rSQ8mTJTd7T4tcKqizSvJ3devWDYGBgejSpQumTp2a45KAgIAAvD9oEG5cv45Bgwdj9KhRqmuLv16MFctXwN3dHdu3b88yAbscpxLE+96DtbUVLFN2H9SwocAqqLOE7SIBEiCBrAkUZIGVvHteOORzS/5OiE8WMHlRROoYGhnB2toaTk4uKm+UNg9y8qJtyXUmqdyTd27fRmDQA9U2IyNjFW2lErVbWqnP/ow7L0t0toiswMAHiIyMQHT0IyTES4JsqPsgeweHAhlplnccWbPOCSQ8xL4JnfDJHj/A2AHtBn2Cjwe2h33xJ3Yqyu88ln01CVsPXEOcgRtGbtqBwS/lTTSlzvvHCkmgiBOgwCriE0Db7lNgZRZY3bv1QFRUFML/P6JIbm7PXziPs2dPw8fXJ3WJoDxhlJtQSVRaqWJFVKlaDdWrVYe9vUMBuzHVdmYkLx0cN24c9uzZAxtbG8ybOw9NmzbNsn9y7N69ezFx4kS1vGDGjBno2LGjOlZyg/Xq1UvtYDRs+DAMHzY8y4i00NBQjBgxEv/9dxLDhw3D8BEjUndn1KXAknFbtWoVqlevrj0cnkkCJEACJJAjgYIssJS2SZFYISHBiImORmJS3ggsyRNVvEQJ2Nk5FEB5lcwhKipSRaTJrskiq6ytrJWAys0yQPn8FwkoqRUiIyPVfZJbSTc4u7jA2NiErxISeD4CCXcxpVtn/HItColJQHEHTzRv2hjlXYvj9sV/8Oc/lxAbDxQzssAroxdh8XtNn+96PJsESCDfCFBg5Rtq/boQBVZ6gfXWW+3RrGkLeHvfwIULF3D37h0EBQerJQZykyfRVvIUtZR7KVStUi05t5W7B0qUKKHC5gtrtFV2s/rIkSMYO3YsJLmrJLKXHFatW7dWT2Y1JSgoCD/99BPWrVsH+e/y5ctj9erVasdGKSK05sydi40bNqgbY1lSKPmwTE1NU+sIuB+ABQsXYPfu3YrhmjVrUL9+/dTf60JgHT9+XO2IKO0RoTbmozEqx5lE0zmoJ8XMl6Bf727sDQmQwIskUNAFlrAR+ZKUJH/yRl5p+Cfn0SyY+S+l7yLxQoKDVaSYnZ09LCwkgtwo1w/kNLsSS74vSScgn++yCUuJEmYvcgry2npCIOjWSfy0aRXWbT+Ch8lBfumKiUNV9Hp/MPp3aQkHc2M96TW7QQL6T4ACS//HOE96SIGVXmC5upaEiYmxirzSJGRPTmBqpkLpq1Wthpq1aqloK0lomja5e54M0AuuVG5st27Zii9mfKFu9EXyiKhzdnaBkZEhomNiEBQYqJYfyLES3fTtt2tRvXqNdC0PCQnBhx9+iJMnT6o6zM3N0bRZU7UroSR9P336FKKjYxTP0aNGY/CQwelunHUhsOTGulev3vD2vpmyRCL55rxVq1aYPXu26hcLCZAACZCAbggUBoGlm54W7lrks1seUsnf8tksea+0LVKH3A+Eh4ep6C15uMdCArogkJSYgOgwfxz8+Tv8/tcf8AosgRq1X8Zrb3VGi9rlYWZiDAPmvdIFatZBAvlGgAIr31Dr14UosNILLMlZpZFSEp1jpaKt3JWQqVCxItxKuqsoIn2MtspuZssN6b59+7BhwwacP39eRTBlLPK0tVHjxnh/4EDUq1cvy6pu376NZcv+h4MHD6nlhBmLk5MT+vbpiwEDB6QuHdQcowuBJXVJ8v1p06al64ckl587dx6MjY3068XN3pAACZDACyRAgfUC4T/jpXO723BuqpV7Bs0Dr4KV6ys3recxJEACJEAC+UWAAiu/SOvZdSiwnggsudGSJ48iqJydnFGpcmXUqFETlSpWVk8lRVqJ4CqKRW5IZVmAr68vjv9zHBcvXVQYjE2M0bhRY5VPys3NTXHKqUji+1ve3jhy9CguXbqkbnKtLC3RuEkT1KhRQy05kIi3jEWWJsr1ZQxkKWN2y/00x8kYlixZMsvjJBpMdli8evWq2lmpatWqarkjb7SL4sxmn0mABPKKAAVWXpFlvSRAAiRAAiRQ+AlQYBX+MXwhPaDAisay5Utx4sS/Kr9VOc/ySqRUrFgJspxQIotEalFuvJDpyYuSAAmQAAkUUgIUWIV04NhsEiABEiABEsgHAhRY+QBZHy9R1AWW5LnavWcnQkNCUL1GTZT2KAMrK0uYmhbPMhJIH+cA+0QCJEACJEACuiZAgaVroqyPBEiABEiABPSHAAWW/oxlvvakqAssWRoXGRmBpMQktc21LFFjtFW+TkFejARIgARIQA8JUGDp4aCySyRAAiRAAiSgIwIUWDoCWdSqKeoCq6iNN/tLAiRAAiRAAvlBgAIrPyjzGiRAAiRAAiRQOAlQYBXOcXvhrabAeuFDwAaQAAmQAAmQgN4RoMDSuyFlh0iABEiABEhAZwQosHSGsmhVRIFVtMabvSUBEiABEiCB/CBAgZUflHkNEiABEiABEiicBCiwCue4vfBWU2C98CFgA0iABEiABEhA7whQYOndkLJDJEACJEACJKAzAhRYOkNZtCqiwCpa483ekgAJkAAJkEB+EKDAyg/KvAYJkAAJkAAJFE4CFFiFc9xeeKspsF74ELABJEACJEACJKB3BCiw9G5I2SESIAESIAES0BkBCiydoSxaFVFgFa3xZm9JgARIgARIID8IUGDlB2VegwRIgARIgAQKJwEKrMI5bi+81RRYL3wI2AASIAESIAES0DsCFFh6N6TsEAmQAAmQAAnojAAFls5QFq2KKLCK1niztyRAAiRAAiSQHwQosPKDMq9BAiRAAiRAAoWTAAVW4Ry3F95qCqwXPgRsAAmQAAmQAAnoHQEKLL0bUnaIBEiABEiABHRGgAJLZyiLVkUUWEVrvNlbEiABEiABEsgPAhRY+UGZ1yABEiABEiCBwkmAAqtwjtsLbzUF1gsfAjaABEiABEiABPSOAAWW3g0pO0QCJEACJEACOiNAgaUzlEWrIgqsojXe7C0JkAAJkAAJ5AcBCqz8oMxrkAAJkAAJkEDhJECBVTjH7YW3mgLrhQ8BG0ACJEACJEACekcgITEJIrFYSIAESIAESIAESCAjAQoszgmtCFBgaYWNJ5EACZAACZAACeRAQARWfEISGZEACZAACZAACZBAJgIUWJwUWhGgwNIKG08iARIgARIgARLIgYDIq3iGYHGOkAAJkAAJkAAJZEGAAovTQisCFFhaYeNJJEACJEACJEACOQqsRMTFcw0hJwkJkAAJkAAJkEBmAhRYnBVaEaDA0gobTyIBEiABEiABEsiBQFx8AmIfx6cckYQkribkfCEBEiABEiABEkghQIHFqaAVAQosrbDxJBIgARIgARIggRwIPIx8hNDwCCQlibyiveJkIQESIAESIAESeEKAAouzQSsCFFhaYeNJJEACJEACJEACORAIfxiJoNAwJCaKwEoEktT/oPl/wiMBEiABEiABEii6BCiwiu7YP1fPKbCeCx9PJgESIAESIAESyIJAREQEQkPDYG5uBlcXRzIiARIgARIgARIggVQCFFicDFoRoMDSChtPIgESIAESIAESyIEABRanBwmQAAmQAAmQQHYEKLA4N7QiQIGlFTaeRAIkQAIkQAIkQIHFOUACJEACJEACJKAFAQosLaDxFIACi7OABEiABEiABEhA1wQYgaVroqyPBEiABEiABPSHAAWW/oxlvvaEAitfcfNiJEACJEACJFAkCFBgFYlhZidJgARIgARIQCsCFFhaYeNJFFicAyRAAiRAAiRAAromQIGla6KsjwRIgARIgAT0hwAFlv6MZb72hAIrX3HzYiRAAiRAAiRQJAhQYBWJYWYnSYAESIAESEArAhRYWmHjSRRYnAMkQAIkQAIkQAK6JkCBpWuirI8ESIAESIAE9IcABZb+jGW+9oQCK19x82IkQAIkQAIkUCQIUGAViWFmJ0mABEiABEhAKwIUWFph40kUWJwDJEACJEACJEACuiZAgaVroqyPBEiABEiABPSHAAWW/oxlvvaEAitfcfNiJEACJEACJFAkCFBgFYlhZidJgARIgARIQCsCFFhaYeNJFFicAyRAAiRAAiRAAromQIGla6KsjwRIgARIgAT0hwAFlv6MZb72hAIrX3HzYiRAAiRAAiRQJAhQYBWJYWYnSYAESIAESEArAhRYWmHjSRRYnAMkQAIkQAIkQAK6JkCBpWuirI8ESIAESIAE9IcABZb+jGW+9oQCK19x82IkQAIkQAIkUCQIUGAViWFmJ0mABEiABEhAKwIUWFph40kUWJwDJEACJEACJEACuiZAgaVroqyPBEiABEiABPSHAAWW/oxlvvaEAis9brnhDgkJRnRMNJISk55pLIoVKwZrK2vY2tvB1MT0mc7lwSRAAiRAAiSgTwQosPRpNNkXEiABEiABEtAtAQos3fIsMrVRYCUPdVJSEh4+DMc/x//B4cMH4efnh7i4+GeaByYmxqhapRreeLM1qlSuAlNTSqxnAsiDSYAESIAE9IYABZbeDCU7QgIkQAIkQAI6J0CBpXOkRaNCCqzkcU5ISMDRv4/gxx93wNv7phJa2hSJwmrcuCk6deoMz7KeMDEx0aYankMCJEACJEAChZoABVahHj42ngRIgARIgATylAAFVp7i1d/KKbCSxzYuLg5bt23Gzp2/ICYmBjY2NrC3d8jVwMfHx8PP756qQ4q5uQXq1K6D1q3bonLlyozEyhXFvD9IpOTjx4/V0lAjYyMYGRnl/UV5BRIgARIoogQosIrowLPbJEACJEACJJALAhRYuYDEQzIToMB6IrDWfrsGu3fvVNFXbdu0wzvv9M7VlAkJCcFXs2bC399fHW9gYABjY2PUr98Q7d9qjwoVKjISK1ck8+6ge/d8MWvWbHh7e6vxFXk14dNP0ahx47y7KGsmARIggSJMgAKrCA8+u04CJEACJEACTyFAgcUpohUBCqw0AmvtauzavVP9oHPnLhg4YFCumAYFBWLipM8gkiRtMTc3R+3addG2bTuVE0ukFkv+EkhMTMShQ4cwduxYPHr0KN3F58+bj7fav5W/DeLVSIAESKCIEKDAKiIDzW6SAAmQAAmQgBYEKLC0gMZTAAqsvBNYEolVvHhx1K1bT0msypUqF7pIrDt37mDp0qWIjo7O9uUieb4qVqiAN954E2XKloHkASsoJTAwEMOHD8e5c+fg4uKCgQMHwNnZBffu3UON6jVQr369gtJUtoMESIAE9IoABZZeDSc7QwIkQAIkQAI6JUCBpVOcRacyCqy8E1iaWWRmZobaL9XBW+07oGqVqjA0NCw0E+zC+QsYMHAAHj58+NQ2i7h6pcUr+HTCp3B3dy8Q/Tz+zz8YNny4yn31+eefo3PnzmqJZ9oiucu8b3qrHGZu7m6wtbV9al95AAmQAAmQQM4EKLA4Q0iABEiABEiABLIjQIHFuaEVAQqsvBdYcgXNckLJiVWlStUCFaWU08TRCKyoqCjUq1dPRTFlLBLldP78eciXFSl2dnb46KOP0LVr1xfez927d2PChAkq59W2bdtQqVKlTO338/ND7969IX/PmjVLSS4WEiABEiCB5yNAgfV8/Hg2CZAACZAACegzAQosfR7dPOwbBVb+CCy5iiwn7NqlK7p161lodsDTCCyJTlq0aBFatGiRaTZKUnTZifHnn37G7DmzERkZqYTd8uXL0aBBgzycvU+veteuXUpgyTLHH3/8EWXKlKHAejo2HkECJEACz02AAuu5EbICEiABEiABEtBbAhRYeju0edsxCqznF1jBwcGYOfNz+KXsQphxxGJjY9TyNCmdO3VBv37vFUqBtXjRYrR4JbPA0vRXRNbp06cxefJk3Lx5E25ubli3bj08PErl7STOoXYKrBeGnhcmARIo4gR0IbDkc0VKxqXfWaF9lmM158fFxyHucRxkww/N+boeNmm7LLGXBykSDVxYi/ARTpr+FNZ+sN0kQAIkQAIFgwAFVsEYh0LXCgqs5xdYcXGPcePGdcTExGY5/nv37cE//xzTe4Gl6fyJEycwbNhwREQ8xPBhwzF8xPAc82GFhYVh3759OPHvCbxUpzbe7d070/Gyg+Aff/6BwwcPI/xhOCpUqIBmzZrj5Zfr5pgYX9cCS27gL126hN9++w0XLlyAg4MDGjVshJavvwZra5tC9/png0mABEggrwg8r8CS91vJXyjSRHbxzUn+yDGxsbFKrpiamuZKeMk5svz972PH4O/vj/iE+DxBIe12K+mGJo0bo3r16i98ab22nYx69AgBAQEoXtwUri6uuWKs7bV4HgmQAAmQgP4ToMDS/zHOkx5SYD2/wHrawKz6ZiV27vy5yAgs+cLx8Scf49d9v6J+/fpqF0Nra2vVf0kGL/mmrl27ppKqyxPpOXPmICQkRP2+dOnS+Omnn9QSRCkS3bZ1yxasXrMmy50QS5YsifHjx6uljSVKlEg+JygYHTp0QFBw0NOGJsffN2rUCOvWrUs95vjxfzBv3nwlrjIWCwtLDBjwHvr06QMrK6vnui5PJgESIAF9IKCtwBJxJTJKdouVz4aEhAQlpSQHozw0EJmlKbJ8XY6RHIYxMTFKqtjY2KiNRGQDlewit+S8i5cuYc/ePThz5ozK4ZiXEVjyuVCnTh20a9sO1aoWrs1cNKzv3r2Lg4cOwcXFGS1fa1moo8n04fXFPpAACZBAYSdAgVXYR/AFtZ8CKxm8LPFbu3Y1du3eqf7duXMXDBwwSCejUtQElnwJ2LxlM76c+SUcHR2xZs0alC9fXrFMK7Datm2D48ePIzQ0TAkr+YIiXzy2b9+u/i1fRj77bAL27/9N5diSLy9NmzSFpZUlLl68qL50yM/lS8ro0aPRr1+/PBNYsjRyzJgxuH//vmqnJLSvVq0aHjx4gIMHD0KiyGSJyLvvvouxY8eqfGcsJEACJFCUCWgrsNTOsN7eEGEiORXlM0V275UdYitWrAhnZ2clpuTnoaGhuHr1KmQzEfk8kJ/LwwxZwi7Hyvt1VkU+XzZv3oxff9uP8PDwfBkm+XwTgdWzR49s25UvDdHiIsL233//xTdrVqNqlSoYNnSY+pzOzdJOLS7HU0iABEiABIoAAQqsIjDIedFFCiwKrJzmVdok7k/LgZW2niNHjmDYsGHqCe3yZcvRsFHDTAJLfiA39B+PG4dOnTurY6Ojo1VUlsig7dt/wNSpU9QXl169eqmdDTVRVnKuREJ9+umnuHHjhvqy8sMPP6gdEGVZyMPwcCQmJqmlfjNmzlBP7L/99lt4lPLI1N37Af4YOnSYklOTJk1SXzCkGBkbqWgqaVPfPn1x/sJ5JdFWrFiBKlWqpNYjN/ZTpkxRkWOODg5YtWoVKqf5fV68blknCZAACRR0AtoKLBFK8oBCHgzI+7mmyGdEuXLl1BJy+ZwQ0SWSy8vLSy011BSRKpaWlqhbt66K/pXPk4xFlqUvXvI1Dh8+rK7RsEED1KlTN0+Qnjx5Eif/O6na0er119XS+sL2kEME4U+//IwdO3agbNmy6N+3H2rXrl3oRFyeDDArJQESIAES0IoABZZW2HgSBRYFVl4IrCtXrqBnz55q6ces2bNSpVDaCCyRVzNmzECrVq0yNUGejk+dOhV79uxRv589e3amXFfy9F1yiw0dNhyxMTGYNWsWOnXqlK4uXeTAErHVsWNH9WXqo7EfYcjgIZnaKxJt+rRpcHB0xODBQ1ClSmW+uZAACZBAkSagjcCS93VZOn727FkVsZu2iJiSnWQrVaqkIm/lc+LWrVtqSbp81qQt8rBDBIuTk1O2AmvBwoX468hf6rT3+r+HXj175sl4bdy0CRs3bVR1t2zZEqNGfljoBNaVq1ewcuVKXLp8GRYWFmqH4Q8GD0lND5An4FgpCZAACZCAXhOgwNLr4c27zlFgUWDlhcCSLxWdO3dWXzAkqkmW1klJK7BeffVVLFiwQH0Rya5IHpT4uDiYW1hkeYgkzu/brw/OnT2HHj16qLxaaYsuBJb/fX906thJCax3er+DKZOncNlE3r0lsWYSIAE9IaCNwNJ8TojAktxWGSOwZDm6/JEILIl+9fHxweXLl1XOLE0R0aXJOSUPSrJa5iYRWBRYuZto8rktUdUbNm1USzaFp+QY+3jsOBUNJ1HSLCRAAiRAAiTwrAQosJ6VGI9XBCiwKLDyUmDJl4rp06eje/fumQTWkCFDMGrUqOe++R06dCgOHDiQZwJLlql89tlE7Nq1Uy1zlOWMb7zxBqpWrQIzM+YA4VspCZAACWRFQFuBpVkaeOfOHfXQQySWvPdKAneRV5JbUSOl5MHC9evX1RJwOU9+LrmZSpUqpZYbiujKqlBg5X7Oel3xwtatW3Hq9GnFWIoIwm5d30b79u1zfAiV+6vwSBIgARIggaJGgAKrqI24jvpLgUWBlRcC69y5c+jbt6/64pHdEsJx48Zh4MCBT91SPCrqEfb/th8H/vwzdUmJibEJGjVqiNdbtcJXX32lEqnnVQSW8AkLC1e7DF66dEl9QZIlFJJjRXJuyU6LsnRREgYzoa2O3phYDQmQQKEnoK3AkmWEktMqICBARWFJpJUkY5fk7fKeKzJLU2TpoEgsOVbyFWp2IXR1dVXL9LJ7T6bAyt30kijqAwcPqB15w1OWdEouL/lTo3p1yIMoyS3JKKzc8eRRJEACJEACTwhQYHE2aEWAAosCKy8EliRP1yRdX7VyFWrXqa0uk3YJ4dMEljzplSWAixYtUl9OnlbyUmDJtWVLd8kBIsmFfX19IV+ANEW+JNWsWRPjxo1F3bov82b+aYPF35MACeg9AW0FlgaMiCz5HJAHIbIRR06SRI4R6SXvxRJ19bSHCRRYuZt+8ln3w44d2LtvrxKCDvYOSEpKhL+/P+zs7dH7nXcg6QDMSmSfCiB3V8qnoxITEB50HwEPHiA4IhbGxc1gY+8MV2dHmJtmTvafVaviYiMQ4HcfgYHBiEkwhLmNJWxsneHiYAMTI4Nn6khSfCzu+97GPf8wGJjZwrNqRdgaZ64iKS4aAfd8cT84HNGP41Hc3BYOri5wtbeGUe6aDSQlICzQHwGBgQh5GItixc1hb+sAV1fp+xMpnJsOJMbH4P7dW/AJeAhjM3tUqFUelhlOjHsUhnv3AxAcEIrHxYxgaWUDRxcXONpYoNizYcpNk3gMCZBAISRAgVUIB60gNJkCiwJL1wJLvkgsXboUy5cvV8s41q5dq/JlPIvAki8uGzdswKLFixEVFaXybPTu3RseHsm7CMrSRMmztX//b7hw4bz6gpPXAkuuK+0Smebn54fw8DCVPPjX/fvhddlL/U76OX/+fLz00ksF4eXNNpAACZDACyPwvAIrrch6mpDSvD/L37k5lgLr6dNCIt9OnDihcl95e3ujdOnSaPV6K0heyP379yupKBHIg98fpJZ35ob706+ad0cEXfkLC5esx6Xb9/AgMBChkY9hZFoC1naOcClZBi37jsKgVhWRncpJjA3Hoe9WYPXek3hwPxDBQSGISSwGMysLWNs4wcnZAx0GjUP3JqWQ2WNdx9x+X+KC6p4harbuizHda2H99LH47sgV+AWEw6BEBUzf/SM6u6ZncO3Aeny9cT9u3PZFQMhDxMQlwNTMGvbOzijlWR39R36IVyra5wAuCRHef2PWnFW4eDcAgUFBqu8Gpmaws7GHi2tJ1O34IUZ1qwmzjDIs/Aw++/Br+KbU/tJrAzG8uwdWT5uIX457417gQxiXqIv/nVqHJinHJMaG4fcN/8O630/BP+ABQgLDEWdgCAsra9g7OcOtcnOMnTgCVa3ybqxZMwmQQOEgQIFVOMapwLWSAosCS9cCKyLiIQYOfB+yjPD111/H3DlzYWae/HQ2txFYks9EliBKDpQmTZooGSZLSDIWkUayhEG2Qs8PgZUdqz17dmPq1GmQL2xdOnfBl199WeBv5gvcmxEbRAIkoFcEdCGwNLsLypK1nASJfBZoEr7nZjkbBVb6qSayKi4+Xm2aool6k6WZv//xB3b//+dbUmIiGjVshA+GDsX5C+exauVKPIyIULs8Dh40GJ5ly0J2fhT28kfkliz1LAhSKynuEa79uRLDPl4G76icX2LVu0zAiml94GaRPgwq7uF9rJo6EIt/uYbkLGDZFFNb9J6wCNP6Ns4gwk6hr2dPHFGnGaF5n9FoE7wFE/b6pamoFGYeOYB33JJ/9DjyPn78YjAmbPfKudHFLNFv3vcY/1Y5lMhozhJjcOnPDfhw/Hx4hyVmX4+BEep1HY3/fT4IjsXTWKzAP/Bmg6G4lnJmi7dHoVbg9/j6sH+auqrjW++f8Io85IsOwbrp7+Or7RcQl5T95Ww8mmDReVbbQAAAIABJREFUt1+jRVlaLL1602dnSOAZCVBgPSMwHp5MgAIrmYPcsK1duxq7du9U/+7cuQsGDhikk2my6puV2Lnz5+R6O3VBv37vpcvhoZOL5FElF85fwICBAxSfxYsWo8UrLXK8khy3ZOkSrF2zVm1rPnv2bJXkVXMTm1uBdfr0aSWmJP/GzBkz0KFjxyyvGxQUpBLEy/K+vBJY8sVI2i1LKSQpsCyjyFik3xMmTFBLHmvUqIHNmzdnKdzyaJhYLQmQAAkUOALPI7Dk80POlz/y3/IAQxKHiyQRmaUp8v4snxPh4eEqMleTo1COTZsrKyOcoiiwhGNgYKDKFSasZMmliCv5E/XokVoW/ygqSv137ONYBAUG4tr16yrq2NbWFh3bd1Cft/JZuHnLZvzzzz8QR1G5UiUVbW1jY6s+H2WsJE+kWYkSSmRp/ojYkt9LXZJDMl/kVlI8Tm5fgGGT1yAoLgeBo5kgxpZ4bcRcrBnZ8smUefwA347uj89/vf7kZ8WM4eRZBa7GUbjpfQuRsWnqtiiNT9f/jCG10+6enFZgGcDJxQnhDx4gNjGt5UkrsOKxYUpffLX1JGISUi5rYAAzKyeUdzPBDe/7eBTzRKUZW3pg/JJvMLC5Z5qpHocLP8zF8CnfwicmzY+Lm8Pd2RlxYX4ICE/zC4MSeOm9xdg86VWkLgjNILAc7F0QERmI2FhNo6RejcCKwl9fDsGg1f/iseZyqZwe4ub1O4iM1/TXEGU6jMPvi97PNuKtwL2hsUEkQAI6J0CBpXOkRaNCCqzkcabAynq+P4vAEoaS6HXevHmqsoaNGmLlipXphE9uBZZsoT548GD1xUSStLdr1y5TA+WLy6ZNmzBjxgz1O10IrGnTpqFnz57pbqz37t2LMWPGqJ2tJBKsQYMGWcL68ssvsX79elStWlXt2JSV6Coa7yrsJQmQAAlAyafQ0DCYm5vB1cUx10gkkkqif65evYoHDx6kCixZQu7p6aneizVFPiMkUvfmzZupAksSvVeqVEkta8suGqsoCiwRV0eOHlWbkdy9ewfBwcFqif6j6GjFOLsiwlB4DnjvPdSqWQuPoh+pXJBfL1mC0NDQHMdVIx5FWFlZWqJChYpo3qyZSguQVkTmenI844GxEbcwsvMb+N37yYkmVs54e8BQNK/ghPDb/2HVio3wjoxDksatFKuMJcd24S2n5HMeHN+CDoOnIyAyWVJZuNTB4nUr8FpF2+QDEiKx9tO+mP3jBTxOqcP85cn4+/u+sE69bFqBpfmhAWxL18J7Q/uhYokEnD16HBU+/Apd3IDEk5+jVo+NiEw5tJipO0at3IrhzV1gKD+LDcT3UwZhwg+XoHFgpTp8gsOLBkGTXirm7r/o1W8ozt6JSK6lmAla9J+OlZ92hWlKpNbNQ9/g/dFzcfuhpvOWWPjbKXQqn1JLBoGVXJEB7D3qYvDgd+BhaYDzB8+jwYLP0CLoNLq/9T5OPki+XnG70pi95jt0qJWyvPFxMOYN7YxlB/0Bg2IwKFYdS8/vQJsSzzioPJwESEBvCFBg6c1Q5m9HKLCSeVNgZT3vNAJLntROnDhR5btIW0QiydNYyY9x+K+/8O/x4+pGWKKQ5s6dizJlyqQ7PrcCS+rs178/fH180LBhQ8yaNQuyq5SmyDV+/fVXzJkzR22fLkVbgSW7XPXr10/ls2rRogU+//xztdtVaFgorK2sVbJaqVuivUROieSShO1pnx7LcklJSn/37l107NhRRZ7ly9Pl/H274NVIgARIINcEtBVYIpcuXLig5JV8NquvzAYG6qGA7PYqnysipkR0yfuzCBkRMfJ5JEUir0RiSS5CkV1ZvRcXRYElvEJCQ3HgwJ84dOgQ7vn5qYdEGm4ilCRaSpLgC0P5t/wt0VQvv/wyunfrBksLS3W85MGSBzq+9+6pSC75TJZILvW3LEOMj1fjI+zljwisihUq4M033kS9evVUJF1+lGub+qPjlL+hiTNyrNsFC+dOQ5Myaa4f64f5owdh5f4nywNbTPkV3/Yvp2SQ34VD2LbrCO7f94XXrSj0nLsKvSunT1r/+MFFDO8zCH9cD1LdMjWvivUHfkGDVG+bUWAZwrPlCKxcMAzlLTMknnrsg5nt3sDqm/GqLhPb0hi/aA0GNCudAVksNn/aFVO/vwqlH83qYMPJ79AspWv/bpuKwZO34KH6pRFe7rsAKye1gV26JF/x8PruC7SdsCW17rfGrsOC4U2gFlFmEljFUb3LWCyf2R/uGbM63D2MZl0/hG9w8gY3LuV7Y+ueaSiTZjVmyK3T2L77GAwdyqBGxfKoULMy7LJIWp8fc4PXIAESePEEKLBe/BgUyhZQYCUPGwVW1tNXI7Dki4h8EZCb24xFliLITbAm/0jVqtWwePGi1ITraY/PrcCSuhZ/vRgrlq9QN78ilCSfVvPmzXHlyhVIVNTdO3fh7uEOUxNT9WVHW4ElYy9S6ocfflBfimR5g/TTo7QHZAdFeYK8c+dOfPbZZ+oG3cbGRn0xatCwAQyLGeLggYPwuuKllrDIE////e9/qFWrVqF8P2CjSYAESEBXBLQRWCJH5KGCRPjI50XaIp8FZcuWVdFAIkDkc+f27dvq4YO8N6ctZmZmqFOnjnpPzirSpygKLOEjfCMjI3Hs2DHs2r0b3re8U9kJ01Lu7oqxfM4VL15CiSdHJ0d4lPKAq4tLKkuRVrdu38K9e35qvEQgysYmEpF15+5dJR81u0KKeKxdu7Zagli9evUs7yN0NefS13Mfc1u2wLJbKcv7zMrjq61r0LNGyUyXC7h4CBv/uoVqtV5GlVJ2MLdxhKOVyZPjkpIQHxeDqOhEmFubZ172lvQAi3r0w+L/bqhzjEtYYvGu02iTuqIvg8CyrI11hzaihW3m3J4JV3eiVvuPERWf3O7KTUdi3dqRcM5ih8Nrh1bhvaFz4RcrRxrhvc1emNIoudlrRjbDjD3JD/jg/Dr2H16Oimm6pOlcUtRxvFujD46l/KB2+4+wZv5Q2IroyiiwStbHjm3LUcc9i9xVgafQtf0gnE6JwDIsbo/2H07F7EFtYKLCxlhIgARIID0BCizOCK0IUGAlY6PAynr6aARWxi8SaY+Wm1N7e3t109uqVSt07do12xvU3AosqV+zfHDPnj1qKUraIqJJnuKKVFq0aBEOHDigtcCSeq9fv44pU6bg/PnzqTfzlStXxrZt36FEieScV/Lf69Z9q5araGSdpk3SHokMGDRoENq0aZMvSyO0esHzJBIgARLIJwLaCiyRIBqBpYkOkiaLiNIILPnckYcn8n4sSw01kVqarskDF5EmFFiZB1uTN+zwX4exd98+JQGFpURaNahfH6+99hrKlC6jIt6EuXy+SSRW2uWYUkfaqCtNzrKz587h559/UtFd8jNra2vUrVsXbVq3RuVKlVV0V76VsGPoUqcfzqRc0LFOe3z/zRyUUWbm2UtsxANcPHceN2/ewm2/MCTrJSM4lXWDk40R/ly4GD9fT07K/jSBZfpSd5ze9gXMTDJu+wfc/XU+Wo5YgRR/BSuXCqha3jF56WCGEh3uj8uXb6XmyWoy829s6iVrHwMxoVVjbLuZcoKlK5rUKptNpyPhdfQ8QlJ+W+6V3ti0dBpcJMgsg8Byrt8VP66aiZJWWbUmAr9PH4IPN5xETNrUXgYm8KheD680aYwaVcrCrUw51KziCXPthuHZB45nkAAJFFgCFFgFdmgKdsMosJLHhwIr63kqT2ol4imn/BimJiawtraBs4sz5Kl3TkWekl++fFklkZWkryVLZn4SmvZ8OU6uf/z4cbVMRM53cXVBi+YtUKNmDdjb2Sv5JF94ZDck+XKTtgQFB8H7pre6CZcnvznlpZKnyF6XvVQulSQkolq16uoJvubpvTCQZPHSnqNHj6onzFJka3GRabJsUtrApYMF+z2PrSMBEsgfAtoILGmZPLy4ePGiSh4uYkWKvK/K54s8KJD3XHlflgcJcox8psjDEY3skghaEVey1FvO4RLC7D/fJXpYIprPnT+vPpflM7JO7Tpo164tqlapmqtcjsI9NCwMx479jX0ixO7cUWNha2ODV199DS1few3u7u75GHmV0t9r36Na64lIXtAGVHtjCL5dNA6OmfdheeoLIvr2PowfuxRHvLwRFpM+2k8zP2W5YWLKMtanCSyn5gNx+JvxKG6syVilaUIiTm+cju7TtiAhh138smtw7UmH8OMA2cbwDPpU6Y6jyS+fZyqlm3bDlmVfoqTkoM8gsMq+0hvblk6DU3a3eo/8sXrGGMz77hRis2q/gSHM7V1RvXYjfDRhAuqXsXymtvFgEiAB/SJAgaVf45lvvaHASkZNgZVvU44XIgESIAESKAIEtBVYIqZESMnDBNk1Tx4eSOSOPPSQRO5pH5SI4JIHC7du3VLiS2SV5L8qX768+ju7ROFFdQlh2mknkknufe76+OCXnb+oB0XCXZbN16xRE2+99RZqv/SSYp/dgxmpQxLu/3ngAPbs3aOEovzMzc0Nbdu2Q6OGDeHk6JhtMv08fRlc3YbKbSZD43CqthqMdYs/fmaBFXPvOAZ2G4Zj9zWR4AYobmYJK2tLGMTHIOZRJCKjY5GQZiNC7QVWAv5bPx09P9+aKrCsnUvD0TJ3iaLqj92CmW9Kcvn/0LtSLxxL2aiwuLUT3B2zWPaXxQCUbtABsycOhb2IvmcVWFJfYiwu7vkWs7/ZBf/IaESEhyM8Igqx8ek3CjCv2gk/b5uD8hYZJV6ezgpWTgIkUIAIUGAVoMEoTE2hwKLAKkzzlW0lARIgARIoHAS0FVjqO3BioooIktxKIrBEqsiywIwyRSNhREhpBJYcJ/mcstuBUOqnwHoyh0Ri+fj6Qpbr/33sb5XP0cTYBOXLl0PrN1ujadOm2SZdlzH++ZdfcPDQQZVQ38TYOFletWuHRg0aqlxaOY1Dns7kyOPoVbMPjqdcxP6ltti+eh7KZpU1XKKFsvEovy8fi1HzdyI6RVCVeWUQPu7THOXKuqNYdChCAv3he/8O9iz7FgfvBqqraS+wgDu/zsfraZYQthq/FYv7Vc+ueekQGhoXh7Fa3ReIT19vjO9Sdl8s1WYcfpvfL1e4ixkawyS5Eu0EluYqSYmICg2Ez51buOXjB/9bp/Dduh24Fv5EZFUe+QP2jKmFzAspc9VUHkQCJFDICVBgFfIBfFHNp8BKI7C+XY1du3aqH3Ts2Bnv9R/w3MMiN9dr1q7G7t3J9Xbu1AX9+r2n8kmwkAAJkAAJkIC+EngegaVhosk3qNnNLidWmmOzi7pKey4FVnqSmuWYfx74E7/9/rva3VckYNs2bdGvb99slxLK7rxz581NXuKfkKDyXXXq2BGSQ9LC3OIFL6n3w1fNX8Eq35S1bOaVMP+7NehS1TnTNPL6dTn6Tv4WtVq+i17d2qBezXKwMhatkoQFHzTHkt9SkqGjAr4+uRft7TNU8cgbH/caiB8u+KpfPI/Aivf6GTU6jEdMSkiXZ/2+WPftJJQqkdmwPQy5h4ePSsDewQLGxkYwMnyigr4Z1hhf/pos1FC8ATad2YgmppnrSIoLwbmLYShToSTMTY1hZGQIA81hzxCBlZiYvAOlCOdH4eEwtCoJG/P0nG4e2YD+w76Ab1Tyz80rjcaBfcMhWbtYSIAEih4BCqyiN+Y66TEFVjJGeQK5ZctG7Ny1U+XckFxGrq4552fK7QD4+d1TyyDkCXLnzl3Rs0cvCqzcwuNxJEACJEAChZKALgSWJq9VbnILPsuxFFiZp5TkmDx37hy2ffcdzp0/p5b+derUCR07dFT5q4Sv/EkrE0PDQrFmzRoc/ftvtetgxw4d0LVLV7WxS27GLK8nttfad9B5xsnUZYR2dXtg2fzPUN/DLDWiKSHkDD4Z9CF+PnM/JTG7MdrNP4SlnUWrJGHBoOZY8qdGYNXC2ks/4NUS6Vt+6/A69Bs9Bz7hyWv2nkdg4fFdfNH2Taz1Ts61ZWjhjD6fzMWEdxshbQr8hLCL+HzESGw+5gsz1/Jo2H4AlnzaDZp9DY9vnYjBk79HRErkWOk3x2D1zEEonyYCLSk2HLuXjMeHy/6EkaUjatVuiMHjp+GNKinLDZ9BYF3YtxrTF36LK3eDEfU4Aa98uA5fj2wCyzT53h+c24133/8E14OTOZmXHozfDn4M3dxt5/VsYv0kQAK6JkCBpWuiRaQ+CqzkgU5IiMehQwfx40871K5GeVHKlCmDt9/uhmZNW7y4kPq86BjrJAESIAESIIEMBJ5XYIksESmiyYGVU+SyHCPHijSRh0VPkycUWJmnqzD85/g/SmBdu3YNVapUQc/uPdQmJcJe+MrGLvLflpaWirH8e/ee3fjp559V/qyWr7VUEVuOjo4F4vXwOOw2PuzeDvtvPE5pTzFYOJVCk3Zvo0fD8rhxdh82fP8n/IKjUuQVALcOOHBgPsqqtFNJWDPhbcz47nzK+Yao3O0LbJ7RDckeKAGh57eif//ZuBAWA03e8ucSWEhCzNHJeLnvd0gJVIKhqTnKNWiLcR8OQJ3StrhxdAumzduA6/fCkLwgzxB135uB7ZPfThVzj279jV79R+C8T2Ry2w0M4VC+Lj4YOgJvNquIRL9T+GbOXPxw4i5i4lIsl2FtbPxnG5o6pERyPYPACjixDe0HTUNgRHKLiplYo2nX9zFxRDfYmzzG3TP7sXDW/3DsVlhqfq+SA7bhyKS6XEJYIF4tbAQJ5D8BCqz8Z64XV6TASh5GuVEODgnG0aN/4chff6nw+bj4lOyXzzzSBk/Cr+VJnJERnF1c0aLFK2jSpCnsbO2eenP9zJfkCSRAAiRAAiRQgAhoK7Dk81jyWUly9uDg4NQcWC4uLio6WqKBNEWihuQYOVaTA0vyLknCd8mFlZ3IosDKPFHknmfP7j34YccPeBAYiMaNG+Pd3u+ipKuriiI/dfq02h1Skug3aNAANWvUUDnJLl2+hKX/+5+6b6pcqRLGjBmD0h6lC8ZMTErAmZ1fY/AnKxCkkTQ5tMzEwgPDFyzHh69XTD3q8u7FePfjZQiN1WRpLwYr1zKoXtYJgb5XccMnFEkwUBLm+Xch1Fw2Dqs/6YG5P17A4zTJ4bNruoVnE3z9v4V4tZIkcNeUxzi18XMMnfkdAjX+Loe+G1mWRM+vNuKLth5PjnoGgYX4AGwa/QE+33sRubl7LlGyEZb/sgEtMi7HLBgzh60gARLIBwIUWPkAWR8vQYGVflRDQkLg738PEZGRSEy7pcxzDL6hYTFYWFqipKsbbG3T3lw8R6U8lQRIgARIgAQKMAFtBZZE+sgOhD4+PiqJuwgtSQQun58VKlSAiCwRU/Jz+cy+cuUKJBeTRBBJkdxNkki8UqVKKhorq0KBlZmKRFBt3rIFe/bsViJGdiF8u+vbuHLFC4cOHVZj8iDwgRKI7m7uqFmzBho2aKjGZc68uer39nb2+GzCBJUD64Ulb8/YtfhIXNi3HCM/W4U7mpCmrCZFMSv0+3INPu5UE+YmT3JJJTwKwPeT+uOzn29k+2qr+EoXVPA7gT3Xnj8HluYij0JuY+vnwzBj5/UcX+VGpZpiwf9mo001JxhlTHGVEIV/f1mF8V+swJ3w7E2YgbEZ3hm/BJP6N0PxYmkqeRaBJfFoD32wYspwLNrlhXhNOFoWrTdzqIKJCxfhnSaeBfgdjE0jARLIawIUWHlNWE/rp8DS04Flt0iABEiABEjgBRLQVmCJSDlz5gxCQ0PVboSaIkvXypUrpySWRP5I7sq7d+/Cy8tLLW/TFJFbFhYWKqG4RGNlldSdAivzxBCW6zdswJGjR5QErFmjJkqVcldRV7du31a8haUmF5YsIyxfrryKujpx8oQ6pnjx4hjQ/z00a9YM1tbWL3D2Zb500LWjmDd7GU7f8kdY5CPEJyYBBkYwt7CCc7laGDLuE7SqnF040CPsWTIdK3efxoOQcDyWU2EMKzsHVGwzErNH1sWvk6di8yUfdWEjUzOMW7QZTdw07biCqR0m4HTKP+3qdMSqSf1gmsk4ZW735X0r8NWaPfAJCEVk9GO11LGYoQksrGxQpnYrTPh4ECo5muXAOgnh1w9i8uSvcSUwHMHhUSlLHYvBzNIKdu6V0WvkFHSv74A06aqS6ws9gRH9voImsYbby63x5SdDYFc8h8s9fog/ti3G/7YdR3BYKCIfJ+fygqEpbK1t4V63FcaPHYqqDtzMqEC9QNgYEngBBCiwXgB0fbgkBZY+jCL7QAIkQAIkQAIFi4A2AksTVSUCS0RW2iJiSnJJSmSVLGOTJYO3bt1S+Zo00Vea40XA1K5dWy05pMDK3bw4+d9JbN26FRcvXVJRVsJQBKJEwQl7yWsl7IW7RL3J+ApbicASuSX/FrH4esuW6NK5C9zd3XN34fw8KikREYH3cOd+MB7HJwLFTOHg4gZXJxuoTQdzKkmJeBQehLt3fPFIgv0MSsC9XFk4WhVPzTuVV11JjI9GgM9dBIQm5+qSnFjOJUvDybZ47vNHJSUhIsgXN3yDlIQEjGDr6gZ3JzsYG2benfB5+5IQGwW/u3cRGBGdXJWpFTzc3WBvVSJdmo3nvQ7PJwESKLwEKLAK79i90JZTYL1Q/Lw4CZAACZAACeglAW0EloCQ80RgyfLAtBFYIlXKly+v/sh/S/4rWWYoEVgiVTRFpIqVlZUSWBKBlVUeLInAWrJ0CQ4dPqzkl+RzqlKlap6Mw6VLF5UUkiV1rV5vhWFDh6pIpYJWdu3apfJf+d/X7LgHxU4YVqtaFXXq1FECS9idOXMW/536TwlEkVeaIuMixwx+f5BaRshCAiRAAiRAAtkRoMDi3NCKAAWWVth4EgmQAAmQAAmQQA4EtBVYGjElckSisERiyfJBiaYSeWVvb58qpcLDw3H9+nX4+/srkaJZPujh4YGyZcuqiKCsigiv7du3Y++v+1QS+PwoDg4OaN/uLXTt2jXbduVHO7K6hjBft24ddu7elSoDzc3MIBxFXEmuK4l+k5xiIvzCwsNx6eJFnD1/Dsf/OY6Q0GTZKPJQlm+OGzsW9evVzzL67UX1kdclARIgARIoWAQosArWeBSa1lBgFZqhYkNJgARIgARIoNAQ0FZgyfImkVEBAQEqD5YIExEnIrBkuVra5OAiTURiybHR0dGpEUOS6F3OyW4XQqnz+o0b2LdvL/49cQJhYWHpor10CVmzzK5hgwZo06Ytynl6FpwE5ym7MIeEhuKb1d/gwIEDqm3OTk6oXbsO6tevh4oVKsLOLvPuyWoHSLV78984f/48rly9ooSjsB018kO0bNmyQEaa6XJsWRcJkAAJkID2BCiwtGdXpM+kwCrSw8/OkwAJkAAJkECeENBWYKVtjIgsTQRWTrvayTGapWwSdZWduEpbt5wj0Vtnz51FYOCTXQx1DUPa7eTkiNov1VZJ6LPKyaXraz5LffEJCbh8+ZLagfDOnTuoWKEC6tSug5dffjlXeaxEZF27fg3/HD+uln7evn0bHTt0QKdOneDo4PgsTeGxJEACJEACRYgABVYRGmxddpUCS5c0WRcJkAAJkAAJkIAQ0IXAymuSIrEkYkizs15eXE9kmvwRkVXQ5JX0V8Tf0b//xqlT/8HR0QkSKVa6dGm1zDG37RWJJZFwF2RZ4bmzMDUxRds2bVQ9LCRAAiRAAiSQFQEKLM4LrQhQYGmFjSeRAAmQAAmQAAnkQKAwCCwOIJTAu3r1KhISE1Dao7RKgK9tEREYGRmJy15eKFO6NJydnbWtiueRAAmQAAnoOQEKLD0f4LzqHgVWXpFlvSRAAiRAAiRQdAlQYBWesZcIKikSJZab5Zc59UwkltRXUCPOCs+osKUkQAIkoN8EKLD0e3zzrHcUWHmGlhWTAAmQAAmQQJElQIFVZIeeHScBEiABEiCBpxKgwHoqIh6QFQEKLM4LEiABEiABEiABXROgwNI1UdZHAiRAAiRAAvpDgAJLf8YyX3tCgZWvuHkxEiABEiABEigSBCiwisQws5MkQAIkQAIkoBUBCiytsPEkCizOARIgARIgARIgAV0ToMDSNVHWRwIkQAIkQAL6Q4ACS3/GMl97QoGVr7h5MRIgARIgARIoEgQosIrEMLOTJEACJEACJKAVAQosrbDxJAoszgESIAESIAESIAFdE6DA0jVR1kcCJEACJEAC+kOAAkt/xjJfe0KBla+4eTESIAESIAESKBIEKLCKxDCzkyRAAiRAAiSgFQEKLK2w8SQKLM4BEiABEiABEiABXROgwNI1UdZHAiRAAiRAAvpDgAJLf8YyX3tCgZWvuHkxEiABEiABEigSBCiwisQws5MkQAIkQAIkoBUBCiytsPEkCizOARIgARIgARIgAV0ToMDSNVHWRwIkQAIkQAL6Q4ACS3/GMl97QoGVr7h5MRIgARIgARIoEgQosIrEMLOTJEACJEACJKAVAQosrbDxJAoszgESIAESIAESIAFdE6DA0jVR1kcCJEACJEAC+kOAAkt/xjJfe0KBla+4eTESIAESIAESKBIEKLCKxDCzkyRAAiRAAiSgFQEKLK2w8SQKLM4BEiABEiABEiABXROgwNI1UdZHAiRAAiRAAvpDgAJLf8YyX3tCgZWvuHkxEiABEiABEigSBCiwisQws5MkQAIkQAIkoBUBCiytsPEkCizOARIgARIgARIgAV0ToMDSNVHWRwIkQAIkQAL6Q+D/2jsP8CiLtm1fu+md9A6EIAQQVARBRJEmYHlFQYPSFAtFQAREBQURwSAIIlUBURFEpBeVFhT0exUVaQFeSiAkIb0nm2TT/n9md0NI3YQkbLnmOBDdzDPlvJ+Ew5N77qHAMp1YNupOKLAaFTcnIwESIAESIAGzIECBZRZh5iZJgARIgARIoE4EKLDqhI0PUWDxHSABEiABEiABEqhvAhRY9U2U45EACZCHOuyqAAAgAElEQVQACZCA6RCgwDKdWDbqTiiwGhU3JyMBEiABEiABsyBAgWUWYeYmSYAESIAESKBOBCiw6oSND1Fg8R0gARIgARIgARKobwIUWPVNlOORAAmQAAmQgOkQoMAynVg26k4osBoVNycjARIgARIgAbMgQIFlFmHmJkmABEiABEigTgQosOqEjQ9RYPEdIAESIAESIAESqG8CFFj1TZTjkQAJkAAJkIDpEKDAMp1YNupOKLAaFTcnIwESIAESIAGzIECBZRZh5iZJgARIgARIoE4EKLDqhI0PUWDxHSABEiABEiABEqhvApmZWUhPT4eDgz18fTxRIiYokf9kIwESIAESIAESMHMCFFhm/gLUdfsUWHUlx+dIgARIgARIgASqIpCenoa467HIz89HQWEhioqKUEKBxReGBEiABEiABEgAAAUWX4M6EaDAqhM2PkQCJEACJEACJFANgaysDCQnJUGtVqOwqBDFxcUoKS7RZGJp/0mAJEACJEACJEAC5kmAAss8437Lu6bAumWEHIAESIAESIAESKAcAZUqB5kZaaXZV8XFQl2V8Bgh3xQSIAESIAESIAFmYPEdqBsBCqy6ceNTJEACJEACJEACVRNQq/OgyslBkcy+EplXJTxCyBeGBEiABEiABEhAEmAGFl+EOhGgwKoTNj5EAiRAAiRAAiRQDYGiwgIIiVVcohVX8nfdAyzmzpeHBEiABEiABMyZAAWWOUf/FvZOgXUL8PgoCZAACZAACZBApQRKSopk9pUo3C6Lt7OAO98UEiABEiABEiABLQEKLL4KdSJAgVUnbGbz0OlTpzHqpVHIzMyUew4dEoqZ782EpaWlXgyuRV/DCyNfQGxsrOzfr18/fPLJJ7CystLreXYiARIgARIwVgJCWhVpyrVTXhlrELluEiABEiABEmgQAhRYDYLV9AelwDL9GN/KDssLrGbNmmHN2jVoGthUr2F37dqJ996biby8PAosvYixEwmQAAmYBgGFAlAomHllGtHkLkiABEiABEigfglQYNUvT7MZjQLLbEJdp42WF1i2tnaYN28uHnvsMb3Ge+ONN/Djjz+W9mUGll7Y2IkESIAEjJ6AUgEolUa/DW6ABEiABEiABEigAQhQYDUAVHMYkgKr8igXFxejqKgISqUSFhYWdXoVCgs1tT/E82IcY2w6gZWTkyOP/eXn52PQoEGYO3dujdu5fv06QkNDkZSUBAcHB2RnZ/MIYY3U2IEESIAETIOA+GPPQlgsNhIgARIgARIgARIoR4ACi69EnQhQYFWOLSY2BleuXIG3tzda3dGqTmxPnTyJlJRktAoJgb+ff53GuN0P6QSWEHCdOnfGwQMH4O/vj82bN8PDw6Pa5X3xxRdYtGgRfHx8EBISgsOHD1Ng3e6Acn4SIAESaCQCQl5ZWFBgNRJuTkMCJEACJEACRkWAAsuowmU4i6XAqhgLkTl06NABHP/3HwQ1D0bfRx5By+CWehceF1lKERFnsG//zxBjdenSFb179YGvr6/hBF7PlegElija/vZbbyNsfhjS0tIwZ84cDB48GApR5KSSJvoMHToMkZGXMfKFkVDnqbHxu43VCiyRsXbt2jX88d8/EH44HJcvX4aLiwu6d++OXr16o2XLYDg7O1eYTWS5JSYmIjU1VX5dcI6JicGh8HAcDg+HAgqMnzAenTt3Ln1WPBMfH4+//voLBw4cwLlz52BtbY0uXbqgT58+CGndGm7u7lXuT0987EYCJEACZkuAAstsQ8+NkwAJkAAJkECNBCiwakTEDpURoMC6mYoQG2fPRuCHH77H3//8LQVKx46d8OiAR9GmTVu9XqLj//yNPXt3I+JsBMTRu86d7sMzz4airZ7P6zVJI3XSCSzB5bMlS7Dnx73YumUr2t3ZDl9/9RWcnCoKJbG033/7DWPHjYOdnR2WLVuGH/f+WK3AysjIkP327t2LlJSUCrsTxxe7du2CN998C61b35wRJ8TX/LD5+Gb9NxgwYICsz7Vw4UJERUVprm4H8O6MdzF8xHD57wUFavzwwxZ8++23iIyMLO2jm1RIuQ4dOuCNSZNwf7dujUSa05AACZCAaRGgwDKteHI3JEACJEACJFCfBCiw6pOmGY1FgVUx2KJm09Gjv+LgwQMQRwlF/aYuXe7HowMeQ1BQUJWZWGq1GufORmDPj3tw4sQJqNX5CPAPQJ++ffFg9x41HrkzxNdOJ7AKCgqw5NMlsLaxxrhxr6GwsABff/01OnbsWGHZonbYwk8WYt2X63D33Xdj5cqVmDZtGo4cOVJpBlZubi7ef/997NixQ2Y8Cd5du3RF30f64sLFCzh44CBiY2MhRJW9vb0UT+3atSudt6zAEmIt7nochBBzcnKCp6cn0tPT8dq41/Dc88/JZ7Zv347Zs2fLmxEdHR1lxpXI8kpLTcOuPbtw/tx5iFg6Ojlh/TffoG1b/cSlIcaPayIBEiCB20WAAut2kee8JEACJEACJGD4BCiwDD9GBrlCCqzKwyIk1m+/HZESK+pa1I1MrEcfQ0jrkApHy4S0OXXyBHbt3omz587KzKvmzZqjT99H0P2B7vDw8DTI+Ne0qPICSwii0aNHIyIiAmPHjJVH88oXuc/MzMSoUaNw+vRpvPbaa/LXmDFjqhRYP/zwA+bNmwchyQYOHAhxc6G7u3vp0sTne/fswadLliAuLg69e/fGggULpOgSrazAEv9ta2uLSZMm4dlnn5V9RBaWONYpPo+JjsGol0bJ7KyePXvinXfeQbNmzW6SYUK0hYWFyT6d7+uM5cuWy/izkQAJkAAJ6E+AAkt/VuxJAiRAAiRAAuZGgALL3CJeT/ulwKocpJAeycnJMhPrwIH9uB53XR6H69q1Gx599DEENb+RiSUEy9mICOzeuwsnReZVgVoWbRe1s0TmlZAxVdWKqqcwNtgw5QXWA90fkPLoq6++kjWlRKF2kRVVtv33v/+VwkqIJVHsXWRLvfLKK5UKrMyMDDwbOgRXrkSiU6dOWL58GZo0ca2wH3Er5IYNG/Dhhx9KKfXFF5+jUydNTauyAktwHj9+AsaOHVNBrAnJOGvmLPyw5Qf4+flh48YN8PX1q5SdkGoffPCBzLb77LPPZIYWGwmQAAmQgP4EKLD0Z8WeJEACJEACJGBuBCiwzC3i9bRfCqzqQeoysQ4c3C8LjIsi4aKm1aOPPo7g4GCZ3XM24gx27tqBMxFnoFKpZEZPX5l59aDRZl7pqJQXWD0e7oE//vgDL730Emxt7bB2zRrcfc/dpRCFTBLHBUUtq65d78fnn6+SmU9VCazw8HCZoSWKxK9YsQIPPvhglQERsQgNDZXHCYeEDsGs92dB3I5YVmCJAu4bN2yAn3/FWx9F9pZ4XozzxuQ38Oorr1Y516VLl+SaExISMWXKZLlfNhIgARIgAf0JUGDpz4o9SYAESIAESMDcCFBgmVvE62m/FFjVgxSCKiUlGUeO/Ir9+/chPiFeChmRidWnVx/k5uXK2wZPnjwhj8D5+vjikX798NCDPeDmZryZV9UJLHE8csSIEfIY4TP//ybC2R98IEWSaFcir2DQ4EGyhpQopN6/f3/5eWUCS2RVzf94Pr5a9xWCWwZj8/ebZU2qqpqIxYx3Z8gi8kIe/rB5MxwcHW8SWPfeey/WrFlTIStMjPl///0/jH51NKBQYOLECejQvkOVc4m6WZ8s/ATXoq9hxPARmD5jej19x3EYEiABEjAPAhRY5hFn7pIESIAESIAE6kKAAqsu1PgMKLD0ewnEccIjR3/Bgf37ZWF3e3sHeTROyJzLly/JGkuBAYFSXumODeo3smH3qiwDS6x4y5YtmDlzJlxdXeW/i8wnIZhEYfePPvoIrVq3wrfrvy2tHVWZwBLC76233tJma3WVz9bUvv7qa8z7aB7c3Nywbds2OW/ZDKyuXbti1apV8rhn+fbTTz9h6tSpsn9t2jPPPCOPLrKRAAmQAAnoT4ACS39W7EkCJEACJEAC5kaAAsvcIl5P+6XA0g+kyBZKS0vDr78exr79+5CQEC/rWglpI5ou8+rhHj3h4tKkNCNJv9ENt1dVAislJQVDhgyRxyqF3Bk8eLCUeZMnT5a1roYOHYrp06eX1qGqTGDl5eZh7NixMjNKiCd9BNbBgwflkUNxw+C27dvQNLCpXgJLxEnU4xK3D4pssTYhIbDXFoGviX6fvn0wfNjwmrrx6yRAAiRAAmUIUGDxdSABEiABEiABEqiKAAUW3406EaDAqh22tLRUHD4cjp9//kkeJ9TJq/4DBuDhHr1kRpIptaoEliiI/t5772Hr1q3o178f5oeF4WpUlDwqmJGegcWLF6NPnz6lKCoTWCITSowhMqm6dOkiBVZNxe5XrVyFxZ8uhpeXN3bs2C4L5OubgXXgwAF5w6G4UXDt2rUICQkxpVBxLyRAAiRgUAQosAwqHFwMCZAACZAACRgUAQosgwqH8SyGAqt2sRKZWKI+0uFfDiE8/BAUCiV69+qNHj16okkT08m80lGpSmCJr+/evVtmWXl6esrbCA//chiLFy1GQEAgNmz4Vn6ua5UJLJEVJW74E8XbAwMDIW7+q04AClE1adIkCBEljm+KWwnFUUF9BdY///yDF198UUqyxYsWoVfv3rULPnuTAAmQAAnoTYACS29U7EgCJEACJEACZkeAAsvsQl4/G6bAqgPHEiA9Iw3Hjv0pZch993WRxwZNsVUnsK5fv47nn39e3ur39ttvY/u27Yg4G4Hx48fLX2Wzqaq6hVBIpeHDh0OIQVH0/fHHH68SY+TlSDz19FPIy8uT40+YMEH21VdgiWOPoUNCEX0tGs8PfR6zZs6qcq7s7GxcuxaF1q1DSo9BmmJ8uScSIAESaCgCFFgNRZbjkgAJkAAJkIDxE6DAMv4Y3pYdUGDVDbsQLqJwu2g2NjYmU/OqPI3qBJY4RigKtq9fv17WpFKpVPJ43nfffYfmzZvfNFRVAkswFDWtjh49ipYt78CSJZ+iZcuWFYKSm5uLjxd8jI0bNsrMrtVrVqNNSJtaCSyR8fX5qs+x5LMlcHBwwKdLPkW3+7tViJ3oJ/b0ySefoIlLE3z55ZfylkQ2EiABEiAB/QlQYOnPij1JgARIgARIwNwIUGCZW8Trab8UWPUE0kSHqU5giS2fPXsWw4YPQ052jiTQv39/Wf9KFEov26oSWKLPkaNHMHXKVGRmZaJtm7ay0Hr79u1LHxdHNkV21p49e2T21bBhw+TthVZWVrUSWKJzZmamPEZ45swZ+Pv7Y8aMGejVq1dptpi4GXHTpk1YunQpMjIyMHDgQMyZMwfW1tYmGmFuiwRIgAQahgAFVsNw5agkQAIkQAIkYAoEKLBMIYq3YQ8UWLcBuhFNWZPAEploQk799ttvMhNt5qyZGDxocIUdViewhDQSNbTWrFkjs7hECwoKkr9ysrNx+vQZqHJV8ihfp06dpCATxdt1Td8jhLr+x44dwzvvvIOYmBj5ka+vryzorgBw8tQpiKOGQsDdc889WL58GVxd3YwoYlwqCZAACRgGAQosw4gDV0ECJEACJEAChkiAAssQo2IEa6LAMoIg3cYl1iSwxNJEMfWwsDB4eHhg9erVlR4BrE5giTEKCtQ4fPgXKbFOnjxZYcfOzs4Y+cJIDBs6TBbLL9tqK7DE0ceIiAisW7cO+/fvlzW0yjZLS0sMfGogxoweI4vLs5EACZAACdSegDEILPGXMOLPBPF7QzbxlyLiL2HKZyc35JwNMXZxSYn8y56abgxuiLk5JgmQAAmQgGkRoMAyrXg22m4osBoNNSfSg4D4n4hr165h/779SM9Il8cEO97TEd0e6FZ6ZFCPYfTqImpdxcbG4MeffkJ6Wrp8plXrVujVsxeEMGMjARIgARKoOwFDF1jiz5u0tDR5EYkqNxfiz4SGaEL22NvZwdPLC65GfFux+MsewcnCQgl7O3tKrIZ4WTgmCZAACZgRAQosMwp2fW6VAqs+aXIsEiABEiABEiABQcCQBZaQVampqYiPj0dmVpbMwmrIJrKvxF+M+Pr4wNXV1SjlT05ODhISEmBrZwsfbx+jzyZryHhzbBIgARIggZoJUGDVzIg9KiFAgcXXggRIgARIgARIoL4JGLLAEsLqalQUkpISUVjYsPJKx9XS0gLeXt5o1qyZ0ckfka0m6kNGXrkCF2dnBAcHQxy351HC+v6u4XgkQAIkYD4EKLDMJ9b1ulMKrHrFycFIgARIgARIgAQMPANLCKxLly4hKTlZxsrL01PWcWyIJo4oinkUCjGPF1q0aCHrYRlTEzcAx8bGyow1Ozs7BAQGwt3Nzej2YUzMuVYSIAESMHUCFFimHuEG2h8FVgOB5bAkQAIkQAIkYMYEDD0D6+KlS0jWCqxmTZs22KUdoq7jtejoUlEmspeMTWBlZmUiMjIS2dk5cu0uLi64o2XLeq9NacbfLtw6CZAACZgdAQosswt5/WyYAqt+OHIUEiABEiABEiCBGwQosDQsjF1gqdVqWeg+JjYGBQWaW3ttbW2lwBJ1vXiMkN/1JEACJEACdSFAgVUXanwGFFh8CUiABEiABEiABOqbAAWWaQiszMxMRF2LQmZmVulNjaL+lShI7+/vL2thsZEACZAACZBAbQlQYNWWGPtLAhRYfBFIgARIgARIgATqmwAFlvELLFErTNw8KLLICouKoBSFvACUAHBydJT1vBwcHJiFVd/fPByPBEiABMyAAAWWGQS5IbZIgdUQVDkmCZAACZAACZg3AQos4xdYKpUKMTExSExKgrhF0c7WTmZh5ahUsLKyhL+fP7y9vY0nC6tIjZiLEYg4dxaR8dmwdXZD0+C2uOvO1nB3tIRGz1Xf8jLjcOZkBC787xIyCqzhGeiNgGbt0L5VIBxsalecvyQ/C2f++R1/n4yC0q05Hn6iH5rZV5y/KDcd547/jVOXo5GRkw8nj+Zo1f5OdGgZAFt9E+BK1Ig+fwoR//sfrsRlwcLJE8FBd+CuDq3h4WRT07Zv+npRfjpO//Ebjp29Dnu3lugb2gve5UbITY3G8VNncPlcFHKUtvAJCESrdu3RqqknrJT6kK7VktiZBEjACAlQYBlh0AxhyRRYhhAFroEESIAESIAETIsABZZxC6zi4mKkpKTI7KvcvDw4OjjA19cXQmpdj4uT2ViimLsoSm9jUzsBcjve9Ni/tmLM63NxPkmF4pJilIg0MgAKpRJKG3f8563PEDb8XlhVsbji3CR8v+BNzNrwJwSb4mLNAKIGmEIhxvDCi3O+wNSBrWFVwc/8i1Gth+I3+YQlHnpxFlZO7YEPnnsU353I0I4ViLlHDuE5/5sX8M+m2ZgYthkJOYWlc4orLZUKJRy822LGkqV49l6/apCWIPX0Drzw4gycyygus3cFFEoFlJYO6DpqMZZPfgjO5f1bUjge6z4eF7WjP/z8XHw6JQTvDgnFrvP5KJYQ78SXl7fhYW0fwWn97Ncxd9u/Gk5a0JKTUgnH4Eew6tsl6Op+O94CzkkCJGBIBCiwDCkaRrQWCiwjChaXSgIkQAIkQAJGQoACy3gElhAN4rigRswIuVOC/Px8eUujKOAuhImHuzuCgoIgbiS8EnkF+Wo1rK2tEBgQCAdHB1haWEIpZFCZX4ZQ4L0oOxa7Vy/E/NV7EJ9X/TdPswdH4rP5k9DBx/GmjlmXjmDWzJnY9UcsiqobwsoRD4+YgWUzBsPhpn7/YESLITgqP7PAA4NGos21nVjzV0qZXoGYezQcz2sFVtq1f7Fy5hSsPqK5wbLKprBDv3EfYfaYAfB2UN7crTAZe1cuwIdf7EB8TnE1g1ig1QPPYMGns9DBvUxKV9JB9OsyFhe0T3Yb8AJ843dj679l130n1kVulwKrOOEE3n/zTWz87Wq1nBw878R7yz5DaOdAI/lpxmWSAAk0BAEKrIagagZjUmCZQZC5RRIgARIgARJoZAIUWIYlsEQmTK5KhcLCQimrygor+d86iaUVWUJQ5ebmQtxCKDKs/P384Ofnh7y8PHmsMCk5CSXFJbCzt5e3ElpZ3hBYFpaWsCgjsiwsLGSmkij4LvpaW1s3zttYrMZPy6dj6pJdUGkzpqqdWGmFVqFzsG/uoBvdcqMw57nh+PJU3I3PLG3Q/K5uCLZNx/F/TyJNVUYOWTliyNJwfPSIa5mpygoswNbODgV5eSjSpYHJnmUFlhoLX+2HVYdiUKTNFINCCWePpujUyg5/n4hEZk5+6fhKGw+M+fhzvPlEhzJz5uHwJxMxYdVh5JS1bg5N0DqoOdSJF3ElMadMfwu495yFQ2ufg4vu03ICy9bGDgWFeSgqXZToqBNY6fjhtSF4+6fLKKVRyikFx/86gzS17isKOD4wGv+sn4JGehMa533jLCRAArUiQIFVK1zsrCNAgcV3gQRIgARIgARIoL4JUGAZmMAqLkZaWhrS0tOQnZ0NtboARUWaY2ki46qqJsSTs7MTmjdrDicnJ5mhlZGRgUuXLsksrOqaOGYopJWFpQWsLK3kkUNPT0/Y2dk1SuH33Pg/8eKgYfhT554UVgi692EMHfI0OgQ0QU78BezZvg3hf5xEms4HKQPxwc/7MLyl5jBh9K/rMOi1MCRpJVWzrs9h8cfTcE+ANkurOBd7lryD91b/jPQ8jSmybzsR4TsnwLv0SN7NAkt2UjigU/+BeP6ZfgiwKcbl0+fg//TLeNCjCAnbX0fPKfuQKztawLt1d0yb/zEGdnCDzLEqSMcv6z7Geyu2ISZTM6dXjzEIXzelNPMr7fxBDH1pCs7FqTSj2Pth2LQPMGPoQ7Cy0JxxvH5iN6a/NQe/XkzThtEe72/5HSM7avdWTmDJTlZu6NbvcTz3ZB942ytw+d/LaDNuKO5K/AtPPvEqTiVly26O3vdgybdr0CvYWTN2QSa+nv0q5m85DaV9E3i5d8SsXUvRw66+f/JwPBIgAWMhQIFlLJEysHVSYBlYQLgcEiABEiABEjABAhRYmiCKGlLXojXHwLw8PWXNKJGRdDtaQUEBUlJTkZSUiJzsHHmzoK6JCwYtlBZybeIYoKyPpFDC0soKTZo0ga+PT+m6xfFCsS9Vbi6KRcZWSQmKi4tkRpY8jij+vTRzCLC2soaLizO8PL2kxBLjN0Y7vuQxhC65gELtZEFPTMPa919AkGuZSleFmdgwdyI+/Pp36E4Ydp66HZvG3SllUWbcZZw4/T9cizyDI3+nY8i82ejldXOlrMKMi5g29CVsP6sxZdb2gVi9PxwPlZamKi+wrND5lU+xYnJfeNiUK5iV+z9M6vkkdiZqZZhfW4StXIsn2nuUQ1aI3R+PxJRVx1AgJ22HVcd2oJ/WFx1dOxmjP9qNXJn0ZI1H39+KBcNCYH8T+mLE7V+MbmNWlY7df9wqfDq1N2RVswoCyxF9pi7Cgld7okn54vHXfsWDgyYiJkUjzLyDn8HGPfPQokx5NFVqDE6ejYLSwRW+nh7w8PWC/e35VmiM149zkAAJ1ECAAouvSJ0IUGDVCRsfIgESIAESIAESqIYABZYGjiEJLLEeIZhEFlbc9ThZz0pXjFyIK0dHBzg5OsHK2krKKlHXShz3k0cEraxKs6bEGEJiieOEQoqJI4jid/FZVnYW8vLy5TyiidsK3d3c4ePjA0fHm2tLNeg3UHEUZnbrg/WJmlmUTdpjxZbV6NeiYvXwjKsnsPdkIu686160CXCFlWVVgq0ERQUFUBcUQVvCXbKytEjF0iEjsfgvTblzKzsnLNl9HANa6HZYTmC5dcPOo2vQwa5iyfj8U5vRftC7KNAe02vzwHgs/XQ4XCu5uO/qsU2Y8MZiXNdmjw1Zex4f9RRGqAjLX+6KheHpmgX4PoK9u+fApzLgBafw+v2vaAvMAx0eHY8vF70Od3G2r5zAUjZ/ED9tWopWXjdX+JLDpp3CyCdexJHrmZpZLO1xf+gEzHmpPxwc7OHk6AhbGyuInwtsJEACJCAIUGDxPagTAQqsOmHjQyRAAiRAAiRAAtUQoMDSwDE0gSXWJCVWWhoSEhKQlZ2NwoICecxPZEeJLCkhmoSwkv+DIVKzyvyuC7k4dqg7eqgr+p4qxoyPR15+PkQKlhBfbm5u8tigg4NDoxwbLH0l047iP/eOwmntBz6dn8T3X3yMpi51y/7Kjr+AnVt34kxkLJLSVVqBZQFnD1e4OFni3E/7cCwuVc5Wk8By6jwUf66fCTvrimu5+uNC9J34OQq15aLsXHzg7+2kOTpYrqlz0xEbm4QCbd+us4/iu+FCUyXirV4PYPNV7QN2TdAq0LOK79Y8XL8QDc3BPyDooSHYsHwOfIWjKiew/Lo9i60r58DHqbLV5OHM19Mx9IPdyCx7IlVhCfeAFmjT6g4EBviiRYdueGrAg3C35Y9PEiABcydAgWXub0Ad90+BVUdwfIwESIAESIAESKBKAhRYGjSGKLDEuoR0ysnJQVxcHIR4EhJLeAdx1M/P1w8uTZrAUo+jjuIZeWNhUhLi4uOQn6+GqH0lCr+LrCshrxqtaHvZt/HMegT954PST+4aMBFrF0/QZBbVsmWf/RJPPR2GS+qqa4WVHbImgeX10Ev4dfVbsLUqn41UhD+/nIWhc7+/Uby9Fmu9591fsG2UuMbwv3i2xQj8VYtndV2bdX8GG1fMg59IlisnsIIeHopNy96Hl33VAx9aMQ4TFh3QHl2svJ+DVwgWrv0a/du51WGFfIQESMBUCFBgmUokG3kfFFiNDJzTkQAJkAAJkIAZEKDAMmyBJVanOwooMrGSk5NlUXaRcCWOEXp5e8O1SZObjg6Wf22FBMvNy0NSYiISExOhLiiQWVaODg5SXonaWWWPHjbqax+5HR37TIOuPHmrXi/gm6Uz4F3LouEpZ3/GiyOm4XSqpqQ6FBZw8wlEi+BmUKpSkJIQi+iENKh1hbb0yMCqWmAV4+R3c8hWYRwAAA2ISURBVDDo3W9LBVZwlwG4t1klR/YqgRkyeAZe7CTM0xmM6vAUDmvTqtxbdkbvjs30wu8d8gBefv5xOFdyhFAfgYWSAkT9dRBb9v2JuMREXI28iMtR15GhUmuz1jTLsA3siqXrv0KfpiyCpVdg2IkETJAABZYJBrUxtkSB1RiUOQcJkAAJkAAJmBcBCizDF1hihUJCifpVIhMrKSkJarVGNIibAn28veHl5SVvEqysieeio6Ol/BL/Lo4h2ts7wN/PT8qr21WsXq4172+MbPscjmgX7tzuEWz7chGCPctUFddtSmy4itJMOxeOxrSV4dAlX7V/fgGWje+OJk72UBSqkZ+fi5zsGKx+/S1siNAU6697BhYQs28xer62ovQIYY8pG7B6zL2VHiEsHxOF0gKaElPJmNHvfmzUlOSCV9838H8rRuv1A0ihUEKpq1NVhwysG5OUoFCdj5zsbOSospF04TDmTf8YxxJvmD7voWvw+5weoMLSKzTsRAImR4ACy+RC2jgbosBqHM6chQRIgARIgATMiQAFlnEILJ3EEuIqOSUZ8fHxyM3Nk/JJ3DzYtGnTKm8NFM9cvHgRGZmZUoS5u7nBz89P1ru6rfJKok/B8ie6Y2GEVpjYBmLyytWY0CO4wrfhse/nYvRHW9GiYx/06nEf7u3RH12bi0ymEiwa/RCWHojXPtMWq07sLL3pTzdQUfp5TBz6Mn48l3DLAqvoyj7c328ikrRFsPw7PIU16+YipOzNidqJYyKO4N/LefAI8Jdx8vW4UStr/Zt9MGtrlCbryboNwvZ/j9CmFdPP8pMisPmnC/ALDkSzwGYI8POAraXW5tVCYKnSExAdHYPk9GxkZWQhoNOjuNPn5lpZMcd+wPDR7+FqhuaGRYegsThwaDJ8zekHI/dKAiRQSoACiy9DnQhQYNUJGx8iARIgARIgARKohgAFlvEILJ3EyszMRHRMNNLTM2BnaytllLe3d6nA0hVt1xV2F1lXUdeuyQwscROhyLwSz9yWmleVvIvRu15H/0k/QqX9mr3/fZi9fAWe7uBSmtFUELsXw4e8h2OxWdojbjYYtuYPzOmlFVivPISlh24IrJUndqK/882Tnd61EKPeXoPkPI2YuZUMLBQlYUXoQ1hwXCPelNaO6DHqAyyf9gTK6qfC+EN45bm3cCQqA1ZO7gh8aAT2LB0HXX7Zv7vC8PLUtUjV+ju3to9hxaowdAm4UT29OCcBq2aOx4LtJ6C0cYCvbyBGh63D8Ps8NBushcD6Z9sSvBm2DrFpKqiLStBh0IdYMy8UnmUuWow+thkjRs+8IbBCJiL8xwnw4k9SEiABsyRAgWWWYb/1TVNg3TpDjkACJEACJEACJHAzAQos4xNYKSkpiImJQXZODlycnREQECCPAopWWFgojwkqlUopqMTv4rOExETExsbKr3m4u6NZ8+awtankmN5t+AYpUCVh5ojH8P3xtNL6SwprR3To+QSe6hyEK6cOYtPuv5BfoivOroRj+5EI3zkdujv7NsweiplfH4P2oj/4PjgOK94Phb+TFQrzcxB3fBNen7IWMfVSA0sLKWIFuj2zBHF5ulkB11bd8dqYYbgroAmu/LEFYSt3IDVXM6lCaYPeEz/B6on9Simr407i1Zdexa/nNTcjimbt3hxDR7yMXve3RHH8CXyzbAUOXci88XWPAdgS/hnaC3cnWi0EVnrEbjw9/G1cSVdrnlVYoU2PQZj0ykC4WakRcyocX6z4Fud0Rg2WaPvmDuwd2/o2vBmckgRIwBAIUGAZQhSMcA0UWEYYNC6ZBEiABEiABAycAAWWJkCGegth+ddHFHQXdbCEjBLF2D083NE0sKmUVbm5uUhJTUFGeoash+Xu7g5XV1d5TFDcZHjp8iV57FAUb7+j1R1wsNev6HjDv8LFiPpjE14YNQdX88oYpiomtvdsh1nLl+PZTuImP02L+uVLDB7/MZJVmuwqUSzLzsUD/p7OyEqNR2JaDkqgkHWcirQi7JYysOQcRdi1aAKmrzqAnJqXDfe7B2Ptsndxl19Z7oW4euQrvDpuPi7qUtCqAW7t3R7vrvgCw+/RZl+JvrUQWCjKxJElkzFm2a/QlruvNrxN7nwSmzYuRGudLGv4l4EzkAAJGBgBCiwDC4ixLIcCy1gixXWSAAmQAAmQgPEQoMDSxMpYBJbIoBJrjU+IhwIK+IrjgL6+SEtLQ0JigpRYRYVFENcUWltZwcnJCR4eHrC3t5d1sLKzs+WNg61DQuDs5CRvIzSUln9pMwaFvoezacU33YR3Y30KKK3cMe2bnzG6i0u5ZavxZ9hQPL/6JIpLM7XKPKlQ4t7BY3HnpX346t9L8gu3LrBE+a08hIe9gFfXHkdRsS5DrNzSFArYhjyJbZsXoE0VzjDxzA6Menk6ziYWVLl3SzsXvLH4O4x9pOXNtexrI7C0S9s7fzimrv4TedWs2SWgC1Z+vQL3N3cylFeE6yABErgNBCiwbgN0U5iSAssUosg9kAAJkAAJkIBhEaDAMi6BJTKphMBKSU2FhYUSjg6OMvtKHCfMz8uT8kPcTiccjqiFJY4QipsKHR0dkJWVDZVKJZ8LDAiEp6enwdTB0n1XZF4/hx1b9+L0+fO4GJ2APFEkXWkH34DmuKNdBzz21FO4K6AqoZKPf/Z8h52H/8a5C1eQJT2eA4LatMGdDz2NkY8F49+Nm/BrdJKczsLKBgNHTUaIu272GHw3bz0itf/p2KILxj3TE1YWNUu+6OM/Y8vPv+P8+UuISc6EyAOztHVCQPNWCLnrPjwzsC/8Xao7slkC1fUz2LBxNy5cvYKIK3FaEWcFr8DmCG7VDj3/E4rudzhXvOkw+yK++GwLNLsC3II7YvhT/eBoXc3PmkIVTh7dgz3hJ3D50kVcz9Cmf9m64o4WLRB8VxcMerI/Ap1596Bh/cTmakig8QlQYDU+c5OYkQLLJMLITZAACZAACZCAQRGgwDIugSWOCIr6V0JGiewpnawSRwuFZhGyStTDEsXaRVZWQWGhMFnyGKEQWqKfkFoenh7w9/OXmVmG10pQmJ8HVV4+NAlCSljb2sHWxgrKGl1SCYoK1FCpclEkn7WAnYM9bKwaXsSUlBQhX6VCXoHmGKNCaQEbO83cNS67TBAK83ORnZuv/UQBK1s72NlY67H32keypLgQeSoV8rW3KUJpCXs7O1g3Aq/ar5ZPkAAJ3A4CFFi3g7oJzEmBZQJB5BZIgARIgARIwMAIGLrAioyMRFJyEoqLS+DgYA97u4YRLjkqlcxOEkLIy9MLQUFBUvoYWrt+/bqsf5Wv1hbhFnpHoYCNjY0UV+KXkFJFxcXIysyUmVri2GBRYeGNAukKhayDJfbo7Fzuqj5D2zDXQwIkQAIkcFsJUGDdVvzGOzkFlvHGjisnARIgARIgAUMlYMgCS1ewPC4+Dnl5uoyUhiVpa2sra0r5+PjITCVDaoLH1agoxMfpjpdBFmsXtazc3Nzg4uICsX6RmSWyrUQWlpBymVlZSIiPR15+vvxcZAMpLZRodUcr+Zwh1cEyJN5cCwmQAAmQAECBxbegTgQosOqEjQ+RAAmQAAmQAAlUQ8CQBZaQLaIoeWJioswkUquFgGmYcIpa5jbWNvLmPlEbShzFMySxI1io1WpcuXoVycnJsNDWtnJ1c4VrE1eZdSVkVvkmnhPHCDMy0pGenoGMjAzJUWS0tWjRAl6enpU+1zCUOSoJkAAJkICxEaDAMraIGch6KbAMJBBcBgmQAAmQAAmYEAFDFlg6zEJiieLl4ga+BvJXMitJ3M7n4OAg5ZWhNSGi0tPTZf0rIbJ0xwXFLYOiiHtNTScDhcBKTU1FZlYmvL284e/vL48fspEACZAACZBAZQQosPhe1IkABVadsPEhEiABEiABEiCBaggYg8BiADU3CianpCArKxN2tnZwdXWV4qk2WWK6Y4WiJlZWVpY8Yujl5WWghdwZdRIgARIgAUMgQIFlCFEwwjVQYBlh0LhkEiABEiABEjBwAhRYBh4g7fJ0GVTid1Hn6lYLzAt5JQrXi7GsrayMAwJXSQIkQAIk0OgEKLAaHblpTEiBZRpx5C5IgARIgARIwJAIUGAZUjS4FhIgARIgARIwLAIUWIYVD6NZDQWW0YSKCyUBEiABEiABoyFAgWU0oeJCSYAESIAESKDRCVBgNTpy05iQAss04shdkAAJkAAJkIAhEaDAMqRocC0kQAIkQAIkYFgEKLAMKx5GsxoKLKMJFRdKAiRAAiRAAkZDgALLaELFhZIACZAACZBAoxOgwGp05KYxIQWWacSRuyABEiABEiABQyJAgWVI0eBaSIAESIAESMCwCFBgGVY8jGY1FFhGEyoulARIgARIgASMhgAFltGEigslARIgARIggUYnQIHV6MhNY0IKLNOII3dBAiRAAiRAAoZEgALLkKLBtZAACZAACZCAYRGgwDKseBjNaiiwjCZUXCgJkAAJkAAJGA0BCiyjCRUXSgIkQAIkQAKNToACq9GRm8aEFFimEUfuggRIgARIgAQMiQAFliFFg2shARIgARIgAcMiQIFlWPEwmtVQYBlNqLhQEiABEiABEjAaAhRYRhMqLpQESIAESIAEGp3A/wN+uvvR6iRa5QAAAABJRU5ErkJggg==;" parent="1" vertex="1">
          <mxGeometry x="570" y="320" width="182.57" height="110" as="geometry" />
        </mxCell>
        <mxCell id="PQkRThv6WTqRLkvPn96M-3" value="POP3 Server/IMAP Server" style="text;html=1;align=center;verticalAlign=middle;resizable=0;points=[];autosize=1;strokeColor=none;fillColor=#f5f5f5;fontColor=#333333;rounded=1;" parent="1" vertex="1">
          <mxGeometry x="576.2900000000001" y="240" width="170" height="30" as="geometry" />
        </mxCell>
        <mxCell id="PQkRThv6WTqRLkvPn96M-4" value="mailbox" style="text;html=1;align=center;verticalAlign=middle;resizable=0;points=[];autosize=1;strokeColor=none;fillColor=#f5f5f5;fontColor=#333333;rounded=1;" parent="1" vertex="1">
          <mxGeometry x="631.28" y="200" width="60" height="30" as="geometry" />
        </mxCell>
        <mxCell id="PQkRThv6WTqRLkvPn96M-5" value="MTA&lt;div&gt;&lt;i&gt;Post office(Gmail)&lt;/i&gt;&lt;/div&gt;" style="text;html=1;align=center;verticalAlign=middle;resizable=0;points=[];autosize=1;strokeColor=none;fillColor=#f5f5f5;fontColor=#333333;rounded=1;" parent="1" vertex="1">
          <mxGeometry x="601.29" y="30" width="120" height="40" as="geometry" />
        </mxCell>
        <mxCell id="PQkRThv6WTqRLkvPn96M-6" value="MDA" style="text;html=1;align=center;verticalAlign=middle;resizable=0;points=[];autosize=1;strokeColor=none;fillColor=#f5f5f5;fontColor=#333333;rounded=1;" parent="1" vertex="1">
          <mxGeometry x="636.28" y="160" width="50" height="30" as="geometry" />
        </mxCell>
        <mxCell id="PQkRThv6WTqRLkvPn96M-7" value="MTA&lt;div&gt;&lt;i&gt;Post office(Yahoo)&lt;/i&gt;&lt;/div&gt;" style="text;html=1;align=center;verticalAlign=middle;resizable=0;points=[];autosize=1;strokeColor=none;fillColor=#f5f5f5;fontColor=#333333;rounded=1;" parent="1" vertex="1">
          <mxGeometry x="231.28999999999996" y="30" width="120" height="40" as="geometry" />
        </mxCell>
        <mxCell id="PQkRThv6WTqRLkvPn96M-9" value="MSA" style="text;html=1;align=center;verticalAlign=middle;resizable=0;points=[];autosize=1;strokeColor=none;fillColor=#f5f5f5;fontColor=#333333;rounded=1;" parent="1" vertex="1">
          <mxGeometry x="266.28999999999996" y="90" width="50" height="30" as="geometry" />
        </mxCell>
        <mxCell id="PQkRThv6WTqRLkvPn96M-10" style="edgeStyle=orthogonalEdgeStyle;rounded=0;orthogonalLoop=1;jettySize=auto;html=1;entryX=-0.032;entryY=0.5;entryDx=0;entryDy=0;entryPerimeter=0;dashed=1;" parent="1" source="PQkRThv6WTqRLkvPn96M-7" target="PQkRThv6WTqRLkvPn96M-5" edge="1">
          <mxGeometry relative="1" as="geometry" />
        </mxCell>
        <mxCell id="PQkRThv6WTqRLkvPn96M-11" value="SMTP&lt;div&gt;TCP 25&lt;/div&gt;" style="edgeLabel;html=1;align=center;verticalAlign=middle;resizable=0;points=[];" parent="PQkRThv6WTqRLkvPn96M-10" connectable="0" vertex="1">
          <mxGeometry x="-0.1915" relative="1" as="geometry">
            <mxPoint as="offset" />
          </mxGeometry>
        </mxCell>
        <mxCell id="PQkRThv6WTqRLkvPn96M-12" style="edgeStyle=orthogonalEdgeStyle;rounded=0;orthogonalLoop=1;jettySize=auto;html=1;exitX=0.509;exitY=0.033;exitDx=0;exitDy=0;entryX=0.508;entryY=0.956;entryDx=0;entryDy=0;entryPerimeter=0;exitPerimeter=0;" parent="1" source="O82eEZcVrko_JJIHH3op-1" target="PQkRThv6WTqRLkvPn96M-9" edge="1">
          <mxGeometry relative="1" as="geometry">
            <mxPoint x="291.2850000000001" y="320" as="sourcePoint" />
          </mxGeometry>
        </mxCell>
        <mxCell id="PQkRThv6WTqRLkvPn96M-13" value="SMTP&lt;div&gt;TCP 587&lt;/div&gt;&lt;div&gt;&lt;i&gt;(Envelope)&lt;/i&gt;&lt;/div&gt;" style="edgeLabel;html=1;align=center;verticalAlign=middle;resizable=0;points=[];" parent="PQkRThv6WTqRLkvPn96M-12" connectable="0" vertex="1">
          <mxGeometry x="-0.023" y="-3" relative="1" as="geometry">
            <mxPoint y="1" as="offset" />
          </mxGeometry>
        </mxCell>
        <mxCell id="PQkRThv6WTqRLkvPn96M-14" style="edgeStyle=orthogonalEdgeStyle;rounded=0;orthogonalLoop=1;jettySize=auto;html=1;entryX=0.5;entryY=1;entryDx=0;entryDy=0;entryPerimeter=0;" parent="1" source="PQkRThv6WTqRLkvPn96M-9" target="PQkRThv6WTqRLkvPn96M-7" edge="1">
          <mxGeometry relative="1" as="geometry" />
        </mxCell>
        <mxCell id="PQkRThv6WTqRLkvPn96M-17" style="edgeStyle=orthogonalEdgeStyle;rounded=0;orthogonalLoop=1;jettySize=auto;html=1;entryX=0.514;entryY=-0.033;entryDx=0;entryDy=0;entryPerimeter=0;" parent="1" source="PQkRThv6WTqRLkvPn96M-5" target="PQkRThv6WTqRLkvPn96M-6" edge="1">
          <mxGeometry relative="1" as="geometry" />
        </mxCell>
        <mxCell id="PQkRThv6WTqRLkvPn96M-18" style="edgeStyle=orthogonalEdgeStyle;rounded=0;orthogonalLoop=1;jettySize=auto;html=1;entryX=0.512;entryY=0.033;entryDx=0;entryDy=0;entryPerimeter=0;" parent="1" source="PQkRThv6WTqRLkvPn96M-6" target="PQkRThv6WTqRLkvPn96M-4" edge="1">
          <mxGeometry relative="1" as="geometry">
            <Array as="points">
              <mxPoint x="661" y="180" />
              <mxPoint x="662" y="180" />
            </Array>
          </mxGeometry>
        </mxCell>
        <mxCell id="PQkRThv6WTqRLkvPn96M-19" style="edgeStyle=orthogonalEdgeStyle;rounded=0;orthogonalLoop=1;jettySize=auto;html=1;entryX=0.501;entryY=-0.004;entryDx=0;entryDy=0;entryPerimeter=0;exitX=0.503;exitY=0.994;exitDx=0;exitDy=0;exitPerimeter=0;" parent="1" source="PQkRThv6WTqRLkvPn96M-4" target="PQkRThv6WTqRLkvPn96M-3" edge="1">
          <mxGeometry relative="1" as="geometry" />
        </mxCell>
        <mxCell id="PQkRThv6WTqRLkvPn96M-20" style="edgeStyle=orthogonalEdgeStyle;rounded=0;orthogonalLoop=1;jettySize=auto;html=1;entryX=0.5;entryY=0;entryDx=0;entryDy=0;" parent="1" source="PQkRThv6WTqRLkvPn96M-3" target="PQkRThv6WTqRLkvPn96M-2" edge="1">
          <mxGeometry relative="1" as="geometry" />
        </mxCell>
        <mxCell id="PQkRThv6WTqRLkvPn96M-22" value="Dovecot&lt;span style=&quot;white-space: pre;&quot;&gt;&#x9;  &lt;/span&gt;" style="rounded=0;whiteSpace=wrap;html=1;fillColor=none;opacity=50;strokeColor=#808080;align=right;" parent="1" vertex="1">
          <mxGeometry x="560" y="150" width="270" height="130" as="geometry" />
        </mxCell>
        <mxCell id="O82eEZcVrko_JJIHH3op-1" value="&lt;div&gt;&lt;i&gt;(Outlook App)&lt;/i&gt;&lt;/div&gt;MUA" style="text;html=1;align=center;verticalAlign=middle;resizable=0;points=[];autosize=1;strokeColor=none;fillColor=#f5f5f5;fontColor=#333333;rounded=1;" parent="1" vertex="1">
          <mxGeometry x="241.28999999999996" y="390" width="100" height="40" as="geometry" />
        </mxCell>
      </root>
    </mxGraphModel>
  </diagram>
</mxfile>
